<svg width="1353" height="1344" viewBox="0 0 1353 1344" fill="none" xmlns="http://www.w3.org/2000/svg">
<path d="M1017.33 108.198C1012.95 85.9911 1005.92 69.4545 977.398 89.2988C977.398 89.2988 977.146 67.3014 967.052 58.6159C956.959 49.9303 893.188 11.2316 890.748 74.8334C890.748 74.8334 889.578 125.929 889.578 138.686C889.578 151.442 908.057 194.659 923.417 194.659C928.198 194.542 932.925 193.627 937.404 191.951C935.284 210.028 929.673 227.522 920.88 243.461L1015.24 225.06C1015.24 225.06 998.308 198.738 995.345 147.03C1008.6 135.14 1020.33 123.356 1017.33 108.198Z" fill="#FFDDDD"/>
<path d="M1044.18 87.0827C1035.33 49.5485 1022.74 -4.31084 946.576 0.933697C913.278 3.22659 893.996 17.591 884.602 33.799L884.591 33.7861C884.591 33.7861 867.954 51.7459 877.385 117.877C883.685 162.051 876.683 174.794 858.899 209.804C873.589 227.326 903.009 231.797 926.432 232.287C932.029 219.445 935.725 205.857 937.404 191.951C932.926 193.627 928.198 194.542 923.417 194.659C908.057 194.659 889.578 151.442 889.578 138.686C889.578 126.881 890.579 82.2791 890.729 75.681C895.348 69.8377 901.864 61.0354 904.576 54.6865C904.576 54.6865 910.545 80.0735 946.576 89.4884C965.739 94.4958 968.058 112.211 974.319 110.632C976.831 109.999 977.359 92.0914 993.157 89.4884C1008.95 86.8855 1024.03 110.209 1013.91 124.451C1008.47 132.348 1002.16 139.616 995.116 146.123C995.116 146.123 998.303 193.701 1012.82 220.687C1012.82 220.687 1067.81 220.687 1104.9 168.213C1071.31 153.456 1049.63 110.247 1044.18 87.0827Z" fill="#A2003F"/>
<g style="mix-blend-mode:overlay" opacity="0.6">
<path d="M937.404 191.951C937.404 191.951 958.896 182.559 974.152 168.191C974.65 183.556 969.354 198.547 959.312 210.194C951.408 219.091 939.035 221.675 930.352 222.263C933.86 212.463 936.226 202.292 937.404 191.951Z" fill="#030F1C"/>
</g>
<path d="M1059.67 183.49C1059.54 183.49 1059.42 183.466 1059.31 183.419C1049.5 179.359 1041.75 168.91 1036.89 153.204C1034.65 145.843 1033.17 138.272 1032.47 130.61C1032.44 130.1 1032.82 129.659 1033.34 129.624C1033.85 129.589 1034.29 129.971 1034.33 130.481C1034.36 130.899 1037.49 172.37 1060.02 181.699C1060.43 181.869 1060.67 182.305 1060.58 182.741C1060.49 183.177 1060.11 183.49 1059.67 183.49V183.49Z" fill="white"/>
<path d="M967.052 59.5473C966.663 59.5473 966.314 59.305 966.179 58.9399C959.386 40.6094 933.626 32.1265 933.367 32.0429C933.048 31.9419 932.809 31.6785 932.738 31.3525C932.667 31.0264 932.776 30.6875 933.024 30.4639C933.272 30.2404 933.621 30.1664 933.938 30.2699C935.032 30.6219 960.816 39.1074 967.926 58.2926C968.032 58.5783 967.991 58.8977 967.817 59.1479C967.643 59.398 967.357 59.5472 967.052 59.5473Z" fill="white"/>
<path d="M1004.49 103.292C999.996 101.773 995.657 105.849 992.374 110.458L992.365 110.47C990.103 113.736 988.168 117.216 986.585 120.859C986.386 121.333 986.609 121.879 987.083 122.078C987.557 122.277 988.104 122.055 988.303 121.581C989.779 118.156 991.585 114.882 993.696 111.808C995.62 111.473 997.601 111.835 999.282 112.83C1000.95 114.071 1002.02 115.959 1002.21 118.028C1002.29 118.477 1002.68 118.807 1003.13 118.808C1003.18 118.808 1003.24 118.804 1003.29 118.795C1003.53 118.755 1003.75 118.619 1003.89 118.419C1004.03 118.218 1004.09 117.968 1004.05 117.725C1003.78 115.138 1002.42 112.791 1000.3 111.273C998.773 110.303 996.99 109.806 995.178 109.842C997.895 106.475 1001 104.071 1003.89 105.056C1004.37 105.219 1004.9 104.958 1005.07 104.472C1005.23 103.986 1004.97 103.458 1004.49 103.292L1004.49 103.292Z" fill="#0B122D"/>
<path d="M935.872 193.419C935.432 193.419 935.052 193.111 934.96 192.681C934.869 192.251 935.091 191.815 935.494 191.637C935.808 191.498 967.027 177.541 980.205 160.669C980.41 160.406 980.739 160.272 981.069 160.318C981.4 160.364 981.68 160.583 981.805 160.892C981.929 161.201 981.879 161.553 981.674 161.815C968.207 179.057 937.547 192.764 936.249 193.339C936.13 193.392 936.002 193.419 935.872 193.419Z" fill="#0B122D"/>
<path d="M938.151 101.434C936.364 101.037 934.542 100.817 932.712 100.779C930.749 100.779 929.158 103.394 929.158 106.619C929.158 109.845 930.749 112.459 932.712 112.459C934.675 112.459 936.266 109.845 936.266 106.619C936.292 105.204 935.946 103.806 935.263 102.565C936.69 102.612 938.107 102.827 939.483 103.206C940.816 103.592 940.907 102.077 938.151 101.434Z" fill="#161B36"/>
<path d="M902.634 103.861C900.984 103.493 899.303 103.277 897.613 103.217C897.591 103.216 897.57 103.206 897.548 103.206C897.533 103.206 897.519 103.213 897.504 103.213C897.322 103.208 897.196 103.206 897.196 103.206L897.179 103.267C895.393 103.575 893.995 106.028 893.995 109.046C893.995 112.271 895.586 114.886 897.548 114.886C899.511 114.886 901.102 112.271 901.102 109.046C901.127 107.636 900.784 106.244 900.107 105.007C901.413 105.076 902.707 105.285 903.967 105.633C905.299 106.019 905.391 104.504 902.634 103.861Z" fill="#161B36"/>
<g style="mix-blend-mode:overlay" opacity="0.6">
<path d="M910.802 145.216C909.005 145.282 907.222 144.868 905.638 144.017C904.598 143.437 903.873 142.421 903.664 141.25C903.278 138.822 905.762 135.065 908.799 130.767C909.572 129.74 910.28 128.665 910.919 127.55C911.538 126.228 911.361 114.172 910.833 103.279L912.693 103.188C912.877 106.965 913.732 125.93 912.607 128.339C911.928 129.558 911.165 130.729 910.322 131.841C908.408 134.549 905.207 139.08 905.505 140.957C905.63 141.592 906.038 142.135 906.613 142.432C909.289 143.578 912.299 143.672 915.04 142.693L915.612 144.465C914.057 144.96 912.435 145.213 910.802 145.216Z" fill="#030F1C"/>
</g>
<path d="M925.231 79.2309C926.859 78.3221 928.826 77.8582 933.552 79.828C938.277 81.7971 944.017 88.8746 942.002 89.4835C939.982 90.0946 936.531 84.4671 932.266 84.4637C928.005 84.4574 925.442 84.7798 924.415 83.6181C923.12 82.1591 924.449 79.6676 925.231 79.2309Z" fill="#161B36"/>
<path d="M900.961 80.6382C899.171 80.1195 897.152 80.1067 892.988 83.0862C888.823 86.0656 884.82 94.2462 886.922 94.3887C889.024 94.5313 891.126 88.2756 895.282 87.3128C899.433 86.3506 902.001 86.0916 902.741 84.732C903.678 83.016 901.825 80.89 900.961 80.6382" fill="#161B36"/>
<path d="M938.141 164.65C937.876 170.472 931.463 174.897 923.831 174.55C921.531 174.455 919.273 173.903 917.19 172.925C913.008 170.946 910.28 167.355 910.461 163.393C910.725 157.57 917.138 153.146 924.789 153.493C931.509 153.798 936.964 157.719 937.972 162.629C938.113 163.293 938.17 163.972 938.141 164.65Z" fill="#161B36"/>
<path d="M938.141 164.65C937.876 170.472 931.463 174.897 923.831 174.55C921.531 174.455 919.273 173.903 917.19 172.925C919.409 170.062 927.101 161.297 937.972 162.629C938.113 163.293 938.17 163.972 938.141 164.65Z" fill="#E55151"/>
<path fill-rule="evenodd" clip-rule="evenodd" d="M1080.08 1173.73L1082.59 1277.43C1082.59 1277.43 1099.44 1322.52 1099.43 1326.92C1099.38 1343.57 1043.82 1342.06 1041.78 1327.77C1041.47 1325.6 1046.34 1279.34 1046.34 1279.34L1034.32 1177.4L1080.08 1173.73ZM851.581 1220.4L889.441 1226.39C889.441 1226.39 889.227 1278.02 889.386 1283.22C889.432 1284.72 889.705 1287.69 890.053 1291.48C891.323 1305.31 893.588 1329.96 889.37 1332.64C883.412 1336.43 869.747 1336.18 857.434 1335.95C851.242 1335.84 845.392 1335.73 841.037 1336.15C837.46 1336.49 833.21 1337.11 828.473 1337.8C808.711 1340.68 780.471 1344.81 757.228 1335.08C756.609 1326.05 764.616 1320.78 780.311 1319.42C807.937 1317.03 826.284 1308.25 839.717 1288.21C849.262 1273.97 851.581 1220.4 851.581 1220.4Z" fill="#FFDDDD"/>
<path fill-rule="evenodd" clip-rule="evenodd" d="M1086.71 1320.83C1088.5 1328.88 1053.09 1326.4 1052.71 1323.19C1052.1 1317.91 1052.47 1310.21 1052.91 1301.05C1053.36 1291.61 1053.88 1280.62 1053.49 1269.12C1053.35 1264.93 1074.54 1264.1 1074.87 1269.12C1076.17 1289.13 1080.86 1302.88 1084.05 1312.2C1085.22 1315.65 1086.19 1318.49 1086.71 1320.83ZM1096.08 1305.75L1096.08 1305.75C1100.69 1315.01 1105.62 1324.9 1107.24 1333.51C1107.75 1335.54 1107.94 1337.64 1107.79 1339.73L1107.79 1339.73C1107.79 1339.74 1107.79 1339.74 1107.79 1339.75C1107.79 1339.75 1107.79 1339.76 1107.79 1339.76L1107.78 1339.76C1107.77 1341.77 1106.13 1343.4 1104.12 1343.4H1040.2C1038.7 1343.4 1037.36 1342.49 1036.8 1341.1L1036.73 1341.1C1036.73 1341.04 1036.73 1340.96 1036.73 1340.89C1036.6 1340.51 1036.53 1340.12 1036.53 1339.73C1036.53 1339.73 1036.8 1332.45 1037.64 1325.4C1038.3 1318.78 1039.4 1309.99 1041.23 1298.41C1041.69 1294 1043.2 1289.76 1045.64 1286.05C1044.3 1298.95 1041.54 1326.12 1041.78 1327.77C1043.82 1342.06 1099.38 1343.57 1099.43 1326.92C1099.44 1323.46 1089.01 1294.82 1084.56 1282.76C1086.26 1284.98 1088.12 1289.01 1090.31 1293.76L1090.31 1293.76C1091.28 1295.86 1092.32 1298.11 1093.43 1300.4C1094.28 1302.15 1095.17 1303.93 1096.07 1305.74L1096.07 1305.74L1096.08 1305.75ZM785.28 1322.09C807.951 1320.42 839.956 1304.76 846.624 1287.77C853.291 1270.78 843.623 1269.12 843.623 1269.12C829.621 1318.42 761.943 1317.42 761.943 1317.42C761.276 1321.42 762.61 1323.75 785.28 1322.09ZM877.629 1290.77C882.963 1270.45 893.632 1272.12 893.632 1272.12C890.292 1285.54 892.109 1296.8 893.582 1305.93C894.216 1309.86 894.787 1313.39 894.854 1316.54C895.118 1321.86 894.707 1327.19 893.632 1332.42V1343.41H848.969V1337.91C839.89 1337.91 828.756 1339.26 817.521 1340.62C806.081 1342.01 794.535 1343.41 784.947 1343.41C774.05 1343.3 763.249 1341.37 752.996 1337.68C752.374 1337.45 751.875 1336.97 751.622 1336.36C751.369 1335.74 751.385 1335.05 751.665 1334.45V1334.45C752.197 1333.31 753.529 1332.78 754.7 1333.25C776.345 1341.57 799.482 1338.58 820.619 1335.08C832.88 1333.35 845.244 1332.46 857.626 1332.42C866.627 1326.42 872.294 1311.09 877.629 1290.77Z" fill="#6E35AA"/>
<path fill-rule="evenodd" clip-rule="evenodd" d="M844.29 1284.12V1277.77C844.29 1277.22 844.734 1276.78 845.281 1276.78H884.963V1285.11H845.281C844.734 1285.11 844.29 1284.66 844.29 1284.12ZM835.834 1294.03L839.152 1290.86C839.43 1290.59 839.814 1290.47 840.196 1290.52C840.578 1290.56 840.918 1290.78 841.119 1291.11C852.141 1309.58 849.084 1332.97 849.084 1332.97L843.08 1333.25C844.898 1311.12 837.823 1298.83 835.653 1295.64C835.311 1295.13 835.388 1294.45 835.834 1294.03ZM1092.08 1299.6C1088.48 1294.63 1082.83 1291.54 1076.7 1291.21L1077.57 1294.92C1084.28 1294.71 1090.95 1300.69 1092.87 1302.41C1093.17 1302.68 1093.36 1302.84 1093.41 1302.86C1093.76 1303 1092.08 1299.6 1092.08 1299.6ZM1056.74 1291.21V1294.92C1049.99 1294.71 1044.72 1300.69 1043.2 1302.41C1042.96 1302.68 1042.82 1302.84 1042.77 1302.86C1042.45 1303 1043.34 1299.6 1043.34 1299.6C1045.96 1294.59 1051.08 1291.38 1056.74 1291.21ZM1041.98 1310.85C1041.98 1310.85 1040.94 1314.84 1041.31 1314.68C1045.35 1309.52 1051.25 1306.16 1057.75 1305.33V1300.97C1057.75 1300.97 1046.88 1300.94 1041.98 1310.85ZM1040.89 1321.68C1040.89 1321.68 1039.78 1325.95 1040.19 1325.78C1040.24 1325.76 1040.41 1325.55 1040.67 1325.21C1042.41 1322.99 1048.54 1315.18 1057.75 1315.79V1311.13C1050.76 1311.75 1044.5 1315.67 1040.89 1321.68ZM1099.71 1321.68C1090.44 1311.21 1080.37 1311.13 1080.37 1311.13L1081.47 1315.79C1090.53 1315.18 1098.5 1322.99 1100.75 1325.21L1100.76 1325.21C1101.1 1325.55 1101.32 1325.76 1101.38 1325.78C1101.82 1325.95 1099.71 1321.68 1099.71 1321.68ZM1077.99 1300.97C1085.2 1301.38 1091.84 1305 1096.08 1310.85C1096.08 1310.85 1098.06 1314.84 1097.64 1314.68C1092.59 1309.66 1086.06 1306.38 1079.01 1305.33L1077.99 1300.97ZM821.276 1306.16L817.178 1308.06C816.712 1308.28 816.506 1308.83 816.716 1309.3C820.021 1317.47 821.358 1326.3 820.619 1335.08L827.18 1334.43C827.18 1334.43 827.598 1317.13 822.534 1306.59C822.303 1306.12 821.743 1305.93 821.276 1306.16ZM796.406 1316.34L799.805 1314.94C800.126 1314.81 800.487 1314.82 800.798 1314.98C801.108 1315.13 801.339 1315.41 801.433 1315.74C803.553 1323.01 804.698 1330.53 804.839 1338.11L798.229 1338.8C798.332 1331.71 797.482 1324.64 795.702 1317.77C795.538 1317.18 795.841 1316.57 796.406 1316.34ZM781.29 1319.42H776.167C775.932 1319.42 775.706 1319.52 775.539 1319.68C775.372 1319.85 775.279 1320.07 775.279 1320.31V1338.21L782.179 1338.8V1320.31C782.178 1320.07 782.085 1319.85 781.918 1319.68C781.752 1319.52 781.526 1319.42 781.29 1319.42Z" fill="#F47D7D"/>
<path d="M1088.91 767.552C1094.34 738.483 1101.84 691.294 1095.22 647.634C1086.83 592.157 1071.28 578.693 1061.68 525.972C1003.62 500.879 926.369 499.228 865.849 530.395C844.574 692.946 833.03 825.739 832.43 848.462C831.983 865.377 808.752 1179.44 795.379 1249.61C791.926 1267.73 896.952 1263.17 905.962 1251.26C917.717 1235.73 941.105 965.601 948.663 893.773C956.279 859.717 964.823 767.21 964.823 767.21C964.823 767.21 967.448 798.521 978.956 869.233C995.449 970.573 1019.98 1261.58 1019.98 1261.58C1022.85 1263.18 1087.35 1266.51 1097.81 1256.05C1113.34 1240.53 1080.35 813.373 1088.91 767.552Z" fill="#606060"/>
<g style="mix-blend-mode:overlay" opacity="0.6">
<path d="M840.488 750.942C840.488 750.942 858.041 758.372 858.867 783.141C859.694 807.909 853.708 949.915 849.678 1008.53C845.648 1067.15 833.751 1089.41 813.261 1091.91L840.488 750.942Z" fill="white"/>
</g>
<g style="mix-blend-mode:overlay" opacity="0.6">
<path d="M973.899 837.026C987.228 844.063 991.887 849.19 997.67 878.086C1003.45 906.983 1031.26 1059.72 1023.56 1084.49C1015.85 1109.26 1006.21 1109.23 1006.21 1109.23C1006.21 1109.23 988.166 918.081 973.899 837.026Z" fill="white"/>
</g>
<g style="mix-blend-mode:overlay" opacity="0.6">
<path d="M964.822 767.209L937.833 653.357C937.833 653.357 915.292 704.415 917.732 744.033C920.172 783.651 938.803 815.546 952.604 871.92L964.822 767.209Z" fill="#030F1C"/>
</g>
<g style="mix-blend-mode:overlay" opacity="0.6">
<path d="M865.849 530.395L862.198 558.742C862.198 558.742 936.92 601.387 1075.61 579.41C1075.61 579.41 1063.59 543.476 1061.68 525.972L865.849 530.395Z" fill="#030F1C"/>
</g>
<path d="M885.31 241.092C885.31 241.092 874.342 245.103 872.311 260.971C865.469 314.44 852.611 354.288 851.212 370.638C849.322 392.724 855.503 402.774 862.019 419.246C868.562 435.786 872.491 474.113 863.741 532.239C863.07 536.471 864.717 540.737 868.057 543.423C900.18 568.659 1029.1 559.658 1060.56 538.498C1063.84 536.226 1065.39 532.177 1064.47 528.296C1058.7 502.803 1045.41 446.065 1056.83 389.482C1067.6 336.161 1066.06 236.166 1059.55 233.755C1047.96 229.465 1024.34 223.355 1024.34 223.355C1024.34 223.355 1002.14 258.338 952.01 261.451C915.635 263.71 917.709 230.039 917.709 230.039L885.31 241.092Z" fill="#6E35AA"/>
<path fill-rule="evenodd" clip-rule="evenodd" d="M1159.55 364.092L1246.41 264.524C1246.41 264.524 1252.35 292.032 1286.59 292.032C1281.57 300.606 1260.87 330.213 1244.09 354.21C1233.64 369.153 1224.71 381.92 1222.04 386.078C1173.34 461.912 1155.9 464.691 1124.83 435.604C1103.96 416.073 1082.74 390.49 1060.99 361.757C1059.89 371.766 1058.51 381.189 1056.84 389.483C1045.41 446.065 1074.92 551.876 1082.85 576.782C1083.15 577.703 1083.49 578.634 1083.83 579.575C1085.74 584.771 1087.76 590.277 1082.39 596.068C1072.19 607.066 1047.66 609.413 1018.52 612.201C1005.77 613.422 992.129 614.727 978.421 616.879C979.398 593.314 979 520.6 978.658 458.168C978.425 415.645 978.218 377.893 978.489 363.688C987.235 274.976 1016.43 221.233 1016.43 221.233C1016.43 221.233 1037.62 226.766 1051.64 231.124C1080.77 236.648 1105.27 271.731 1124.63 306.445C1134.7 324.678 1143.71 343.478 1151.6 362.75C1152.22 364.268 1153.59 365.356 1155.2 365.629C1156.82 365.902 1158.47 365.321 1159.55 364.092ZM888.069 239.84L921.316 228.809C921.316 228.809 910.52 350.711 910.52 382.318C910.52 388.438 912.231 408.981 914.507 436.319C919.034 490.701 925.8 571.968 925.793 620.057C896.755 619.558 866.844 608.378 854.797 598.915C851.457 596.229 849.811 591.962 850.481 587.731C852.165 576.548 854.166 564.854 856.198 552.985C864.726 503.164 873.779 450.271 862.019 419.246C860.905 416.307 859.789 413.579 858.714 410.953C858.372 410.116 858.034 409.29 857.702 408.471C847.125 420.304 834.611 433.694 819.368 448.914C806.196 462.066 788.976 466.736 774.857 461.671C758.257 455.717 706.244 373.93 661.345 297.16C676.356 296.634 690.651 283.461 696.709 271.356C724.317 302.446 786.058 371.971 786.058 371.971C787.682 373.817 790.02 374.878 792.479 374.885C794.938 374.892 797.282 373.844 798.916 372.008C808.628 360.905 819.67 341.042 830.998 320.665C832.063 318.749 833.131 316.829 834.2 314.912C839.179 305.985 843.321 297.206 847.215 288.951C857.584 266.972 866.202 248.707 884.206 241.248C885.014 240.863 885.516 240.688 885.516 240.688L888.055 239.845L888.068 239.841L888.069 239.84Z" fill="#34AD82"/>
<g style="mix-blend-mode:overlay" opacity="0.6">
<path d="M844.729 325.83C841.229 334.614 835.954 346.184 824.36 365.129C812.782 384.075 797.846 399.427 779.077 383.647C763.919 370.891 744.659 343.73 738.894 336.007C733.129 328.299 738.894 319.071 738.894 319.071C764.22 347.561 786.062 371.966 786.062 371.966C787.686 373.811 790.023 374.872 792.482 374.881C794.94 374.89 797.285 373.846 798.923 372.014C809.535 359.859 821.763 337.225 834.196 314.909C835.448 312.645 836.683 310.398 837.855 308.134H837.871C837.871 308.134 848.245 317.061 844.729 325.83Z" fill="#DCE4EF"/>
</g>
<g style="mix-blend-mode:overlay" opacity="0.6">
<path d="M851.212 370.638C851.74 364.469 852.307 355.261 853.643 343.108C837.191 369.07 846.896 385.07 838.583 395.262C825.984 410.709 810.699 419.411 819.368 448.914C833.565 433.99 846.349 420.476 857.554 408.109C853.121 397.149 849.78 387.374 851.212 370.638Z" fill="#030F1C"/>
</g>
<path d="M784.26 403.46C783.942 403.461 783.655 403.271 783.531 402.978C783.407 402.686 783.47 402.347 783.691 402.119C793.009 392.516 791.604 379.311 791.589 379.178C791.565 378.97 791.625 378.76 791.755 378.596C791.886 378.432 792.076 378.326 792.285 378.302C792.494 378.275 792.705 378.333 792.871 378.464C793.036 378.594 793.142 378.786 793.163 378.996C793.89 387.879 790.868 396.661 784.829 403.219C784.68 403.374 784.475 403.461 784.26 403.46Z" fill="#0B122D"/>
<g style="mix-blend-mode:overlay" opacity="0.6">
<path d="M856.773 406.448C856.773 406.448 872.581 421.015 888.851 421.318C899.964 421.524 902.329 427.543 890.87 430.005C885.551 431.148 875.67 430.227 865.159 429.944C863.04 421.887 860.235 414.026 856.773 406.448H856.773Z" fill="#030F1C"/>
</g>
<g style="mix-blend-mode:overlay" opacity="0.6">
<path d="M1054.26 416.705C1053.86 397.913 1058.41 387.047 1061.04 361.818C1056.14 355.347 1051.22 348.726 1046.26 341.955C1046.48 358.97 1045.66 377.491 1042.07 389.482C1036.49 408.1 1014.31 417.601 999.309 420.175C976.382 424.108 979.399 433.522 1011.23 432.766C1030.84 432.3 1037.24 470.968 1037.11 494.22C1036.73 558.742 987.732 596.036 978.421 616.879C1020.26 609.349 1064.72 614.148 1082.39 596.068C1082.39 596.068 1089.36 591.547 1082.85 576.782C1079.61 569.431 1055.89 494.645 1054.26 416.705Z" fill="#030F1C"/>
</g>
<g style="mix-blend-mode:overlay" opacity="0.6">
<path d="M856.226 270.618C856.226 270.618 876.092 250.754 914.38 243.139L913.481 231.471C882.613 241.698 872.234 240.769 856.226 270.618Z" fill="white"/>
</g>
<path d="M850.342 375.449C849.857 375.449 849.455 375.077 849.415 374.595C848.9 368.369 856.445 317.118 856.765 314.94C856.814 314.611 857.035 314.332 857.345 314.21C857.655 314.087 858.006 314.139 858.267 314.346C858.528 314.553 858.659 314.883 858.61 315.213C858.53 315.744 850.775 368.427 851.271 374.442C851.292 374.688 851.214 374.932 851.054 375.121C850.895 375.309 850.666 375.426 850.42 375.446C850.394 375.448 850.369 375.449 850.342 375.449Z" fill="#0B122D"/>
<path d="M1162.54 394.235C1162.33 394.235 1162.12 394.148 1161.97 393.994C1155.93 387.436 1152.91 378.654 1153.64 369.772C1153.69 369.34 1154.08 369.031 1154.52 369.081C1154.95 369.132 1155.26 369.522 1155.21 369.955C1155.2 370.087 1153.79 383.292 1163.11 392.894C1163.33 393.122 1163.4 393.46 1163.27 393.753C1163.15 394.045 1162.86 394.235 1162.54 394.235L1162.54 394.235Z" fill="#0B122D"/>
<path d="M1052.1 348.349C1051.94 348.349 1051.78 348.3 1051.65 348.209C1029 332.494 1028.93 298.29 1028.93 297.947C1028.93 297.735 1029.01 297.531 1029.16 297.382C1029.31 297.233 1029.52 297.153 1029.73 297.16C1030.17 297.164 1030.52 297.52 1030.52 297.956C1030.52 298.292 1030.6 331.675 1052.55 346.907C1052.84 347.104 1052.96 347.464 1052.86 347.794C1052.75 348.125 1052.45 348.35 1052.1 348.349Z" fill="#0B122D"/>
<path fill-rule="evenodd" clip-rule="evenodd" d="M1344.82 183.441C1346.27 181.524 1352.02 180.951 1352.02 180.951C1352.02 180.951 1347.66 196.561 1348.72 210.213C1349.46 219.697 1346.28 225.313 1343.31 230.546C1342 232.847 1340.74 235.075 1339.87 237.524C1337.02 245.546 1330.44 254.962 1312.44 257.51C1301.52 259.056 1287.5 273.971 1274.87 290.811C1264.82 288.809 1256.03 282.746 1250.6 274.056L1270.84 250.875C1270.84 250.875 1272.04 244.151 1280.62 236.17C1287.25 229.996 1302.49 228.568 1309.04 228.238C1311.13 228.135 1313.17 227.512 1314.95 226.426L1324.86 220.401C1326.23 219.565 1327.11 218.114 1327.21 216.511C1327.7 210.863 1327.56 205.179 1326.81 199.561C1325.42 192.491 1332.5 191.105 1332.5 191.105L1336.26 220.147C1336.26 220.147 1338.13 197.869 1337.95 190.403C1337.74 188.518 1338.4 186.642 1339.73 185.292C1341.06 183.942 1342.93 183.262 1344.82 183.441ZM662.858 240.7C656.222 234.526 640.992 233.098 634.434 232.768C632.344 232.664 630.311 232.041 628.522 230.955L618.618 224.931C617.246 224.095 616.368 222.643 616.265 221.041C615.781 215.393 615.917 209.709 616.669 204.09C618.056 197.021 610.981 195.635 610.981 195.635L607.216 224.676C607.216 224.676 605.345 202.398 605.528 194.932C605.734 193.048 605.08 191.171 603.748 189.821C602.417 188.472 600.548 187.792 598.659 187.971C597.21 186.054 591.453 185.48 591.453 185.48C591.453 185.48 595.818 201.091 594.753 214.743C594.013 224.227 597.2 229.842 600.17 235.076C601.475 237.377 602.739 239.604 603.609 242.054C606.458 250.076 613.04 259.492 631.038 262.04C642.064 263.6 656.249 278.784 668.965 295.819C678.299 292.956 686.809 285.877 692.502 278.159L672.633 255.405C672.633 255.405 671.435 248.681 662.858 240.7ZM933.358 224.201L921.316 228.809C921.316 228.809 917.984 266.442 915.021 305.31C932.104 309.497 963.987 306.889 988.93 300.489C1000.75 250.135 1016.43 221.233 1016.43 221.233L1009.27 218.473L933.358 224.201Z" fill="#FFDDDD"/>
<path d="M599.243 189.91C599.255 189.7 599.182 189.495 599.042 189.339C598.902 189.183 598.706 189.088 598.496 189.077C598.285 189.059 598.076 189.129 597.918 189.27C597.76 189.412 597.667 189.612 597.662 189.824C597.607 190.85 596.326 215.005 598.12 220.961C598.202 221.231 598.422 221.438 598.697 221.502C598.973 221.567 599.262 221.48 599.455 221.273C599.649 221.067 599.718 220.774 599.636 220.503C597.922 214.812 599.231 190.157 599.243 189.91Z" fill="#0B122D"/>
<path d="M608.53 230.476C608.435 230.209 608.206 230.013 607.927 229.961C607.649 229.91 607.364 230.01 607.18 230.226C606.996 230.441 606.941 230.738 607.036 231.004C607.159 231.354 610.109 239.597 613.43 242.136C613.778 242.4 614.274 242.333 614.539 241.986C614.804 241.639 614.738 241.144 614.392 240.878C611.444 238.624 608.558 230.558 608.53 230.476Z" fill="#0B122D"/>
<path d="M649.528 243.309C631.986 242.416 618.451 226.514 618.315 226.353C618.033 226.021 617.535 225.978 617.201 226.258C616.867 226.538 616.822 227.035 617.1 227.371C617.668 228.047 631.204 243.961 649.448 244.889L649.488 244.891C649.917 244.89 650.268 244.548 650.279 244.12C650.29 243.691 649.957 243.331 649.528 243.309L649.528 243.309Z" fill="#0B122D"/>
<path d="M1345.82 185.294C1345.81 185.081 1345.72 184.88 1345.56 184.738C1345.4 184.596 1345.19 184.527 1344.98 184.547C1344.77 184.559 1344.58 184.653 1344.44 184.809C1344.3 184.966 1344.22 185.171 1344.23 185.381C1344.25 185.628 1345.55 210.283 1343.84 215.975C1343.78 216.176 1343.8 216.393 1343.9 216.577C1344 216.762 1344.17 216.9 1344.37 216.96C1344.45 216.982 1344.52 216.994 1344.6 216.994C1344.95 216.994 1345.26 216.764 1345.36 216.429C1347.15 210.476 1345.87 186.32 1345.82 185.294Z" fill="#0B122D"/>
<path d="M1335.96 225.464C1335.55 225.32 1335.1 225.535 1334.95 225.946C1334.92 226.028 1332.03 234.095 1329.09 236.348C1328.74 236.614 1328.67 237.111 1328.94 237.458C1329.2 237.805 1329.7 237.872 1330.05 237.606C1333.37 235.067 1336.32 226.824 1336.44 226.475C1336.59 226.062 1336.37 225.611 1335.96 225.464Z" fill="#0B122D"/>
<path d="M1325.16 221.824C1325.03 221.985 1311.49 237.886 1293.95 238.78C1293.52 238.802 1293.19 239.161 1293.2 239.59C1293.21 240.019 1293.56 240.361 1293.99 240.361L1294.03 240.359C1312.27 239.432 1325.81 223.518 1326.38 222.841C1326.66 222.506 1326.61 222.008 1326.28 221.727C1325.94 221.447 1325.44 221.49 1325.16 221.824L1325.16 221.824Z" fill="#0B122D"/>
<path d="M193 514C193 527.255 203.745 538 217 538C230.255 538 241 527.255 241 514C241 500.745 230.255 490 217 490C203.745 490 193 500.745 193 514ZM764 132C764 145.255 774.745 156 788 156C801.255 156 812 145.255 812 132C812 118.745 801.255 108 788 108C774.745 108 764 118.745 764 132ZM221.5 514V508.266H212.5V514H221.5ZM221.5 496.797V485.329H212.5V496.797H221.5ZM221.5 473.86V462.392H212.5V473.86H221.5ZM221.5 450.923V439.455H212.5V450.923H221.5ZM221.5 427.986V416.518H212.5V427.986H221.5ZM221.5 405.049V393.581H212.5V405.049H221.5ZM221.5 382.112V370.644H212.5V382.112H221.5ZM221.5 359.175V347.707H212.5V359.175H221.5ZM221.5 336.238V324.77H212.5V336.238H221.5ZM221.5 313.301V301.833H212.5V313.301H221.5ZM221.5 290.364V278.896H212.5V290.364H221.5ZM221.5 267.427V255.959H212.5V267.427H221.5ZM221.5 244.49V233.022H212.5V244.49H221.5ZM221.5 221.553V210.085H212.5V221.553H221.5ZM221.5 198.616V187.148H212.5V198.616H221.5ZM221.5 175.679V164.211H212.5V175.679H221.5ZM221.5 158.476C221.5 157.003 221.644 155.568 221.918 154.183L213.09 152.436C212.702 154.393 212.5 156.413 212.5 158.476H221.5ZM225.199 146.269C226.805 143.871 228.871 141.805 231.269 140.199L226.262 132.72C222.886 134.98 219.98 137.886 217.72 141.262L225.199 146.269ZM239.183 136.918C240.568 136.644 242.003 136.5 243.477 136.5V127.5C241.413 127.5 239.393 127.702 237.436 128.09L239.183 136.918ZM243.477 136.5H249.149V127.5H243.477V136.5ZM260.493 136.5H271.837V127.5H260.493V136.5ZM283.181 136.5H294.526V127.5H283.181V136.5ZM305.87 136.5H317.214V127.5H305.87V136.5ZM328.558 136.5H339.903V127.5H328.558V136.5ZM351.247 136.5H362.591V127.5H351.247V136.5ZM373.935 136.5H385.279V127.5H373.935V136.5ZM396.624 136.5H407.968V127.5H396.624V136.5ZM419.312 136.5H430.656V127.5H419.312V136.5ZM442.001 136.5H453.345V127.5H442.001V136.5ZM464.689 136.5H476.033V127.5H464.689V136.5ZM487.378 136.5H498.722V127.5H487.378V136.5ZM510.066 136.5H521.41V127.5H510.066V136.5ZM532.755 136.5H544.099V127.5H532.755V136.5ZM555.443 136.5H566.787V127.5H555.443V136.5ZM578.132 136.5H589.476V127.5H578.132V136.5ZM600.82 136.5H612.164V127.5H600.82V136.5ZM623.509 136.5H634.853V127.5H623.509V136.5ZM646.197 136.5H657.541V127.5H646.197V136.5ZM668.885 136.5H680.23V127.5H668.885V136.5ZM691.574 136.5H702.918V127.5H691.574V136.5ZM714.262 136.5H725.607V127.5H714.262V136.5ZM736.951 136.5H748.295V127.5H736.951V136.5ZM759.639 136.5H770.984V127.5H759.639V136.5ZM782.328 136.5H788V127.5H782.328V136.5Z" fill="#34AD82"/>
<g filter="url(#filter0_b_118_11429)">
<rect x="3" y="586" width="427" height="424" rx="17.651" fill="#EBFFF8" fill-opacity="0.7"/>
<rect x="3" y="586" width="427" height="424" rx="17.651" stroke="#34AD82" stroke-width="6"/>
</g>
<path d="M131.007 739.359C130.964 740.212 131.129 741.063 131.493 741.86C131.857 742.657 132.412 743.383 133.124 743.994C133.836 744.605 134.689 745.087 135.632 745.412C136.575 745.736 137.587 745.896 138.606 745.881H164.619C168.97 745.881 172.439 742.897 173.006 739.28C175.844 721.959 190.033 709.338 215.321 709.338C236.951 709.338 256.753 718.394 256.753 740.177C256.753 756.944 244.96 764.654 226.325 776.377C205.105 789.288 188.299 804.365 189.497 828.841L189.592 834.571C189.625 836.303 190.47 837.955 191.944 839.17C193.419 840.385 195.405 841.066 197.474 841.066H223.046C225.137 841.066 227.142 840.371 228.62 839.133C230.098 837.895 230.929 836.216 230.929 834.465V831.693C230.929 812.735 239.537 807.217 262.775 792.457C281.978 780.232 302 766.66 302 738.171C302 698.275 261.766 679 217.717 679C177.767 679 134.002 694.578 131.007 739.359ZM180.101 891.524C180.101 905.597 193.501 916 211.947 916C231.15 916 244.361 905.597 244.361 891.524C244.361 876.949 231.118 866.704 211.916 866.704C193.501 866.704 180.101 876.949 180.101 891.524Z" fill="#096343"/>
<defs>
<filter id="filter0_b_118_11429" x="-23.9902" y="559.01" width="480.98" height="477.98" filterUnits="userSpaceOnUse" color-interpolation-filters="sRGB">
<feFlood flood-opacity="0" result="BackgroundImageFix"/>
<feGaussianBlur in="BackgroundImageFix" stdDeviation="11.9951"/>
<feComposite in2="SourceAlpha" operator="in" result="effect1_backgroundBlur_118_11429"/>
<feBlend mode="normal" in="SourceGraphic" in2="effect1_backgroundBlur_118_11429" result="shape"/>
</filter>
</defs>
</svg>
