<svg width="500" height="500" viewBox="0 0 500 500" fill="none" xmlns="http://www.w3.org/2000/svg">
<path d="M38.3701 409.52L91.2801 409.28L144.19 409.19L250 409.02L355.81 409.19L408.72 409.28L461.63 409.52L408.72 409.77L355.81 409.86L250 410.02L144.19 409.86L91.2801 409.77L38.3701 409.52Z" fill="#263238"/>
<path d="M250 461.2C349.627 461.2 430.39 453.338 430.39 443.64C430.39 433.942 349.627 426.08 250 426.08C150.373 426.08 69.6099 433.942 69.6099 443.64C69.6099 453.338 150.373 461.2 250 461.2Z" fill="#EBEBEB"/>
<path d="M427 299.49C423.2 295.77 418.29 291.27 412.48 292.88C407.02 294.39 404.93 300.35 403.95 305.32C402.69 311.73 401.71 318.19 400.69 324.64C399.67 331.09 398.69 337.64 397.76 344.19C397.227 347.87 396.707 351.553 396.2 355.24C395.94 357.08 395.684 358.92 395.43 360.76C395.18 362.57 394.88 364.38 394.78 366.2C394.78 366.78 395.66 366.86 395.78 366.31C396.49 363.24 396.78 360.04 397.23 356.93C397.68 353.82 398.14 350.65 398.59 347.52C399.5 341.29 400.45 335.07 401.38 328.84C402.31 322.61 403.29 316.4 404.29 310.18C405.13 304.9 405.53 298.35 410.2 294.87C411.47 294.003 412.939 293.473 414.469 293.329C416 293.186 417.542 293.434 418.95 294.05C422.02 295.23 424.48 297.43 426.89 299.61C427 299.68 427.1 299.57 427 299.49Z" fill="#263238"/>
<path d="M421.83 295.69C421.83 295.69 414.06 292.9 410.23 298.56C406.4 304.22 410.98 318.64 446.33 326.77C445.296 315.721 442.423 304.922 437.83 294.82C430.25 278.29 416.74 284.55 421.83 295.69Z" fill="#00AF00"/>
<path d="M444.3 324.41C443.766 323.421 443.172 322.466 442.52 321.55C441.93 320.64 441.33 319.73 440.73 318.83C440.28 318.15 439.81 317.47 439.35 316.83C439.35 316.67 439.35 316.5 439.41 316.33L439.53 315.41C439.62 314.75 439.72 314.08 439.81 313.41C439.9 312.74 440.02 312.1 440.15 311.41C440.231 310.702 440.385 310.005 440.61 309.33C440.61 309.22 440.47 309.17 440.46 309.33C440.384 309.731 440.277 310.125 440.14 310.51L439.9 311.4C439.73 312.07 439.57 312.74 439.42 313.4C439.27 314.06 439.16 314.65 439.05 315.27C439 315.58 438.96 315.88 438.92 316.18C438.29 315.28 437.64 314.39 436.98 313.52C435.1 311.05 433.12 308.67 431.06 306.34C431.06 306.34 431.06 306.34 431.06 306.28C431.25 302.57 431.16 298.89 431.98 295.28C431.98 295.18 431.86 295.12 431.83 295.22C430.898 298.664 430.454 302.222 430.51 305.79C429.78 304.97 429.03 304.15 428.28 303.34C426.55 301.49 424.8 299.66 423.01 297.88C422.94 297.81 422.82 297.88 422.89 297.99C425.89 301.2 428.7 304.54 431.46 307.94C429.301 307.905 427.141 307.985 424.99 308.18C422.6 308.35 420.22 308.66 417.84 308.99C417.73 308.99 417.76 309.16 417.84 309.15C420.206 308.801 422.59 308.588 424.98 308.51C427.29 308.41 429.58 308.51 431.89 308.51C433.384 310.35 434.854 312.21 436.3 314.09H436C435.46 314.09 434.92 314.09 434.38 314.09C433.3 314.09 432.23 314.19 431.16 314.28C428.963 314.462 426.781 314.796 424.63 315.28C424.609 315.28 424.589 315.288 424.574 315.303C424.559 315.318 424.55 315.339 424.55 315.36C424.55 315.381 424.559 315.401 424.574 315.416C424.589 315.431 424.609 315.44 424.63 315.44C426.8 315.19 428.98 314.99 431.16 314.91C432.16 314.91 433.25 314.91 434.29 314.91H436C436.299 314.951 436.603 314.923 436.89 314.83C437.837 316.063 438.784 317.3 439.73 318.54C440.48 319.54 441.22 320.54 441.95 321.54C442.68 322.54 443.37 323.69 444.19 324.65C444.23 324.58 444.34 324.49 444.3 324.41Z" fill="#263238"/>
<path d="M425.21 303.72C423.957 303.56 422.693 303.5 421.43 303.54C420.17 303.54 418.9 303.54 417.64 303.62C417.53 303.62 417.54 303.78 417.64 303.78C418.92 303.68 420.2 303.66 421.48 303.68C422.76 303.7 423.96 303.82 425.19 303.78C425.25 303.78 425.25 303.73 425.21 303.72Z" fill="#263238"/>
<path d="M436.31 306.57C436.45 305.36 436.6 304.15 436.86 302.96C436.86 302.939 436.852 302.918 436.837 302.903C436.822 302.888 436.802 302.88 436.78 302.88C436.759 302.88 436.739 302.888 436.724 302.903C436.709 302.918 436.7 302.939 436.7 302.96C436.52 304.15 436.29 305.33 436.12 306.52C436.03 307.11 435.95 307.71 435.87 308.3C435.769 308.857 435.722 309.423 435.73 309.99C435.737 310.012 435.751 310.032 435.77 310.046C435.789 310.06 435.812 310.067 435.835 310.067C435.859 310.067 435.882 310.06 435.901 310.046C435.919 310.032 435.933 310.012 435.94 309.99C436.045 309.432 436.105 308.867 436.12 308.3C436.17 307.72 436.24 307.14 436.31 306.57Z" fill="#263238"/>
<path d="M434 293.19C433.69 294.37 433.38 295.56 433.17 296.75C433.06 297.36 432.96 297.97 432.88 298.58C432.77 299.17 432.73 299.771 432.76 300.37C432.76 300.383 432.765 300.396 432.775 300.405C432.784 300.415 432.797 300.42 432.81 300.42C432.823 300.42 432.836 300.415 432.846 300.405C432.855 300.396 432.86 300.383 432.86 300.37C433 299.813 433.091 299.244 433.13 298.67C433.21 298.08 433.3 297.5 433.4 296.91C433.62 295.68 433.84 294.46 434.15 293.25C434.16 293.15 434 293.09 434 293.19Z" fill="#263238"/>
<path d="M388 364.89C387.8 362.67 387.58 360.44 387.35 358.22C386.877 353.82 386.347 349.423 385.76 345.03C385.17 340.66 384.61 336.27 383.9 331.91C383.645 329.871 383.193 327.862 382.55 325.91C382.322 325.077 381.906 324.308 381.334 323.662C380.761 323.015 380.049 322.508 379.25 322.18C375.09 320.75 372.25 325.06 370.61 328.11C370.56 328.2 370.69 328.27 370.75 328.19C371.75 326.74 374.53 322.69 377.69 322.88C379.81 323 381.51 324.51 382.53 329.8C385.07 342.99 387.36 369.8 387.63 371.51C387.77 372.44 388.42 372.4 388.43 371.4C388.39 369.26 388.14 367.07 388 364.89Z" fill="#263238"/>
<path d="M371.68 326.52C371.68 326.52 375.32 313.68 367.28 320.1C353.9 330.79 353.43 354 353.43 354C353.43 354 377.21 340.19 380.16 331.08C384.57 317.54 371.68 326.52 371.68 326.52Z" fill="#00AF00"/>
<path d="M376.18 332.82C374.32 333.2 372.42 333.45 370.54 333.72L367.86 334.1C367.26 334.18 366.65 334.24 366.04 334.31C367.81 331.87 369.6 329.44 371.3 326.95C371.316 326.929 371.323 326.902 371.319 326.876C371.316 326.849 371.301 326.826 371.28 326.81C371.259 326.794 371.232 326.787 371.206 326.791C371.18 326.795 371.156 326.809 371.14 326.83C369.722 328.284 368.387 329.816 367.14 331.42L366.08 328.42C365.68 327.27 365.24 326.13 364.95 324.94C364.95 324.84 364.77 324.94 364.8 324.99C365.12 326.16 365.35 327.37 365.67 328.55C365.99 329.73 366.32 330.81 366.72 331.92C365.85 333.05 365.01 334.21 364.2 335.38C363.79 334.22 363.28 333.1 362.93 331.92C362.93 331.82 362.74 331.87 362.77 331.92C363.2 333.23 363.43 334.58 363.83 335.92C363.28 336.72 362.74 337.52 362.22 338.32C361.22 339.81 360.35 341.32 359.47 342.84C359.401 342.869 359.344 342.92 359.306 342.985C359.268 343.05 359.252 343.125 359.26 343.2C357.76 345.8 356.33 348.43 354.92 351.09C354.91 351.108 354.907 351.13 354.913 351.151C354.918 351.172 354.932 351.189 354.95 351.2C354.969 351.21 354.991 351.213 355.011 351.208C355.032 351.202 355.05 351.188 355.06 351.17C356.47 348.54 358.06 345.98 359.67 343.47C359.923 343.386 360.185 343.336 360.45 343.32L361.27 343.14C361.88 343.01 362.49 342.85 363.1 342.7C364.31 342.4 365.5 342.11 366.73 341.9C366.83 341.9 366.78 341.73 366.73 341.75C365.29 342.02 363.85 342.19 362.39 342.35C361.7 342.43 361.02 342.52 360.34 342.63H360.24C361.087 341.336 361.954 340.05 362.84 338.77C363.7 337.52 364.59 336.28 365.48 335.04C366.31 334.93 367.12 334.71 367.94 334.56L370.7 334.02C372.54 333.65 374.38 333.24 376.23 332.94C376.33 333 376.28 332.8 376.18 332.82Z" fill="#263238"/>
<path d="M361.89 334.09C361.78 333.75 361.68 333.41 361.57 333.09C361.347 332.381 361.164 331.659 361.02 330.93C361.02 330.83 360.85 330.88 360.87 330.93C361.03 331.66 361.2 332.38 361.36 333.1C361.506 333.826 361.713 334.539 361.98 335.23C361.997 335.259 362.023 335.282 362.054 335.294C362.085 335.307 362.119 335.309 362.152 335.299C362.184 335.29 362.212 335.27 362.232 335.243C362.251 335.216 362.261 335.183 362.26 335.15C362.15 334.81 362 334.45 361.89 334.09Z" fill="#263238"/>
<path d="M378.61 329.85C377.53 330.01 376.44 330.09 375.34 330.19C374.24 330.29 373.17 330.43 372.08 330.6C372.02 330.6 372.02 330.7 372.08 330.69C373.17 330.62 374.26 330.53 375.35 330.39C376.44 330.25 377.52 330.09 378.62 330.01C378.72 330 378.71 329.84 378.61 329.85Z" fill="#263238"/>
<path d="M405.45 348.64C405.02 339.19 404.45 329.75 403.45 320.34C402.98 315.65 402.45 310.97 401.79 306.34C401.207 301.752 400.302 297.211 399.08 292.75C398.242 289.282 396.704 286.022 394.56 283.17C393.501 281.783 392.106 280.688 390.507 279.988C388.908 279.288 387.158 279.007 385.42 279.17C381.29 279.68 377.95 282.29 375.07 285.12C371.84 288.3 368.88 291.77 365.89 295.12C365.13 295.98 364.38 296.85 363.63 297.72C363.57 297.8 363.68 297.91 363.75 297.83C366.68 294.47 369.75 291.2 372.9 288.08C375.84 285.19 378.9 282.08 382.9 280.84C384.794 280.24 386.82 280.191 388.74 280.7C390.27 281.183 391.648 282.055 392.74 283.23C395.04 285.61 396.32 288.84 397.24 291.97C399.78 300.66 400.69 309.77 401.63 318.74C402.57 327.71 403.24 336.99 403.7 346.15C404.16 355.31 404.52 364.56 405.41 373.74C405.52 374.87 405.66 376 405.81 377.13C405.9 377.88 407.08 377.89 407.02 377.13C406.31 367.63 405.87 358.14 405.45 348.64Z" fill="#263238"/>
<path d="M374.57 286.12C374.57 286.12 379.97 276.12 373.57 272.92C367.17 269.72 345.85 293.54 339.62 328.38C339.62 328.38 374.09 313.13 385.8 297.93C397.51 282.73 384.25 279.39 374.57 286.12Z" fill="#00AF00"/>
<path d="M379.64 294.24C375.77 294.24 371.9 293.95 368.03 293.97L370.21 291.48C371.287 290.374 372.289 289.198 373.21 287.96C373.26 287.88 373.15 287.77 373.07 287.83C372.017 288.731 371.037 289.714 370.14 290.77C369.14 291.77 368.2 292.83 367.24 293.87C365.76 295.48 364.31 297.1 362.86 298.74C362.86 298.58 362.86 298.42 362.86 298.27C362.86 297.59 362.86 296.91 362.86 296.27C362.86 294.96 362.86 293.64 362.86 292.33C362.86 289.67 362.86 286.99 363.06 284.33C363.06 284.23 362.91 284.23 362.9 284.33C362.72 287.01 362.44 289.67 362.31 292.33C362.25 293.65 362.22 294.96 362.2 296.28C362.2 296.95 362.2 297.63 362.2 298.28C362.2 298.65 362.2 299.04 362.2 299.42C361.98 299.68 361.74 299.93 361.52 300.18C358.43 303.72 355.52 307.37 352.62 311.09C352.62 310.89 352.62 310.67 352.57 310.47C352.57 310.06 352.48 309.65 352.44 309.24C352.34 308.35 352.22 307.47 352.08 306.58C351.94 305.69 351.83 304.92 351.69 304.09C351.55 303.26 351.3 302.22 351.23 301.28C351.234 301.268 351.236 301.255 351.234 301.242C351.233 301.229 351.228 301.217 351.221 301.206C351.213 301.196 351.203 301.187 351.192 301.181C351.181 301.175 351.168 301.172 351.155 301.172C351.142 301.172 351.129 301.175 351.118 301.181C351.106 301.187 351.097 301.196 351.089 301.206C351.082 301.217 351.077 301.229 351.076 301.242C351.074 301.255 351.075 301.268 351.08 301.28C351.236 302.22 351.343 303.168 351.4 304.12L351.64 306.68C351.71 307.53 351.79 308.38 351.88 309.24L352 310.47C352 310.67 352.05 310.88 352.08 311.08C352.09 311.254 352.145 311.423 352.24 311.57L350.77 313.49C348.77 316.08 346.89 318.7 344.97 321.31C344.91 321.39 345.03 321.5 345.09 321.42C346.91 319.05 348.78 316.72 350.67 314.42C352.09 314.48 353.54 314.37 354.96 314.35C356.38 314.33 357.96 314.35 359.44 314.35C359.461 314.35 359.482 314.341 359.497 314.326C359.512 314.311 359.52 314.291 359.52 314.27C359.52 314.249 359.512 314.228 359.497 314.213C359.482 314.198 359.461 314.19 359.44 314.19C357.94 314.19 356.44 314.24 354.95 314.25C353.46 314.26 352.2 314.19 350.84 314.25C352.5 312.25 354.19 310.25 355.84 308.2L357.8 306C358.373 306.075 358.953 306.095 359.53 306.06H361.53C362.8 306.06 364.07 306.06 365.35 306.01C367.98 306.01 370.61 305.88 373.24 305.87C373.252 305.874 373.265 305.876 373.278 305.874C373.291 305.873 373.303 305.868 373.313 305.861C373.324 305.853 373.333 305.843 373.339 305.832C373.345 305.821 373.348 305.808 373.348 305.795C373.348 305.782 373.345 305.769 373.339 305.758C373.333 305.746 373.324 305.737 373.313 305.729C373.303 305.722 373.291 305.717 373.278 305.716C373.265 305.714 373.252 305.715 373.24 305.72C370.6 305.72 367.97 305.57 365.34 305.5C364.06 305.5 362.79 305.43 361.51 305.41H359.51C359.13 305.41 358.73 305.41 358.33 305.41L362.68 300.26C362.714 300.237 362.741 300.206 362.76 300.17C364.17 298.5 365.58 296.84 367.01 295.17C367.21 294.95 367.41 294.73 367.6 294.5C371.6 294.62 375.6 294.36 379.6 294.44C379.75 294.4 379.75 294.24 379.64 294.24Z" fill="#263238"/>
<path d="M377.66 301.09H376.72C376.701 301.09 376.684 301.097 376.67 301.11C376.657 301.123 376.65 301.141 376.65 301.16C376.65 301.178 376.657 301.196 376.67 301.209C376.684 301.222 376.701 301.23 376.72 301.23H377.65C377.663 301.224 377.674 301.214 377.682 301.203C377.691 301.191 377.695 301.177 377.696 301.163C377.697 301.148 377.695 301.134 377.688 301.121C377.682 301.109 377.672 301.098 377.66 301.09Z" fill="#263238"/>
<path d="M375.57 301.1C374.33 301.1 373.09 301.1 371.85 301.02L370 301C369.425 300.93 368.844 300.93 368.27 301C368.254 301 368.239 301.006 368.228 301.017C368.216 301.029 368.21 301.044 368.21 301.06C368.21 301.076 368.216 301.091 368.228 301.102C368.239 301.114 368.254 301.12 368.27 301.12C368.842 301.235 369.427 301.275 370.01 301.24H371.87H375.59C375.68 301.26 375.68 301.1 375.57 301.1Z" fill="#263238"/>
<path d="M364.74 312.74C362.218 312.315 359.668 312.085 357.11 312.05V312.1C359.65 312.34 362.18 312.48 364.7 312.89C364.8 312.91 364.84 312.75 364.74 312.74Z" fill="#263238"/>
<path d="M354.37 301.64C354.37 301.42 354.32 301.2 354.29 300.98C354.23 300.48 354.15 299.98 354.07 299.49C353.92 298.54 353.76 297.6 353.58 296.65C353.58 296.57 353.41 296.59 353.42 296.65C353.54 297.65 353.65 298.6 353.74 299.58L353.86 301.02C353.847 301.481 353.911 301.94 354.05 302.38C354.07 302.41 354.098 302.434 354.131 302.448C354.164 302.463 354.201 302.468 354.236 302.463C354.272 302.457 354.305 302.442 354.333 302.419C354.36 302.395 354.38 302.364 354.39 302.33C354.425 302.101 354.418 301.867 354.37 301.64Z" fill="#263238"/>
<path d="M405.11 273.29C403.87 270.99 402.3 267.96 399.22 268.15C396.68 268.31 395.53 270.9 394.99 273.05C393.31 279.68 393.19 286.68 392.87 293.48C392.17 307.85 391.55 322.23 391.46 336.62C391.46 340.62 391.46 344.62 391.46 348.62C391.46 352.69 391.46 356.78 391.74 360.84C391.74 360.919 391.772 360.995 391.828 361.052C391.884 361.108 391.96 361.14 392.04 361.14C392.12 361.14 392.196 361.108 392.252 361.052C392.308 360.995 392.34 360.919 392.34 360.84C392.34 357.36 392.24 353.84 392.23 350.4C392.22 346.96 392.23 343.61 392.29 340.21C392.403 333.336 392.587 326.463 392.84 319.59C393.1 312.76 393.4 305.93 393.69 299.1C393.83 295.69 393.98 292.27 394.13 288.86C394.28 285.45 394.42 282.25 394.8 278.96C395.01 277.11 395.28 275.27 395.67 273.46C395.86 272.109 396.409 270.835 397.26 269.77C397.847 269.189 398.622 268.838 399.446 268.78C400.269 268.721 401.086 268.959 401.75 269.45C403.16 270.465 404.263 271.849 404.94 273.45C404.961 273.472 404.99 273.485 405.021 273.486C405.052 273.487 405.082 273.476 405.105 273.455C405.128 273.433 405.141 273.404 405.142 273.373C405.143 273.342 405.131 273.312 405.11 273.29Z" fill="#263238"/>
<path d="M404.27 272.19C404.27 272.19 401.74 263.25 407.34 267.72C416.66 275.16 416.99 291.35 416.99 291.35C416.99 291.35 400.42 281.73 398.36 275.35C395.29 265.93 404.27 272.19 404.27 272.19Z" fill="#00AF00"/>
<path d="M413.5 284.72C413.35 284.47 413.19 284.23 413.03 283.98C413.05 283.727 413.05 283.473 413.03 283.22C413.03 282.84 413.03 282.45 413.03 282.07C413.03 281.31 413.03 280.55 413.11 279.8C413.11 279.779 413.102 279.758 413.087 279.743C413.072 279.728 413.051 279.72 413.03 279.72C413.009 279.72 412.988 279.728 412.973 279.743C412.958 279.758 412.95 279.779 412.95 279.8C412.95 280.54 412.88 281.29 412.86 282.03C412.86 282.4 412.86 282.77 412.86 283.14C412.86 283.28 412.86 283.45 412.86 283.62C412.21 282.62 411.54 281.62 410.86 280.62C410.66 280.33 410.45 280.05 410.25 279.77C410.143 278.8 410.127 277.823 410.2 276.85C410.2 275.85 410.2 274.77 410.26 273.73C410.26 273.63 410.1 273.63 410.1 273.73C410.1 274.81 410.02 275.89 409.96 276.97C409.895 277.738 409.875 278.509 409.9 279.28C408.3 277.11 406.6 275.01 404.9 272.92C404.84 272.85 404.72 272.92 404.78 273.02C405.84 274.37 406.86 275.75 407.86 277.15C405.91 276.69 403.93 276.43 401.95 276.15C401.85 276.15 401.81 276.29 401.95 276.31C404.05 276.63 406.11 277.15 408.18 277.61C408.97 278.73 409.76 279.85 410.53 280.98L411.47 282.36H411.39L410.74 282.27L409.36 282.15C408.41 282.07 407.45 282.02 406.49 281.97C406.39 281.97 406.4 282.13 406.49 282.13C407.43 282.13 408.37 282.22 409.3 282.32L410.79 282.5L411.43 282.58H411.62C412.15 283.36 412.69 284.14 413.21 284.92C414.15 286.31 414.99 287.79 415.98 289.12C415.993 289.131 416.009 289.138 416.026 289.139C416.043 289.141 416.06 289.137 416.074 289.128C416.089 289.119 416.1 289.105 416.107 289.09C416.113 289.074 416.114 289.056 416.11 289.04C415.328 287.549 414.456 286.106 413.5 284.72Z" fill="#263238"/>
<path d="M409.38 274.62C409.38 274.27 409.38 273.92 409.38 273.57C409.36 272.839 409.39 272.107 409.47 271.38C409.475 271.368 409.476 271.355 409.474 271.342C409.473 271.329 409.468 271.317 409.461 271.306C409.453 271.296 409.443 271.287 409.432 271.281C409.421 271.275 409.408 271.272 409.395 271.272C409.382 271.272 409.369 271.275 409.358 271.281C409.347 271.287 409.337 271.296 409.329 271.306C409.322 271.317 409.317 271.329 409.316 271.342C409.314 271.355 409.316 271.368 409.32 271.38C409.32 272.11 409.24 272.83 409.2 273.55C409.2 273.92 409.2 274.28 409.2 274.64V275.14C409.175 275.312 409.175 275.487 409.2 275.66C409.2 275.678 409.207 275.696 409.221 275.709C409.234 275.722 409.251 275.73 409.27 275.73C409.289 275.73 409.306 275.722 409.32 275.709C409.333 275.696 409.34 275.678 409.34 275.66C409.365 275.501 409.365 275.339 409.34 275.18L409.38 274.62Z" fill="#263238"/>
<path d="M407.33 278.32C406.71 278.21 406.08 278.18 405.46 278.13C404.84 278.08 404.1 278.01 403.46 277.92C403.439 277.92 403.418 277.928 403.403 277.943C403.388 277.958 403.38 277.979 403.38 278C403.38 278.021 403.388 278.041 403.403 278.056C403.418 278.071 403.439 278.08 403.46 278.08C404.77 278.16 406.07 278.4 407.38 278.44C407.39 278.45 407.4 278.33 407.33 278.32Z" fill="#263238"/>
<path d="M412.53 278.37C412.58 278.44 412.53 278.64 412.53 278.72V279.63C412.53 279.84 412.53 280.05 412.53 280.26C412.495 280.438 412.495 280.621 412.53 280.8C412.53 280.8 412.58 280.8 412.59 280.8C412.61 280.714 412.61 280.625 412.59 280.54C412.585 280.443 412.585 280.346 412.59 280.25V279.63C412.59 279.42 412.59 279.21 412.59 279V278.72C412.59 278.63 412.59 278.44 412.59 278.37C412.59 278.3 412.43 278.22 412.53 278.37Z" fill="#263238"/>
<path d="M405.49 321C402.01 318.39 398.88 314.63 394.19 314.44C390.32 314.29 387.61 317.2 386.06 320.44C385.285 322.168 384.653 323.958 384.17 325.79C383.47 328.23 382.803 330.686 382.17 333.16C380.963 338.02 379.93 342.92 379.07 347.86C378.6 350.61 378.16 353.37 377.81 356.14C377.37 358.948 377.1 361.779 377 364.62C376.998 364.729 377.037 364.835 377.109 364.917C377.181 364.999 377.281 365.051 377.39 365.064C377.498 365.076 377.607 365.048 377.696 364.984C377.785 364.921 377.847 364.826 377.87 364.72C378.34 362.4 378.54 360.01 378.87 357.67C379.2 355.33 379.57 352.96 379.96 350.62C380.76 345.953 381.687 341.286 382.74 336.62C383.74 332.23 384.74 327.78 386.13 323.51C387.13 320.45 388.77 316.88 392.08 315.78C397.08 314.11 401.67 318.36 405.35 321.13C405.46 321.18 405.57 321.06 405.49 321Z" fill="#263238"/>
<path d="M401.89 318.5C401.89 318.5 398.67 309.33 403.32 307.5C410.32 304.81 428.5 325.33 424.93 356.77C424.93 356.77 410.86 349.02 400.46 340.29C390.06 331.56 387.46 320.17 391.99 317.23C396.52 314.29 401.89 318.5 401.89 318.5Z" fill="#00AF00"/>
<path d="M422.83 350.06C422.347 348.963 421.782 347.903 421.14 346.89C420.54 345.81 419.94 344.74 419.32 343.68C418.11 341.61 416.91 339.54 415.67 337.48L415.06 336.48C415.06 336.36 415.11 336.23 415.13 336.11L415.34 335.2C415.5 334.52 415.62 333.83 415.74 333.14C416 331.8 416.23 330.44 416.59 329.14C416.59 329.05 416.46 329.02 416.44 329.14C416.15 330.48 415.72 331.81 415.33 333.14C415.13 333.79 414.92 334.43 414.75 335.09L414.57 335.76C413.08 333.31 411.57 330.87 409.91 328.51C410.018 328.187 410.075 327.85 410.08 327.51C410.13 327.05 410.18 326.59 410.24 326.13C410.36 325.13 410.48 324.06 410.63 323.03C410.93 321.03 411.23 319.03 411.73 317.03C411.73 316.93 411.6 316.9 411.58 317.03C411.07 319.03 410.53 321.03 410.15 323.03C409.97 324.03 409.79 325.03 409.66 326.03C409.6 326.53 409.54 327.03 409.49 327.53C409.49 327.67 409.49 327.83 409.43 327.98C408.93 327.27 408.43 326.55 407.9 325.86C406.29 323.74 404.62 321.68 402.9 319.62C402.84 319.54 402.7 319.62 402.77 319.71C405.65 323.393 408.296 327.254 410.69 331.27L412.06 333.5L411.6 333.44C411.01 333.36 410.42 333.33 409.83 333.27L406.27 332.96C403.9 332.77 401.52 332.63 399.16 332.38C399.06 332.38 399.03 332.52 399.16 332.53C401.56 332.81 403.94 333.19 406.33 333.53C407.51 333.7 408.68 333.86 409.86 334.01C410.753 334.187 411.66 334.278 412.57 334.28C413.5 335.8 414.44 337.28 415.37 338.82C415.16 338.82 414.94 338.82 414.74 338.82H411.35C409.82 338.82 408.29 338.82 406.77 338.82C406.66 338.82 406.68 338.97 406.77 338.97C408.32 338.97 409.86 339.07 411.41 339.15L413.61 339.28L414.71 339.36C415.039 339.436 415.381 339.436 415.71 339.36L418.09 343.22C418.82 344.41 419.56 345.59 420.31 346.77C421.017 348.021 421.816 349.218 422.7 350.35C422.74 350.21 422.87 350.16 422.83 350.06Z" fill="#263238"/>
<path d="M416.12 324.65C415.98 325.663 415.769 326.666 415.49 327.65C415.23 328.65 414.94 329.65 414.61 330.65C414.605 330.663 414.602 330.676 414.603 330.69C414.603 330.704 414.606 330.718 414.612 330.73C414.618 330.743 414.626 330.754 414.637 330.763C414.647 330.772 414.659 330.779 414.672 330.783C414.686 330.788 414.7 330.789 414.713 330.788C414.727 330.786 414.74 330.782 414.752 330.775C414.764 330.768 414.775 330.758 414.783 330.747C414.791 330.736 414.797 330.723 414.8 330.71C415.11 329.71 415.39 328.71 415.63 327.71C415.87 326.71 416.03 325.71 416.28 324.66C416.281 324.639 416.274 324.618 416.26 324.602C416.246 324.586 416.226 324.576 416.205 324.575C416.184 324.574 416.163 324.581 416.147 324.595C416.131 324.609 416.121 324.629 416.12 324.65Z" fill="#263238"/>
<path d="M405.78 330.79C405.564 330.608 405.292 330.506 405.01 330.5L403.68 330.32C402.86 330.21 402.03 330.12 401.21 330.02C399.49 329.82 397.78 329.65 396.06 329.44C395.96 329.44 395.93 329.58 396.06 329.59C397.68 329.79 399.29 330.04 400.91 330.25L403.28 330.56L404.43 330.68C404.873 330.684 405.313 330.762 405.73 330.91C405.744 330.91 405.758 330.906 405.77 330.898C405.781 330.891 405.79 330.88 405.796 330.867C405.801 330.854 405.803 330.84 405.8 330.826C405.797 330.812 405.79 330.8 405.78 330.79Z" fill="#263238"/>
<path d="M416.1 344.62C415.29 344.55 414.47 344.52 413.66 344.5H412.43H411.84C411.584 344.525 411.326 344.525 411.07 344.5C410.96 344.5 410.95 344.67 411.07 344.65C411.31 344.625 411.551 344.625 411.79 344.65H412.43L413.65 344.73C414.46 344.78 415.28 344.83 416.09 344.83C416.19 344.79 416.2 344.62 416.1 344.62Z" fill="#263238"/>
<path d="M421.06 341.1L421.33 339.72C421.49 338.81 421.66 337.9 421.83 337C421.83 336.979 421.822 336.958 421.807 336.943C421.792 336.928 421.771 336.92 421.75 336.92C421.729 336.92 421.708 336.928 421.693 336.943C421.678 336.958 421.67 336.979 421.67 337L421.07 339.65C420.97 340.09 420.87 340.53 420.78 340.97C420.78 341.18 420.7 341.38 420.65 341.59C420.587 341.8 420.563 342.021 420.58 342.24C420.582 342.26 420.59 342.279 420.603 342.295C420.616 342.31 420.633 342.321 420.653 342.327C420.672 342.332 420.693 342.332 420.712 342.325C420.731 342.318 420.748 342.306 420.76 342.29C420.934 341.916 421.036 341.512 421.06 341.1Z" fill="#263238"/>
<path d="M373.4 361.1L374.38 372.25L377.71 409.88H407.18L411.34 372.25L412.57 361.1H373.4Z" fill="#37474F"/>
<path d="M373.4 361.1L374.38 372.25H411.34L412.57 361.1H373.4Z" fill="#263238"/>
<path d="M370.48 367.11H415.49V358.07H370.48V367.11Z" fill="#37474F"/>
<path d="M214 324.13C214 308.13 216.613 293.753 221.84 281C227.067 268.247 237.847 257.137 254.18 247.67C259.087 244.73 265.133 241.397 272.32 237.67C279.715 233.786 286.764 229.276 293.39 224.19C300.163 219.068 306.043 212.861 310.79 205.82C315.576 198.643 318.057 190.175 317.9 181.55C318.043 175.268 316.707 169.04 314 163.37C311.503 158.308 308.002 153.806 303.71 150.14C299.302 146.466 294.201 143.715 288.71 142.05C283.081 140.273 277.213 139.366 271.31 139.36C264.62 139.268 257.978 140.506 251.77 143C246.059 145.353 240.701 148.486 235.85 152.31C231.122 156.053 226.843 160.332 223.1 165.06C219.654 169.358 216.465 173.856 213.55 178.53H206.17L170.9 149.13C174.979 139.244 180.696 130.116 187.81 122.13C194.766 114.343 202.857 107.651 211.81 102.28C220.918 96.8652 230.745 92.7646 241 90.0999C251.557 87.3116 262.431 85.9098 273.35 85.9299C285.8 85.9369 298.182 87.7525 310.11 91.3199C322.004 94.8205 333.083 100.654 342.7 108.48C352.634 116.703 360.663 126.987 366.23 138.62C372.27 150.873 375.29 165.497 375.29 182.49C375.441 191.851 374.204 201.182 371.62 210.18C369.274 217.963 365.713 225.327 361.07 232C356.472 238.56 351.036 244.49 344.9 249.64C338.237 255.19 331.193 260.266 323.82 264.83C317.28 268.763 310.747 272.523 304.22 276.11C297.903 279.556 291.915 283.573 286.33 288.11C281.071 292.373 276.591 297.516 273.09 303.31C269.663 309.03 267.95 315.973 267.95 324.14L214 324.13ZM215 438.32V370.69H269.4V438.32H215Z" fill="#00AF00"/>
<g opacity="0.2">
<path d="M214 324.13C214 308.13 216.613 293.753 221.84 281C227.067 268.247 237.847 257.137 254.18 247.67C259.087 244.73 265.133 241.397 272.32 237.67C279.715 233.786 286.764 229.276 293.39 224.19C300.163 219.068 306.043 212.861 310.79 205.82C315.576 198.643 318.057 190.175 317.9 181.55C318.043 175.268 316.707 169.04 314 163.37C311.503 158.308 308.002 153.806 303.71 150.14C299.302 146.466 294.201 143.715 288.71 142.05C283.081 140.273 277.213 139.366 271.31 139.36C264.62 139.268 257.978 140.506 251.77 143C246.059 145.353 240.701 148.486 235.85 152.31C231.122 156.053 226.843 160.332 223.1 165.06C219.654 169.358 216.465 173.856 213.55 178.53H206.17L170.9 149.13C174.979 139.244 180.696 130.116 187.81 122.13C194.766 114.343 202.857 107.651 211.81 102.28C220.918 96.8652 230.745 92.7646 241 90.0999C251.557 87.3116 262.431 85.9098 273.35 85.9299C285.8 85.9369 298.182 87.7525 310.11 91.3199C322.004 94.8205 333.083 100.654 342.7 108.48C352.634 116.703 360.663 126.987 366.23 138.62C372.27 150.873 375.29 165.497 375.29 182.49C375.441 191.851 374.204 201.182 371.62 210.18C369.274 217.963 365.713 225.327 361.07 232C356.472 238.56 351.036 244.49 344.9 249.64C338.237 255.19 331.193 260.266 323.82 264.83C317.28 268.763 310.747 272.523 304.22 276.11C297.903 279.556 291.915 283.573 286.33 288.11C281.071 292.373 276.591 297.516 273.09 303.31C269.663 309.03 267.95 315.973 267.95 324.14L214 324.13ZM215 438.32V370.69H269.4V438.32H215Z" fill="black"/>
</g>
<path d="M206.66 324.13C206.66 308.13 209.273 293.753 214.5 281C219.726 268.247 230.51 257.137 246.85 247.67C251.75 244.73 257.793 241.397 264.98 237.67C272.38 233.789 279.432 229.279 286.06 224.19C292.831 219.066 298.71 212.859 303.46 205.82C308.238 198.64 310.715 190.174 310.56 181.55C310.689 175.283 309.346 169.074 306.64 163.42C304.143 158.358 300.642 153.856 296.35 150.19C291.942 146.516 286.841 143.765 281.35 142.1C275.72 140.323 269.853 139.416 263.95 139.41C257.26 139.299 250.614 140.519 244.4 143C238.686 145.354 233.325 148.487 228.47 152.31C223.745 156.053 219.469 160.332 215.73 165.06C212.281 169.358 209.089 173.856 206.17 178.53L163.53 149.13C167.606 139.242 173.323 130.114 180.44 122.13C187.393 114.341 195.484 107.648 204.44 102.28C213.545 96.8668 223.368 92.7664 233.62 90.1C244.186 87.3082 255.071 85.9063 266 85.93C278.45 85.9363 290.832 87.7519 302.76 91.32C314.655 94.8184 325.734 100.652 335.35 108.48C345.286 116.701 353.315 126.986 358.88 138.62C364.92 150.873 367.943 165.497 367.95 182.49C368.098 191.851 366.858 201.182 364.27 210.18C361.918 217.966 358.347 225.331 353.69 232C349.092 238.56 343.656 244.49 337.52 249.64C330.861 255.195 323.817 260.271 316.44 264.83C309.913 268.763 303.38 272.523 296.84 276.11C290.523 279.556 284.535 283.573 278.95 288.11C273.693 292.373 269.217 297.516 265.72 303.31C262.293 309.03 260.576 315.973 260.57 324.14L206.66 324.13ZM207.66 438.32V370.69H262V438.32H207.66Z" fill="#00AF00"/>
<path d="M184.24 443.73C182.11 444.41 121.38 443.63 119.09 442.13C118.21 441.57 117.81 432.72 117.63 422V421.67C117.63 419.46 117.56 417.18 117.55 414.88C117.55 414.56 117.55 414.24 117.55 413.93C117.47 398.47 117.71 382.42 117.71 382.42L158.34 382.83L157.11 414L157.06 415.24L156.81 421.7V422.36C156.81 422.36 179.9 433.1 182.25 435C184.6 436.9 186.37 443.05 184.24 443.73Z" fill="#AD6359"/>
<path d="M184.24 443.73C182.11 444.41 121.38 443.63 119.09 442.13C118.21 441.57 117.81 432.72 117.63 422V421.67C117.63 419.46 117.56 417.18 117.55 414.88C117.55 414.56 117.55 414.24 117.55 413.93L157.12 414.04L157.07 415.28L156.82 421.74V422.4C156.82 422.4 179.9 433.1 182.25 435C184.6 436.9 186.37 443.05 184.24 443.73Z" fill="#EBEBEB"/>
<path d="M184.24 443.73C182.93 444.15 159.4 444.01 140.98 443.49C129.48 443.18 119.98 442.7 119.09 442.13C118.2 441.56 117.82 432.97 117.64 422.45C117.64 422.3 117.64 422.15 117.64 422C117.64 421.85 117.64 421.77 117.64 421.66L156.83 421.74V422.4C156.83 422.4 179.95 433.1 182.29 435.01C184.63 436.92 186.37 443.05 184.24 443.73Z" fill="#00AF00"/>
<path d="M183.59 441.36C173.35 440.98 132.04 440.36 121.89 440.79C121.81 440.79 121.81 440.85 121.89 440.86C132.03 441.46 173.34 441.71 183.58 441.53C183.8 441.53 183.8 441.37 183.59 441.36Z" fill="#263238"/>
<path d="M161.17 421.9C157.17 421.1 152.22 421.65 149.1 424.48C148.98 424.59 149.1 424.76 149.27 424.72C153.137 423.531 157.119 422.757 161.15 422.41C161.209 422.401 161.264 422.371 161.304 422.326C161.344 422.281 161.368 422.223 161.37 422.163C161.372 422.103 161.354 422.044 161.317 421.996C161.281 421.948 161.228 421.914 161.17 421.9Z" fill="#263238"/>
<path d="M164.06 423.69C160.06 422.89 155.11 423.44 151.99 426.27C151.87 426.38 151.99 426.55 152.16 426.51C156.014 425.323 159.983 424.549 164 424.2C164.062 424.197 164.121 424.173 164.166 424.131C164.211 424.089 164.24 424.032 164.247 423.971C164.255 423.909 164.24 423.847 164.205 423.796C164.171 423.744 164.119 423.707 164.06 423.69Z" fill="#263238"/>
<path d="M166.94 425.48C162.94 424.68 157.99 425.23 154.87 428.06C154.75 428.17 154.87 428.34 155.04 428.3C158.907 427.115 162.89 426.344 166.92 426C166.989 426.003 167.056 425.978 167.107 425.931C167.157 425.884 167.187 425.819 167.19 425.75C167.192 425.681 167.168 425.614 167.121 425.563C167.074 425.513 167.009 425.483 166.94 425.48Z" fill="#263238"/>
<path d="M166.53 413.18C164.97 410.98 162.01 411.93 160.31 413.32C157.435 415.762 155.255 418.918 153.99 422.47C153.983 422.485 153.98 422.502 153.982 422.518C153.983 422.535 153.988 422.55 153.997 422.564C154.006 422.578 154.018 422.59 154.033 422.598C154.047 422.606 154.063 422.61 154.08 422.61C154.08 422.92 154.36 423.25 154.71 423.12C158.05 421.93 161.77 421.12 164.65 418.9C166.33 417.63 168 415.27 166.53 413.18ZM159.4 420.28C157.77 420.91 156.12 421.45 154.52 422.13C155.76 420.35 156.91 418.53 158.33 416.87C159.003 416.067 159.724 415.306 160.49 414.59C161.71 413.52 166.49 411.26 165.71 415.67C165.29 418.1 161.35 419.54 159.4 420.28Z" fill="#263238"/>
<path d="M143.76 421.28C147.06 422.74 150.88 422.72 154.41 423.11C154.77 423.11 154.96 422.76 154.9 422.46C154.915 422.455 154.93 422.446 154.941 422.435C154.953 422.424 154.962 422.41 154.968 422.394C154.974 422.379 154.976 422.363 154.975 422.346C154.973 422.33 154.968 422.314 154.96 422.3C152.904 419.139 150.056 416.571 146.7 414.85C144.7 413.85 141.62 413.65 140.62 416.15C139.62 418.65 141.83 420.43 143.76 421.28ZM141.98 418.38C140.22 414.27 145.39 415.38 146.81 416.14C147.727 416.649 148.606 417.224 149.44 417.86C151.153 419.187 152.795 420.602 154.36 422.1C152.64 421.8 150.91 421.66 149.18 421.42C147.12 421.15 143 420.65 142 418.38H141.98Z" fill="#263238"/>
<path d="M141 443.49C129.5 443.18 120 442.7 119.11 442.13C118.22 441.56 117.84 432.97 117.66 422.45C122.36 426.66 134.08 437.11 141 443.49Z" fill="#263238"/>
<path d="M105.24 207.48C105.24 207.48 114.36 310.1 115.84 317.93C116.19 319.72 116.4 329.42 116.54 341.88C116.85 369.09 116.67 418.15 116.67 418.15H159.48C159.48 418.15 158.21 333.15 156.31 317.5C154.41 301.85 142.31 207.5 142.31 207.5L105.24 207.48Z" fill="#37474F"/>
<path d="M157.54 410.69C150.86 410.55 152.78 410.5 146.1 410.43C142.83 410.43 121.35 410.22 118.29 410.72C118.271 410.72 118.253 410.727 118.24 410.741C118.227 410.754 118.22 410.771 118.22 410.79C118.22 410.809 118.227 410.826 118.24 410.84C118.253 410.853 118.271 410.86 118.29 410.86C121.35 411.36 142.83 411.18 146.1 411.14C152.78 411.08 150.86 411.03 157.54 410.89C157.566 410.89 157.592 410.879 157.61 410.861C157.629 410.842 157.64 410.817 157.64 410.79C157.64 410.763 157.629 410.738 157.61 410.719C157.592 410.701 157.566 410.69 157.54 410.69Z" fill="#263238"/>
<path d="M124.8 362.1C124.747 355.887 124.7 349.677 124.66 343.47C124.66 337.47 124.66 331.47 124.34 325.47C123.76 313.3 121.34 301.34 119.54 289.31C117.74 277.28 116.32 265.2 114.99 253.11C113.5 239.55 112.19 225.96 110.8 212.39C110.8 212.3 110.64 212.3 110.65 212.39C112.65 236.63 114.92 260.86 118.27 284.95C119.11 290.95 120.023 296.93 121.01 302.89C122.01 308.89 123.01 314.97 123.48 321.08C123.95 327.19 124.02 333.08 124.08 339.08C124.153 345.294 124.217 351.5 124.27 357.7C124.4 371.48 124.53 392.7 124.67 406.48C124.68 406.527 124.706 406.569 124.743 406.599C124.781 406.628 124.827 406.645 124.875 406.645C124.923 406.645 124.969 406.628 125.006 406.599C125.044 406.569 125.07 406.527 125.08 406.48C125 394.12 124.89 374.39 124.8 362.1Z" fill="#263238"/>
<path d="M96.21 207.48C96.21 207.48 114.36 310.1 115.84 317.93C116.19 319.72 116.4 329.42 116.54 341.88L137 207.48H96.21Z" fill="#263238"/>
<path d="M134.53 447.35C132.36 447.88 71.8297 442.79 69.6497 441.14C68.8097 440.52 69.0397 431.66 69.6497 420.96C69.6497 420.85 69.6497 420.73 69.6497 420.62C69.7697 418.42 69.8997 416.15 70.0597 413.85L70.1197 412.85C71.1197 397.42 72.5097 381.43 72.5097 381.43L113 384.77L109.57 415.77L109.44 417L108.74 423.43L108.67 424.09C108.67 424.09 130.96 436.4 133.17 438.47C135.38 440.54 136.7 446.82 134.53 447.35Z" fill="#AD6359"/>
<path d="M134.53 447.35C132.36 447.88 71.8297 442.79 69.6497 441.14C68.8097 440.52 69.0397 431.66 69.6497 420.96C69.6497 420.85 69.6497 420.73 69.6497 420.62C69.7697 418.42 69.8997 416.15 70.0597 413.85L70.1197 412.85L109.57 415.76L109.44 416.99L108.74 423.42L108.67 424.08C108.67 424.08 130.96 436.39 133.17 438.46C135.38 440.53 136.7 446.82 134.53 447.35Z" fill="#EBEBEB"/>
<path d="M134.53 447.35C132.36 447.88 71.8297 442.79 69.6497 441.14C68.8097 440.52 69.0397 431.66 69.6497 420.96C69.6497 420.85 69.6497 420.73 69.6497 420.62L108.74 423.47L108.67 424.13C108.67 424.13 130.96 436.44 133.17 438.51C135.38 440.58 136.7 446.82 134.53 447.35Z" fill="#00AF00"/>
<path d="M134 444.94C123.82 443.83 82.6498 440.33 72.4998 440C72.4198 440 72.4098 440.06 72.4998 440.07C82.5598 441.39 123.76 444.56 133.99 445.07C134.24 445.12 134.26 445 134 444.94Z" fill="#263238"/>
<path d="M113.06 423.94C109.06 422.86 104.15 423.06 100.84 425.66C100.71 425.76 100.84 425.95 100.99 425.92C104.926 425.002 108.949 424.509 112.99 424.45C113.053 424.45 113.113 424.427 113.16 424.386C113.207 424.345 113.238 424.288 113.246 424.226C113.255 424.164 113.241 424.101 113.206 424.048C113.172 423.996 113.12 423.957 113.06 423.94Z" fill="#263238"/>
<path d="M115.82 425.93C111.82 424.85 106.9 425.05 103.59 427.65C103.47 427.75 103.59 427.94 103.74 427.91C107.676 426.993 111.699 426.5 115.74 426.44C115.804 426.442 115.866 426.421 115.915 426.381C115.964 426.34 115.996 426.283 116.006 426.221C116.016 426.158 116.002 426.094 115.968 426.04C115.934 425.986 115.881 425.947 115.82 425.93Z" fill="#263238"/>
<path d="M118.57 427.92C114.57 426.84 109.65 427.04 106.34 429.64C106.22 429.74 106.34 429.93 106.5 429.9C110.436 428.981 114.459 428.489 118.5 428.43C118.562 428.43 118.623 428.407 118.67 428.366C118.717 428.324 118.747 428.268 118.756 428.206C118.764 428.144 118.75 428.081 118.716 428.028C118.682 427.976 118.63 427.937 118.57 427.92Z" fill="#263238"/>
<path d="M119 415.63C117.61 413.32 114.59 414.05 112.79 415.32C109.732 417.545 107.317 420.54 105.79 424C105.79 424.08 105.79 424.13 105.87 424.15C105.861 424.228 105.87 424.307 105.897 424.381C105.924 424.455 105.968 424.521 106.026 424.575C106.083 424.628 106.152 424.667 106.228 424.689C106.303 424.711 106.383 424.715 106.46 424.7C109.87 423.75 113.65 423.16 116.67 421.19C118.51 420 120.34 417.81 119 415.63ZM111.39 422.2C109.72 422.71 108.04 423.13 106.39 423.7C107.694 421.963 109.086 420.295 110.56 418.7C111.285 417.942 112.06 417.233 112.88 416.58C114.17 415.58 119.09 413.67 118.01 418.02C117.44 420.44 113.4 421.6 111.41 422.2H111.39Z" fill="#263238"/>
<path d="M95.7398 422.09C98.9298 423.78 102.74 424.03 106.23 424.66C106.59 424.73 106.81 424.36 106.77 424.06C106.785 424.055 106.799 424.046 106.811 424.035C106.823 424.024 106.832 424.01 106.838 423.995C106.844 423.979 106.846 423.963 106.845 423.946C106.843 423.93 106.838 423.914 106.83 423.9C105.009 420.601 102.349 417.842 99.1198 415.9C97.2198 414.79 94.1198 414.34 92.9698 416.76C91.8198 419.18 93.8798 421.1 95.7398 422.09ZM94.1698 419.09C92.6998 414.86 97.7798 416.33 99.1698 417.19C100.045 417.77 100.881 418.408 101.67 419.1C103.285 420.546 104.824 422.074 106.28 423.68C104.58 423.26 102.87 422.99 101.16 422.68C99.0998 422.19 94.9998 421.41 94.1698 419.07V419.09Z" fill="#263238"/>
<path d="M110.47 420.46L67.6997 418.65C67.6997 418.65 79.3797 324.79 79.5897 319C80.1497 304 90.0997 207.41 90.0997 207.41H142.34C142.34 207.41 139.04 229.72 133.41 243.86C129.62 245.187 125.961 246.86 122.48 248.86C122.48 248.86 117.58 312.75 117.4 320.72C117 336.5 110.47 420.46 110.47 420.46Z" fill="#37474F"/>
<path d="M109.33 412.62C102.67 412.2 104.59 412.23 97.9099 411.88C94.6499 411.71 73.1899 410.62 70.1199 410.99C70.0499 410.99 70.0499 411.11 70.1199 411.13C73.1199 411.76 94.6299 412.49 97.8899 412.59C104.57 412.81 102.66 412.68 109.34 412.82C109.366 412.819 109.391 412.807 109.409 412.787C109.427 412.768 109.436 412.742 109.435 412.715C109.434 412.689 109.422 412.664 109.402 412.646C109.382 412.628 109.356 412.619 109.33 412.62Z" fill="#263238"/>
<path d="M93.9296 213.17C91.9896 237.5 89.9996 261.84 87.7696 286.17C85.5396 310.5 82.9296 334.93 79.7696 359.22C77.9996 372.77 75.9996 391.88 73.8896 405.4C73.8896 405.49 74.0096 405.53 74.0296 405.4C78.3396 381.4 81.5096 351.56 84.1996 327.31C86.8896 303.06 89.0996 278.74 91.0696 254.42C92.1796 240.66 93.1796 226.89 94.2396 213.13C94.2496 213 93.9996 213 93.9296 213.17Z" fill="#263238"/>
<path d="M135.27 242.92C130.839 244.543 126.56 246.55 122.48 248.92C122.445 248.936 122.418 248.965 122.405 249.001C122.392 249.036 122.394 249.076 122.41 249.11C122.426 249.145 122.455 249.171 122.49 249.184C122.526 249.198 122.565 249.196 122.6 249.18C126.91 247.33 131.3 245.56 135.5 243.47C135.573 243.44 135.63 243.381 135.66 243.308C135.69 243.235 135.69 243.153 135.66 243.08C135.629 243.007 135.571 242.949 135.498 242.919C135.425 242.889 135.343 242.89 135.27 242.92Z" fill="#263238"/>
<path d="M136.64 213.35C136.64 213.2 136.37 213.17 136.37 213.35C136.37 218.46 136.08 222.96 135.65 227.75C135.45 229.97 133.65 242.23 129.81 241.34C129.17 241.19 128.81 240.55 128.74 239.58C128.747 238.31 128.919 237.046 129.25 235.82C129.67 233.25 130.02 230.68 130.25 228.08C130.697 223.251 130.643 218.388 130.09 213.57C130.082 213.543 130.066 213.519 130.043 213.502C130.021 213.485 129.993 213.476 129.965 213.476C129.937 213.476 129.909 213.485 129.887 213.502C129.864 213.519 129.848 213.543 129.84 213.57C129.954 220.257 129.563 226.942 128.67 233.57C128.19 236.76 126.58 241.57 129.92 242.05C133.26 242.53 135.52 234.51 135.92 232.31C136.981 226.048 137.223 219.675 136.64 213.35Z" fill="#263238"/>
<path d="M129.91 241.65C129.564 242.475 129.276 243.324 129.05 244.19C128.797 244.857 128.675 245.567 128.69 246.28C128.69 246.42 128.88 246.43 128.95 246.34C129.347 245.722 129.651 245.048 129.85 244.34C130.14 243.55 130.45 242.77 130.72 241.97C130.762 241.863 130.76 241.743 130.714 241.637C130.668 241.531 130.582 241.447 130.475 241.405C130.367 241.363 130.247 241.365 130.141 241.41C130.035 241.456 129.952 241.543 129.91 241.65Z" fill="#263238"/>
<path d="M112.49 217.36C112.502 216.825 112.448 216.291 112.33 215.77C112.322 215.755 112.311 215.743 112.297 215.734C112.283 215.726 112.266 215.721 112.25 215.721C112.233 215.721 112.217 215.726 112.203 215.734C112.189 215.743 112.177 215.755 112.17 215.77C112.064 216.223 112.004 216.685 111.99 217.15C111.99 217.68 111.87 218.15 111.81 218.73C111.699 219.812 111.512 220.884 111.25 221.94C110.763 223.933 109.747 225.757 108.31 227.22C106.876 228.63 105.177 229.742 103.31 230.49C101.244 231.222 99.1369 231.833 96.9999 232.32C96.9787 232.32 96.9584 232.328 96.9434 232.343C96.9283 232.358 96.9199 232.379 96.9199 232.4C96.9199 232.421 96.9283 232.442 96.9434 232.457C96.9584 232.472 96.9787 232.48 96.9999 232.48C99.366 232.475 101.709 232.013 103.9 231.12C105.842 230.391 107.61 229.264 109.09 227.81C110.567 226.308 111.605 224.43 112.09 222.38C112.335 221.323 112.475 220.244 112.51 219.16C112.538 218.56 112.532 217.959 112.49 217.36Z" fill="#263238"/>
<path d="M163.62 119.58C166.84 123.47 170.34 133.98 170.21 136.85C170.08 139.72 152.39 146.24 149.89 144.68C147.39 143.12 137.55 129.22 137.46 124.07C137.37 118.92 160.28 115.56 163.62 119.58Z" fill="#AD6359"/>
<path d="M137 112.44C135.38 110.75 130.14 105.7 127.81 107.98C126.35 109.4 129.87 113.29 131.35 114.83C134.4 117.99 136.76 123.58 137.86 126.31C138.96 129.04 144.11 123.65 144.11 123.65C144.11 123.65 141.23 116.83 137 112.44Z" fill="#AD6359"/>
<path d="M141.3 129.36C141.3 129.36 143.11 134.22 146.06 134.11C149.01 134 148.26 129.82 148.22 129.52C148.31 129.78 150.09 134.2 153.05 133.79C156.01 133.38 154.75 129.27 154.66 129.01C154.82 129.22 157.1 132.01 159.27 131.18C163.01 129.76 157.4 122.49 157.94 119.3C157.94 119.3 163.46 119.61 163.62 119.58C163.62 119.58 158.42 112.58 154.07 112.06C153.437 111.972 152.793 112.105 152.246 112.437C151.7 112.768 151.284 113.278 151.07 113.88C151.07 113.88 149.64 111.43 147.3 111.68C146.1 111.81 145.24 113.85 145.24 113.85C144.889 113.312 144.396 112.881 143.815 112.605C143.234 112.33 142.589 112.221 141.95 112.29C140.3 112.56 139.48 114.62 139.39 115.42C138.69 121.54 141.3 129.36 141.3 129.36Z" fill="#AD6359"/>
<path d="M139.58 114.86C139.58 114.86 139.51 114.86 139.5 114.86C138.598 119.83 139.23 124.957 141.31 129.56C141.38 129.7 141.64 129.65 141.59 129.48C140.218 124.729 139.541 119.805 139.58 114.86Z" fill="#263238"/>
<path d="M145.23 113.78C145.23 113.72 145.14 113.72 145.13 113.78C144.197 119.268 145.262 124.909 148.13 129.68C148.24 129.85 148.5 129.89 148.39 129.68C146.56 126.36 145.13 118.41 145.23 113.78Z" fill="#263238"/>
<path d="M155 129.27C152.26 124.57 151.29 119.47 151.06 114.08C151.06 114.01 150.96 114.02 150.94 114.08C150.34 116.75 150.85 120.16 151.47 122.79C152.001 125.237 153.163 127.502 154.84 129.36C154.89 129.44 155 129.37 155 129.27Z" fill="#263238"/>
<path d="M141.3 129.36C141.735 130.258 142.25 131.115 142.84 131.92C143.381 132.726 144.126 133.375 145 133.8C145.415 133.959 145.875 133.959 146.29 133.8C146.715 133.648 147.093 133.39 147.39 133.05C147.652 132.686 147.835 132.271 147.928 131.832C148.021 131.393 148.022 130.939 147.93 130.5L147.56 128.34L148.66 130.24C149.141 131.09 149.755 131.856 150.48 132.51C150.796 132.831 151.178 133.081 151.598 133.243C152.019 133.405 152.47 133.476 152.92 133.45C153.339 133.425 153.737 133.256 154.047 132.972C154.356 132.688 154.559 132.306 154.62 131.89C154.736 130.955 154.616 130.006 154.27 129.13L153.38 126.69L155.01 128.69C155.463 129.248 155.984 129.749 156.56 130.18C157.094 130.603 157.741 130.86 158.42 130.92C158.726 130.934 159.03 130.863 159.298 130.715C159.567 130.566 159.789 130.347 159.94 130.08C160.176 129.44 160.228 128.748 160.09 128.08C159.803 126.604 159.402 125.153 158.89 123.74C158.65 123.02 158.41 122.29 158.21 121.55C157.965 120.824 157.876 120.053 157.95 119.29C157.963 120.046 158.119 120.792 158.41 121.49C158.67 122.2 158.96 122.9 159.25 123.61C159.87 125.024 160.356 126.494 160.7 128C160.906 128.809 160.871 129.66 160.6 130.45C160.404 130.864 160.092 131.212 159.701 131.45C159.31 131.688 158.857 131.806 158.4 131.79C157.555 131.742 156.743 131.443 156.07 130.93C155.419 130.464 154.831 129.916 154.32 129.3L155.06 128.86C155.491 129.885 155.646 131.006 155.51 132.11C155.418 132.724 155.114 133.287 154.65 133.7C154.187 134.085 153.619 134.322 153.02 134.38C152.448 134.415 151.875 134.327 151.34 134.122C150.806 133.917 150.321 133.599 149.92 133.19C149.116 132.469 148.439 131.617 147.92 130.67L148.65 130.41C148.743 130.958 148.717 131.52 148.572 132.057C148.427 132.594 148.167 133.093 147.81 133.52C147.424 133.922 146.942 134.218 146.41 134.38C145.867 134.547 145.282 134.505 144.77 134.26C143.85 133.757 143.091 133.005 142.58 132.09C142.051 131.231 141.622 130.316 141.3 129.36Z" fill="#263238"/>
<path d="M147.8 142.61C147.8 142.61 128.73 132.86 136.2 127.28C138.41 125.62 149.5 121.45 150.38 123.66C151.52 126.51 147.21 129.12 144.25 130.32C144.25 130.32 151.2 132.73 150.97 138.06C150.912 139.037 150.585 139.979 150.026 140.782C149.467 141.584 148.696 142.217 147.8 142.61Z" fill="#AD6359"/>
<path d="M135.61 127.78C136.397 127.023 137.294 126.389 138.27 125.9C139.24 125.383 140.242 124.929 141.27 124.54C143.312 123.738 145.42 123.115 147.57 122.68C148.142 122.56 148.728 122.526 149.31 122.58C149.662 122.602 150.004 122.704 150.31 122.88C150.469 122.972 150.611 123.09 150.73 123.23C150.848 123.369 150.939 123.528 151 123.7C151.23 124.316 151.23 124.994 151 125.61C150.789 126.172 150.477 126.69 150.08 127.14C149.326 127.992 148.43 128.707 147.43 129.25C146.468 129.8 145.465 130.275 144.43 130.67V129.96C145.213 130.266 145.967 130.644 146.68 131.09C147.397 131.522 148.067 132.028 148.68 132.6C149.283 133.187 149.796 133.861 150.2 134.6C150.609 135.319 150.877 136.11 150.99 136.93C150.778 136.15 150.44 135.41 149.99 134.74C149.53 134.09 148.985 133.505 148.37 133C147.752 132.484 147.082 132.035 146.37 131.66C145.678 131.279 144.951 130.964 144.2 130.72L143.27 130.43L144.17 130.01C145.145 129.587 146.09 129.1 147 128.55C147.898 128.031 148.708 127.373 149.4 126.6C149.731 126.28 149.975 125.88 150.108 125.439C150.241 124.998 150.259 124.53 150.16 124.08C149.94 123.38 148.75 123.41 147.74 123.56C146.73 123.71 145.66 123.98 144.61 124.24C143.56 124.5 142.53 124.79 141.5 125.12C139.411 125.696 137.423 126.593 135.61 127.78Z" fill="#263238"/>
<path d="M125.85 156.41C142.71 177.22 167.22 190.7 173.27 186.31C179.32 181.92 158.93 158.94 158.58 158.6C157.39 157.46 148.37 152.77 131.99 145.87C115.92 139.1 118.32 147.12 125.85 156.41Z" fill="#AD6359"/>
<path d="M151 154L138.3 170.7C138.3 170.7 127.64 159.7 122 152.42C116.36 145.14 116.92 139.48 129.54 144.18C136.928 146.915 144.101 150.197 151 154Z" fill="#00AF00"/>
<path d="M137.09 166.87C138.64 164.59 140.26 162.35 141.92 160.16C142.75 159.08 143.55 157.98 144.4 156.91C145.25 155.84 146.22 154.77 147.09 153.67C147.15 153.59 147.27 153.67 147.21 153.75C146.41 154.85 145.69 156 144.89 157.1C144.09 158.2 143.21 159.34 142.36 160.46C140.687 162.66 138.963 164.82 137.19 166.94C137.14 167 137 166.94 137.09 166.87Z" fill="#263238"/>
<path d="M144.38 162.68L138.3 170.68C138.3 170.68 127.64 159.68 122 152.4L121.46 151.69L121.23 151.36L120.88 150.85C120.58 150.41 120.31 149.98 120.07 149.56C119.98 149.41 119.9 149.26 119.82 149.11C119.403 148.351 119.068 147.55 118.82 146.72C118.746 146.464 118.689 146.204 118.65 145.94C118.65 145.81 118.65 145.69 118.65 145.57C124.19 149.41 137.19 157.82 144.38 162.68Z" fill="#263238"/>
<path d="M144.89 217.73C144.89 217.73 87.0197 218.73 86.6797 218.37C85.7797 217.37 97.4697 157.78 109.56 145.5C113.83 141.16 122.64 142.93 124.11 143.64C127.5 145.28 130.69 148.82 133.36 155.38C138.7 168.5 145.62 216.79 144.89 217.73Z" fill="#00AF00"/>
<path opacity="0.1" d="M127 145.6H109.47L109.56 145.5C109.968 145.088 110.42 144.722 110.91 144.41H125.46C126.004 144.764 126.519 145.162 127 145.6ZM128.93 147.6H107.82C107.54 147.97 107.27 148.37 107 148.79H129.85C129.56 148.37 129.26 148 129 147.6H128.93ZM131.11 150.79H105.79C105.57 151.18 105.35 151.58 105.14 151.99H131.79C131.58 151.58 131.36 151.17 131.13 150.79H131.11ZM132.74 153.99H104.13L103.56 155.18H133.27C133.11 154.77 132.94 154.37 132.76 154L132.74 153.99ZM134.01 157.18H102.68L102.17 158.37H134.42C134.29 158 134.16 157.56 134 157.18H134.01ZM135.01 160.37H101.36C101.21 160.77 101.05 161.16 100.89 161.57H135.36L135.01 160.37ZM135.87 163.56H100.15C100.01 163.96 99.8598 164.35 99.7198 164.76H136.19C136.063 164.353 135.963 163.953 135.89 163.56H135.87ZM136.65 166.76H98.9998C98.8598 167.15 98.7298 167.55 98.5998 167.95H136.92L136.65 166.76ZM137.37 169.95H97.9998C97.8698 170.34 97.7498 170.74 97.6198 171.14H137.7C137.56 170.74 137.48 170.34 137.39 170L137.37 169.95ZM138.05 173.14H96.9998C96.8698 173.53 96.7498 173.93 96.6298 174.34H138.37C138.24 173.94 138.16 173.54 138.07 173.14H138.05ZM138.7 176.33H95.9998C95.8798 176.73 95.7598 177.13 95.6498 177.53H139L138.7 176.33ZM139.32 179.53H95.0598C94.9398 179.93 94.8298 180.32 94.7198 180.72H139.56C139.49 180.32 139.42 179.92 139.34 179.53H139.32ZM139.91 182.72H94.1698C94.0598 183.12 93.9498 183.52 93.8498 183.91H140.15C140.08 183.51 140 183.12 139.93 182.72H139.91ZM140.48 185.91H93.3198C93.2098 186.31 93.1098 186.71 93.0098 187.11H140.71C140.65 186.71 140.58 186.31 140.5 185.91H140.48ZM141.05 189.11H92.4898C92.3998 189.51 92.2998 189.9 92.1998 190.3H141.26C141.2 189.91 141.13 189.51 141.07 189.11H141.05ZM141.57 192.3H91.6998C91.6098 192.7 91.5098 193.1 91.4198 193.49H141.79C141.73 193.1 141.66 192.7 141.59 192.3H141.57ZM142.09 195.49H90.9398C90.8498 195.9 90.7598 196.3 90.6598 196.69H142.3C142.24 196.29 142.18 195.9 142.11 195.49H142.09ZM142.6 198.68H90.2098C90.1198 199.08 90.0298 199.49 89.9398 199.88H142.79C142.73 199.49 142.67 199.09 142.62 198.68H142.6ZM143.07 201.88H89.4998C89.4198 202.28 89.3298 202.68 89.2498 203.07H143.25L143.07 201.88ZM143.53 205.07H88.8198C88.7398 205.48 88.6598 205.87 88.5798 206.26H143.72C143.66 205.87 143.61 205.47 143.55 205.07H143.53ZM143.97 208.26H88.1898C88.0964 208.673 88.0164 209.073 87.9498 209.46H144.15C144.1 209.07 144 208.67 144 208.26H143.97ZM144.37 211.45H87.5798C87.4998 211.87 87.4298 212.27 87.3598 212.65H144.54C144.5 212.27 144.45 211.87 144.39 211.45H144.37ZM144.74 214.65H86.9998C86.9298 215.08 86.8798 215.48 86.8198 215.84H144.82C144.84 215.49 144.8 215.09 144.76 214.65H144.74ZM86.6198 217.84C86.5753 218.014 86.5753 218.196 86.6198 218.37C86.8898 218.64 122.78 218.09 138.07 217.84H86.6198Z" fill="#030402"/>
<path d="M112.86 152.72C108.96 158.07 88.9598 180.18 88.2198 182.23C87.4798 184.28 92.1098 188.81 92.0298 189.66C91.7298 193.12 84.2598 216.14 81.2698 213.8C77.3298 210.72 60.6498 188.66 63.0098 179.11C65.3698 169.56 104.32 146.63 110.5 144.64C116.68 142.65 116.71 147.44 112.86 152.72Z" fill="#AD6359"/>
<path d="M97.15 172.85L85.79 156.9C85.79 156.9 98.5 148.56 107 145C115.5 141.44 119.69 143.42 111.92 154.41C107.378 160.853 102.445 167.011 97.15 172.85Z" fill="#00AF00"/>
<path d="M89.1496 155.86C90.9496 157.947 92.6996 160.08 94.3996 162.26C95.2396 163.33 96.0896 164.39 96.8996 165.48C97.7096 166.57 98.5096 167.79 99.3596 168.91C99.4196 168.99 99.2996 169.09 99.2396 169.01C98.3796 168.01 97.4596 167.01 96.5996 165.91C95.7396 164.81 94.8596 163.71 93.9996 162.61C92.2996 160.43 90.6496 158.2 89.0596 155.94C88.9996 155.88 89.0996 155.8 89.1496 155.86Z" fill="#263238"/>
<path d="M97.1297 172.93C98.8697 170.62 100.92 168.56 102.8 166.37C104.68 164.18 106.55 161.92 108.34 159.64C108.34 159.64 108.47 159.64 108.43 159.7C107.6 160.89 106.79 162.09 105.92 163.25C105.49 163.82 105.04 164.38 104.58 164.94L105.25 164.39C105.935 163.875 106.646 163.394 107.38 162.95C107.38 162.95 107.46 162.95 107.38 163.01C106.743 163.599 106.076 164.153 105.38 164.67C104.88 165.05 104.38 165.4 103.85 165.75L103.05 166.75C101.304 169.003 99.3597 171.095 97.2397 173C97.1797 173.09 97.0697 173 97.1297 172.93Z" fill="#263238"/>
<path d="M91.0498 222.54C93.7198 220.73 90.0498 218.61 90.0498 218.61C90.0498 218.61 96.0498 220.39 98.0498 217.46C100.05 214.53 95.4898 212.23 95.1698 212.05C95.4898 212.15 101.05 213.63 102.79 210.48C104.53 207.33 99.6498 205.57 99.3298 205.48C99.6598 205.48 103.99 205.29 104.77 202.59C106.1 197.96 93.6598 197.42 90.9798 194.59C90.9798 194.59 92.1798 188.47 92.2798 188.3C91.4752 189.674 90.2265 190.732 88.7398 191.3C86.0498 192.06 83.6298 192.5 82.5398 193.79C82.0312 194.355 81.7178 195.068 81.6457 195.824C81.5737 196.581 81.7469 197.34 82.1398 197.99C82.1398 197.99 78.7398 197.6 77.2898 200.04C76.5498 201.29 77.8998 203.6 77.8998 203.6C77.1304 203.545 76.3607 203.703 75.6747 204.055C74.9887 204.408 74.4127 204.943 74.0098 205.6C73.0798 207.4 74.5798 209.43 74.5798 209.43C74.5798 209.43 71.8598 210.43 71.5098 212.59C70.8398 216.92 85.3298 226.4 91.0498 222.54Z" fill="#AD6359"/>
<path d="M74.82 209.8C74.82 209.8 74.71 209.8 74.75 209.87C78.8951 214.336 84.3015 217.433 90.25 218.75C90.44 218.75 90.58 218.49 90.38 218.41C84.8036 216.309 79.5621 213.409 74.82 209.8Z" fill="#263238"/>
<path d="M77.8599 203.56C77.8533 203.555 77.8458 203.551 77.8377 203.548C77.8296 203.546 77.8212 203.545 77.8128 203.546C77.8045 203.547 77.7964 203.55 77.789 203.554C77.7816 203.558 77.7751 203.563 77.7699 203.57C77.7646 203.577 77.7607 203.584 77.7584 203.592C77.756 203.6 77.7553 203.609 77.7563 203.617C77.7572 203.625 77.7597 203.633 77.7638 203.641C77.7679 203.648 77.7733 203.655 77.7799 203.66C82.4009 208.532 88.6109 211.593 95.2899 212.29C95.5199 212.29 95.7499 212.09 95.4799 212.05C90.9999 211.37 82.2599 207 77.8599 203.56Z" fill="#263238"/>
<path d="M99.8699 205.33C93.3499 204.59 87.7199 201.83 82.3499 198.17C82.2799 198.17 82.2199 198.22 82.2599 198.28C84.3999 200.79 88.0699 202.77 91.0599 204.07C93.8056 205.327 96.8333 205.841 99.8399 205.56C99.9999 205.55 99.9999 205.35 99.8699 205.33Z" fill="#263238"/>
<path d="M74.4498 209.43C73.9066 208.883 73.5257 208.197 73.3491 207.447C73.1726 206.696 73.2075 205.912 73.4498 205.18C73.763 204.491 74.313 203.938 74.9998 203.62C75.8184 203.337 76.6938 203.258 77.5498 203.39C77.0725 202.718 76.8103 201.916 76.7978 201.091C76.7853 200.266 77.0231 199.457 77.4798 198.77C77.9919 198.183 78.7054 197.808 79.4798 197.72C80.3636 197.634 81.255 197.668 82.1298 197.82C81.7654 197.391 81.506 196.883 81.3724 196.336C81.2387 195.789 81.2344 195.219 81.3598 194.67C81.5253 194.074 81.8288 193.526 82.2458 193.069C82.6627 192.612 83.1814 192.259 83.7598 192.04C85.1205 191.548 86.533 191.212 87.9698 191.04C88.7074 190.93 89.4291 190.732 90.1198 190.45C90.8641 190.11 91.4881 189.552 91.9098 188.85C91.9898 188.73 91.9898 188.85 91.9098 188.96C91.6298 189.437 91.2714 189.863 90.8498 190.22C90.412 190.602 89.9242 190.921 89.3998 191.17C88.0981 191.661 86.7609 192.052 85.3998 192.34C84.2067 192.658 83.152 193.361 82.3998 194.34C82.056 194.858 81.8628 195.462 81.8416 196.083C81.8204 196.705 81.9721 197.32 82.2798 197.86C82.2798 197.86 82.2798 197.99 82.1898 197.98C81.3914 197.977 80.5955 198.071 79.8198 198.26C79.1764 198.414 78.5965 198.763 78.1598 199.26C77.7552 199.894 77.5238 200.623 77.4888 201.374C77.4537 202.125 77.6161 202.872 77.9598 203.54C77.0974 203.598 76.2532 203.815 75.4698 204.18C74.9612 204.493 74.552 204.944 74.2898 205.48C73.9903 206.098 73.8681 206.787 73.937 207.47C74.0058 208.154 74.263 208.804 74.6798 209.35C74.6836 209.367 74.6836 209.384 74.6798 209.4C74.6798 209.4 73.8098 209.76 73.7698 209.76C73.9895 209.636 74.2166 209.526 74.4498 209.43Z" fill="#263238"/>
<path d="M124.09 152.51C120.91 153.68 114.69 149.35 111.98 145.57C111.8 145.31 111.62 134.06 111.36 131.84C111.3 131.38 125.73 133.56 125.73 133.56C125.269 136.436 125.161 139.358 125.41 142.26C125.45 142.58 127.16 151.39 124.09 152.51Z" fill="#AD6359"/>
<path d="M125.73 133.56C125.73 133.56 125.57 134.49 125.44 135.87C121.44 140.78 115.02 141.3 111.76 141.19C111.65 137.7 111.52 133.19 111.36 131.84C111.3 131.39 125.73 133.56 125.73 133.56Z" fill="#263238"/>
<path d="M111.42 107.87C111.42 107.87 106.82 109.65 105.88 114.25C104.94 118.85 105.88 123.73 106.26 123.98C106.64 124.23 111.42 107.87 111.42 107.87Z" fill="#263238"/>
<path d="M130 113.81C131.18 118.88 127.6 133.07 123.84 136.03C118.4 140.33 109.96 140.21 106.42 133.78C103 127.55 108 109.15 112.15 106.5C118.25 102.61 128.23 106.31 130 113.81Z" fill="#AD6359"/>
<path d="M115.73 121.78C115.73 121.78 115.8 121.84 115.79 121.88C115.59 122.88 115.52 124.01 116.36 124.49C116.36 124.49 116.36 124.55 116.36 124.54C115.28 124.2 115.38 122.67 115.73 121.78Z" fill="#263238"/>
<path d="M116.78 120.9C118.39 121.05 117.96 124.25 116.48 124.11C115 123.97 115.44 120.77 116.78 120.9Z" fill="#263238"/>
<path d="M110.15 120.79C110.15 120.79 110.07 120.79 110.06 120.87C109.97 121.87 109.7 122.98 108.76 123.2V123.26C109.88 123.24 110.22 121.74 110.15 120.79Z" fill="#263238"/>
<path d="M109.4 119.64C107.82 119.32 107.29 122.5 108.76 122.8C110.23 123.1 110.72 119.91 109.4 119.64Z" fill="#263238"/>
<path d="M115.51 130.05C115.25 130.26 114.98 130.56 114.62 130.56C114.25 130.522 113.892 130.406 113.57 130.22C113.692 130.429 113.87 130.6 114.084 130.715C114.297 130.83 114.538 130.883 114.78 130.87C114.991 130.844 115.188 130.751 115.342 130.606C115.497 130.46 115.601 130.269 115.64 130.06C115.64 130.06 115.55 130 115.51 130.05Z" fill="#263238"/>
<path d="M110.88 125.49C110.88 125.49 110.46 126.93 110.36 127.63C111.719 127.829 113.043 128.223 114.29 128.8C114.58 128.94 114.62 128.69 114.29 128.43C113.359 127.674 112.224 127.215 111.03 127.11C111.03 126.91 111.72 124.9 111.61 124.87C111.07 124.839 110.528 124.883 110 125C110.78 122 112 119.08 112.78 116C112.78 115.89 112.65 115.83 112.6 115.92C111.157 118.974 110.018 122.163 109.2 125.44C109.07 125.88 110.58 125.57 110.88 125.49Z" fill="#263238"/>
<path d="M118 119.81C117.62 119.57 117.32 119.28 117 119.01C116.68 118.74 116.26 118.49 116.11 118.01C116.078 117.866 116.096 117.714 116.161 117.582C116.227 117.449 116.336 117.343 116.47 117.28C116.751 117.188 117.052 117.174 117.341 117.239C117.629 117.304 117.895 117.446 118.11 117.65C118.615 117.989 118.972 118.507 119.11 119.1C119.136 119.239 119.12 119.383 119.064 119.513C119.008 119.644 118.914 119.754 118.795 119.83C118.675 119.907 118.536 119.945 118.394 119.942C118.252 119.938 118.115 119.892 118 119.81Z" fill="#263238"/>
<path d="M108.7 116.12C109.14 116.05 109.54 115.93 109.97 115.82C110.433 115.78 110.869 115.587 111.21 115.27C111.299 115.152 111.347 115.008 111.347 114.86C111.347 114.712 111.299 114.568 111.21 114.45C110.99 114.251 110.722 114.113 110.432 114.051C110.142 113.99 109.841 114.007 109.56 114.1C108.959 114.201 108.417 114.522 108.04 115C107.964 115.113 107.921 115.245 107.917 115.381C107.913 115.517 107.947 115.651 108.016 115.768C108.085 115.886 108.186 115.981 108.307 116.043C108.428 116.105 108.564 116.132 108.7 116.12Z" fill="#263238"/>
<path d="M127.64 125.93C124.7 125.64 126.3 112.67 126.3 112.67C124.485 113.288 122.587 113.625 120.67 113.67C118.734 113.602 116.811 113.313 114.94 112.81C114.54 112.66 119.85 111.16 119.85 111.16C119.85 111.16 106.79 112.3 106.35 109.84C106.19 108.99 108.62 101.25 119.46 101.74C127.46 102.1 131.19 110.46 131.19 110.46C131.19 110.46 135.08 114.79 134.41 116.75C133.27 120.19 130.76 126.24 127.64 125.93Z" fill="#263238"/>
<path d="M125.86 126C125.86 126 129.51 121.64 131.52 123C133.53 124.36 130.52 130.85 127.94 131.56C127.619 131.672 127.278 131.718 126.938 131.695C126.599 131.672 126.267 131.58 125.964 131.426C125.661 131.272 125.391 131.059 125.172 130.798C124.954 130.538 124.789 130.236 124.69 129.91L125.86 126Z" fill="#AD6359"/>
<path d="M174.57 185.56C182.69 179.29 174.93 147.46 170.21 135.74C168.82 132.29 146.77 138.74 147.8 142.61C153.69 164.5 165.68 192.43 174.57 185.56Z" fill="#AD6359"/>
<path d="M151.45 154.62L153.88 160.62C154.71 162.62 155.52 164.62 156.42 166.62C157.32 168.62 158.19 170.55 159.11 172.5C160.03 174.45 161.05 176.36 162.05 178.28C160.785 176.518 159.632 174.678 158.6 172.77C157.6 170.86 156.6 168.9 155.73 166.92C154.86 164.94 154.06 162.92 153.34 160.86C152.62 158.8 152 156.73 151.45 154.62Z" fill="#263238"/>
<path d="M150 91.3499C150.097 92.4746 149.858 93.6026 149.313 94.5915C148.769 95.5803 147.944 96.3857 146.942 96.9057C145.94 97.4258 144.807 97.6373 143.685 97.5135C142.563 97.3896 141.503 96.936 140.638 96.21C139.774 95.4839 139.144 94.518 138.829 93.4342C138.513 92.3504 138.526 91.1974 138.865 90.1209C139.205 89.0444 139.856 88.0926 140.736 87.3858C141.616 86.679 142.686 86.249 143.81 86.1499C144.558 86.0841 145.312 86.1664 146.028 86.3922C146.744 86.618 147.409 86.9829 147.984 87.4659C148.559 87.9489 149.033 88.5406 149.379 89.2071C149.725 89.8736 149.936 90.6017 150 91.3499Z" fill="white"/>
<path d="M150 91.35C150.124 92.8811 149.656 94.4015 148.692 95.5977C147.728 96.794 146.343 97.575 144.82 97.78C143.991 97.9464 143.136 97.9356 142.312 97.7485C141.487 97.5613 140.711 97.202 140.035 96.6941C139.359 96.1861 138.798 95.5411 138.389 94.8011C137.98 94.0612 137.732 93.2431 137.661 92.4005C137.59 91.558 137.698 90.7099 137.978 89.912C138.257 89.114 138.703 88.3843 139.284 87.7705C139.866 87.1567 140.571 86.6727 141.352 86.3504C142.134 86.028 142.975 85.8745 143.82 85.9C145.351 85.8477 146.845 86.383 147.994 87.3964C149.143 88.4097 149.861 89.8243 150 91.35ZM150 91.35C149.936 90.6144 149.724 89.8993 149.376 89.2479C149.029 88.5965 148.553 88.0222 147.977 87.5597C147.401 87.0972 146.738 86.756 146.027 86.5567C145.316 86.3574 144.572 86.3041 143.84 86.4C142.44 86.5799 141.164 87.2938 140.279 88.3925C139.393 89.4912 138.966 90.8898 139.088 92.2958C139.209 93.7018 139.869 95.0065 140.93 95.9373C141.991 96.868 143.37 97.3526 144.78 97.29C145.519 97.259 146.243 97.0787 146.91 96.76C147.577 96.4413 148.172 95.9908 148.66 95.4356C149.148 94.8805 149.518 94.2323 149.748 93.53C149.979 92.8278 150.064 92.0862 150 91.35Z" fill="#263238"/>
<path d="M137.58 101.88C137.633 102.506 137.499 103.135 137.195 103.685C136.891 104.236 136.431 104.684 135.873 104.973C135.314 105.261 134.683 105.378 134.058 105.308C133.433 105.238 132.843 104.985 132.362 104.579C131.881 104.174 131.531 103.635 131.357 103.031C131.182 102.427 131.19 101.785 131.381 101.186C131.571 100.586 131.935 100.057 132.426 99.6642C132.917 99.2716 133.514 99.0334 134.14 98.9797C134.557 98.9427 134.976 98.9885 135.375 99.1145C135.774 99.2404 136.144 99.444 136.464 99.7136C136.784 99.9832 137.047 100.313 137.238 100.685C137.43 101.057 137.546 101.463 137.58 101.88Z" fill="white"/>
<path d="M137.58 101.88C137.636 102.566 137.484 103.254 137.145 103.852C136.805 104.451 136.293 104.934 135.675 105.238C135.057 105.542 134.362 105.652 133.68 105.556C132.998 105.459 132.362 105.16 131.852 104.696C131.343 104.233 130.985 103.627 130.825 102.957C130.665 102.287 130.711 101.585 130.955 100.941C131.2 100.297 131.633 99.7424 132.197 99.348C132.761 98.9537 133.432 98.7383 134.12 98.73C134.986 98.7265 135.823 99.0482 136.463 99.6315C137.104 100.215 137.502 101.017 137.58 101.88ZM137.58 101.88C137.547 101.474 137.43 101.08 137.236 100.722C137.042 100.364 136.776 100.05 136.454 99.801C136.132 99.5517 135.762 99.3722 135.367 99.2738C134.972 99.1755 134.561 99.1606 134.16 99.23C133.597 99.3253 133.074 99.5825 132.654 99.9703C132.235 100.358 131.938 100.859 131.799 101.413C131.66 101.967 131.685 102.55 131.872 103.09C132.059 103.629 132.398 104.103 132.85 104.453C133.301 104.803 133.845 105.013 134.414 105.059C134.983 105.105 135.554 104.984 136.055 104.711C136.557 104.439 136.968 104.026 137.239 103.523C137.51 103.02 137.628 102.449 137.58 101.88Z" fill="#263238"/>
<path d="M192.66 64.7899C193.191 69.18 191.958 73.6013 189.232 77.083C186.506 80.5647 182.509 82.8223 178.12 83.3599C175.231 83.7195 172.299 83.309 169.62 82.1699C168.313 83.8803 166.63 85.2664 164.7 86.2205C162.771 87.1745 160.647 87.6708 158.495 87.6708C156.342 87.6708 154.219 87.1745 152.29 86.2205C150.36 85.2664 148.677 83.8803 147.37 82.1699C146.755 82.3516 146.126 82.4821 145.49 82.5599C143.312 82.8258 141.105 82.4544 139.134 81.4907C137.163 80.5271 135.514 79.0125 134.387 77.1306C133.26 75.2488 132.703 73.0804 132.783 70.8882C132.864 68.696 133.578 66.5742 134.84 64.7799C132.383 61.6534 131.123 57.7519 131.288 53.7787C131.454 49.8055 133.033 46.0221 135.742 43.1107C138.451 40.1993 142.11 38.3514 146.061 37.9002C150.012 37.449 153.994 38.4242 157.29 40.6499C158.836 38.728 160.861 37.2486 163.163 36.3612C165.464 35.4739 167.959 35.2103 170.394 35.597C172.83 35.9837 175.121 37.007 177.034 38.5633C178.947 40.1197 180.415 42.1538 181.29 44.4599C181.874 44.2634 182.477 44.1293 183.09 44.0599C184.939 43.8383 186.812 44.1855 188.458 45.0554C190.105 45.9252 191.447 47.2763 192.307 48.9285C193.166 50.5807 193.501 52.4556 193.268 54.3032C193.034 56.1508 192.243 57.8834 191 59.2699C191.874 60.9977 192.436 62.8665 192.66 64.7899Z" fill="white"/>
<path d="M192.66 64.7899C193.18 69.1785 191.963 73.5963 189.27 77.0999C188.367 78.2412 187.326 79.2657 186.17 80.1499C183.829 81.9215 181.067 83.0524 178.156 83.4312C175.245 83.8099 172.286 83.4235 169.57 82.3099H169.73C168.416 84.0531 166.717 85.469 164.765 86.4474C162.814 87.4257 160.663 87.9399 158.48 87.9499C156.287 87.9577 154.121 87.4616 152.15 86.4999C150.18 85.5215 148.454 84.1136 147.1 82.3799L147.46 82.4999C145.133 83.2026 142.646 83.1676 140.34 82.3999C138.023 81.6354 136.005 80.1628 134.57 78.1899C133.867 77.1982 133.312 76.1103 132.92 74.9599C132.545 73.8029 132.346 72.5961 132.33 71.3799C132.308 68.9288 133.049 66.5315 134.45 64.5199V65.0799C131.892 61.8777 130.588 57.8538 130.78 53.7599C130.888 50.7104 131.816 47.7463 133.464 45.1787C135.113 42.6111 137.423 40.5346 140.15 39.167C142.878 37.7995 145.924 37.1915 148.968 37.4066C152.012 37.6218 154.941 38.6523 157.45 40.3899L157.01 40.4499C158.598 38.4951 160.675 36.9954 163.03 36.1032C165.386 35.2109 167.935 34.958 170.42 35.3699C172.889 35.7797 175.207 36.8342 177.139 38.4268C179.07 40.0194 180.547 42.0937 181.42 44.4399L181.29 44.3699C183.244 43.7344 185.353 43.7626 187.29 44.4499C188.714 44.9591 189.99 45.8117 191.005 46.9321C192.02 48.0525 192.743 49.4061 193.11 50.8729C193.477 52.3397 193.477 53.8744 193.109 55.3409C192.74 56.8074 192.016 58.1604 191 59.2799C191.875 61.0039 192.437 62.8695 192.66 64.7899ZM192.66 64.7899C192.424 62.8671 191.848 61.0015 190.96 59.2799C192.319 57.7881 193.142 55.886 193.3 53.8741C193.457 51.8622 192.94 49.8552 191.83 48.1699C190.732 46.4894 189.107 45.221 187.21 44.564C185.313 43.9069 183.252 43.8985 181.35 44.5399H181.25V44.4399C180.362 42.1696 178.897 40.1703 177 38.6399C175.101 37.1123 172.83 36.1181 170.42 35.7599C168.021 35.4016 165.569 35.6774 163.31 36.5599C161.064 37.4516 159.094 38.9213 157.6 40.8199L157.41 41.0599L157.15 40.8799C153.931 38.7346 150.054 37.8048 146.212 38.2569C142.37 38.7089 138.815 40.5133 136.182 43.3472C133.549 46.1811 132.01 49.8595 131.841 53.724C131.672 57.5886 132.884 61.3872 135.26 64.4399L135.48 64.7199L135.27 65.0099C133.963 66.8542 133.264 69.0598 133.27 71.3199C133.286 72.4431 133.464 73.558 133.8 74.6299C134.15 75.6998 134.659 76.711 135.31 77.6299C136.633 79.4807 138.498 80.8756 140.647 81.6224C142.796 82.3692 145.124 82.4312 147.31 81.7999L147.54 81.7399L147.67 81.9199C148.942 83.5955 150.576 84.9627 152.45 85.9199C155.303 87.3651 158.569 87.7723 161.69 87.0716C164.81 86.3709 167.589 84.6061 169.55 82.0799L169.62 81.9899H169.72C172.385 83.1426 175.307 83.5704 178.19 83.2299C181.09 82.8735 183.847 81.7671 186.19 80.0199C187.344 79.1526 188.385 78.1448 189.29 77.0199C190.178 75.8692 190.92 74.613 191.5 73.2799C192.61 70.5967 193.009 67.6726 192.66 64.7899Z" fill="#263238"/>
<path d="M164.15 65.3098C164.129 64.0927 164.347 62.8833 164.79 61.7498C165.347 60.5602 166.288 59.5919 167.46 58.9998C167.87 58.7498 168.36 58.4798 168.96 58.1698C169.567 57.8499 170.146 57.4786 170.69 57.0598C171.249 56.6345 171.736 56.1212 172.13 55.5398C172.525 54.9483 172.731 54.2508 172.72 53.5398C172.73 53.0207 172.617 52.5066 172.39 52.0398C172.185 51.6218 171.896 51.2507 171.54 50.9498C171.179 50.6487 170.761 50.4242 170.31 50.2898C169.848 50.1397 169.366 50.0621 168.88 50.0598C168.324 50.0494 167.773 50.155 167.26 50.3698C166.791 50.5628 166.351 50.8185 165.95 51.1298C165.576 51.4425 165.241 51.7983 164.95 52.1898C164.663 52.5424 164.399 52.9132 164.16 53.2998L160.64 50.8698C160.981 50.0577 161.454 49.3077 162.04 48.6498C162.604 48.0011 163.265 47.4444 164 46.9998C164.75 46.5576 165.558 46.2211 166.4 45.9998C167.271 45.77 168.169 45.6557 169.07 45.6598C170.086 45.665 171.096 45.8132 172.07 46.0998C173.051 46.3925 173.965 46.8749 174.76 47.5198C175.579 48.1959 176.241 49.0422 176.7 49.9998C177.218 51.1348 177.471 52.3726 177.44 53.6198C177.452 54.3904 177.351 55.1586 177.14 55.8998C176.948 56.5425 176.655 57.1503 176.27 57.6998C175.892 58.2417 175.445 58.7325 174.94 59.1598C174.392 59.619 173.81 60.0368 173.2 60.4098L171.58 61.3398C171.061 61.6285 170.569 61.9632 170.11 62.3398C169.667 62.6853 169.291 63.1089 169 63.5898C168.699 64.1118 168.55 64.7076 168.57 65.3098H164.15ZM164.23 74.7298V69.1498H168.71V74.7298H164.23Z" fill="#00AF00"/>
<path d="M154.14 54.8699C154.417 56.0541 154.451 57.2822 154.24 58.4799C153.955 59.7533 153.25 60.8942 152.24 61.7199C151.89 62.0399 151.46 62.4099 150.94 62.8399C150.411 63.2785 149.919 63.7601 149.47 64.2799C149.012 64.8097 148.644 65.411 148.38 66.0599C148.116 66.7207 148.06 67.4465 148.22 68.1399C148.311 68.6467 148.524 69.1238 148.84 69.5299C149.127 69.9003 149.488 70.2069 149.9 70.4299C150.315 70.6523 150.771 70.7884 151.24 70.8299C151.725 70.874 152.213 70.847 152.69 70.7499C153.234 70.6456 153.752 70.4312 154.21 70.1199C154.628 69.837 155.008 69.5008 155.34 69.1199C155.66 68.738 155.932 68.3182 156.15 67.8699C156.354 67.4643 156.535 67.0469 156.69 66.6199L160.63 68.2799C160.469 69.1457 160.161 69.9777 159.72 70.7399C159.292 71.4846 158.753 72.1592 158.12 72.7399C157.478 73.3293 156.758 73.8273 155.98 74.2199C155.176 74.6241 154.322 74.92 153.44 75.0999C152.435 75.3136 151.404 75.3777 150.38 75.2899C149.361 75.2135 148.367 74.9312 147.46 74.4599C146.524 73.9715 145.703 73.2898 145.05 72.4599C143.869 70.8059 143.287 68.799 143.4 66.7699C143.455 66.105 143.618 65.4533 143.88 64.8399C144.137 64.2316 144.473 63.66 144.88 63.1399C145.321 62.5758 145.802 62.0444 146.32 61.5499C146.78 61.1299 147.25 60.7099 147.71 60.3099C148.155 59.9132 148.56 59.4745 148.92 58.9999C149.272 58.5669 149.546 58.0763 149.73 57.5499C149.912 56.9767 149.933 56.3642 149.79 55.7799L154.14 54.8699ZM152.14 45.6699L153.29 51.1299L148.9 52.0499L147.75 46.5899L152.14 45.6699Z" fill="#00AF00"/>
</svg>
