<svg width="227" height="200" viewBox="0 0 227 200" fill="none" xmlns="http://www.w3.org/2000/svg">
<path d="M79.8833 102.314H81.1819L83.5404 113.051H84.5618V114.214H93.7783V113.051H94.7996L97.1582 102.314H98.4568V100.63H79.8833V102.314V102.314Z" fill="#FFB66D"/>
<path d="M95.7999 90.2161C94.7084 90.5684 93.473 90.8996 92.3358 91.2906C93.4824 90.241 94.5088 89.0666 95.3963 87.7889C98.4393 83.477 98.2743 80.6412 98.1515 79.8732C98.1411 79.8009 98.127 79.7292 98.1093 79.6583C98.1093 79.6583 95.2559 80.7469 92.5218 84.7875C92.0059 85.5484 91.5672 86.2495 91.1917 86.9012C91.2934 85.8232 91.3531 84.7135 91.3847 83.625C91.3847 83.5581 91.3847 83.4947 91.3847 83.4313C91.3847 83.0966 91.3847 82.7619 91.4058 82.4343C91.4358 81.1669 91.2881 79.9016 90.967 78.6755C90.8547 78.2492 90.7284 77.8547 90.5985 77.4954C90.2792 76.5938 89.8426 75.7386 89.2999 74.9519L89.2648 74.9871L89.2438 75.0118C88.942 75.355 88.6773 75.7294 88.4541 76.1285C88.3874 76.2448 88.3172 76.3681 88.247 76.5055C88.1031 76.7732 87.9557 77.0832 87.8083 77.4179C87.6609 77.7525 87.517 78.1541 87.3766 78.5839C87.0547 79.5964 86.8199 80.6347 86.6746 81.6875C86.6255 82.0398 86.5869 82.392 86.5553 82.7443C86.5553 82.8289 86.5378 82.9099 86.5307 82.9909C86.5027 83.308 86.4816 83.6215 86.4641 83.9244V83.9561C86.4641 84.2873 86.4395 84.6079 86.436 84.9214V85.0306C86.436 85.3371 86.436 85.633 86.4535 85.9183L86.4044 85.8127C86.3763 85.7633 86.3447 85.714 86.3131 85.6682C86.1306 85.3829 85.9411 85.094 85.7375 84.791C85.5796 84.5515 85.4182 84.326 85.2567 84.1076L85.0988 83.9033C84.99 83.7589 84.8812 83.618 84.7724 83.4841L84.5934 83.2657L84.288 82.9134L84.1055 82.702L83.8072 82.3779L83.6387 82.2053C83.5334 82.0996 83.4316 81.9975 83.3264 81.8988L83.1895 81.765C83.0631 81.6452 82.9368 81.5325 82.8139 81.4127L82.7578 81.3599C82.6104 81.233 82.47 81.1168 82.3331 81.0076L82.284 80.9688L81.933 80.7081L81.8417 80.6518L81.589 80.4721L81.4732 80.3911L81.2591 80.2537L81.1468 80.1832L80.9608 80.0705L80.866 80.0141L80.7046 79.9261L80.6204 79.8838L80.4905 79.8169C80.2729 79.7077 80.1395 79.6583 80.1395 79.6583C80.1116 79.7742 80.0916 79.892 80.0799 80.0106V80.0881C80.0799 80.1339 80.0799 80.1762 80.0799 80.229C80.0799 80.2819 80.0799 80.3946 80.0799 80.4932C80.0799 80.5989 80.0799 80.7187 80.0799 80.8455C80.0799 80.8702 80.0799 80.8984 80.0799 80.923C80.0799 81.0287 80.0799 81.1379 80.1044 81.2542C80.1044 81.2894 80.1044 81.3281 80.1044 81.3634C80.1044 81.4796 80.1325 81.5994 80.1536 81.7157C80.1536 81.7544 80.1536 81.7967 80.1711 81.8354C80.1957 81.9693 80.2238 82.1102 80.2553 82.2546C80.2553 82.2934 80.2553 82.3286 80.2799 82.3674C80.3197 82.5506 80.3688 82.7408 80.4273 82.9381C80.4905 83.1494 80.5607 83.3678 80.6414 83.5968L80.6625 83.6497C80.7327 83.8469 80.8134 84.0548 80.9011 84.2662L80.9889 84.4669C81.0626 84.636 81.1398 84.8192 81.2275 84.9848C81.2661 85.0693 81.3083 85.1574 81.3539 85.242C81.4381 85.4111 81.5294 85.5942 81.6241 85.7598C81.6768 85.8549 81.7259 85.9465 81.7821 86.0416C81.8874 86.2283 82.0032 86.4186 82.133 86.6123L82.2945 86.8765C82.4735 87.1584 82.663 87.4437 82.8736 87.7396C83.0666 88.0144 83.2562 88.2716 83.4457 88.5182L83.6282 88.7471C83.7581 88.9162 83.8914 89.0994 84.0178 89.2368L84.2178 89.4693C84.3418 89.6149 84.4647 89.7558 84.5864 89.892L84.7689 90.0928C84.9022 90.2338 85.0286 90.3676 85.1584 90.498L85.2988 90.6424C85.4673 90.8115 85.6498 90.97 85.7972 91.118C85.9306 91.2448 86.0639 91.361 86.1938 91.4702C84.8882 90.9665 83.3615 90.5684 82.0488 90.1457C79.4727 89.3953 76.5771 90.4768 76.5771 90.4768L76.5947 90.5085V90.5261C76.6122 90.5543 76.6333 90.5896 76.6684 90.6389C76.9702 91.0863 78.0091 92.358 80.5291 93.3408C81.9397 93.9174 83.4372 94.2509 84.9584 94.3272C84.2845 94.6408 83.6142 94.9684 82.9859 95.2502C81.2521 96.0323 80.1325 97.7338 79.7921 98.308V98.3291C79.764 98.3784 79.7394 98.4172 79.7254 98.4489C79.726 98.4606 79.726 98.4724 79.7254 98.4841H79.7499H79.771L79.8763 98.5123C80.3185 98.618 81.7014 98.8223 83.8633 97.998C86.9695 96.8108 88.2891 95.1797 88.8366 94.1828L88.6752 100.598H89.4649L89.321 94.4963C89.9633 95.5038 91.311 96.9306 94.1047 97.998C96.2316 98.8505 97.6355 98.6462 98.0602 98.5546L98.1655 98.5264H98.1936L98.176 98.4912C98.176 98.4595 98.1374 98.4207 98.1093 98.3714V98.3503C97.7584 97.776 96.6528 96.0745 94.919 95.2925C94.2908 95.0106 93.6169 94.6795 92.943 94.3695C94.4432 94.2883 95.9197 93.9586 97.3126 93.3937C99.8396 92.4108 100.879 91.1391 101.173 90.6917C101.208 90.6424 101.229 90.6072 101.247 90.579V90.5614L101.265 90.5297C101.265 90.5297 98.3796 89.3953 95.7999 90.2161Z" fill="#85CEB4"/>
<g style="mix-blend-mode:overlay" opacity="0.6">
<rect x="84.5581" y="113.047" width="9.22006" height="0.623532" fill="#030F1C"/>
</g>
<g style="mix-blend-mode:overlay" opacity="0.6">
<path d="M91.1883 86.9014C91.3287 85.4219 91.3848 83.8754 91.4094 82.4169C91.4834 79.7707 90.7472 77.1653 89.3 74.9521C89.3 74.9521 87.3592 76.8439 86.6923 81.6983C86.4922 83.0979 86.4182 84.5127 86.4712 85.9256C88.2717 88.7932 88.928 90.7237 89.1281 91.9144C89.3141 90.8505 89.837 89.2265 91.1883 86.9014Z" fill="#030F1C"/>
<path d="M89.1664 93.3904L89.1875 93.3622L89.1664 93.3904Z" fill="#030F1C"/>
</g>
<g style="mix-blend-mode:overlay" opacity="0.6">
<path d="M86.2043 91.5407C84.8952 91.0404 83.3685 90.6388 82.0523 90.2161C79.4727 89.3953 76.5771 90.4768 76.5771 90.4768C76.5771 90.4768 77.4265 92.129 80.5467 93.3443C81.952 93.9177 83.4433 94.25 84.9584 94.3272C86.3096 93.7036 87.6574 93.1611 88.6822 93.221C87.7853 92.7743 86.952 92.2091 86.2043 91.5407Z" fill="#030F1C"/>
</g>
<g style="mix-blend-mode:overlay" opacity="0.6">
<path d="M89.0473 93.1507L88.9806 93.2353H89.0578C89.0543 93.2071 89.0508 93.1789 89.0473 93.1507Z" fill="#030F1C"/>
<path d="M95.7998 90.2161C94.7083 90.5684 93.4728 90.8995 92.3357 91.2905C91.5075 92.062 90.5738 92.7108 89.563 93.2175C90.5317 93.2774 91.7285 93.7635 92.9288 94.3201C94.429 94.239 95.9055 93.9092 97.2984 93.3443C100.419 92.129 101.268 90.4768 101.268 90.4768C101.268 90.4768 98.3794 89.3953 95.7998 90.2161Z" fill="#030F1C"/>
</g>
<g style="mix-blend-mode:overlay" opacity="0.6">
<path d="M101.092 90.4138C100.552 90.6358 99.9764 90.8647 99.4113 91.0796C97.7266 91.7172 91.9672 92.7741 89.4507 93.1933C89.719 93.2028 89.9858 93.2382 90.2474 93.299C93.0236 92.8093 97.9512 91.8899 99.4955 91.291C100.061 91.0761 100.633 90.8471 101.173 90.6287C101.243 90.523 101.275 90.4631 101.275 90.4631L101.092 90.4138Z" fill="#030F1C"/>
<path d="M93.7189 96.4411C92.6976 95.8669 90.676 94.5036 89.2616 93.5313V93.3517L89.3142 93.3305C90.6479 91.5691 96.632 82.7622 98.0499 80.0708C98.085 80.0003 98.1166 79.9404 98.1517 79.877C98.1306 79.7396 98.1096 79.6586 98.1096 79.6586L97.9622 79.722L97.8358 79.958C96.467 82.5543 90.855 90.8399 89.2826 92.9677C89.1668 89.3463 88.9527 82.2337 88.9948 79.6551C89.0194 78.3164 89.1808 76.629 89.3704 75.0543L89.3002 74.9521C89.3002 74.9521 89.2335 75.0191 89.1177 75.1565C88.9316 76.703 88.7667 78.327 88.7667 79.6515C88.7351 81.501 88.8369 85.6755 88.9387 89.23L88.8474 92.7845C87.1066 90.3996 81.7507 82.4839 80.4381 79.958L80.3117 79.722L80.1643 79.6586C80.1643 79.6586 80.1433 79.7396 80.1222 79.877L80.2275 80.0708C81.5893 82.7023 87.3031 91.1288 88.8263 93.1755V93.2706L88.7246 93.2918C88.7246 93.2918 88.7246 93.3517 88.7667 93.4433C87.3628 94.4191 85.2359 95.8493 84.183 96.4411C82.7583 97.1471 81.2933 97.7682 79.7958 98.3012C79.7256 98.4245 79.687 98.4984 79.687 98.4984L79.8414 98.5548C81.3626 98.0064 82.8509 97.37 84.2988 96.649C85.3517 96.0642 87.3979 94.6762 88.8158 93.7004L88.6403 100.626H89.43L89.2686 93.8272C90.6725 94.7925 92.6063 96.0889 93.6031 96.6455C95.0509 97.3677 96.5392 98.0052 98.0604 98.5548L98.2149 98.5125C98.2149 98.5125 98.1763 98.4386 98.1026 98.3153C96.6061 97.7771 95.1424 97.1514 93.7189 96.4411Z" fill="#030F1C"/>
<path d="M88.412 93.2071C85.9025 92.7774 80.1255 91.717 78.4408 91.0935C77.8757 90.8645 77.3002 90.6355 76.7597 90.4136L76.5771 90.477C76.5771 90.477 76.6087 90.5369 76.6789 90.6426C77.2194 90.861 77.7915 91.0899 78.3566 91.3048C79.9044 91.8896 84.8601 92.8267 87.6328 93.3164C87.8889 93.2577 88.1496 93.2212 88.412 93.2071Z" fill="#030F1C"/>
</g>
<g style="mix-blend-mode:overlay" opacity="0.6">
<path d="M81.1816 102.313L81.6344 104.381H96.7052L97.1579 102.313H81.1816Z" fill="#030F1C"/>
</g>
<path d="M131.575 197.611L141.608 160.537L141.962 159.231L140.124 159.225C138.184 159.219 136.617 157.641 136.623 155.702C136.629 153.762 138.207 152.194 140.147 152.201L169.959 152.297L171.991 152.297L182.138 84.1934C182.238 83.5377 182.595 82.9486 183.13 82.5561C183.664 82.1637 184.333 82 184.989 82.1013L212.824 82.1912C212.94 82.1724 213.056 82.1637 213.173 82.1653C213.299 82.1646 213.425 82.174 213.549 82.1936L213.55 82.1936C214.205 82.2933 214.794 82.6494 215.186 83.1834C215.578 83.7174 215.742 84.3855 215.642 85.0405L205.169 155.275C204.98 156.496 203.927 157.397 202.691 157.395C202.566 157.394 202.442 157.385 202.318 157.367L199.813 157.359C199.804 157.38 199.795 157.402 199.785 157.423C199.198 158.641 197.962 159.413 196.61 159.408L195.194 159.403L195.54 160.711L205.333 197.849C205.46 198.317 205.372 198.817 205.091 199.212C204.811 199.607 204.368 199.855 203.885 199.889C203.859 199.891 203.834 199.893 203.808 199.894C203.717 199.898 203.625 199.894 203.534 199.882C203.521 199.881 203.51 199.877 203.497 199.875C203.443 199.867 203.389 199.857 203.336 199.844C203.34 199.844 203.347 199.84 203.35 199.84L203.351 199.84C202.779 199.695 202.329 199.252 202.175 198.682L196.972 178.954L196.554 177.375L192.156 160.7L191.93 159.847L191.811 159.392L170.311 159.323L170.271 159.473L170.391 159.931L170.442 160.122L170.576 160.631L180.369 197.769C180.496 198.236 180.408 198.736 180.127 199.131C179.847 199.526 179.404 199.775 178.921 199.808C178.895 199.811 178.87 199.812 178.845 199.813C178.753 199.817 178.661 199.813 178.57 199.802C178.557 199.8 178.546 199.797 178.533 199.795C178.479 199.786 178.425 199.777 178.373 199.763C178.376 199.763 178.383 199.759 178.386 199.759L178.387 199.759C177.815 199.614 177.365 199.171 177.211 198.601L172.008 178.873L171.59 177.294L168.558 165.797L159.693 198.544C159.541 199.108 159.099 199.547 158.535 199.697C157.971 199.847 157.37 199.684 156.958 199.271C156.547 198.857 156.387 198.255 156.539 197.692L166.572 160.618L166.926 159.312L166.887 159.456L166.886 159.459L166.85 159.319L166.848 159.312L145.346 159.242L134.729 198.464C134.556 199.098 134.022 199.567 133.371 199.655C132.829 199.728 132.287 199.525 131.926 199.114C131.565 198.703 131.433 198.139 131.575 197.611L131.575 197.611Z" fill="#DBE3EE"/>
<g style="mix-blend-mode:overlay" opacity="0.6">
<path d="M131.577 197.613L141.61 160.539L141.964 159.233L145.347 159.244L145.222 159.704L144.994 160.55L140.492 177.181L140.063 178.757L134.73 198.465C134.493 199.335 133.597 199.849 132.727 199.614C131.857 199.378 131.343 198.483 131.577 197.613L131.577 197.613Z" fill="#030F1C"/>
</g>
<g style="mix-blend-mode:overlay" opacity="0.6">
<path d="M156.541 197.693L166.574 160.619L166.928 159.313L170.311 159.324L170.186 159.785L169.958 160.63L165.456 177.262L165.028 178.838L159.694 198.546C159.458 199.416 158.562 199.931 157.691 199.696C156.821 199.46 156.306 198.564 156.541 197.693L156.541 197.693Z" fill="#030F1C"/>
</g>
<g style="mix-blend-mode:overlay" opacity="0.6">
<path d="M169.957 160.631L170.185 159.785L170.27 159.471L170.577 160.633L180.37 197.771C180.599 198.642 180.078 199.535 179.207 199.764C178.335 199.994 177.443 199.474 177.212 198.603L172.009 178.875L171.591 177.296L168.558 165.796L169.957 160.631Z" fill="#030F1C"/>
</g>
<path d="M166.848 159.315L166.927 159.315L166.887 159.462L166.848 159.315Z" fill="#848274"/>
<g style="mix-blend-mode:overlay" opacity="0.6">
<path d="M195.195 159.405L195.541 160.713L205.334 197.851C205.564 198.723 205.043 199.616 204.171 199.846C203.299 200.076 202.406 199.555 202.176 198.683L196.973 178.955L196.555 177.376L192.157 160.702L191.931 159.848L191.812 159.394L195.195 159.405Z" fill="#030F1C"/>
</g>
<g style="mix-blend-mode:overlay" opacity="0.6">
<path d="M200.227 154.518L200.498 152.743L210.7 84.2874C210.866 83.1952 211.731 82.3426 212.826 82.1929L213.551 82.1952C214.206 82.2949 214.795 82.651 215.187 83.185C215.579 83.719 215.743 84.3872 215.643 85.0422L205.17 155.276C204.981 156.498 203.928 157.398 202.692 157.397C202.568 157.396 202.443 157.386 202.32 157.368C200.957 157.156 200.022 155.882 200.227 154.518L200.227 154.518Z" fill="#030F1C"/>
</g>
<g style="mix-blend-mode:overlay" opacity="0.6">
<path d="M200.101 156.337C200.125 156.18 200.137 156.022 200.137 155.863C200.137 155.744 200.131 155.625 200.121 155.507L200.121 155.5C200.173 155.301 200.2 155.096 200.201 154.89C200.2 154.961 200.204 155.033 200.21 155.1C200.217 155.182 200.227 155.26 200.24 155.338C200.253 155.409 200.27 155.484 200.29 155.555C200.307 155.626 200.33 155.697 200.357 155.765C200.361 155.772 200.36 155.779 200.364 155.785C200.387 155.843 200.411 155.901 200.438 155.959C200.455 155.993 200.472 156.026 200.488 156.057C200.856 156.76 201.537 157.247 202.321 157.368L199.793 157.36C199.946 157.036 200.05 156.691 200.101 156.337Z" fill="#030F1C"/>
</g>
<g style="mix-blend-mode:overlay" opacity="0.6">
<path d="M169.961 152.299L196.635 152.385C198.432 152.394 199.933 153.754 200.12 155.541L200.12 155.548C200.13 155.668 200.136 155.789 200.136 155.909C200.136 156.07 200.124 156.23 200.1 156.389C200.048 156.748 199.943 157.098 199.788 157.425C199.2 158.643 197.965 159.415 196.612 159.41L169.938 159.324C167.999 159.317 166.431 157.74 166.437 155.8C166.444 153.86 168.021 152.293 169.961 152.299V152.299Z" fill="#030F1C"/>
</g>
<g style="mix-blend-mode:overlay" opacity="0.6">
<path d="M200.227 154.518L200.498 152.743L210.7 84.2874C210.866 83.1952 211.731 82.3426 212.826 82.1929L213.551 82.1952C214.206 82.2949 214.795 82.651 215.187 83.185C215.579 83.719 215.743 84.3872 215.643 85.0422L205.17 155.276C204.981 156.498 203.928 157.398 202.692 157.397C202.568 157.396 202.443 157.386 202.32 157.368C200.957 157.156 200.022 155.882 200.227 154.518L200.227 154.518Z" fill="#030F1C"/>
</g>
<g style="mix-blend-mode:overlay" opacity="0.6">
<path d="M169.961 152.299L196.635 152.385C198.432 152.394 199.933 153.754 200.12 155.541L200.12 155.548C200.13 155.668 200.136 155.789 200.136 155.909C200.136 156.07 200.124 156.23 200.1 156.389C200.048 156.748 199.943 157.098 199.788 157.425C199.2 158.643 197.965 159.415 196.612 159.41L169.938 159.324C167.999 159.317 166.431 157.74 166.437 155.8C166.444 153.86 168.021 152.293 169.961 152.299V152.299Z" fill="#030F1C"/>
</g>
<g style="mix-blend-mode:overlay" opacity="0.6">
<path d="M195.195 159.405L205.334 197.851C205.482 198.413 205.32 199.011 204.909 199.421C204.498 199.832 203.899 199.993 203.338 199.845C203.341 199.845 203.348 199.842 203.352 199.842C204.223 199.612 204.742 198.719 204.513 197.848L194.72 160.71L192.158 160.702L191.813 159.394L195.195 159.405Z" fill="#030F1C"/>
</g>
<g style="mix-blend-mode:overlay" opacity="0.6">
<path d="M133.891 198.465L144.157 160.548L141.612 160.54L141.965 159.233L145.348 159.244L134.731 198.467C134.618 198.885 134.344 199.24 133.969 199.455C133.594 199.67 133.148 199.727 132.731 199.613C133.294 199.464 133.736 199.026 133.891 198.465Z" fill="#030F1C"/>
</g>
<g style="mix-blend-mode:overlay" opacity="0.6">
<path d="M158.856 198.543L169.12 160.628L169.473 159.322L170.313 159.325L170.273 159.475L170.393 159.933L170.578 160.631L170.578 160.632L180.371 197.77C180.518 198.332 180.356 198.93 179.945 199.341C179.534 199.751 178.936 199.913 178.374 199.765C178.378 199.765 178.385 199.761 178.388 199.761C179.259 199.531 179.779 198.639 179.549 197.768L169.857 161.009L159.695 198.546C159.582 198.964 159.308 199.32 158.933 199.535C158.557 199.75 158.112 199.808 157.694 199.694C158.258 199.544 158.701 199.106 158.856 198.543Z" fill="#030F1C"/>
</g>
<g style="mix-blend-mode:overlay" opacity="0.6">
<path d="M166.849 159.312L166.927 159.312L166.888 159.457L166.849 159.312Z" fill="#030F1C"/>
</g>
<path d="M189.783 78.6476C189.708 78.2505 189.638 77.8397 189.575 77.4125C191.247 75.672 192.84 73.9894 192.279 71.9875C191.512 69.2533 190.472 67.2538 187.101 70.016C187.101 70.016 186.854 67.2672 185.507 66.2799C184.16 65.2926 175.809 61.0786 176.129 69.0576C176.129 69.0576 176.485 75.4599 176.61 77.0555C176.736 78.6511 179.47 83.8749 181.39 83.7241C181.646 83.7013 181.9 83.6557 182.149 83.5879C181.806 85.4771 181.154 87.297 180.219 88.9745L192.056 86.704C192.056 86.704 190.332 83.9942 189.743 78.6798C189.756 78.6691 189.77 78.6584 189.783 78.6476Z" fill="#FFB7B6"/>
<path d="M195.059 53.0087C189.506 53.445 189.883 58.6626 189.883 58.6626L190.886 60.1477C183.989 55.9301 180.59 60.5225 180.59 60.5225C175.254 59.8007 172.859 63.4302 172.78 67.539C172.702 71.6479 176.355 73.0246 176.355 73.0246L176.19 70.1528C177.866 69.0391 177.437 67.9427 177.604 67.357C178.451 70.1891 183.565 71.0934 184.653 71.9316C185.808 72.8219 186.097 74.9844 186.717 74.9356C187.338 74.8869 186.744 71.7057 188.596 70.4624C190.96 68.8745 191.871 71.694 191.533 73.2195C191.159 74.9027 189.403 77.0206 189.403 77.0206L189.855 79.7054C193.524 76.9907 195.966 71.2875 195.144 66.4573L195.144 66.4577C199.571 65.988 201.131 64.2749 202.246 61.4968C203.424 58.56 200.613 52.5724 195.059 53.0087Z" fill="#161B36"/>
<g style="mix-blend-mode:overlay" opacity="0.6">
<path d="M182.719 83.4055C182.524 83.4778 182.333 83.5365 182.145 83.586C181.97 84.5143 181.723 85.4278 181.408 86.3186C182.497 86.2483 184.049 85.9291 185.044 84.8161C186.036 83.6836 186.668 82.2807 186.859 80.7871C184.671 82.2745 182.719 83.4055 182.719 83.4055Z" fill="#030F1C"/>
</g>
<path d="M181.87 71.864C181.641 71.8456 181.411 71.8499 181.183 71.8769C180.94 71.911 180.787 72.2635 180.843 72.6642C180.899 73.065 181.142 73.3623 181.386 73.3282C181.63 73.2942 181.782 72.9417 181.726 72.5409C181.705 72.3646 181.637 72.1969 181.531 72.0546C181.709 72.0356 181.889 72.0378 182.066 72.061C182.238 72.0859 182.223 71.896 181.87 71.864Z" fill="#161B36"/>
<path d="M177.502 72.7797C177.291 72.7626 177.079 72.765 176.868 72.7867C176.865 72.787 176.862 72.7861 176.86 72.7865C176.858 72.7868 176.856 72.7879 176.854 72.7882C176.831 72.7907 176.816 72.7926 176.816 72.7926L176.815 72.8005C176.598 72.8697 176.467 73.1989 176.52 73.5738C176.576 73.9746 176.819 74.2719 177.062 74.2378C177.306 74.2037 177.458 73.8513 177.402 73.4505C177.381 73.2749 177.314 73.1079 177.209 72.9659C177.372 72.9518 177.536 72.9554 177.699 72.9767C177.871 73.0016 177.856 72.8117 177.502 72.7797Z" fill="#161B36"/>
<g style="mix-blend-mode:overlay" opacity="0.6">
<path d="M179.234 77.7769C179.012 77.8163 178.784 77.7958 178.572 77.7176C178.433 77.6635 178.325 77.5499 178.279 77.4079C178.189 77.113 178.432 76.6031 178.735 76.0163C178.813 75.8753 178.882 75.7295 178.942 75.5798C178.996 75.4048 178.765 73.9098 178.51 72.5656L178.739 72.522C178.828 72.9881 179.263 75.3297 179.165 75.6486C179.102 75.8118 179.028 75.9705 178.942 76.1234C178.752 76.493 178.433 77.1116 178.503 77.3396C178.529 77.4163 178.589 77.4767 178.666 77.5036C179.018 77.5997 179.393 77.5591 179.717 77.39L179.818 77.6001C179.634 77.6886 179.437 77.7483 179.234 77.7769Z" fill="#030F1C"/>
</g>
<path d="M179.723 70.2057C179.853 70.0111 180.046 69.8469 180.686 69.7967C181.326 69.7464 182.371 70.2083 182.181 70.3918C181.991 70.5752 181.283 70.1446 180.808 70.3876C180.332 70.6306 180.064 70.8131 179.883 70.7423C179.655 70.6532 179.661 70.2993 179.723 70.2057Z" fill="#161B36"/>
<path d="M176.947 70.4124C176.73 70.3264 176.478 70.3014 175.923 70.6249C175.369 70.9485 174.773 71.9237 175.034 71.9661C175.295 72.0085 175.63 71.2515 176.16 71.1799C176.689 71.1083 177.013 71.106 177.122 70.9445C177.258 70.7413 177.052 70.4538 176.947 70.4124Z" fill="#161B36"/>
<path d="M179.277 80.0338C179.248 79.9682 179.246 79.8938 179.272 79.8269C179.298 79.76 179.35 79.7063 179.415 79.6776C179.742 79.5315 180.344 79.2585 180.799 79.029C181.27 78.7618 181.722 78.4636 182.153 78.1363C182.228 78.0806 182.327 78.0677 182.414 78.1021C182.501 78.1365 182.565 78.2134 182.582 78.3055C182.714 79.0131 182.822 80.4158 181.742 80.8558C180.428 81.3909 179.612 80.7537 179.277 80.0338Z" fill="#161B36"/>
<path d="M179.995 80.8375C179.995 80.8375 180.938 79.0369 182.664 79.1769C182.664 79.1769 182.845 80.4549 181.806 80.8938C180.688 81.3663 179.995 80.8375 179.995 80.8375Z" fill="#E55151"/>
<path d="M187.211 65.8299C187.162 65.8338 187.116 65.8065 187.096 65.7618C185.564 62.3864 181.794 61.1188 181.756 61.1064C181.695 61.0863 181.661 61.0203 181.681 60.959C181.701 60.8977 181.767 60.8643 181.829 60.8844C181.867 60.8971 185.735 62.1974 187.309 65.6652C187.335 65.724 187.309 65.7932 187.251 65.8199C187.238 65.8254 187.225 65.8288 187.211 65.8299Z" fill="white"/>
<path d="M199.748 63.0669C199.702 63.0706 199.658 63.0464 199.636 63.0052C199.614 62.9641 199.619 62.9139 199.648 62.8776C201.892 60.0683 200.032 56.8957 200.013 56.864C199.98 56.8087 199.998 56.737 200.053 56.7038C200.109 56.6706 200.18 56.6884 200.214 56.7437C200.233 56.7768 202.175 60.0887 199.831 63.0234C199.81 63.0487 199.781 63.0644 199.748 63.0669Z" fill="white"/>
<path d="M190.324 73.3133C190.264 72.9924 190.071 72.7121 189.792 72.543C189.591 72.4367 189.363 72.3919 189.137 72.4142C189.444 71.9667 189.807 71.6358 190.179 71.7302C190.241 71.746 190.304 71.7081 190.32 71.6457C190.336 71.5832 190.299 71.5197 190.236 71.5037C189.66 71.3574 189.158 71.9094 188.793 72.5181L188.791 72.5213C188.541 72.9518 188.333 73.4058 188.171 73.8767C188.158 73.9163 188.167 73.9599 188.195 73.9911C188.223 74.0223 188.265 74.0362 188.306 74.0278C188.347 74.0193 188.38 73.9897 188.393 73.9501C188.544 73.5071 188.738 73.0799 188.971 72.6746C189.208 72.6133 189.459 72.639 189.678 72.7469C189.899 72.8855 190.052 73.1118 190.097 73.3693C190.111 73.4247 190.162 73.4621 190.219 73.4577C190.226 73.4573 190.232 73.4562 190.238 73.4546C190.268 73.4472 190.294 73.4281 190.31 73.4016C190.326 73.3751 190.331 73.3434 190.324 73.3133Z" fill="#0B122D"/>
<path d="M181.888 83.7257C181.833 83.7228 181.787 83.6817 181.779 83.6272C181.77 83.5727 181.801 83.5196 181.853 83.4999C181.893 83.4845 185.894 81.9422 187.655 79.9154C187.682 79.8838 187.725 79.8691 187.766 79.8771C187.807 79.885 187.84 79.9143 187.854 79.9538C187.867 79.9934 187.859 80.0372 187.831 80.0686C186.031 82.1399 182.102 83.6547 181.936 83.7181C181.921 83.724 181.904 83.7265 181.888 83.7257Z" fill="#0B122D"/>
<path d="M194.919 62.9949C193.159 59.9224 190.537 58.6789 189.884 58.6634C189.057 58.6437 188.799 59.0828 188.799 59.0828L188.799 59.0832C189.599 59.4122 190.368 59.812 191.096 60.2776C193.86 62.0215 195.115 64.76 195.285 67.6909C195.486 67.5651 195.676 67.4216 195.852 67.2621C196.112 67.0159 196.68 66.0673 194.919 62.9949Z" fill="#F76161"/>
<path fill-rule="evenodd" clip-rule="evenodd" d="M142.478 198.77L142.393 197.899C142.393 197.899 160.032 196.119 159.723 197.744C159.654 198.12 159.557 198.489 159.43 198.849C159.236 199.394 158.719 199.756 158.141 199.754L143.484 199.686C142.964 199.683 142.529 199.288 142.478 198.77ZM119.094 198.695L119.008 197.824C119.008 197.824 136.647 196.043 136.338 197.669C136.27 198.044 136.172 198.414 136.046 198.774C135.851 199.318 135.334 199.681 134.756 199.679L120.099 199.611C119.579 199.608 119.145 199.212 119.094 198.695Z" fill="#2D2B72"/>
<path fill-rule="evenodd" clip-rule="evenodd" d="M119.481 196.653C120.253 196.171 125.705 194.626 125.705 194.626L135.573 192.193C135.573 192.193 136.657 194.142 136.648 196.045C136.653 196.751 136.482 197.448 136.149 198.071C135.875 198.569 135.353 198.88 134.785 198.884C132.037 198.919 121.521 199.016 120.281 198.803C118.824 198.553 118.71 197.135 119.481 196.653ZM149.09 194.701L158.958 192.268C158.958 192.268 160.042 194.217 160.032 196.12C160.038 196.827 159.867 197.523 159.534 198.146C159.26 198.644 158.738 198.955 158.17 198.96C155.422 198.994 144.906 199.092 143.666 198.879C142.209 198.629 142.095 197.211 142.866 196.729C143.638 196.246 149.09 194.701 149.09 194.701Z" fill="#7686D6"/>
<g style="mix-blend-mode:overlay" opacity="0.6">
<path d="M125.669 198.933C126.123 197.856 127.167 197.146 128.336 197.12C130.683 197.037 131.141 198.912 131.141 198.912L125.669 198.933Z" fill="#030F1C"/>
</g>
<g style="mix-blend-mode:overlay" opacity="0.6">
<path d="M149.054 199.008C149.508 197.931 150.553 197.221 151.721 197.195C154.068 197.113 154.527 198.987 154.527 198.987L149.054 199.008Z" fill="#030F1C"/>
</g>
<path fill-rule="evenodd" clip-rule="evenodd" d="M130.065 192.205C131.454 191.026 132.105 184.08 132.105 184.08L137.127 184.718C137.127 184.718 135.494 191.542 135.572 192.191C135.65 192.839 132.523 194.606 129.93 194.998C127.336 195.391 125.191 195.219 125.152 194.976C125.136 194.882 125.61 194.664 126.295 194.348C127.386 193.846 129.016 193.095 130.065 192.205ZM154.243 184.369L158.987 185.136C158.987 185.136 158.879 191.618 158.957 192.266C159.035 192.915 155.908 194.682 153.315 195.074C150.721 195.467 148.576 195.294 148.537 195.051C148.521 194.958 148.995 194.74 149.68 194.424C150.771 193.921 152.4 193.171 153.449 192.281C154.839 191.102 154.243 184.369 154.243 184.369Z" fill="#FFB7B6"/>
<path d="M197.83 125.535C197.681 124.186 186.282 126.041 186.282 126.041C186.133 124.692 177.328 125.119 174.604 126.508C162.378 130.791 156.822 132.213 150.261 134.328C142.212 136.924 135.482 138.727 134.452 146.901C132.358 163.519 130.405 188.988 130.405 188.988C130.405 188.988 134.726 190.193 136.982 189.113C140.411 178.119 142.165 171.769 142.837 168.445C143.798 163.696 145.064 158.309 145.622 152.093L153.118 152.14C152.366 165.176 153.765 189.064 153.765 189.064C153.765 189.064 158.086 190.269 160.342 189.188C162.631 178.242 163.286 177.318 164.395 170.563C165.177 165.8 166.457 157.44 166.863 152.159L185.559 152.277C190.87 152.294 196.739 150.523 199.13 143.773C201.247 137.797 198.215 129.032 197.83 125.535Z" fill="#F76161"/>
<g style="mix-blend-mode:overlay" opacity="0.6">
<path d="M153.22 150.588C153.511 146.827 153.916 143.612 159.593 141.571C161.172 141.004 171.843 136.362 180.475 133.404C181.078 133.068 181.623 132.64 182.093 132.136C180.42 131.924 178.529 131.956 175.857 133.001C169.947 135.105 150.244 139.832 149.231 143.946C148.474 147.018 149.21 149.505 146.544 151.722C146.398 151.843 146.083 151.943 145.925 152.106C148.068 152.116 150.536 152.139 153.116 152.153C153.147 151.613 153.181 151.089 153.22 150.588Z" fill="#030F1C"/>
</g>
<g style="mix-blend-mode:overlay" opacity="0.6">
<path d="M199.502 134.272C199.502 134.272 193.555 137.875 193.02 143.053C192.604 147.083 189.895 148.533 186.27 148.624C182.644 148.716 173.114 148.685 171.55 152.099L185.558 152.279C185.558 152.279 195.953 152.997 198.974 144.192C199.56 142.486 200.31 139.198 199.502 134.272Z" fill="#030F1C"/>
</g>
<g style="mix-blend-mode:overlay" opacity="0.6">
<path d="M165.008 139.356C165.008 139.356 165.279 141.2 163.982 141.973C162.684 142.745 156.814 144.228 156.443 147.076C156.071 149.923 155.584 156.395 155.267 158.155C154.951 159.915 152.876 160.892 152.876 160.892C152.876 160.892 153.058 152.762 153.22 150.587C153.383 148.412 153.139 143.595 159.594 141.57L165.008 139.356Z" fill="white"/>
</g>
<g style="mix-blend-mode:overlay" opacity="0.6">
<path d="M150.26 134.329C150.26 134.329 150.978 136.415 148.749 137.263C146.521 138.11 138.817 142.002 138.189 144.143C137.467 146.601 136.703 153.848 136.237 154.935C135.507 156.642 133.274 157.2 133.274 157.2L134.451 146.901C134.451 146.901 134.827 142.156 138.657 139.272C142.487 136.388 150.26 134.329 150.26 134.329Z" fill="white"/>
</g>
<path d="M200.543 91.6692C200.436 89.8474 199.187 88.2931 197.431 87.7971C195.813 87.2291 191.753 86.153 191.753 86.153C191.753 86.153 190.055 93.0442 183.769 93.4145C179.208 93.6832 181.194 86.8925 181.194 86.8925L175.785 88.7197C175.662 88.75 175.543 88.7952 175.431 88.8545C172.666 89.9264 171.165 91.483 170.25 93.9124L165.964 104.459C165.419 105.683 164.326 106.575 163.018 106.865L146.828 110.092C146.828 110.092 147.705 111.151 147.958 114.491L160.992 114.533C159.324 114.263 156.919 113.064 156.257 112.722C156.145 112.664 156.013 112.658 155.897 112.706L153.592 113.636C153.04 113.859 152.413 113.794 151.918 113.462L151.762 113.357C151.652 113.283 151.515 113.264 151.389 113.304L150.197 113.685C149.755 113.827 149.272 113.684 148.978 113.325L148.926 113.262C148.845 113.162 148.812 113.031 148.837 112.904C148.862 112.777 148.942 112.668 149.055 112.607L150.529 111.808C149.531 111.747 149.457 111.375 149.362 111.184C149.263 110.983 151.95 109.863 151.95 109.863L153.969 109.944L156.024 108.83C156.471 108.588 156.994 108.525 157.485 108.655L164.853 110.598L166.243 110.437C166.374 111.362 166.416 112.296 166.368 113.228L166.367 113.25C166.358 113.504 166.345 113.741 166.332 113.953L166.33 113.982C166.316 114.194 166.302 114.38 166.289 114.53C165.343 114.451 164.239 114.285 163.554 114.173C163.103 114.341 162.637 114.463 162.163 114.537L166.287 114.55C166.266 114.792 166.25 114.937 166.25 114.937C166.202 114.889 169.118 114.995 173.536 114.968C173.729 117.492 173.625 120.932 172.963 125.238C172.877 125.769 173.082 126.305 173.5 126.643C177.517 129.822 193.683 128.745 197.635 126.103C198.048 125.82 198.244 125.312 198.13 124.825C197.649 122.668 196.747 118.727 196.655 114.216C198.029 113.627 199.218 112.293 199.357 110.901C199.714 107.327 200.174 103.376 200.378 98.05C200.524 94.231 200.725 94.4737 200.543 91.6692Z" fill="#34AD82"/>
<g style="mix-blend-mode:overlay" opacity="0.6">
<path d="M170.178 108.955C170.735 108.867 171.298 108.779 171.862 108.692C171.455 107.492 171.317 106.216 171.459 104.957C171.608 103.273 172.706 99.4534 173.582 94.4282C170.532 96.239 169.755 99.6327 170.343 105.633C170.46 106.743 170.404 107.863 170.178 108.955Z" fill="#030F1C"/>
</g>
<g style="mix-blend-mode:overlay" opacity="0.6">
<path d="M166.383 112.585C165.275 112.765 163.925 112.873 162.421 112.967C161.26 113.039 160.336 113.687 159.617 114.528L166.288 114.549C166.325 114.122 166.377 113.389 166.383 112.585Z" fill="#030F1C"/>
</g>
<g style="mix-blend-mode:overlay" opacity="0.6">
<path d="M196.692 114.197C196.222 114.412 195.711 114.526 195.194 114.53C194.697 114.525 194.159 114.523 193.59 114.525C194.592 116.418 195.003 119.36 194.714 120.537C193.848 124.063 190.111 126.468 188.012 126.962C186.71 127.28 185.477 127.835 184.375 128.599C184.375 128.599 193.498 128.581 197.636 126.102C197.636 126.102 198.344 125.808 198.131 124.823C197.214 121.354 196.731 117.785 196.692 114.197Z" fill="#030F1C"/>
</g>
<path d="M182.053 102.771L182.05 102.771C181.985 102.769 181.935 102.715 181.937 102.651L182.236 93.4705C182.242 93.4079 182.294 93.3597 182.356 93.3575C182.421 93.3596 182.471 93.4136 182.469 93.4781L182.17 102.658C182.168 102.721 182.116 102.771 182.053 102.771Z" fill="#0B122D"/>
<path d="M191.646 97.4527C191.642 97.4527 191.637 97.4525 191.633 97.4519C191.579 97.4447 191.541 97.3949 191.548 97.3405C191.797 95.2292 192.183 93.1362 192.701 91.0744C192.71 91.0402 192.738 91.0138 192.772 91.0051C192.806 90.9963 192.843 91.0066 192.867 91.032C192.892 91.0573 192.901 91.094 192.892 91.1281C192.376 93.1809 191.993 95.2645 191.745 97.3663C191.738 97.4158 191.696 97.4528 191.646 97.4527Z" fill="#0B122D"/>
<path d="M176.581 108.161C176.528 108.161 176.485 108.12 176.482 108.068C176.479 108.016 176.516 107.97 176.568 107.963L186.89 106.549C186.944 106.543 186.994 106.58 187.002 106.634C187.009 106.689 186.971 106.739 186.917 106.746L176.594 108.16C176.59 108.161 176.585 108.161 176.581 108.161Z" fill="#0B122D"/>
<g style="mix-blend-mode:overlay" opacity="0.6">
<path d="M193.347 98.262C193.206 100.468 192.955 106.504 191.879 107.511C190.804 108.516 183.299 109.219 181.768 109.148C180.238 109.078 180.048 107.54 180.048 107.54L180.05 107.538C180.99 107.406 181.796 107.298 182.388 107.224C186.602 106.701 190.416 106.182 190.706 105.501C190.706 105.501 191.26 100.59 191.918 95.9579C191.986 95.9641 193.483 96.1059 193.347 98.262Z" fill="white"/>
</g>
<path fill-rule="evenodd" clip-rule="evenodd" d="M191.754 86.153L195.772 87.2699C195.772 87.2699 196.533 91.6492 189.771 92.4809C190.347 95.0938 186.04 98.9924 182.333 93.3195C178.203 97.7577 177.053 92.47 178.901 91.032C176.879 89.3052 177.398 88.1744 177.398 88.1744L181.195 86.8922C179.711 92.2482 182.334 93.3191 182.334 93.3191C182.334 93.3192 182.334 93.3193 182.333 93.3194C182.354 93.3233 189.146 94.6124 191.754 86.153Z" fill="#F76161"/>
<g style="mix-blend-mode:overlay" opacity="0.6">
<path d="M178.817 87.6859C179.25 87.9076 179.51 89.5027 179.51 89.5027C179.51 89.5027 173.05 90.6492 169.607 95.4976C169.771 95.2434 170.54 92.156 172.557 90.4968C174.033 89.2824 174.87 88.9567 178.817 87.6859Z" fill="white"/>
</g>
<path fill-rule="evenodd" clip-rule="evenodd" d="M181.096 87.2773C181.096 87.2773 179.112 93.2683 183.132 93.4195C187.324 93.5772 191.037 90.7509 191.754 86.1531L181.096 87.2773ZM141.355 111.189L141.699 113.589L147.872 113.609C147.639 111.7 147.2 110.716 146.973 110.315L141.355 111.189ZM157.486 108.655L164.854 110.598L166.244 110.438C166.48 111.821 166.36 113.711 166.29 114.53C165.344 114.452 164.24 114.285 163.554 114.173C162.977 114.394 162.371 114.532 161.755 114.584C160.174 114.688 157.03 113.122 156.258 112.723C156.146 112.665 156.014 112.659 155.898 112.706L153.593 113.637C153.04 113.86 152.413 113.794 151.919 113.462L151.763 113.357C151.653 113.284 151.516 113.264 151.39 113.304L150.197 113.686C149.756 113.827 149.273 113.684 148.979 113.325L148.927 113.262C148.845 113.162 148.813 113.031 148.837 112.904C148.862 112.778 148.943 112.669 149.056 112.607L150.53 111.808C149.619 111.753 149.478 111.438 149.388 111.239C149.38 111.219 149.371 111.201 149.363 111.185C149.263 110.984 151.951 109.864 151.951 109.864L153.969 109.944L156.025 108.83C156.472 108.588 156.994 108.525 157.486 108.655Z" fill="#FFB7B6"/>
<path d="M151.494 113.333C151.45 113.333 151.411 113.304 151.399 113.261C151.387 113.218 151.404 113.173 151.442 113.15L156.268 110.149C156.314 110.12 156.376 110.134 156.405 110.18C156.434 110.227 156.419 110.288 156.373 110.317L151.547 113.318C151.531 113.328 151.513 113.333 151.494 113.333Z" fill="#0B122D"/>
<path d="M165.299 113.012L165.297 113.793C165.296 113.916 165.247 114.034 165.16 114.121C165.072 114.208 164.954 114.257 164.83 114.256L124.245 114.125C124.224 114.125 124.203 114.124 124.182 114.122C124.062 114.119 123.942 114.102 123.825 114.07C123.822 114.068 123.819 114.067 123.816 114.067C123.423 113.961 123.083 113.715 122.86 113.375C122.743 113.199 122.661 113.001 122.619 112.793L122.483 112.129L118.547 92.5866C118.461 92.164 118.57 91.7251 118.843 91.3916C119.117 91.0581 119.526 90.8654 119.957 90.8669L148.221 90.9583C148.902 90.9591 149.488 91.4399 149.621 92.1076L153.734 112.51L164.836 112.546C164.959 112.546 165.077 112.596 165.164 112.683C165.251 112.771 165.3 112.889 165.299 113.012Z" fill="#00B9B9"/>
<g style="mix-blend-mode:overlay" opacity="0.6">
<path d="M165.299 113.012L165.297 113.792C165.297 113.915 165.247 114.034 165.16 114.121C165.072 114.207 164.954 114.256 164.831 114.256L153.528 114.219C152.739 114.217 152.059 113.661 151.902 112.887L147.83 92.6807C147.55 92.3303 147.536 91.8372 147.795 91.4712C148.054 91.1053 148.524 90.9548 148.947 91.1023C149.371 91.2497 149.646 91.6594 149.621 92.1071L153.735 112.51L164.836 112.546C164.959 112.546 165.078 112.595 165.164 112.683C165.251 112.77 165.3 112.889 165.299 113.012Z" fill="#030F1C"/>
</g>
<g style="mix-blend-mode:overlay" opacity="0.6">
<path d="M132.98 104.998C132.233 104.995 131.591 104.467 131.446 103.734L131.434 103.671C131.342 103.209 131.463 102.731 131.762 102.368C132.061 102.005 132.507 101.795 132.978 101.796C133.725 101.799 134.366 102.327 134.512 103.06L134.524 103.123C134.616 103.585 134.495 104.063 134.196 104.426C133.897 104.789 133.451 104.999 132.98 104.998Z" fill="white"/>
</g>
<path d="M159.649 114.169L219.009 114.361L225.98 118.906L210.904 118.857L225.636 197.419C225.837 198.453 225.161 199.455 224.126 199.656C224.083 199.664 224.04 199.662 223.996 199.668L223.992 199.677L223.901 199.676C223.801 199.684 223.699 199.684 223.599 199.675L222.061 199.67C222.061 199.67 221.043 199.177 220.842 198.143L202.073 121.54L187.4 121.493L170.182 197.979C170.004 198.861 169.235 199.499 168.336 199.51L168.334 199.512C167.884 199.536 167.432 199.522 166.984 199.471L166.984 199.471C165.95 199.264 165.281 198.258 165.488 197.224L174.864 140.499L175.147 138.788L117.651 138.602L128.622 197.107C128.718 197.603 128.614 198.117 128.331 198.536C128.048 198.955 127.61 199.245 127.113 199.34C127.07 199.349 127.027 199.347 126.984 199.353L126.979 199.363L126.877 199.363C126.781 199.37 126.684 199.369 126.588 199.362L125.048 199.357C125.048 199.357 124.03 198.864 123.829 197.829L109.311 138.575L86.4853 138.501L73.1667 197.665C72.9912 198.547 72.2225 199.185 71.3235 199.196L71.3216 199.198C70.8709 199.222 70.4191 199.208 69.9708 199.158C68.9375 198.95 68.2681 197.944 68.4756 196.911L78.1344 138.474L76.0667 138.467L79.6941 119.788L79.6932 119.788L79.9559 118.434L66.8298 118.391L66.8299 118.378L61.2417 113.851L159.649 114.169Z" fill="#C1D4EE"/>
<g style="mix-blend-mode:overlay" opacity="0.6">
<path d="M111.94 138.583L124.876 197.831C125.077 198.865 126.078 199.54 127.112 199.34C128.146 199.14 128.822 198.14 128.623 197.106L117.652 138.601L111.94 138.583Z" fill="#030F1C"/>
</g>
<g style="mix-blend-mode:overlay" opacity="0.6">
<path d="M70.9242 199.158C71.42 199.259 71.9354 199.158 72.3564 198.877C72.7774 198.597 73.0692 198.16 73.1674 197.664L86.4861 138.5L80.7748 138.482L69.4256 196.915C69.3269 197.411 69.4293 197.926 69.7103 198.347C69.9914 198.768 70.428 199.059 70.9242 199.158Z" fill="#030F1C"/>
</g>
<g style="mix-blend-mode:overlay" opacity="0.6">
<path d="M177.291 141.359L174.724 141.35L175.148 138.787L175.754 138.789L179.382 120.11L79.6939 119.788L79.9569 118.432L166.619 118.712L159.649 114.169L219.009 114.361L225.981 118.905L210.905 118.857L225.637 197.419C225.837 198.453 225.161 199.454 224.127 199.654C223.093 199.855 222.091 199.18 221.89 198.146L205.167 121.55L187.4 121.492L170.182 197.979C169.974 199.011 168.969 199.68 167.936 199.473C166.903 199.265 166.234 198.26 166.441 197.227L177.291 141.359Z" fill="#030F1C"/>
</g>
<g style="mix-blend-mode:overlay" opacity="0.6">
<path d="M179.382 120.109L211.16 120.212L210.906 118.855L179.644 118.754L179.382 120.109Z" fill="#030F1C"/>
</g>
<rect width="166.524" height="63.5616" rx="6" fill="#85E1C1"/>
<path d="M36.0566 36.6115C36.0596 39.5342 35.0176 42.359 33.1233 44.5632C32.9032 44.8271 32.6692 45.0788 32.4224 45.3172C27.7791 49.8861 20.3918 49.8861 15.7484 45.3172C15.5061 45.0805 15.2725 44.8263 15.0475 44.572C11.5561 40.5073 11.1288 34.5965 13.9982 30.0597C16.8677 25.5228 22.3465 23.4468 27.45 24.9627C32.5535 26.4785 36.0589 31.223 36.0566 36.6115V36.6115Z" fill="white"/>
<path fill-rule="evenodd" clip-rule="evenodd" d="M55.8799 35.9045C55.4449 36.5002 54.8451 36.941 53.9162 36.941C52.4463 36.941 51.0469 35.7734 51.0469 33.6407V33.6169C51.0469 31.4842 52.4227 30.3165 53.9162 30.3165C54.8687 30.3165 55.4566 30.7574 55.8799 31.2697V28.1243H57.6674V36.8219H55.8799V35.9045ZM43.6621 36.8219L44.4147 34.9513H47.8954L48.648 36.8219H50.5413L47.0135 28.4221H45.3437L41.8159 36.8219H43.6621ZM45.0615 33.3309L46.1551 30.6263L47.2487 33.3309H45.0615ZM54.3748 35.404C53.5399 35.404 52.8343 34.7011 52.8343 33.6407V33.6169C52.8343 32.5446 53.5399 31.8535 54.3748 31.8535C55.2097 31.8535 55.9035 32.5565 55.9035 33.6169V33.6407C55.9035 34.7011 55.2097 35.404 54.3748 35.404ZM62.959 36.1308C62.5239 36.6193 61.9242 36.941 61.054 36.941C59.8663 36.941 58.8903 36.25 58.8903 34.987V34.9632C58.8903 33.5692 59.9369 32.9258 61.4303 32.9258C62.0653 32.9258 62.5239 33.0331 62.9708 33.1879V33.0807C62.9708 32.3301 62.5122 31.9131 61.6185 31.9131C60.9364 31.9131 60.4543 32.0441 59.8781 32.2586L59.4312 30.8765C60.125 30.5667 60.8071 30.3642 61.8772 30.3642C63.8292 30.3642 64.6876 31.3888 64.6876 33.1165V36.8219H62.959V36.1308ZM61.5949 35.69C61.0187 35.69 60.6189 35.404 60.6189 34.9155V34.8917C60.6189 34.3198 61.0893 34.01 61.8536 34.01C62.2887 34.01 62.6885 34.1054 62.9943 34.2483V34.57C62.9943 35.2253 62.4298 35.69 61.5949 35.69ZM68.0155 33.2594V36.8219H66.2281V30.4357H68.0155V31.3412C68.427 30.805 68.968 30.3165 69.8734 30.3165C70.6966 30.3165 71.3198 30.6859 71.6491 31.3293C72.2017 30.674 72.8603 30.3165 73.7187 30.3165C75.0475 30.3165 75.8471 31.1267 75.8471 32.6637V36.8219H74.0597V33.2594C74.0597 32.4016 73.6834 31.9607 73.0131 31.9607C72.3429 31.9607 71.9313 32.4016 71.9313 33.2594V36.8219H70.1439V33.2594C70.1439 32.4016 69.7676 31.9607 69.0973 31.9607C68.427 31.9607 68.0155 32.4016 68.0155 33.2594Z" fill="#1E835F"/>
<path fill-rule="evenodd" clip-rule="evenodd" d="M44.5084 43.7602C44.5084 44.3546 44.0048 44.7649 43.3039 44.7649C42.7224 44.7649 42.2759 44.5703 41.8398 44.1758L42.0164 43.9706C42.4161 44.3441 42.7847 44.5177 43.3195 44.5177C43.8646 44.5177 44.2384 44.2073 44.2384 43.7865V43.776C44.2384 43.3867 44.0359 43.1606 43.2105 42.9922C42.3382 42.8134 41.9852 42.5135 41.9852 41.956V41.9454C41.9852 41.3984 42.4784 40.9775 43.1533 40.9775C43.6829 40.9775 44.0307 41.1248 44.3994 41.4247L44.228 41.6403C43.8854 41.3405 43.5427 41.2248 43.143 41.2248C42.6082 41.2248 42.2552 41.5351 42.2552 41.9191V41.9296C42.2552 42.3189 42.4525 42.5556 43.3143 42.7345C44.1553 42.9081 44.5084 43.2132 44.5084 43.7497V43.7602ZM47.1562 44.2652C46.9744 44.523 46.6474 44.7755 46.1438 44.7755C45.6506 44.7755 45.121 44.4914 45.121 43.9338V43.9233C45.121 43.3657 45.5935 43.0501 46.2788 43.0501C46.6474 43.0501 46.9018 43.0974 47.1562 43.1658V43.0501C47.1562 42.5083 46.8291 42.2295 46.2839 42.2295C45.9621 42.2295 45.6973 42.3189 45.4533 42.4452L45.3598 42.219C45.6506 42.0822 45.9361 41.9875 46.2995 41.9875C46.9796 41.9875 47.4054 42.3452 47.4054 43.0396V44.7123H47.1562V44.2652ZM46.1593 44.5335C45.7544 44.5335 45.391 44.3073 45.391 43.918V43.9075C45.391 43.534 45.7025 43.2815 46.2632 43.2815C46.6422 43.2815 46.9381 43.3447 47.1613 43.4025V43.7076C47.1613 44.1968 46.6993 44.5335 46.1593 44.5335ZM48.5735 43.1606V44.7123H48.3191V42.0296H48.5735V42.5293C48.75 42.2137 49.0459 41.9665 49.5288 41.9665C50.1985 41.9665 50.5879 42.4294 50.5879 43.0711V44.7123H50.3335V43.1185C50.3335 42.5661 50.0272 42.2032 49.4924 42.2032C48.9733 42.2032 48.5735 42.603 48.5735 43.1606ZM53.3862 44.7123V43.0448H55.4421V42.7923H53.3862V41.2826H55.6758V41.0301H53.1162V44.7123H53.3862ZM56.7193 43.6129V44.7123H56.4649V42.0296H56.7193V42.7923C56.927 42.3137 57.3682 41.9665 57.8926 41.9875V42.2716H57.8667C57.254 42.2716 56.7193 42.7397 56.7193 43.6129ZM59.2165 44.7755C59.7201 44.7755 60.0472 44.523 60.2289 44.2652V44.7123H60.4781V43.0396C60.4781 42.3452 60.0524 41.9875 59.3722 41.9875C59.0088 41.9875 58.7233 42.0822 58.4325 42.219L58.526 42.4452C58.77 42.3189 59.0348 42.2295 59.3567 42.2295C59.9018 42.2295 60.2289 42.5083 60.2289 43.0501V43.1658C59.9745 43.0974 59.7201 43.0501 59.3515 43.0501C58.6662 43.0501 58.1937 43.3657 58.1937 43.9233V43.9338C58.1937 44.4914 58.7233 44.7755 59.2165 44.7755ZM58.4637 43.918C58.4637 44.3073 58.8271 44.5335 59.2321 44.5335C59.772 44.5335 60.2341 44.1968 60.2341 43.7076V43.4025C60.0108 43.3447 59.7149 43.2815 59.3359 43.2815C58.7752 43.2815 58.4637 43.534 58.4637 43.9075V43.918ZM61.6462 44.7123V43.1606C61.6462 42.603 62.046 42.2032 62.5652 42.2032C63.0999 42.2032 63.4062 42.5661 63.4062 43.1185V44.7123H63.6606V43.0711C63.6606 42.4294 63.2712 41.9665 62.6015 41.9665C62.1187 41.9665 61.8227 42.2137 61.6462 42.5293V42.0296H61.3918V44.7123H61.6462ZM66.3447 43.9812C66.3447 44.4598 65.9398 44.7649 65.431 44.7649C65.0468 44.7649 64.6263 44.6071 64.3459 44.3757L64.4965 44.1705C64.7872 44.3967 65.1091 44.523 65.4466 44.523C65.8048 44.523 66.0851 44.3231 66.0851 44.0127V44.0022C66.0851 43.6866 65.7529 43.5709 65.3843 43.4656L65.3623 43.4592C64.9373 43.3348 64.4757 43.1998 64.4757 42.7292V42.7187C64.4757 42.2873 64.8339 41.977 65.3479 41.977C65.6646 41.977 66.0228 42.0927 66.2876 42.2716L66.1526 42.4872C65.9086 42.3242 65.6179 42.219 65.3375 42.219C64.9741 42.219 64.7353 42.4189 64.7353 42.6871V42.6976C64.7353 42.9975 65.0935 43.1079 65.4725 43.2184C65.8982 43.3394 66.3447 43.4972 66.3447 43.9706V43.9812ZM67.4765 41.33V40.9775H67.1598V41.33H67.4765ZM67.4454 42.0296V44.7123H67.191V42.0296H67.4454ZM69.304 44.7649C69.8128 44.7649 70.2177 44.4598 70.2177 43.9812V43.9706C70.2177 43.4972 69.7712 43.3394 69.3455 43.2184C68.9665 43.1079 68.6083 42.9975 68.6083 42.6976V42.6871C68.6083 42.4189 68.8471 42.219 69.2105 42.219C69.4909 42.219 69.7816 42.3242 70.0256 42.4872L70.1606 42.2716C69.8958 42.0927 69.5376 41.977 69.2209 41.977C68.7069 41.977 68.3487 42.2873 68.3487 42.7187V42.7292C68.3487 43.1998 68.8103 43.3348 69.2353 43.4592L69.2573 43.4656C69.6259 43.5709 69.9581 43.6866 69.9581 44.0022V44.0127C69.9581 44.3231 69.6778 44.523 69.3196 44.523C68.9821 44.523 68.6602 44.3967 68.3695 44.1705L68.2189 44.3757C68.4993 44.6071 68.9198 44.7649 69.304 44.7649ZM73.2757 44.2442C73.0057 44.5545 72.6838 44.7755 72.1958 44.7755C71.4326 44.7755 70.8459 44.1337 70.8459 43.3815V43.371C70.8459 42.6187 71.4378 41.9665 72.1958 41.9665C72.6942 41.9665 73.0057 42.1979 73.2549 42.4609L73.0732 42.6503C72.8447 42.4136 72.5852 42.2084 72.1906 42.2084C71.5883 42.2084 71.1211 42.7187 71.1211 43.3604V43.371C71.1211 44.018 71.6039 44.5335 72.2113 44.5335C72.5852 44.5335 72.8759 44.3389 73.0991 44.0864L73.2757 44.2442ZM75.0876 44.7755C75.8767 44.7755 76.453 44.1232 76.453 43.371V43.3604C76.453 42.6082 75.8819 41.9665 75.0979 41.9665C74.3088 41.9665 73.7325 42.6187 73.7325 43.371V43.3815C73.7325 44.1337 74.3036 44.7755 75.0876 44.7755ZM74.0077 43.371C74.0077 44.018 74.4853 44.5335 75.0979 44.5335C75.7261 44.5335 76.1778 44.0127 76.1778 43.3815V43.371C76.1778 42.7239 75.7002 42.2084 75.0876 42.2084C74.4594 42.2084 74.0077 42.7292 74.0077 43.3604V43.371Z" fill="black"/>
<path fill-rule="evenodd" clip-rule="evenodd" d="M19.8224 40.309C20.1301 40.1722 20.4453 40.05 20.767 39.9431L20.7871 39.9364C19.4003 38.9058 18.5 37.2428 18.5 35.3667C18.5 32.2388 21.0026 29.7031 24.0897 29.7031C27.1769 29.7031 29.6795 32.2388 29.6795 35.3667C29.6795 37.2536 28.7687 38.925 27.3683 39.9542C27.6979 40.0631 28.0207 40.1879 28.3358 40.3278C27.1985 41.3279 25.7139 41.9333 24.0897 41.9333C22.4555 41.9333 20.9625 41.3204 19.8224 40.309Z" fill="#EC7EF2"/>
<g style="mix-blend-mode:overlay">
<path d="M153.155 17.2011H152.671V12.8175C152.671 10.5854 150.885 8.77588 148.682 8.77588C146.479 8.77588 144.693 10.5854 144.693 12.8175V17.2011H144.208C143.997 17.2059 143.828 17.3811 143.828 17.5956V17.7797C143.828 17.9942 143.997 18.1695 144.208 18.1742H147.67C147.67 18.7456 148.127 19.2088 148.691 19.2088C149.254 19.2088 149.712 18.7456 149.712 18.1742H153.173C153.384 18.1695 153.553 17.9942 153.553 17.7797V17.5956C153.553 17.4894 153.511 17.3877 153.436 17.3135C153.361 17.2392 153.26 17.1987 153.155 17.2011V17.2011Z" fill="black"/>
</g>
<path fill-rule="evenodd" clip-rule="evenodd" d="M111.916 39.978L113.032 42.2662L115.533 42.6345L113.724 44.4142L114.148 46.9304L111.916 45.7468L109.692 46.9304L110.116 44.4142L108.308 42.6345L110.8 42.2662L111.916 39.978ZM122.542 42.2662L121.417 39.978L120.309 42.2662L117.808 42.6345L119.617 44.4142L119.193 46.9304L121.417 45.7468L123.649 46.9304L123.225 44.4142L125.034 42.6345L122.542 42.2662ZM130.926 39.978L132.042 42.2662L134.534 42.6345L132.726 44.4142L133.159 46.9304L130.926 45.7468L128.694 46.9304L129.118 44.4142L127.309 42.6345L129.81 42.2662L130.926 39.978ZM140.427 39.978L141.543 42.2662L144.035 42.6345L142.235 44.4142L142.659 46.9304L140.427 45.7468L138.195 46.9304L138.619 44.4142L136.819 42.6345L139.311 42.2662L140.427 39.978ZM151.044 42.2662L149.928 39.978L148.812 42.2662L146.32 42.6345L148.128 44.4142L147.695 46.9304L149.928 45.7468L152.16 46.9304L151.736 44.4142L153.536 42.6345L151.044 42.2662Z" fill="white"/>
<path fill-rule="evenodd" clip-rule="evenodd" d="M29.6793 35.3667C29.6793 37.2536 28.7686 38.925 27.3682 39.9542C29.7668 40.7468 31.8078 42.3811 33.1232 44.5634C32.903 44.8273 32.6691 45.0789 32.4223 45.3174C27.7789 49.8862 20.3916 49.8862 15.7482 45.3174C15.506 45.0807 15.2723 44.8264 15.0474 44.5722C16.342 42.3821 18.3728 40.7386 20.7669 39.9431L20.7869 39.9364C19.4002 38.9058 18.4999 37.2428 18.4999 35.3667C18.4999 32.2388 21.0025 29.7031 24.0896 29.7031C27.1767 29.7031 29.6793 32.2388 29.6793 35.3667ZM111.916 39.9782L113.032 42.2664L115.533 42.6346L113.724 44.4144L114.148 46.9305L111.916 45.747L109.692 46.9305L110.116 44.4144L108.308 42.6346L110.8 42.2664L111.916 39.9782ZM122.542 42.2664L121.417 39.9782L120.309 42.2664L117.809 42.6346L119.617 44.4144L119.193 46.9305L121.417 45.747L123.649 46.9305L123.225 44.4144L125.034 42.6346L122.542 42.2664ZM130.926 39.9782L132.043 42.2664L134.535 42.6346L132.726 44.4144L133.159 46.9305L130.926 45.747L128.694 46.9305L129.118 44.4144L127.309 42.6346L129.81 42.2664L130.926 39.9782ZM140.427 39.9782L141.543 42.2664L144.035 42.6346L142.236 44.4144L142.66 46.9305L140.427 45.747L138.195 46.9305L138.619 44.4144L136.819 42.6346L139.311 42.2664L140.427 39.9782Z" fill="#117A55"/>
<g style="mix-blend-mode:overlay">
<path fill-rule="evenodd" clip-rule="evenodd" d="M10.3833 8.76709C10.3833 8.2829 10.7758 7.89038 11.26 7.89038H22.4859C22.9701 7.89038 23.3626 8.2829 23.3626 8.76709C23.3626 9.25129 22.9701 9.64381 22.4859 9.64381H11.26C10.7758 9.64381 10.3833 9.25129 10.3833 8.76709ZM10.3833 12.2739C10.3833 11.7897 10.7758 11.3972 11.26 11.3972H22.4859C22.9701 11.3972 23.3626 11.7897 23.3626 12.2739C23.3626 12.7581 22.9701 13.1507 22.4859 13.1507H11.26C10.7758 13.1507 10.3833 12.7581 10.3833 12.2739ZM11.26 14.9041C10.7758 14.9041 10.3833 15.2966 10.3833 15.7808C10.3833 16.265 10.7758 16.6575 11.26 16.6575H19.0247C19.5089 16.6575 19.9014 16.265 19.9014 15.7808C19.9014 15.2966 19.5089 14.9041 19.0247 14.9041H11.26Z" fill="black"/>
</g>
</svg>
