<svg width="405" height="441" viewBox="0 0 405 441" fill="none" xmlns="http://www.w3.org/2000/svg">
<g clip-path="url(#clip0_166_3430)">
<path d="M286.7 321.157H390.22C390.22 321.157 385.07 314.457 379.4 313.617C379.4 313.617 368.4 280.757 349.88 280.527C332.71 280.307 325.82 300.727 325.82 300.727C325.82 300.727 317.82 291.567 310.26 295.727C302.7 299.887 298.35 311.907 298.35 311.907C298.35 311.907 289.8 316.547 286.7 321.157Z" fill="#EBEBEB"/>
<path d="M130.91 193.447H0C0 193.447 0 185.087 18 183.447C18 183.447 34.46 146.887 59.6 151.807C75.26 154.807 83.26 176.357 83.26 176.357C83.26 176.357 95.09 159.437 104.55 162.717C114.01 165.997 119.63 183.997 119.63 183.997C119.63 183.997 129.43 188.727 130.91 193.447Z" fill="#EBEBEB"/>
<path d="M384.55 165.207H295.55C295.55 165.207 303.95 157.387 307.68 157.387C311.41 157.387 322.31 131.137 336.23 132.257C350.15 133.377 357.54 152.917 357.54 152.917C357.54 152.917 374.46 147.617 384.55 165.207Z" fill="#EBEBEB"/>
<path d="M186.74 272.347H110.61C110.61 272.347 114.4 267.417 118.61 266.797C118.61 266.797 126.73 242.637 140.31 242.467C152.94 242.307 158.01 257.327 158.01 257.327C158.01 257.327 163.86 250.587 169.45 253.667C175.04 256.747 178.21 265.567 178.21 265.567C178.21 265.567 184.45 268.957 186.74 272.347Z" fill="#EBEBEB"/>
<path d="M120.57 98.9974H224.11C224.11 98.9974 218.97 92.2975 213.29 91.4575C213.29 91.4575 202.29 58.5975 183.78 58.3675C166.6 58.1475 159.71 78.5675 159.71 78.5675C159.71 78.5675 151.71 69.4075 144.15 73.5675C136.59 77.7275 132.25 89.7474 132.25 89.7474C132.25 89.7474 123.67 94.3874 120.57 98.9974Z" fill="#EBEBEB"/>
<path d="M307.21 46.3775C307.21 61.4975 296 77.5275 286.71 90.3775C282.98 95.5475 279.63 100.327 277.19 103.867C274.6 107.607 273 109.977 273 109.977H255.51C255.51 109.977 253.91 107.607 251.32 103.867C248.88 100.327 245.53 95.5475 241.8 90.3775C232.51 77.5075 221.3 61.4775 221.3 46.3775C221.3 21.6775 239.68 5.57753 260.08 3.62753H260.29C261.6 3.51753 262.93 3.45752 264.29 3.45752C265.65 3.45752 266.95 3.51753 268.29 3.62753H268.5C288.83 5.57753 307.21 21.6775 307.21 46.3775Z" fill="#EBEBEB"/>
<path d="M267.26 103.887C266.93 105.887 266.58 107.887 266.26 109.997H262.35C261.98 107.917 261.63 105.887 261.3 103.887C246.99 17.6873 264.3 3.42725 264.3 3.42725C264.3 3.42725 281.57 17.6873 267.26 103.887Z" fill="white"/>
<path d="M257.8 103.887C259.41 107.727 260.49 109.997 260.49 109.997H258.2C258.2 109.997 256.73 107.717 254.37 103.887C252.67 101.097 250.5 97.4875 248.09 93.3075C240.22 79.6075 230.09 62.6275 232 43.6775C234.6 17.4375 256.79 5.28754 260.08 3.67754L260.49 3.47754L260.29 3.64754C258.41 5.36754 243.61 19.7475 243.61 46.2875C243.61 67.4075 253.03 92.5376 257.8 103.887Z" fill="white"/>
<path d="M280.42 93.3072C278.01 97.4872 275.84 101.097 274.14 103.887C271.78 107.717 270.31 109.997 270.31 109.997H268.02C268.02 109.997 269.1 107.727 270.71 103.887C275.48 92.5373 284.9 67.4072 284.9 46.2372C284.9 19.6972 270.1 5.31725 268.22 3.59725L268.02 3.42725L268.43 3.62726C271.72 5.28726 293.91 17.4372 296.51 43.6772C298.39 62.6272 288.29 79.6072 280.42 93.3072Z" fill="white"/>
<path d="M277.19 103.887C274.6 107.627 273 109.997 273 109.997H255.51C255.51 109.997 253.91 107.627 251.32 103.887H277.19Z" fill="#DBDBDB"/>
<path d="M238.141 68.7993L237.184 69.0897L254.85 127.308L255.807 127.018L238.141 68.7993Z" fill="#DBDBDB"/>
<path d="M255.83 68.9238L254.832 68.9911L258.76 127.209L259.758 127.141L255.83 68.9238Z" fill="#DBDBDB"/>
<path d="M290.361 68.8062L272.715 127.031L273.672 127.321L291.318 69.0963L290.361 68.8062Z" fill="#DBDBDB"/>
<path d="M272.667 68.9224L268.739 127.14L269.737 127.207L273.665 68.9897L272.667 68.9224Z" fill="#DBDBDB"/>
<path d="M301.95 68.5273H226.55V70.5273H301.95V68.5273Z" fill="#DBDBDB"/>
<path d="M274.05 127.407L273.63 132.457L272.69 143.827H255.82L254.88 132.457L254.46 127.407H274.05Z" fill="#EBEBEB"/>
<path d="M274.05 127.407L273.63 132.457H254.88L254.46 127.407H274.05Z" fill="#DBDBDB"/>
<path d="M275.03 125.977H253.48V128.837H275.03V125.977Z" fill="#EBEBEB"/>
<path d="M9.1001 370.977L55.6001 370.737L102.11 370.647L195.11 370.477L288.11 370.647L334.62 370.737L381.12 370.977L334.62 371.217L288.11 371.307L195.11 371.477L102.11 371.307L55.6001 371.217L9.1001 370.977Z" fill="#263238"/>
<path d="M195.11 440.167C291.224 440.167 369.14 431.441 369.14 420.677C369.14 409.913 291.224 401.187 195.11 401.187C98.996 401.187 21.0801 409.913 21.0801 420.677C21.0801 431.441 98.996 440.167 195.11 440.167Z" fill="#EBEBEB"/>
<path d="M81.5501 28.1975C81.2201 27.9575 65.0201 24.8675 54.4001 38.1975C44.6301 50.4475 44.7801 68.8275 46.4901 68.8475C48.5801 68.8475 51.8901 59.2375 61.0801 52.1075C64.3401 49.5775 70.5801 49.7175 70.5801 49.7175L81.5501 28.1975Z" fill="#00AF00"/>
<path d="M112.52 50.3877C112.85 50.6177 120.98 64.9676 111.78 79.3076C103.32 92.4976 85.8601 98.3077 85.3001 96.6477C84.6201 94.6477 92.6601 88.4476 96.4601 77.4476C97.8101 73.5476 95.6701 67.6877 95.6701 67.6877L112.52 50.3877Z" fill="#00AF00"/>
<path d="M84.64 76.8774L65.55 63.1974C65.55 63.1974 66.4 42.9774 79.21 27.3174C85.6387 19.733 93.3199 13.3066 101.92 8.31745C112.82 1.84745 122.73 -1.17255 124.92 0.417447C127.11 2.00745 127.46 12.4174 124.85 24.7675C122.893 34.5024 119.292 43.8327 114.2 52.3574C103.51 69.5674 84.64 76.8774 84.64 76.8774Z" fill="#EBEBEB"/>
<path d="M83.1869 75.8209L67.0184 64.2368L63.5007 69.1467L79.6692 80.7308L83.1869 75.8209Z" fill="#00AF00"/>
<path d="M108.35 43.5273C107.014 45.3929 105.155 46.8203 103.007 47.629C100.86 48.4377 98.521 48.5914 96.2862 48.0706C94.0515 47.5498 92.0214 46.3779 90.4528 44.7031C88.8842 43.0284 87.8475 40.926 87.4739 38.662C87.1003 36.398 87.4066 34.074 88.3539 31.9841C89.3013 29.8942 90.8472 28.1322 92.7961 26.921C94.7451 25.7098 97.0094 25.1038 99.3028 25.1797C101.596 25.2556 103.815 26.0099 105.68 27.3473C106.918 28.2339 107.97 29.3559 108.774 30.6491C109.579 31.9423 110.12 33.3813 110.368 34.884C110.616 36.3866 110.566 37.9234 110.219 39.4065C109.873 40.8896 109.238 42.2899 108.35 43.5273Z" fill="#00AF00"/>
<path d="M98.9299 44.8173C103.37 44.8173 106.97 41.2177 106.97 36.7773C106.97 32.337 103.37 28.7373 98.9299 28.7373C94.4895 28.7373 90.8899 32.337 90.8899 36.7773C90.8899 41.2177 94.4895 44.8173 98.9299 44.8173Z" fill="#A6A6A6"/>
<path d="M124.88 24.8172L101.88 8.36725C112.78 1.89725 122.69 -1.12275 124.88 0.467253C127.07 2.05725 127.49 12.4172 124.88 24.8172Z" fill="#00AF00"/>
<path d="M106.73 8.73737C106.665 8.8282 106.582 8.90521 106.486 8.96396C106.391 9.02271 106.285 9.06204 106.174 9.07969C106.064 9.09735 105.951 9.09298 105.842 9.06684C105.733 9.0407 105.631 8.9933 105.54 8.92737C105.357 8.79476 105.234 8.5949 105.199 8.37173C105.163 8.14856 105.217 7.92036 105.35 7.73737C105.483 7.55437 105.682 7.43154 105.906 7.39591C106.129 7.36028 106.357 7.41476 106.54 7.54737C106.632 7.61197 106.71 7.69436 106.769 7.78967C106.829 7.88497 106.869 7.99125 106.887 8.10221C106.904 8.21317 106.9 8.32655 106.873 8.43565C106.846 8.54475 106.797 8.64735 106.73 8.73737Z" fill="#EBEBEB"/>
<path d="M111.11 11.8975C111.045 11.9884 110.962 12.0654 110.866 12.1241C110.771 12.1829 110.665 12.2222 110.554 12.2399C110.444 12.2575 110.331 12.2532 110.222 12.227C110.113 12.2009 110.011 12.1535 109.92 12.0875C109.829 12.0219 109.753 11.939 109.694 11.8437C109.635 11.7483 109.596 11.6424 109.579 11.5319C109.561 11.4214 109.565 11.3085 109.591 11.1997C109.617 11.0908 109.664 10.9882 109.73 10.8975C109.796 10.8069 109.879 10.7301 109.974 10.6716C110.069 10.613 110.175 10.5737 110.286 10.5561C110.396 10.5384 110.509 10.5427 110.618 10.5687C110.727 10.5947 110.829 10.6419 110.92 10.7075C111.012 10.7722 111.09 10.8545 111.15 10.9498C111.209 11.0452 111.249 11.1514 111.267 11.2624C111.284 11.3733 111.28 11.4867 111.253 11.5958C111.226 11.7049 111.177 11.8075 111.11 11.8975Z" fill="#EBEBEB"/>
<path d="M115.55 15.0674C115.485 15.1583 115.402 15.2353 115.306 15.294C115.211 15.3528 115.105 15.3921 114.994 15.4098C114.884 15.4274 114.771 15.4231 114.662 15.3969C114.553 15.3708 114.451 15.3234 114.36 15.2574C114.269 15.1918 114.193 15.1089 114.134 15.0136C114.075 14.9182 114.036 14.8123 114.019 14.7018C114.001 14.5913 114.005 14.4784 114.031 14.3696C114.057 14.2607 114.104 14.1581 114.17 14.0674C114.236 13.9768 114.319 13.9 114.414 13.8415C114.509 13.7829 114.615 13.7436 114.726 13.726C114.836 13.7083 114.949 13.7126 115.058 13.7386C115.167 13.7646 115.269 13.8118 115.36 13.8774C115.451 13.9429 115.528 14.0257 115.587 14.121C115.645 14.2164 115.685 14.3224 115.702 14.433C115.72 14.5435 115.716 14.6565 115.689 14.7654C115.663 14.8743 115.616 14.9769 115.55 15.0674Z" fill="#EBEBEB"/>
<path d="M119.96 18.2173C119.895 18.3082 119.812 18.3852 119.716 18.4439C119.621 18.5027 119.515 18.542 119.404 18.5597C119.294 18.5773 119.181 18.573 119.072 18.5468C118.963 18.5207 118.861 18.4733 118.77 18.4073C118.679 18.3417 118.603 18.2588 118.544 18.1635C118.485 18.0681 118.446 17.9622 118.429 17.8517C118.411 17.7412 118.415 17.6283 118.441 17.5195C118.467 17.4106 118.514 17.308 118.58 17.2173C118.646 17.1267 118.729 17.0499 118.824 16.9913C118.919 16.9328 119.025 16.8935 119.136 16.8759C119.246 16.8582 119.359 16.8625 119.468 16.8885C119.577 16.9145 119.679 16.9617 119.77 17.0273C119.861 17.0928 119.938 17.1756 119.997 17.2709C120.055 17.3663 120.095 17.4723 120.112 17.5829C120.13 17.6934 120.126 17.8064 120.099 17.9153C120.073 18.0242 120.026 18.1268 119.96 18.2173Z" fill="#EBEBEB"/>
<path d="M124.37 21.3776C124.238 21.5605 124.039 21.684 123.816 21.7214C123.593 21.7588 123.365 21.7072 123.18 21.5776C122.996 21.4434 122.873 21.2427 122.835 21.0184C122.798 20.7941 122.85 20.5641 122.98 20.3776C123.114 20.1935 123.316 20.0701 123.541 20.0345C123.766 19.9989 123.996 20.0539 124.18 20.1876C124.271 20.2531 124.348 20.3359 124.407 20.4312C124.465 20.5266 124.505 20.6326 124.522 20.7432C124.54 20.8537 124.536 20.9667 124.509 21.0756C124.483 21.1845 124.436 21.2871 124.37 21.3776Z" fill="#EBEBEB"/>
<path d="M113.28 197.257C113.28 196.577 113.21 195.897 113.21 195.257H113.96C113.96 195.897 113.96 196.557 114.03 197.257H113.28Z" fill="#263238"/>
<path d="M185.38 251.187H184.19V250.437C185.52 250.437 186.85 250.437 188.19 250.437V251.187C187.28 251.167 186.33 251.187 185.38 251.187ZM179.14 250.937C177.8 250.827 176.44 250.677 175.14 250.497L175.24 249.757C176.56 249.937 177.9 250.077 179.24 250.187L179.14 250.937ZM193.29 250.777L193.21 250.037C194.53 249.897 195.87 249.727 197.21 249.527L197.32 250.267C195.97 250.467 194.62 250.647 193.29 250.777ZM170.11 249.657C168.81 249.397 167.48 249.087 166.17 248.757L166.35 248.027C167.65 248.357 168.97 248.667 170.26 248.927L170.11 249.657ZM202.26 249.337L202.1 248.597C203.39 248.317 204.7 247.997 206 247.597L206.19 248.327C204.89 248.717 203.57 249.067 202.27 249.337H202.26ZM161.26 247.337C159.98 246.927 158.7 246.467 157.44 245.987L157.71 245.287C158.95 245.767 160.22 246.217 161.49 246.627L161.26 247.337ZM210.98 246.887L210.74 246.177C212 245.757 213.27 245.297 214.51 244.807L214.79 245.507C213.59 245.997 212.31 246.457 211.04 246.887H210.98ZM152.84 244.067C151.62 243.517 150.4 242.917 149.2 242.297L149.55 241.627C150.73 242.247 151.95 242.837 153.15 243.387L152.84 244.067ZM219.5 243.567L219.19 242.887C220.39 242.327 221.59 241.727 222.75 241.087L223.11 241.747C221.93 242.347 220.72 242.957 219.5 243.527V243.567ZM144.78 239.827C143.63 239.127 142.48 238.397 141.37 237.657L141.78 237.027C142.88 237.767 144.02 238.497 145.17 239.187L144.78 239.827ZM227.45 239.157L227.04 238.527C228.13 237.807 229.24 237.037 230.32 236.237L230.77 236.837C229.67 237.607 228.56 238.387 227.45 239.117V239.157ZM137.25 234.707C136.19 233.887 135.13 233.027 134.1 232.157L134.59 231.587C135.59 232.457 136.65 233.297 137.71 234.107L137.25 234.707ZM234.7 233.707L234.21 233.137C235.21 232.287 236.21 231.377 237.21 230.447L237.73 230.987C236.71 231.857 235.7 232.777 234.7 233.637V233.707ZM130.35 228.787C129.35 227.847 128.43 226.867 127.53 225.887L128.08 225.377C128.97 226.377 129.92 227.317 130.88 228.247L130.35 228.787ZM241.23 227.377L240.68 226.867C241.56 225.867 242.45 224.867 243.33 223.867L243.9 224.357C243.01 225.327 242.11 226.347 241.23 227.307V227.377ZM124.23 222.047C123.39 220.977 122.57 219.887 121.81 218.797L122.42 218.367C123.17 219.447 123.98 220.527 124.82 221.577L124.23 222.047ZM247.11 220.337L246.52 219.877C247.31 218.877 248.11 217.757 248.9 216.647L249.51 217.077C248.67 218.197 247.86 219.297 247.11 220.337ZM119.11 214.457C118.42 213.267 117.78 212.057 117.21 210.877L117.88 210.547C118.44 211.717 119.07 212.907 119.76 214.087L119.11 214.457ZM252.35 212.917L251.72 212.497C252.45 211.387 253.18 210.257 253.89 209.117L254.53 209.507C253.77 210.657 253.04 211.797 252.31 212.917H252.35ZM115.26 206.187C114.809 204.908 114.425 203.607 114.11 202.287L114.84 202.107C115.148 203.402 115.522 204.681 115.96 205.937L115.26 206.187ZM257.13 205.187L256.49 204.807C257.16 203.657 257.83 202.497 258.49 201.317L259.14 201.687C258.44 202.867 257.77 204.067 257.11 205.187H257.13ZM261.58 197.267L260.92 196.907C261.55 195.737 262.18 194.547 262.81 193.357L263.47 193.707L261.58 197.267ZM265.79 189.267L265.12 188.927L266.95 185.337L267.62 185.667C266.987 186.854 266.363 188.041 265.75 189.227L265.79 189.267ZM269.88 181.167L269.21 180.827L271.01 177.227L271.68 177.557L269.88 181.167ZM273.94 173.057L273.27 172.717L275.08 169.117L275.75 169.457L273.94 173.057ZM278.04 164.967L277.38 164.627C277.99 163.437 278.61 162.247 279.24 161.047L279.91 161.397C279.24 162.547 278.62 163.737 278 164.927L278.04 164.967ZM282.28 156.967L281.62 156.607C282.26 155.437 282.9 154.257 283.56 153.087L284.21 153.457C283.52 154.577 282.87 155.747 282.24 156.917L282.28 156.967ZM286.69 149.087L286.04 148.717C286.72 147.557 287.4 146.397 288.09 145.247L288.73 145.637C288.01 146.751 287.317 147.894 286.65 149.067L286.69 149.087ZM291.37 141.367L290.73 140.967C291.45 139.837 292.18 138.707 292.92 137.587L293.54 138.007C292.77 139.067 292.04 140.197 291.33 141.317L291.37 141.367ZM296.37 133.847L295.76 133.417C296.53 132.317 297.31 131.217 298.11 130.137L298.71 130.577C297.897 131.624 297.103 132.697 296.33 133.797L296.37 133.847ZM301.75 126.577L301.11 126.067C301.94 125.007 302.79 123.967 303.65 122.927L304.23 123.407C303.38 124.437 302.54 125.477 301.71 126.527L301.75 126.577ZM307.55 119.647L306.99 119.147C307.883 118.147 308.793 117.147 309.72 116.147L310.26 116.657C309.3 117.617 308.4 118.597 307.51 119.597L307.55 119.647ZM313.78 113.107L313.26 112.577C314.26 111.637 315.2 110.707 316.19 109.797L316.7 110.347C315.67 111.207 314.69 112.127 313.74 113.067L313.78 113.107ZM320.46 107.037L319.98 106.467C320.98 105.597 322.06 104.747 323.11 103.917L323.57 104.507C322.49 105.277 321.44 106.127 320.42 106.987L320.46 107.037ZM327.58 101.487L327.14 100.877C328.23 100.097 329.35 99.3172 330.46 98.5772L330.88 99.1972C329.73 99.8872 328.62 100.657 327.54 101.437L327.58 101.487ZM335.11 96.4872L334.71 95.8472C335.86 95.1572 337.04 94.4672 338.2 93.8472L338.57 94.5072C337.37 95.0672 336.21 95.7572 335.11 96.4472V96.4872Z" fill="#263238"/>
<path d="M343.11 91.9575L342.77 91.2875C343.36 90.9875 343.96 90.6875 344.57 90.3975L344.9 91.0675L343.11 91.9575Z" fill="#263238"/>
<path d="M340.38 78.4875L333.31 97.9175L348.16 86.3175L404.92 65.7275L340.38 78.4875Z" fill="#00AF00"/>
<path opacity="0.2" d="M340.38 78.4875L333.31 97.9175L348.16 86.3175L404.92 65.7275L340.38 78.4875Z" fill="#222221"/>
<path d="M350.06 90.8474L333.31 97.9174L348.16 86.3174L350.06 90.8474Z" fill="#263238"/>
<path d="M348.16 86.3175L404.92 65.7275L358.36 111.167L348.16 86.3175Z" fill="#00AF00"/>
<path d="M340.38 78.4873L316.79 63.2573L404.92 65.7273L340.38 78.4873Z" fill="#00AF00"/>
<path d="M212.04 179.197C212.04 179.197 205.93 233.717 201.74 269.107C200.98 275.497 200.29 281.267 199.74 285.967C198.95 292.327 198.36 296.757 198.09 298.197C197.85 299.427 197.93 304.327 197.98 311.197C197.98 315.067 197.98 319.567 197.98 324.397C197.76 343.047 197.81 367.767 197.86 383.267C197.86 392.097 197.56 397.937 197.56 397.937H155.32C155.32 397.937 155.2 392.257 155.1 383.267C154.83 358.887 154.67 310.197 157.22 284.447C160.76 248.697 172.11 179.197 172.11 179.197H212.04Z" fill="#EB9481"/>
<path d="M125.54 431.777C127.83 432.537 193.19 432.347 195.68 430.777C196.62 430.187 197.15 420.657 197.46 409.137C197.527 406.644 197.58 404.087 197.62 401.467C197.67 398.377 197.71 395.247 197.73 392.207C197.81 378.557 197.62 366.537 197.62 366.537H155.11V392.207V401.467L155.33 409.137C155.33 409.137 130.33 420.407 127.8 422.437C125.27 424.467 123.26 431.067 125.54 431.777Z" fill="#EB9481"/>
<path d="M125.54 431.777C127.83 432.537 193.19 432.347 195.68 430.777C196.62 430.187 197.15 420.657 197.46 409.137C197.527 406.644 197.58 404.087 197.62 401.467C197.67 398.377 197.71 395.247 197.73 392.207H155.11V401.467L155.33 409.137C155.33 409.137 130.33 420.407 127.8 422.437C125.27 424.467 123.26 431.067 125.54 431.777Z" fill="white"/>
<path d="M125.34 431.877C126.83 432.367 191.96 433.447 195.87 430.877C197.01 430.117 197.57 416.157 197.87 401.407H155.11L155.33 409.117C155.33 409.117 130.2 420.447 127.64 422.487C125.08 424.527 123.05 431.067 125.34 431.877Z" fill="#00AF00"/>
<path d="M126.28 429.247C137.28 428.937 181.75 428.757 192.67 429.297C192.76 429.297 192.76 429.367 192.67 429.367C181.75 429.907 137.29 429.727 126.28 429.427C126.04 429.417 126.04 429.247 126.28 429.247Z" fill="#263238"/>
<path d="M153.73 406.657C158.06 405.827 163.36 406.487 166.73 409.557C166.85 409.677 166.68 409.857 166.54 409.817C162.395 408.496 158.121 407.618 153.79 407.197C153.718 407.205 153.647 407.185 153.59 407.14C153.534 407.095 153.498 407.029 153.49 406.957C153.482 406.886 153.503 406.814 153.548 406.758C153.593 406.701 153.658 406.665 153.73 406.657Z" fill="#263238"/>
<path d="M150.6 408.547C154.94 407.727 160.24 408.377 163.6 411.457C163.73 411.577 163.6 411.757 163.42 411.717C159.261 410.377 154.969 409.489 150.62 409.067C150.567 409.049 150.521 409.015 150.488 408.969C150.455 408.924 150.436 408.87 150.434 408.814C150.431 408.758 150.446 408.703 150.476 408.655C150.505 408.608 150.549 408.57 150.6 408.547Z" fill="#263238"/>
<path d="M147.48 410.447C151.81 409.617 157.12 410.277 160.48 413.347C160.61 413.467 160.43 413.647 160.29 413.607C156.145 412.285 151.871 411.407 147.54 410.987C147.468 410.995 147.397 410.975 147.34 410.93C147.284 410.885 147.248 410.819 147.24 410.747C147.232 410.676 147.253 410.604 147.298 410.548C147.343 410.491 147.408 410.455 147.48 410.447Z" fill="#263238"/>
<path d="M144.35 412.337C148.69 411.517 153.99 412.167 157.35 415.247C157.48 415.367 157.35 415.547 157.17 415.507C153.023 414.18 148.745 413.302 144.41 412.887C144.343 412.884 144.28 412.858 144.231 412.812C144.183 412.766 144.152 412.704 144.145 412.638C144.137 412.572 144.154 412.505 144.192 412.45C144.229 412.395 144.286 412.355 144.35 412.337Z" fill="#263238"/>
<path d="M147.65 402.817C150.72 405.197 154.72 406.157 158.3 407.477C158.382 407.497 158.468 407.498 158.551 407.48C158.633 407.461 158.71 407.424 158.776 407.371C158.842 407.318 158.895 407.25 158.93 407.173C158.965 407.096 158.982 407.012 158.98 406.927C158.998 406.927 159.015 406.922 159.031 406.914C159.046 406.905 159.059 406.893 159.069 406.878C159.079 406.864 159.085 406.847 159.087 406.829C159.089 406.812 159.086 406.794 159.08 406.777C157.752 402.942 155.442 399.522 152.38 396.857C150.56 395.347 147.38 394.297 145.69 396.647C144 398.997 145.86 401.437 147.65 402.817ZM146.54 399.337C145.76 394.577 150.87 397.067 152.17 398.237C152.993 399.007 153.761 399.832 154.47 400.707C155.899 402.538 157.234 404.441 158.47 406.407C156.75 405.657 154.98 405.057 153.24 404.407C151.19 403.547 146.97 401.957 146.54 399.337Z" fill="#263238"/>
<path d="M173.54 400.127C172.48 397.427 169.14 397.647 167.01 398.657C163.366 400.466 160.263 403.201 158.01 406.587C158 406.602 157.993 406.618 157.991 406.636C157.988 406.654 157.99 406.671 157.996 406.688C158.002 406.705 158.011 406.72 158.024 406.732C158.037 406.744 158.053 406.753 158.07 406.757C158 407.087 158.2 407.497 158.59 407.457C162.39 407.077 166.5 407.147 170.07 405.607C172.18 404.717 174.54 402.677 173.54 400.127ZM164.26 405.707C162.4 405.937 160.54 406.077 158.68 406.377C160.381 404.783 162.164 403.278 164.02 401.867C164.928 401.194 165.88 400.583 166.87 400.037C168.41 399.227 173.99 398.107 172.05 402.517C170.98 404.947 166.49 405.427 164.26 405.707Z" fill="#263238"/>
<path d="M212.04 179.197C212.04 179.197 205.93 233.717 201.74 269.107C200.98 275.497 200.29 281.267 199.74 285.967C198.95 292.327 198.36 296.757 198.09 298.197C197.85 299.427 197.93 304.327 197.98 311.197C197.98 315.067 197.98 319.567 197.98 324.397C197.76 343.047 197.81 367.767 197.86 383.267H155.11C154.84 358.887 154.68 310.197 157.23 284.447C160.76 248.697 172.11 179.197 172.11 179.197H212.04Z" fill="#455A64"/>
<path d="M197.94 311.217C197.89 304.327 197.81 299.427 198.05 298.217C199.65 289.787 212.05 179.217 212.05 179.217H177.91L197.94 311.217Z" fill="#263238"/>
<path d="M345.6 297.847C345.6 297.847 344.17 298.427 341.6 299.407C339.36 300.277 336.24 301.407 332.45 302.817L330.97 303.337L330.7 303.437L329.77 303.767C303.77 312.987 252.65 328.907 229.27 320.827C205.89 312.747 172.76 178.757 172.11 179.197H228.78C228.78 179.197 239.32 206.387 230.33 223.497C229.5 225.077 250.46 280.897 263.14 279.367C273.04 278.167 300.65 267.807 318.07 262.447L320.91 261.577L324.08 260.577H324.13L329.53 258.917L333.17 257.797L345.6 297.847Z" fill="#EB9481"/>
<path d="M388.99 315.727C389.04 313.317 369.59 250.917 367.34 249.007C366.5 248.277 357.24 250.587 346.15 253.687C343.75 254.347 341.24 254.947 338.77 255.787C335.67 256.847 306.03 266.507 306.03 266.507L318.22 307.687L341.68 299.687L351.3 296.417L358.56 293.957C358.56 293.957 376.7 314.507 379.38 316.337C382.06 318.167 388.94 318.127 388.99 315.727Z" fill="#EB9481"/>
<path d="M388.99 315.727C389.04 313.317 369.59 250.917 367.34 249.007C366.5 248.277 357.24 250.587 346.15 253.687C343.75 254.347 341.24 254.947 338.77 255.787C335.67 256.847 332.5 257.737 329.53 258.787C333.23 270.977 338.48 288.727 341.68 299.647L351.3 296.377L358.56 293.917C358.56 293.917 376.7 314.467 379.38 316.297C382.06 318.127 388.94 318.127 388.99 315.727Z" fill="white"/>
<path d="M389.11 315.887C389.16 313.467 369.6 250.717 367.34 248.797C366.34 247.907 352.78 251.517 338.61 255.617L351.21 296.467L358.51 293.987C358.51 293.987 376.75 314.667 379.45 316.507C382.15 318.347 389.11 318.307 389.11 315.887Z" fill="#00AF00"/>
<path d="M386.35 315.777C382.81 305.337 369.53 262.897 366.83 252.317C366.83 252.227 366.83 252.207 366.9 252.317C370.63 262.587 383.56 305.127 386.52 315.737C386.58 315.947 386.42 315.997 386.35 315.777Z" fill="#263238"/>
<path d="M356.67 296.197C354.61 292.307 353.67 287.037 355.67 282.957C355.74 282.797 355.97 282.907 355.97 283.057C355.916 287.424 356.338 291.783 357.23 296.057C357.249 296.132 357.237 296.21 357.197 296.276C357.158 296.342 357.094 296.389 357.02 296.407C356.946 296.426 356.867 296.414 356.801 296.375C356.736 296.336 356.689 296.272 356.67 296.197Z" fill="#263238"/>
<path d="M359.4 298.627C357.34 294.727 356.4 289.467 358.4 285.387C358.48 285.227 358.7 285.337 358.7 285.487C358.652 289.853 359.074 294.212 359.96 298.487C359.979 298.562 359.967 298.64 359.927 298.706C359.888 298.772 359.824 298.819 359.75 298.837C359.676 298.856 359.597 298.844 359.531 298.805C359.466 298.766 359.419 298.702 359.4 298.627Z" fill="#263238"/>
<path d="M362.11 301.067C360.05 297.167 359.11 291.907 361.11 287.827C361.19 287.667 361.41 287.777 361.41 287.927C361.367 292.293 361.789 296.651 362.67 300.927C362.689 301.002 362.677 301.08 362.637 301.146C362.598 301.212 362.534 301.259 362.46 301.277C362.386 301.296 362.307 301.284 362.241 301.245C362.176 301.206 362.129 301.142 362.11 301.067Z" fill="#263238"/>
<path d="M364.86 303.477C362.8 299.577 361.86 294.317 363.86 290.237C363.94 290.077 364.16 290.187 364.16 290.337C364.116 294.703 364.538 299.061 365.42 303.337C365.439 303.412 365.427 303.49 365.387 303.556C365.348 303.622 365.284 303.669 365.21 303.687C365.136 303.706 365.057 303.694 364.991 303.655C364.926 303.616 364.879 303.552 364.86 303.477Z" fill="#263238"/>
<path d="M355.98 291.247C355.902 291.175 355.807 291.124 355.704 291.098C355.601 291.072 355.493 291.071 355.39 291.097C355.379 291.085 355.365 291.074 355.349 291.067C355.334 291.06 355.317 291.057 355.3 291.057C355.283 291.057 355.266 291.06 355.251 291.067C355.235 291.074 355.221 291.085 355.21 291.097L354.9 291.327H354.84L354.72 291.417C354.567 291.531 354.417 291.651 354.27 291.777C353.013 292.805 351.866 293.961 350.85 295.227C350.38 295.807 349.93 296.417 349.52 297.037C348.813 298.095 348.207 299.216 347.71 300.387C346.8 302.567 346.71 305.907 349.48 306.837C352.25 307.767 354 305.267 354.8 303.147C355.656 300.473 356.062 297.675 356 294.867C356 293.787 356.05 292.717 356.11 291.667C356.133 291.592 356.133 291.512 356.11 291.437C356.087 291.362 356.041 291.296 355.98 291.247ZM354.76 295.247C354.76 295.927 354.67 296.597 354.62 297.247C354.45 299.477 354.18 303.987 351.8 305.167C347.48 307.317 348.35 301.697 349.09 300.117C349.583 299.101 350.144 298.118 350.77 297.177C350.94 296.907 351.12 296.647 351.3 296.387C352.39 294.837 353.61 293.387 354.8 291.927L354.97 291.707C354.97 291.707 354.97 291.777 354.97 291.807C354.965 291.874 354.965 291.941 354.97 292.007C354.86 293.097 354.79 294.177 354.73 295.257L354.76 295.247Z" fill="#263238"/>
<path d="M356 291.287C355.52 290.127 355.06 288.917 354.58 287.717C353.726 285.259 352.473 282.958 350.87 280.907C349.65 279.467 347.62 278.087 345.75 278.647C345.337 278.765 344.953 278.966 344.62 279.237C342.35 281.037 343.54 284.167 345.14 285.907C346.287 287.139 347.58 288.227 348.99 289.147C350.636 290.256 352.417 291.15 354.29 291.807C354.48 291.877 354.66 291.937 354.85 291.987L355.02 292.037H355.09L355.35 292.117C355.368 292.124 355.387 292.126 355.406 292.123C355.424 292.121 355.442 292.114 355.458 292.103C355.474 292.092 355.486 292.078 355.495 292.062C355.505 292.045 355.51 292.026 355.51 292.007C355.595 292.004 355.678 291.982 355.752 291.941C355.826 291.9 355.89 291.842 355.937 291.772C355.985 291.701 356.016 291.621 356.027 291.537C356.037 291.453 356.028 291.367 356 291.287ZM354.72 291.407C352.772 290.296 350.882 289.085 349.06 287.777L348.4 287.267C347.728 286.745 347.087 286.184 346.48 285.587C345.37 284.477 343.04 280.287 346.13 279.907C346.525 279.858 346.925 279.858 347.32 279.907C349.95 280.207 351.74 284.357 352.66 286.397C353.4 288.037 354.05 289.697 354.84 291.307C354.873 291.386 354.909 291.463 354.95 291.537L354.72 291.407Z" fill="#263238"/>
<path d="M332.45 302.817L330.97 303.337L330.7 303.437L329.77 303.767C303.77 312.987 252.65 328.907 229.27 320.827C205.89 312.747 172.76 178.757 172.11 179.197H228.78C228.78 179.197 239.32 206.387 230.33 223.497C229.5 225.077 250.46 280.897 263.14 279.367C273.04 278.167 300.65 267.807 318.07 262.447L320.91 261.577L332.45 302.817Z" fill="#455A64"/>
<path d="M171.01 127.217C171.014 127.355 171.068 127.487 171.162 127.588C171.256 127.689 171.383 127.753 171.52 127.767L173.73 127.607C175.03 121.837 176.61 117.167 176.26 118.947C175.75 121.751 175.633 124.612 175.91 127.447L180.27 127.057C180.79 117.137 182.1 109.657 182.27 111.887C182.82 120.887 183.66 123.707 184.62 126.687C195.15 125.687 208.94 124.327 218.89 123.077C219.38 117.557 219.68 111.627 219.89 112.007C221.62 114.847 222.52 119.177 222.97 122.547C226.13 122.127 228.65 121.727 230.18 121.397C230.18 121.397 230.37 116.797 230.29 115.307C230.114 111.484 229.271 107.721 227.8 104.187C226.179 100.728 224.213 97.4411 221.93 94.3775L221.87 94.3076C220.452 92.2503 219.278 90.0355 218.37 87.7075C217.74 85.9997 217.249 84.2441 216.9 82.4575C215.63 75.9175 211.46 70.6875 205.45 69.7575C193.17 60.2475 182.78 66.4375 180.51 75.3675C180.29 76.2375 180.1 77.2275 179.93 78.3075C179.28 82.3075 178.93 87.3876 178.43 91.3076C178.27 92.8582 178.016 94.3977 177.67 95.9176C175.68 103.257 169.84 108.067 171.01 127.217Z" fill="#263238"/>
<path d="M208.11 71.1375C210.117 71.8349 211.909 73.0407 213.312 74.6374C214.714 76.2341 215.678 78.167 216.11 80.2475C216.623 83.0076 217.473 85.6942 218.64 88.2475C220.063 90.6948 221.835 92.9216 223.9 94.8575C227.02 98.0475 229.33 101.337 230.33 106.007C231.33 110.677 231.82 116.457 230.86 121.157C231.394 115.889 230.915 110.566 229.45 105.477C227.98 100.367 224.81 97.4775 221.5 93.8775C218.834 91.0419 216.952 87.5611 216.04 83.7775C215.46 81.4375 215.19 78.9475 214.04 76.7775C212.65 74.2475 210.31 72.8475 208.04 71.6275C207.62 71.4975 207.83 71.0675 208.11 71.1375Z" fill="#263238"/>
<path d="M172.11 104.267C174.33 100.147 176.73 96.5575 177.73 91.6875C178.65 87.2475 178.91 82.6875 179.85 78.2275C179.85 78.1575 179.97 78.1675 179.95 78.2275C178.63 86.0475 179.13 93.6975 175.38 100.647C173.38 104.427 171.27 107.947 170.16 112.297C169.046 116.856 168.748 121.575 169.28 126.237C169.28 126.407 169.1 126.417 169.06 126.237C167.472 118.783 168.552 111.008 172.11 104.267Z" fill="#263238"/>
<path d="M189.38 125.147C180.53 133.737 147.79 149.707 136.11 145.607C128.49 142.937 106.64 121.607 102.34 115.287C97.3399 107.907 112.99 93.6073 117.4 96.4573C122.91 100.027 139.99 118.657 145.18 121.617C148.18 123.327 169.1 116.477 189.24 112.297C197.05 110.667 194.67 120.067 189.38 125.147Z" fill="#EB9481"/>
<path d="M117.69 104.157C117.69 104.157 104.53 94.8674 103.69 94.6374C102.85 94.4074 102.52 95.5373 102.2 96.4073C102.125 96.964 102.105 97.5267 102.14 98.0873C102.14 100.737 102.14 105.417 98.79 104.847C94.45 104.097 94.59 93.5773 94.87 91.9373C95.0916 91.2296 95.4634 90.5781 95.96 90.0274C97.63 87.9574 100.96 85.3673 104.11 85.8573C108.47 86.5273 112.51 89.1873 116.18 91.2473L117.69 104.157Z" fill="#EB9481"/>
<path d="M117.69 104.157C117.69 104.157 104.53 94.8674 103.69 94.6374C102.85 94.4074 102.52 95.5373 102.2 96.4073C102.125 96.964 102.105 97.5267 102.14 98.0873C99.93 95.2273 97.5 92.0874 95.96 90.0274C97.63 87.9574 100.96 85.3673 104.11 85.8573C108.47 86.5273 112.51 89.1873 116.18 91.2473L117.69 104.157Z" fill="#263238"/>
<path d="M111.49 125.527C110.94 124.757 105.25 118.947 100.96 114.527C101.56 109.837 101.66 100.347 101.69 97.8373C102.21 95.0473 101.69 88.8373 101.45 88.8373C100.93 88.8373 99.0899 88.8373 96.8499 88.6173C93.8499 88.3473 90.2699 87.7673 88.0899 86.5073C87.5518 86.2729 87.0882 85.8953 86.7497 85.4157C86.4112 84.9361 86.2106 84.3729 86.1699 83.7873C86.1699 81.7873 90.6899 81.5773 96.0099 80.9273C103.25 80.0373 112.2 79.3373 115.08 82.0073C119.33 86.0073 121.22 94.4973 122.08 97.0073C122.94 99.5173 128.22 106.267 128.22 106.267C124.31 119.837 112.22 126.547 111.49 125.527Z" fill="#EB9481"/>
<path d="M74.2499 80.8672C74.2499 80.8672 83.7899 84.1272 93.8099 87.0672C103.83 90.0072 124.05 100.687 124.16 101.547C124.27 102.407 101.9 95.8172 92.4299 91.7572C82.9599 87.6972 73.6399 82.9872 73.6399 82.9872L74.2499 80.8672Z" fill="#455A64"/>
<path d="M74.08 80.6875L80.75 82.6375L79.35 86.1275L73.21 83.0875L74.08 80.6875Z" fill="#EBEBEB"/>
<path d="M74.1101 80.6872C73.5826 79.9938 72.8975 79.4362 72.1114 79.0605C71.3253 78.6849 70.461 78.5021 69.5901 78.5272C68.8606 78.5795 68.1283 78.4793 67.4396 78.2331C66.751 77.9869 66.1211 77.6001 65.5901 77.0972C65.5901 77.0972 67.4801 83.4972 73.1901 83.0972L74.1101 80.6872Z" fill="#455A64"/>
<path d="M65.4101 76.9076C65.8101 76.9076 66.9101 78.2376 68.4101 78.3676C69.9101 78.4976 69.2901 82.6976 67.8901 81.3076C66.2901 79.7376 64.6901 76.8676 65.4101 76.9076Z" fill="#00AF00"/>
<path d="M100.96 114.577C99.49 113.087 98.1701 111.787 97.2501 110.917C94.3867 108.402 92.5971 104.883 92.2501 101.087C91.7901 97.7374 84.41 90.7174 89.96 90.1974C95.51 89.6774 99.8901 99.8874 101.18 99.1374C101.42 98.9974 101.6 98.5374 101.72 97.8874C101.66 100.397 101.56 109.887 100.96 114.577Z" fill="#EB9481"/>
<path d="M101.88 96.0674C101.88 95.9374 101.79 95.9574 101.77 96.0674C101.77 96.5274 101.46 98.5974 100.99 98.5974C100.15 98.5974 97.24 94.4574 95.71 92.9374C95.62 92.8574 95.5 92.9374 95.59 93.0374C96.02 93.4174 97.31 95.2274 97.64 95.6574C98.27 96.4974 100.01 99.1774 101.06 99.1774C101.76 99.2374 101.93 96.5974 101.88 96.0674Z" fill="#263238"/>
<path d="M159.49 117.707L163.92 131.557C165.56 136.777 167.08 141.557 167.18 142.107C175.173 137.701 182.777 132.623 189.91 126.927C199.53 119.117 198.52 112.567 192.91 111.557C192.057 111.418 191.19 111.391 190.33 111.477C182.69 112.187 159.49 117.707 159.49 117.707Z" fill="#00AF00"/>
<path d="M175.38 119.217H174.6C174.406 119.223 174.213 119.189 174.033 119.119C173.852 119.048 173.688 118.942 173.549 118.807C173.41 118.672 173.299 118.51 173.224 118.332C173.149 118.153 173.11 117.961 173.11 117.767C173.097 117.511 172.986 117.269 172.8 117.092C172.614 116.916 172.367 116.817 172.11 116.817H171.29V116.317H172.11C172.301 116.316 172.491 116.353 172.668 116.425C172.845 116.497 173.006 116.604 173.142 116.739C173.277 116.873 173.385 117.034 173.459 117.21C173.532 117.387 173.57 117.576 173.57 117.767C173.561 117.901 173.581 118.035 173.628 118.16C173.675 118.286 173.749 118.399 173.843 118.494C173.938 118.589 174.052 118.662 174.177 118.709C174.302 118.756 174.436 118.776 174.57 118.767H175.35L175.38 119.217ZM166.83 127.957C167.014 127.789 167.255 127.695 167.505 127.695C167.755 127.695 167.996 127.789 168.18 127.957C168.456 128.222 168.823 128.37 169.205 128.37C169.587 128.37 169.954 128.222 170.23 127.957L170.81 127.367L170.46 127.017L169.87 127.597C169.686 127.763 169.448 127.855 169.2 127.855C168.952 127.855 168.714 127.763 168.53 127.597C168.259 127.343 167.902 127.201 167.53 127.201C167.158 127.201 166.801 127.343 166.53 127.597L165.97 128.157L166.33 128.507L166.83 127.957Z" fill="white"/>
<path d="M163.92 131.557C165.56 136.777 167.08 141.557 167.18 142.107C175.173 137.701 182.777 132.623 189.91 126.927C199.53 119.117 198.52 112.567 192.91 111.557L163.92 131.557Z" fill="#263238"/>
<path d="M245.66 259.297H157.11L157.62 256.117L168.71 186.737L168.86 185.827L174.07 153.207C174.07 153.207 169.49 146.277 170.88 140.017C171.58 136.847 178.88 124.187 182.76 119.017C183.996 117.289 185.371 115.663 186.87 114.157C191.13 110.157 196.87 109.647 200.96 110.247C201.681 110.359 202.391 110.537 203.08 110.777C208.96 112.777 216.19 119.677 220.08 130.097C221.43 133.717 222.77 137.937 224.08 142.607C224.14 142.837 224.2 143.067 224.27 143.297C228.14 157.187 231.84 174.867 235.03 192.217C236.84 202.027 238.49 211.737 239.92 220.587L240.1 221.757C243.53 243.197 245.66 259.297 245.66 259.297Z" fill="#00AF00"/>
<path d="M201.62 183.007H200.83C200.445 183.007 200.077 182.855 199.805 182.583C199.533 182.311 199.38 181.942 199.38 181.557C199.38 181.292 199.275 181.038 199.087 180.85C198.9 180.663 198.645 180.557 198.38 180.557H197.55V180.067H198.38C198.765 180.07 199.134 180.225 199.406 180.499C199.678 180.772 199.83 181.142 199.83 181.527C199.842 181.775 199.946 182.01 200.122 182.186C200.297 182.361 200.532 182.465 200.78 182.477H201.57L201.62 183.007ZM214.04 226.957H213.26C213.012 226.945 212.777 226.841 212.602 226.666C212.426 226.49 212.322 226.255 212.31 226.007C212.31 225.623 212.157 225.254 211.885 224.982C211.613 224.71 211.245 224.557 210.86 224.557H210.03V225.057H210.86C211.108 225.07 211.343 225.174 211.518 225.349C211.694 225.525 211.798 225.759 211.81 226.007C211.81 226.392 211.963 226.761 212.235 227.033C212.507 227.305 212.875 227.457 213.26 227.457H214.04V226.957ZM229.51 184.957H228.73C228.474 184.945 228.232 184.834 228.055 184.647C227.878 184.461 227.78 184.214 227.78 183.957C227.777 183.572 227.622 183.203 227.349 182.932C227.075 182.66 226.705 182.507 226.32 182.507H225.49V183.007H226.32C226.577 183.007 226.824 183.106 227.01 183.282C227.196 183.459 227.307 183.701 227.32 183.957C227.32 184.342 227.473 184.711 227.745 184.983C228.017 185.255 228.385 185.407 228.77 185.407H229.55L229.51 184.957ZM189.97 162.347H189.18C188.932 162.335 188.697 162.231 188.522 162.056C188.346 161.88 188.242 161.645 188.23 161.397C188.23 161.013 188.077 160.644 187.805 160.372C187.533 160.1 187.165 159.947 186.78 159.947H185.95V160.447H186.78C187.037 160.447 187.284 160.546 187.47 160.722C187.656 160.899 187.767 161.141 187.78 161.397C187.78 161.782 187.933 162.151 188.205 162.423C188.477 162.695 188.845 162.847 189.23 162.847H190.02L189.97 162.347ZM175.38 143.647H174.6C174.343 143.648 174.096 143.549 173.91 143.372C173.724 143.196 173.613 142.954 173.6 142.697C173.6 142.506 173.562 142.317 173.489 142.14C173.415 141.964 173.307 141.803 173.172 141.669C173.036 141.534 172.875 141.427 172.698 141.355C172.521 141.283 172.331 141.246 172.14 141.247H171.32V141.747H172.14C172.405 141.747 172.66 141.853 172.847 142.04C173.035 142.228 173.14 142.482 173.14 142.747C173.14 143.132 173.293 143.501 173.565 143.773C173.837 144.045 174.205 144.197 174.59 144.197H175.37L175.38 143.647ZM214.31 161.837H213.52C213.263 161.838 213.016 161.739 212.83 161.562C212.644 161.386 212.533 161.144 212.52 160.887C212.52 160.503 212.367 160.134 212.095 159.862C211.823 159.59 211.455 159.437 211.07 159.437H210.24V159.937H211.11C211.366 159.95 211.608 160.061 211.785 160.247C211.962 160.434 212.06 160.681 212.06 160.937C212.06 161.322 212.213 161.691 212.485 161.963C212.757 162.235 213.125 162.387 213.51 162.387H214.3L214.31 161.837ZM199.91 136.397H199.11C198.862 136.385 198.627 136.281 198.452 136.106C198.276 135.93 198.172 135.695 198.16 135.447C198.16 135.063 198.007 134.694 197.735 134.422C197.463 134.15 197.095 133.997 196.71 133.997H195.88V134.497H196.71C196.966 134.51 197.208 134.621 197.385 134.807C197.562 134.994 197.66 135.241 197.66 135.497C197.66 135.882 197.813 136.251 198.085 136.523C198.357 136.795 198.725 136.947 199.11 136.947H199.9L199.91 136.397ZM183.99 201.067H183.21C182.954 201.055 182.712 200.944 182.535 200.757C182.358 200.571 182.26 200.324 182.26 200.067C182.257 199.682 182.102 199.313 181.829 199.042C181.555 198.77 181.185 198.617 180.8 198.617H179.97V199.117H180.8C181.065 199.117 181.32 199.223 181.507 199.41C181.695 199.598 181.8 199.852 181.8 200.117C181.8 200.503 181.952 200.873 182.224 201.146C182.496 201.42 182.865 201.575 183.25 201.577H184.03L183.99 201.067ZM204.19 242.747H203.4C203.135 242.747 202.88 242.642 202.693 242.455C202.505 242.267 202.4 242.013 202.4 241.747C202.4 241.363 202.247 240.994 201.975 240.722C201.703 240.45 201.335 240.297 200.95 240.297H200.12V240.797H200.95C201.198 240.81 201.433 240.914 201.608 241.089C201.784 241.265 201.888 241.499 201.9 241.747C201.9 242.132 202.053 242.501 202.325 242.773C202.597 243.045 202.965 243.197 203.35 243.197H204.14L204.19 242.747ZM230.42 256.937H229.63C229.374 256.925 229.132 256.814 228.955 256.627C228.778 256.441 228.68 256.194 228.68 255.937C228.68 255.553 228.527 255.184 228.255 254.912C227.983 254.64 227.615 254.487 227.23 254.487H226.4V254.987H227.23C227.478 255 227.713 255.104 227.888 255.279C228.064 255.455 228.168 255.689 228.18 255.937C228.18 256.323 228.332 256.693 228.604 256.966C228.876 257.24 229.245 257.395 229.63 257.397H230.42V256.937ZM175.3 247.067H174.51C174.253 247.068 174.006 246.969 173.82 246.792C173.634 246.616 173.523 246.374 173.51 246.117C173.51 245.733 173.357 245.364 173.085 245.092C172.813 244.82 172.445 244.667 172.06 244.667H171.23V245.167H172.11C172.358 245.18 172.593 245.284 172.768 245.459C172.944 245.635 173.048 245.869 173.06 246.117C173.06 246.502 173.213 246.871 173.485 247.143C173.757 247.415 174.125 247.567 174.51 247.567H175.3V247.067ZM197.47 219.927H196.68C196.432 219.915 196.197 219.811 196.022 219.636C195.846 219.46 195.742 219.225 195.73 218.977C195.73 218.593 195.577 218.224 195.305 217.952C195.033 217.68 194.665 217.527 194.28 217.527H193.45V218.027H194.28C194.537 218.027 194.784 218.126 194.97 218.302C195.156 218.479 195.267 218.721 195.28 218.977C195.28 219.362 195.433 219.731 195.705 220.003C195.977 220.275 196.345 220.427 196.73 220.427H197.52L197.47 219.927ZM173.29 223.927H172.5C172.252 223.915 172.017 223.811 171.842 223.636C171.666 223.46 171.562 223.225 171.55 222.977C171.55 222.592 171.398 222.222 171.126 221.949C170.854 221.675 170.485 221.52 170.1 221.517H169.27V222.017H170.11C170.366 222.03 170.608 222.141 170.785 222.327C170.962 222.514 171.06 222.761 171.06 223.017C171.06 223.402 171.213 223.771 171.485 224.043C171.757 224.315 172.125 224.467 172.51 224.467H173.3L173.29 223.927ZM208.6 201.637H207.81C207.562 201.625 207.327 201.521 207.152 201.346C206.976 201.17 206.872 200.935 206.86 200.687C206.86 200.303 206.707 199.934 206.435 199.662C206.163 199.39 205.795 199.237 205.41 199.237H204.58V199.737H205.41C205.666 199.75 205.908 199.861 206.085 200.047C206.262 200.234 206.36 200.481 206.36 200.737C206.36 201.122 206.513 201.491 206.785 201.763C207.057 202.035 207.425 202.187 207.81 202.187H208.6V201.637ZM239.52 231.637H238.73C238.474 231.625 238.232 231.514 238.055 231.327C237.878 231.141 237.78 230.894 237.78 230.637C237.777 230.254 237.624 229.886 237.352 229.615C237.081 229.344 236.714 229.19 236.33 229.187H235.5V229.687H236.33C236.578 229.7 236.813 229.804 236.988 229.979C237.164 230.155 237.268 230.389 237.28 230.637C237.28 231.023 237.432 231.393 237.704 231.666C237.976 231.94 238.345 232.095 238.73 232.097H239.52V231.637ZM184.23 173.567C184.414 173.402 184.652 173.31 184.9 173.31C185.148 173.31 185.386 173.402 185.57 173.567C185.841 173.822 186.198 173.964 186.57 173.964C186.942 173.964 187.299 173.822 187.57 173.567L188.16 172.977L187.81 172.627L187.22 173.217C187.036 173.386 186.795 173.48 186.545 173.48C186.295 173.48 186.054 173.386 185.87 173.217C185.594 172.953 185.227 172.805 184.845 172.805C184.463 172.805 184.096 172.953 183.82 173.217L183.27 173.767L183.62 174.117L184.23 173.567ZM175.23 158.567C175.414 158.402 175.652 158.31 175.9 158.31C176.148 158.31 176.386 158.402 176.57 158.567C176.704 158.703 176.864 158.811 177.04 158.885C177.215 158.958 177.404 158.996 177.595 158.996C177.786 158.996 177.975 158.958 178.15 158.885C178.326 158.811 178.486 158.703 178.62 158.567L179.21 157.987L178.86 157.627L178.27 158.217C178.086 158.383 177.848 158.475 177.6 158.475C177.352 158.475 177.114 158.383 176.93 158.217C176.653 157.952 176.284 157.804 175.9 157.804C175.516 157.804 175.147 157.952 174.87 158.217L174.32 158.777L174.67 159.127L175.23 158.567ZM220.54 199.727C220.724 199.562 220.962 199.47 221.21 199.47C221.458 199.47 221.696 199.562 221.88 199.727C222.153 199.978 222.51 200.116 222.88 200.116C223.25 200.116 223.607 199.978 223.88 199.727L224.47 199.137L224.12 198.787L223.53 199.377C223.346 199.543 223.108 199.635 222.86 199.635C222.612 199.635 222.374 199.543 222.19 199.377C222.055 199.241 221.895 199.133 221.718 199.06C221.541 198.986 221.352 198.948 221.16 198.948C220.968 198.948 220.779 198.986 220.602 199.06C220.425 199.133 220.265 199.241 220.13 199.377L219.58 199.927L219.93 200.287L220.54 199.727ZM197.87 151.057C198.054 150.892 198.292 150.8 198.54 150.8C198.788 150.8 199.026 150.892 199.21 151.057C199.486 151.322 199.853 151.47 200.235 151.47C200.617 151.47 200.984 151.322 201.26 151.057L201.85 150.467L201.5 150.117L200.91 150.697C200.726 150.866 200.485 150.96 200.235 150.96C199.985 150.96 199.744 150.866 199.56 150.697C199.282 150.437 198.916 150.293 198.535 150.293C198.154 150.293 197.788 150.437 197.51 150.697L196.96 151.257L197.31 151.607L197.87 151.057ZM192.65 119.787C192.834 119.619 193.075 119.525 193.325 119.525C193.575 119.525 193.816 119.619 194 119.787C194.273 120.057 194.641 120.208 195.025 120.208C195.409 120.208 195.777 120.057 196.05 119.787L196.64 119.197L196.28 118.847L195.7 119.427C195.516 119.596 195.275 119.69 195.025 119.69C194.775 119.69 194.534 119.596 194.35 119.427C194.079 119.173 193.722 119.031 193.35 119.031C192.978 119.031 192.621 119.173 192.35 119.427L191.79 119.987L192.15 120.337L192.65 119.787ZM182.44 136.837C182.624 136.672 182.862 136.58 183.11 136.58C183.358 136.58 183.596 136.672 183.78 136.837C183.914 136.973 184.074 137.081 184.25 137.155C184.425 137.228 184.614 137.266 184.805 137.266C184.996 137.266 185.185 137.228 185.361 137.155C185.536 137.081 185.696 136.973 185.83 136.837L186.42 136.257L186.07 135.897L185.48 136.487C185.296 136.656 185.055 136.75 184.805 136.75C184.555 136.75 184.314 136.656 184.13 136.487C183.859 136.233 183.502 136.091 183.13 136.091C182.758 136.091 182.401 136.233 182.13 136.487L181.58 137.047L181.93 137.397L182.44 136.837ZM198.64 167.647C198.652 167.399 198.756 167.165 198.932 166.989C199.107 166.814 199.342 166.71 199.59 166.697C199.975 166.697 200.343 166.545 200.615 166.273C200.887 166.001 201.04 165.632 201.04 165.247V164.417H200.54V165.247C200.54 165.504 200.442 165.751 200.265 165.937C200.088 166.124 199.846 166.235 199.59 166.247C199.205 166.247 198.837 166.4 198.565 166.672C198.293 166.944 198.14 167.313 198.14 167.697V168.487H198.64V167.647ZM193.31 207.067C193.323 206.811 193.434 206.569 193.62 206.392C193.806 206.216 194.053 206.117 194.31 206.117C194.695 206.117 195.063 205.965 195.335 205.693C195.607 205.421 195.76 205.052 195.76 204.667V203.837H195.26V204.667C195.26 204.924 195.162 205.171 194.985 205.357C194.808 205.544 194.566 205.655 194.31 205.667C194.12 205.661 193.93 205.692 193.751 205.758C193.573 205.825 193.409 205.926 193.27 206.057C193.13 206.187 193.018 206.343 192.939 206.516C192.86 206.69 192.816 206.877 192.81 207.067V207.857H193.31V207.067ZM221.11 236.487C221.123 236.231 221.234 235.989 221.42 235.812C221.606 235.636 221.853 235.537 222.11 235.537C222.495 235.537 222.863 235.385 223.135 235.113C223.407 234.841 223.56 234.472 223.56 234.087V233.257H223.06V234.067C223.06 234.324 222.962 234.571 222.785 234.757C222.608 234.944 222.366 235.055 222.11 235.067C221.725 235.067 221.355 235.22 221.081 235.492C220.808 235.763 220.653 236.132 220.65 236.517V237.307H221.15L221.11 236.487ZM240.34 255.647C240.352 255.399 240.456 255.165 240.632 254.989C240.807 254.814 241.042 254.71 241.29 254.697C241.675 254.697 242.043 254.545 242.315 254.273C242.587 254.001 242.74 253.632 242.74 253.247V252.417H242.24V253.247C242.227 253.504 242.116 253.746 241.93 253.922C241.744 254.099 241.497 254.198 241.24 254.197C240.855 254.197 240.487 254.35 240.215 254.622C239.943 254.894 239.79 255.263 239.79 255.647V256.437H240.29L240.34 255.647ZM233.34 200.177C233.332 200.048 233.35 199.919 233.394 199.797C233.439 199.675 233.507 199.564 233.597 199.47C233.686 199.376 233.793 199.302 233.913 199.251C234.032 199.201 234.16 199.176 234.29 199.177C234.675 199.175 235.044 199.02 235.316 198.746C235.588 198.473 235.74 198.103 235.74 197.717V196.887H235.24V197.717C235.24 197.974 235.142 198.221 234.965 198.407C234.788 198.594 234.546 198.705 234.29 198.717C233.905 198.717 233.537 198.87 233.265 199.142C232.993 199.414 232.84 199.783 232.84 200.167V200.947H233.34V200.177ZM171.52 208.507C171.533 208.251 171.644 208.009 171.83 207.832C172.016 207.656 172.263 207.557 172.52 207.557C172.905 207.557 173.273 207.405 173.545 207.133C173.817 206.861 173.97 206.492 173.97 206.107V205.277H173.47V206.067C173.478 206.197 173.46 206.326 173.416 206.448C173.371 206.57 173.303 206.681 173.213 206.775C173.124 206.869 173.017 206.943 172.897 206.994C172.778 207.044 172.65 207.069 172.52 207.067C172.135 207.067 171.767 207.22 171.495 207.492C171.223 207.764 171.07 208.133 171.07 208.517V209.307H171.57L171.52 208.507ZM172.72 173.067C172.732 172.819 172.836 172.585 173.012 172.409C173.187 172.234 173.422 172.13 173.67 172.117C174.053 172.115 174.419 171.961 174.689 171.689C174.959 171.418 175.11 171.05 175.11 170.667V169.837H174.61V170.667C174.61 170.933 174.505 171.187 174.317 171.375C174.13 171.562 173.875 171.667 173.61 171.667C173.225 171.667 172.857 171.82 172.585 172.092C172.313 172.364 172.16 172.733 172.16 173.117V173.907H172.66L172.72 173.067ZM185.65 150.067C185.65 149.811 185.748 149.564 185.925 149.377C186.102 149.191 186.344 149.08 186.6 149.067C186.985 149.067 187.353 148.915 187.625 148.643C187.897 148.371 188.05 148.002 188.05 147.617V146.787H187.55V147.617C187.538 147.865 187.434 148.1 187.258 148.276C187.083 148.451 186.848 148.555 186.6 148.567C186.215 148.567 185.847 148.72 185.575 148.992C185.303 149.264 185.15 149.633 185.15 150.017V150.807H185.65V150.067ZM180.76 126.897C180.773 126.641 180.884 126.399 181.07 126.222C181.256 126.046 181.503 125.947 181.76 125.947C182.145 125.945 182.514 125.79 182.786 125.516C183.058 125.243 183.21 124.873 183.21 124.487V123.657H182.71V124.487C182.71 124.744 182.612 124.991 182.435 125.177C182.258 125.364 182.016 125.475 181.76 125.487C181.375 125.487 181.007 125.64 180.735 125.912C180.463 126.184 180.31 126.553 180.31 126.937V127.717H180.81L180.76 126.897ZM182.18 185.687C182.18 185.431 182.278 185.184 182.455 184.997C182.632 184.811 182.874 184.7 183.13 184.687C183.515 184.687 183.883 184.535 184.155 184.263C184.427 183.991 184.58 183.622 184.58 183.237V182.407H184.11V183.237C184.098 183.485 183.994 183.72 183.818 183.896C183.643 184.071 183.408 184.175 183.16 184.187C182.775 184.187 182.407 184.34 182.135 184.612C181.863 184.884 181.71 185.253 181.71 185.637V186.427H182.21L182.18 185.687ZM213.35 190.477C213.35 190.221 213.448 189.974 213.625 189.787C213.802 189.601 214.044 189.49 214.3 189.477C214.685 189.477 215.053 189.325 215.325 189.053C215.597 188.781 215.75 188.412 215.75 188.027V187.197H215.25V188.067C215.238 188.315 215.134 188.55 214.958 188.726C214.783 188.901 214.548 189.005 214.3 189.017C213.915 189.017 213.547 189.17 213.275 189.442C213.003 189.714 212.85 190.083 212.85 190.467V191.257H213.35V190.477ZM184.54 230.477C184.552 230.229 184.656 229.995 184.832 229.819C185.007 229.644 185.242 229.54 185.49 229.527C185.875 229.527 186.243 229.375 186.515 229.103C186.787 228.831 186.94 228.462 186.94 228.077V227.247H186.44V228.067C186.427 228.324 186.316 228.566 186.13 228.742C185.944 228.919 185.697 229.018 185.44 229.017C185.055 229.017 184.687 229.17 184.415 229.442C184.143 229.714 183.99 230.083 183.99 230.467V231.257H184.49L184.54 230.477ZM162.47 241.067C162.47 240.811 162.568 240.564 162.745 240.377C162.922 240.191 163.164 240.08 163.42 240.067C163.805 240.067 164.173 239.915 164.445 239.643C164.717 239.371 164.87 239.002 164.87 238.617V237.787H164.37V238.617C164.358 238.865 164.254 239.1 164.078 239.276C163.903 239.451 163.668 239.555 163.42 239.567C163.035 239.567 162.667 239.72 162.395 239.992C162.123 240.264 161.97 240.633 161.97 241.017V241.807H162.47V241.067ZM191.3 253.067C191.312 252.819 191.416 252.585 191.592 252.409C191.767 252.234 192.002 252.13 192.25 252.117C192.635 252.117 193.003 251.965 193.275 251.693C193.547 251.421 193.7 251.052 193.7 250.667V249.837H193.2V250.667C193.187 250.924 193.076 251.166 192.89 251.342C192.704 251.519 192.457 251.618 192.2 251.617C191.815 251.617 191.447 251.77 191.175 252.042C190.903 252.314 190.75 252.683 190.75 253.067V253.857H191.25L191.3 253.067ZM223.79 213.187C223.79 212.931 223.888 212.684 224.065 212.497C224.242 212.311 224.484 212.2 224.74 212.187C224.931 212.187 225.121 212.15 225.297 212.076C225.474 212.003 225.634 211.895 225.769 211.759C225.904 211.624 226.01 211.462 226.083 211.285C226.155 211.108 226.191 210.919 226.19 210.727V209.897H225.69V210.727C225.69 210.984 225.592 211.231 225.415 211.417C225.238 211.604 224.996 211.715 224.74 211.727C224.355 211.727 223.987 211.88 223.715 212.152C223.443 212.424 223.29 212.793 223.29 213.177V213.957H223.79V213.187ZM210.53 174.067C210.714 173.899 210.955 173.805 211.205 173.805C211.455 173.805 211.696 173.899 211.88 174.067C212.014 174.203 212.174 174.311 212.35 174.385C212.525 174.458 212.714 174.496 212.905 174.496C213.096 174.496 213.285 174.458 213.46 174.385C213.636 174.311 213.796 174.203 213.93 174.067L214.49 173.507L214.13 173.157L213.58 173.717C213.396 173.886 213.155 173.98 212.905 173.98C212.655 173.98 212.414 173.886 212.23 173.717C212.096 173.582 211.936 173.474 211.76 173.4C211.585 173.327 211.396 173.289 211.205 173.289C211.014 173.289 210.825 173.327 210.649 173.4C210.474 173.474 210.314 173.582 210.18 173.717L209.59 174.297L209.94 174.657L210.53 174.067ZM192.75 191.947C192.934 191.779 193.175 191.685 193.425 191.685C193.675 191.685 193.916 191.779 194.1 191.947C194.373 192.198 194.73 192.336 195.1 192.336C195.47 192.336 195.827 192.198 196.1 191.947L196.65 191.387L196.3 191.037L195.74 191.597C195.556 191.763 195.318 191.855 195.07 191.855C194.822 191.855 194.584 191.763 194.4 191.597C194.266 191.462 194.106 191.354 193.93 191.28C193.755 191.207 193.566 191.169 193.375 191.169C193.184 191.169 192.995 191.207 192.82 191.28C192.644 191.354 192.484 191.462 192.35 191.597L191.76 192.177L192.11 192.537L192.75 191.947ZM180.43 216.207C180.614 216.039 180.855 215.945 181.105 215.945C181.355 215.945 181.596 216.039 181.78 216.207C181.914 216.343 182.074 216.451 182.25 216.525C182.425 216.598 182.614 216.636 182.805 216.636C182.996 216.636 183.185 216.598 183.361 216.525C183.536 216.451 183.696 216.343 183.83 216.207L184.39 215.647L184.03 215.297L183.48 215.857C183.296 216.026 183.055 216.12 182.805 216.12C182.555 216.12 182.314 216.026 182.13 215.857C181.996 215.722 181.836 215.614 181.66 215.54C181.485 215.467 181.296 215.429 181.105 215.429C180.914 215.429 180.725 215.467 180.549 215.54C180.374 215.614 180.214 215.722 180.08 215.857L179.49 216.437L179.85 216.797L180.43 216.207ZM185.76 241.417C185.944 241.252 186.182 241.16 186.43 241.16C186.678 241.16 186.916 241.252 187.1 241.417C187.373 241.668 187.73 241.806 188.1 241.806C188.47 241.806 188.827 241.668 189.1 241.417L189.66 240.857L189.31 240.507L188.75 241.057C188.663 241.148 188.559 241.219 188.444 241.268C188.329 241.317 188.205 241.342 188.08 241.342C187.955 241.342 187.831 241.317 187.716 241.268C187.601 241.219 187.497 241.148 187.41 241.057C187.135 240.787 186.765 240.636 186.38 240.636C185.995 240.636 185.625 240.787 185.35 241.057L184.77 241.647L185.12 242.007L185.76 241.417ZM203.11 256.187C203.294 256.019 203.535 255.925 203.785 255.925C204.035 255.925 204.276 256.019 204.46 256.187C204.737 256.45 205.104 256.596 205.485 256.596C205.866 256.596 206.233 256.45 206.51 256.187L207.07 255.627L206.71 255.277L206.16 255.827C205.976 255.996 205.735 256.09 205.485 256.09C205.235 256.09 204.994 255.996 204.81 255.827C204.537 255.558 204.169 255.407 203.785 255.407C203.401 255.407 203.033 255.558 202.76 255.827L202.17 256.417L202.53 256.767L203.11 256.187ZM209.63 213.727C209.814 213.559 210.055 213.465 210.305 213.465C210.555 213.465 210.796 213.559 210.98 213.727C211.257 213.99 211.624 214.136 212.005 214.136C212.386 214.136 212.753 213.99 213.03 213.727L213.58 213.167L213.23 212.817L212.68 213.367C212.496 213.536 212.255 213.63 212.005 213.63C211.755 213.63 211.514 213.536 211.33 213.367C211.057 213.098 210.689 212.947 210.305 212.947C209.921 212.947 209.553 213.098 209.28 213.367L208.69 213.957L209.05 214.307L209.63 213.727ZM214.04 246.867C214.224 246.699 214.465 246.605 214.715 246.605C214.965 246.605 215.206 246.699 215.39 246.867C215.662 247.139 216.031 247.292 216.415 247.292C216.799 247.292 217.168 247.139 217.44 246.867L218 246.307L217.64 245.957L217.09 246.517C216.906 246.686 216.665 246.78 216.415 246.78C216.165 246.78 215.924 246.686 215.74 246.517C215.467 246.267 215.11 246.129 214.74 246.129C214.37 246.129 214.013 246.267 213.74 246.517L213.11 247.067L213.47 247.427L214.04 246.867ZM232.55 244.797C232.734 244.632 232.972 244.54 233.22 244.54C233.468 244.54 233.706 244.632 233.89 244.797C234.166 245.062 234.533 245.21 234.915 245.21C235.297 245.21 235.664 245.062 235.94 244.797L236.5 244.237L236.15 243.887L235.59 244.447C235.406 244.613 235.168 244.705 234.92 244.705C234.672 244.705 234.434 244.613 234.25 244.447C234.115 244.311 233.955 244.203 233.778 244.13C233.601 244.056 233.412 244.018 233.22 244.018C233.028 244.018 232.839 244.056 232.662 244.13C232.485 244.203 232.325 244.311 232.19 244.447L231.61 245.027L231.96 245.387L232.55 244.797ZM234.03 213.727C234.118 213.637 234.223 213.565 234.338 213.516C234.454 213.467 234.579 213.442 234.705 213.442C234.831 213.442 234.956 213.467 235.072 213.516C235.187 213.565 235.292 213.637 235.38 213.727C235.651 213.982 236.008 214.124 236.38 214.124C236.752 214.124 237.109 213.982 237.38 213.727L237.93 213.167L237.58 212.817L237.03 213.367C236.846 213.536 236.605 213.63 236.355 213.63C236.105 213.63 235.864 213.536 235.68 213.367C235.404 213.103 235.037 212.955 234.655 212.955C234.273 212.955 233.906 213.103 233.63 213.367L233.04 213.957L233.39 214.307L234.03 213.727ZM226.03 223.727C226.214 223.562 226.452 223.47 226.7 223.47C226.948 223.47 227.186 223.562 227.37 223.727C227.641 223.982 227.998 224.124 228.37 224.124C228.742 224.124 229.099 223.982 229.37 223.727L229.93 223.167L229.58 222.817L229.02 223.367C228.836 223.533 228.598 223.625 228.35 223.625C228.102 223.625 227.864 223.533 227.68 223.367C227.405 223.097 227.035 222.946 226.65 222.946C226.265 222.946 225.895 223.097 225.62 223.367L225.04 223.957L225.39 224.307L226.03 223.727ZM198.43 231.347C198.614 231.179 198.855 231.085 199.105 231.085C199.355 231.085 199.596 231.179 199.78 231.347C200.053 231.617 200.421 231.768 200.805 231.768C201.189 231.768 201.557 231.617 201.83 231.347L202.39 230.787L202.03 230.437L201.48 230.987C201.296 231.156 201.055 231.25 200.805 231.25C200.555 231.25 200.314 231.156 200.13 230.987C199.852 230.727 199.486 230.583 199.105 230.583C198.724 230.583 198.358 230.727 198.08 230.987L197.49 231.577L197.85 231.927L198.43 231.347ZM173.04 234.817C173.224 234.652 173.462 234.56 173.71 234.56C173.958 234.56 174.196 234.652 174.38 234.817C174.653 235.068 175.01 235.206 175.38 235.206C175.75 235.206 176.107 235.068 176.38 234.817L176.94 234.257L176.59 233.907L176.03 234.467C175.846 234.633 175.608 234.725 175.36 234.725C175.112 234.725 174.874 234.633 174.69 234.467C174.413 234.202 174.044 234.054 173.66 234.054C173.276 234.054 172.907 234.202 172.63 234.467L172.11 235.067L172.46 235.427L173.04 234.817ZM177.36 257.527C177.544 257.362 177.782 257.27 178.03 257.27C178.278 257.27 178.516 257.362 178.7 257.527C178.973 257.797 179.341 257.948 179.725 257.948C180.109 257.948 180.477 257.797 180.75 257.527L181.31 256.967L180.95 256.617L180.4 257.167C180.312 257.258 180.207 257.33 180.092 257.379C179.976 257.428 179.851 257.453 179.725 257.453C179.599 257.453 179.474 257.428 179.358 257.379C179.243 257.33 179.138 257.258 179.05 257.167C178.779 256.913 178.422 256.771 178.05 256.771C177.678 256.771 177.321 256.913 177.05 257.167L176.46 257.757L176.82 258.107L177.36 257.527ZM161.36 254.527C161.544 254.362 161.782 254.27 162.03 254.27C162.278 254.27 162.516 254.362 162.7 254.527C162.971 254.782 163.328 254.924 163.7 254.924C164.072 254.924 164.429 254.782 164.7 254.527L165.26 253.967L164.91 253.617L164.35 254.177C164.166 254.346 163.925 254.44 163.675 254.44C163.425 254.44 163.184 254.346 163 254.177C162.866 254.042 162.706 253.934 162.531 253.86C162.355 253.787 162.166 253.749 161.975 253.749C161.784 253.749 161.595 253.787 161.42 253.86C161.244 253.934 161.084 254.042 160.95 254.177L160.37 254.757L160.72 255.117L161.36 254.527ZM171.02 192.467C171.204 192.302 171.442 192.21 171.69 192.21C171.938 192.21 172.176 192.302 172.36 192.467C172.633 192.718 172.99 192.856 173.36 192.856C173.73 192.856 174.087 192.718 174.36 192.467L174.92 191.907L174.57 191.557L174.01 192.117C173.826 192.286 173.585 192.38 173.335 192.38C173.085 192.38 172.844 192.286 172.66 192.117C172.526 191.982 172.366 191.874 172.19 191.8C172.015 191.727 171.826 191.689 171.635 191.689C171.444 191.689 171.255 191.727 171.079 191.8C170.904 191.874 170.744 191.982 170.61 192.117L170.03 192.697L170.38 193.057L171.02 192.467Z" fill="white"/>
<path d="M245.66 259.297H231.05L203.11 110.817C208.99 112.817 216.22 119.717 220.11 130.137C221.46 133.757 222.8 137.977 224.11 142.647C224.17 142.877 224.23 143.107 224.3 143.337C228.17 157.227 231.87 174.907 235.06 192.257C236.87 202.067 238.52 211.777 239.95 220.627L240.13 221.797C243.53 243.197 245.66 259.297 245.66 259.297Z" fill="#263238"/>
<path d="M253.61 229.597C255.42 233.677 254.43 240.537 257.73 240.147C260.66 239.797 260.89 234.977 260.89 234.977C260.89 234.977 262.39 240.497 265.44 239.217C268.49 237.937 267.66 232.607 267.66 232.607C267.66 232.607 268.71 237.257 271.66 235.757C274.61 234.257 274.74 229.607 274.74 229.607C274.74 229.607 275.95 230.727 277.56 228.737C279.87 225.887 278.11 218.167 276.23 214.347C274.35 210.527 264.66 197.947 263.11 196.067L238.51 207.897C238.51 207.897 238.72 216.227 239.34 220.437C239.96 224.647 245.85 237.947 249.25 236.707C252.65 235.467 248.33 226.147 247.77 223.627C247.21 221.107 247.7 220.557 248.83 221.497C249.6 222.067 252.81 227.787 253.61 229.597Z" fill="#EB9481"/>
<path d="M260.79 234.747C260.62 227.997 259.39 225.077 255.71 219.547C255.64 219.437 255.78 219.307 255.87 219.417C259.96 224.497 262.04 227.947 261.11 234.757C261.11 235.067 260.79 235.067 260.79 234.747Z" fill="#263238"/>
<path d="M267.6 232.887C266.82 225.887 265.51 222.717 262.08 216.647C262.03 216.557 262.17 216.467 262.23 216.547C266.09 222.227 268.09 225.707 267.95 232.797C267.94 233.117 267.64 233.207 267.6 232.887Z" fill="#263238"/>
<path d="M274.67 229.537C273.43 222.827 272.14 219.277 268.06 213.807C268.045 213.782 268.039 213.751 268.044 213.721C268.048 213.692 268.063 213.665 268.085 213.645C268.108 213.625 268.136 213.613 268.166 213.612C268.196 213.61 268.226 213.619 268.25 213.637C272.95 218.817 274.6 223.237 274.87 229.477C274.89 229.907 274.75 229.957 274.67 229.537Z" fill="#263238"/>
<path d="M212.11 117.767C231.11 137.497 260.39 189.987 263.82 197.157C266.15 202.027 240.71 214.897 239.62 211.357C238.23 206.817 216.53 155.447 210.62 134.357C207.35 122.687 208.19 113.687 212.11 117.767Z" fill="#EB9481"/>
<path d="M203.49 120.177C204.76 127.377 213.33 151.387 213.33 151.387L229.11 147.597L229.39 147.537L239.44 145.137C239.44 145.137 220.17 122.647 211.14 115.717C202.11 108.787 202.11 112.067 203.49 120.177Z" fill="#00AF00"/>
<path d="M229.01 144.067H228.22C227.835 144.067 227.467 143.915 227.195 143.643C226.923 143.371 226.77 143.002 226.77 142.617C226.77 142.352 226.665 142.098 226.477 141.91C226.29 141.723 226.035 141.617 225.77 141.617H224.94V141.117H225.77C226.155 141.117 226.523 141.27 226.795 141.542C227.067 141.814 227.22 142.183 227.22 142.567C227.232 142.815 227.336 143.05 227.512 143.226C227.687 143.401 227.922 143.505 228.17 143.517H228.96L229.01 144.067ZM215.76 131.367C215.944 131.199 216.185 131.105 216.435 131.105C216.685 131.105 216.926 131.199 217.11 131.367C217.386 131.632 217.753 131.78 218.135 131.78C218.517 131.78 218.884 131.632 219.16 131.367L219.75 130.777L219.39 130.427L218.81 131.017C218.626 131.186 218.385 131.28 218.135 131.28C217.885 131.28 217.644 131.186 217.46 131.017C217.326 130.882 217.166 130.774 216.99 130.7C216.815 130.627 216.626 130.589 216.435 130.589C216.244 130.589 216.055 130.627 215.879 130.7C215.704 130.774 215.544 130.882 215.41 131.017L214.85 131.567L215.21 131.927L215.76 131.367ZM211.35 142.637C211.362 142.389 211.466 142.155 211.642 141.979C211.817 141.804 212.052 141.7 212.3 141.687C212.685 141.687 213.053 141.535 213.325 141.263C213.597 140.991 213.75 140.622 213.75 140.237V139.407H213.25V140.237C213.25 140.494 213.152 140.741 212.975 140.927C212.798 141.114 212.556 141.225 212.3 141.237C211.915 141.237 211.547 141.39 211.275 141.662C211.003 141.934 210.85 142.303 210.85 142.687V143.477H211.35V142.637ZM205.63 124.817C205.628 124.688 205.653 124.56 205.704 124.44C205.754 124.321 205.829 124.213 205.922 124.124C206.016 124.035 206.128 123.966 206.249 123.922C206.371 123.878 206.501 123.859 206.63 123.867C207.015 123.867 207.383 123.715 207.655 123.443C207.927 123.171 208.08 122.802 208.08 122.417V121.587H207.58V122.417C207.58 122.674 207.482 122.921 207.305 123.107C207.128 123.294 206.886 123.405 206.63 123.417C206.245 123.417 205.877 123.57 205.605 123.842C205.333 124.114 205.18 124.483 205.18 124.867V125.647H205.68L205.63 124.817Z" fill="white"/>
<path d="M212.02 116.417C212.22 115.957 199.47 127.417 188.96 125.417C183.71 124.417 182.72 112.707 183.34 112.587C192.18 110.797 200.57 105.977 212.02 116.417Z" fill="#EB9481"/>
<path d="M202.01 112.207C201.62 113.207 195.71 119.207 191.01 118.327C189.48 118.027 190.73 109.597 190.73 109.597L190.68 108.947L189.98 99.9473L201.18 94.8372L202.78 94.1772C202.78 94.1772 202.78 96.6572 202.78 99.7372V100.177C202.78 100.357 202.78 100.517 202.78 100.687C202.78 101.147 202.78 101.617 202.78 102.087C202.78 102.557 202.78 102.787 202.78 103.167V104.277C202.707 106.935 202.45 109.585 202.01 112.207Z" fill="#EB9481"/>
<path d="M202.81 99.7372C201.577 102.062 199.852 104.091 197.756 105.681C195.659 107.272 193.241 108.387 190.67 108.947L189.97 99.9473L201.17 94.8372L202.77 94.1772C202.77 94.1772 202.8 96.6572 202.81 99.7372Z" fill="#263238"/>
<path d="M180.11 84.2874C176.44 99.7174 185.26 103.657 188.59 104.437C191.59 105.157 201.99 107.207 207.23 92.2473C212.47 77.2873 206.47 70.6973 199.64 68.6973C192.81 66.6973 183.76 68.8574 180.11 84.2874Z" fill="#EB9481"/>
<path d="M183.49 82.6176C183.856 82.6378 184.224 82.6378 184.59 82.6176C184.975 82.655 185.362 82.5636 185.69 82.3576C185.782 82.273 185.843 82.1607 185.865 82.0379C185.886 81.915 185.867 81.7885 185.81 81.6776C185.661 81.4766 185.461 81.3194 185.231 81.2226C185 81.1258 184.748 81.093 184.5 81.1276C183.99 81.1214 183.495 81.3029 183.11 81.6376C183.041 81.7199 182.995 81.8192 182.978 81.9252C182.96 82.0311 182.972 82.1398 183.01 82.2399C183.049 82.34 183.114 82.4279 183.199 82.4943C183.283 82.5607 183.384 82.6033 183.49 82.6176Z" fill="#263238"/>
<path d="M194.27 84.7376C193.929 84.6244 193.595 84.4908 193.27 84.3376C192.88 84.2527 192.529 84.0419 192.27 83.7376C192.211 83.6272 192.191 83.5002 192.213 83.3769C192.234 83.2537 192.297 83.1413 192.39 83.0576C192.595 82.9164 192.833 82.8326 193.081 82.815C193.329 82.7974 193.578 82.8467 193.8 82.9576C194.288 83.1093 194.7 83.4421 194.95 83.8876C195.001 83.9901 195.022 84.1049 195.009 84.2187C194.997 84.3325 194.953 84.4404 194.881 84.5297C194.81 84.619 194.714 84.6861 194.606 84.7229C194.498 84.7598 194.381 84.7649 194.27 84.7376Z" fill="#263238"/>
<path d="M191.53 88.3374C191.53 88.3374 191.6 88.4074 191.59 88.4474C191.36 89.5074 191.27 90.7474 192.16 91.2874C192.16 91.2874 192.16 91.3574 192.16 91.3374C191 90.9574 191.11 89.2974 191.53 88.3374Z" fill="#263238"/>
<path d="M192.69 87.4077C194.42 87.6077 193.9 91.0477 192.3 90.8777C190.7 90.7077 191.24 87.2477 192.69 87.4077Z" fill="#263238"/>
<path d="M193.34 87.6972C193.61 87.9372 193.85 88.3272 194.21 88.4172C194.57 88.5072 195 88.2072 195.32 87.8972C195.24 88.5572 194.88 89.1972 194.16 89.1872C193.44 89.1772 193.16 88.5272 193.06 87.8372C193.11 87.7672 193.23 87.5972 193.34 87.6972Z" fill="#263238"/>
<path d="M184.91 86.8574C184.91 86.8574 184.82 86.8574 184.82 86.9374C184.7 88.0174 184.38 89.2273 183.37 89.4373V89.4973C184.57 89.5073 184.97 87.8874 184.91 86.8574Z" fill="#263238"/>
<path d="M184.11 85.6074C182.4 85.2274 181.78 88.6074 183.36 89.0074C184.94 89.4074 185.54 85.9174 184.11 85.6074Z" fill="#263238"/>
<path d="M183.36 85.6973C183.06 85.8373 182.73 86.1173 182.36 86.0773C181.99 86.0373 181.77 85.6173 181.59 85.2173C181.59 85.2173 181.54 85.2173 181.53 85.2173C181.4 85.8773 181.53 86.5973 182.1 86.8373C182.67 87.0773 183.18 86.5673 183.45 85.9473C183.54 85.8473 183.48 85.6473 183.36 85.6973Z" fill="#263238"/>
<path d="M185.95 91.8876C185.95 91.8876 185.47 93.4375 185.35 94.1875C185.35 94.2575 185.51 94.3275 185.77 94.3775C186.396 94.5995 187.071 94.6441 187.72 94.5064C188.369 94.3688 188.968 94.0542 189.45 93.5975C189.51 93.5375 189.45 93.4476 189.35 93.4776C188.288 93.9803 187.091 94.1242 185.94 93.8876C185.94 93.6676 186.85 91.2475 186.73 91.2175C186.138 91.1776 185.543 91.2146 184.96 91.3275C185.86 88.0575 187.28 84.9576 188.12 81.6876C188.131 81.6624 188.131 81.634 188.12 81.6087C188.11 81.5833 188.09 81.5632 188.065 81.5525C188.04 81.5419 188.011 81.5418 187.986 81.5521C187.961 81.5624 187.941 81.5824 187.93 81.6075C186.32 84.889 185.04 88.3226 184.11 91.8575C183.99 92.2775 185.63 91.9676 185.95 91.8876Z" fill="#263238"/>
<path d="M185.92 93.8175C186.204 94.5202 186.662 95.1394 187.25 95.6175C187.585 95.8632 187.985 96.0025 188.4 96.0175C189.3 96.0175 189.54 95.2675 189.57 94.5575C189.585 94.182 189.554 93.806 189.48 93.4375C188.365 93.9419 187.117 94.0751 185.92 93.8175Z" fill="#263238"/>
<path d="M187.25 95.6176C187.585 95.8632 187.985 96.0025 188.4 96.0175C189.3 96.0175 189.54 95.2676 189.57 94.5576C189.12 94.448 188.647 94.493 188.226 94.6853C187.805 94.8776 187.461 95.206 187.25 95.6176Z" fill="#FF9BBC"/>
<path d="M207.11 92.2974C205.34 91.8974 201.49 86.2074 202.77 77.5374C202.77 77.5374 202.16 85.3974 202.55 86.6374C202.94 87.8774 200.4 83.4274 201.34 76.4274C198.885 77.6385 196.268 78.4905 193.57 78.9574C190.13 79.3374 188.12 78.9574 187.92 78.6974C187.72 78.4374 192.82 77.6974 194.38 76.3974C194.38 76.3974 184.95 79.0274 180.86 78.6674C180.39 78.6674 181.42 68.9274 188.33 65.8774C195.24 62.8274 204.41 68.8774 206.64 71.8774C206.64 71.8774 209.69 72.8774 212.33 78.0174C214.97 83.1574 208.99 92.7374 207.11 92.2974Z" fill="#263238"/>
<path d="M204.48 92.8472C204.48 92.8472 208.63 88.4572 210.67 90.0072C212.71 91.5572 209.09 98.2672 206.33 98.8572C205.983 98.9562 205.619 98.984 205.26 98.9388C204.902 98.8936 204.556 98.7764 204.244 98.5943C203.932 98.4121 203.66 98.1688 203.445 97.8789C203.229 97.589 203.075 97.2585 202.99 96.9072L204.48 92.8472Z" fill="#EB9481"/>
<path d="M209.58 91.9076C209.58 91.9076 209.58 91.9676 209.58 91.9776C207.64 92.4476 206.42 93.9776 205.49 95.6576C205.623 95.49 205.791 95.3533 205.982 95.2568C206.173 95.1603 206.383 95.1064 206.597 95.0988C206.81 95.0912 207.023 95.13 207.221 95.2127C207.418 95.2954 207.595 95.4199 207.74 95.5776C207.75 95.5871 207.756 95.5995 207.757 95.6128C207.759 95.6262 207.756 95.6397 207.749 95.6512C207.742 95.6628 207.732 95.6716 207.719 95.6764C207.707 95.6812 207.693 95.6816 207.68 95.6776C207.375 95.5228 207.029 95.4684 206.691 95.5223C206.354 95.5762 206.042 95.7356 205.8 95.9776C205.392 96.3757 205.029 96.8185 204.72 97.2976C204.61 97.4476 204.33 97.2976 204.42 97.1376C204.75 94.7676 207.04 91.7676 209.58 91.9076Z" fill="#263238"/>
<path opacity="0.5" d="M69.2 80.1176C63.87 93.1176 49.2 145.557 58.79 181.027C67.19 211.957 86.7 228.137 95.55 233.377C108.55 241.077 122.42 245.967 121.86 248.897C121.3 251.827 107.64 245.487 107.02 246.617C106.4 247.747 136.73 276.937 190.66 282.897C274.01 292.107 322.96 262.137 330.16 260.847C337.36 259.557 302.97 301.107 277.72 310.847C271.91 313.077 293.06 307.357 307.42 298.757C312.81 295.527 297.96 339.067 248.35 349.837C238.81 351.907 259.42 351.787 266.77 350.917C274.12 350.047 245.54 370.637 171.23 364.717C113.41 360.067 59.54 314.947 37.41 265.197C34.92 259.597 29.79 263.257 28.15 259.297C24.65 250.847 26.27 234.507 24.56 231.297C22.85 228.087 17.24 231.297 15.56 222.737C13.88 214.177 14.78 188.497 28.63 147.317C30.27 142.437 28.01 144.087 25.05 148.447C22.09 152.807 18.59 156.687 15.29 156.527C11.99 156.367 13.74 144.257 27.7 121.967C51.63 83.6675 74.04 68.3676 69.2 80.1176Z" fill="#00AF00"/>
<path opacity="0.5" d="M126.21 254.007C126.35 249.927 142.11 251.937 140.68 257.407C139.25 262.877 126.02 259.547 126.21 254.007Z" fill="#00AF00"/>
<path opacity="0.5" d="M273.34 349.557C274.34 353.377 288.08 350.717 286.99 345.557C285.9 340.397 272.18 344.957 273.34 349.557Z" fill="#00AF00"/>
<path opacity="0.5" d="M12.05 161.127C9.42 160.797 7.62 166.457 10.78 167.507C13.94 168.557 15.49 161.577 12.05 161.127Z" fill="#00AF00"/>
<path opacity="0.5" d="M334.17 258.277C336.17 260.847 349.93 252.407 344.22 248.407C340.24 245.607 332.19 255.707 334.17 258.277Z" fill="#00AF00"/>
<path d="M213.95 334.047L208.49 335.057L207.27 340.817L206.05 335.057L200.58 334.047L206.02 332.717L207.27 327.277L208.51 332.717L213.95 334.047Z" fill="#FEFEFE"/>
<path d="M82.9601 250.677L77.5001 251.687L76.2801 257.447L75.0601 251.687L69.5901 250.677L75.0301 249.347L76.2801 243.907L77.5201 249.347L82.9601 250.677Z" fill="#FEFEFE"/>
<path d="M55.2399 98.9477L49.7799 99.9577L48.5599 105.717L47.3399 99.9577L41.8799 98.9477L47.3099 97.6177L48.5599 92.1777L49.7999 97.6177L55.2399 98.9477Z" fill="#FEFEFE"/>
<path d="M316.97 275.217L313.91 275.787L313.23 279.007L312.55 275.787L309.5 275.217L312.54 274.477L313.23 271.437L313.93 274.477L316.97 275.217Z" fill="#FEFEFE"/>
<path d="M148.82 292.097L145.77 292.667L145.09 295.877L144.41 292.667L141.36 292.097L144.39 291.357L145.09 288.317L145.79 291.357L148.82 292.097Z" fill="#FEFEFE"/>
<path d="M278.69 331.057L275.64 331.627L274.96 334.847L274.27 331.627L271.22 331.057L274.26 330.317L274.96 327.277L275.65 330.317L278.69 331.057Z" fill="#FEFEFE"/>
<path d="M180.81 354.337L177.76 354.897L177.07 358.117L176.39 354.897L173.34 354.337L176.38 353.587L177.07 350.547L177.77 353.587L180.81 354.337Z" fill="#FEFEFE"/>
<path d="M62.9199 275.217L59.86 275.787L59.18 279.007L58.5 275.787L55.45 275.217L58.49 274.477L59.18 271.437L59.88 274.477L62.9199 275.217Z" fill="#FEFEFE"/>
<path d="M59.18 185.007L56.13 185.567L55.45 188.787L54.77 185.567L51.71 185.007L54.75 184.257L55.45 181.217L56.14 184.257L59.18 185.007Z" fill="#FEFEFE"/>
<path d="M223.67 299.957C223.452 299.981 223.249 300.084 223.102 300.247C222.955 300.411 222.874 300.623 222.874 300.842C222.874 301.062 222.955 301.274 223.102 301.438C223.249 301.601 223.452 301.704 223.67 301.727C223.888 301.704 224.091 301.601 224.238 301.438C224.385 301.274 224.466 301.062 224.466 300.842C224.466 300.623 224.385 300.411 224.238 300.247C224.091 300.084 223.888 299.981 223.67 299.957Z" fill="#FEFEFE"/>
<path d="M36.11 133.347C35.8915 133.371 35.6893 133.474 35.5424 133.637C35.3955 133.801 35.3142 134.013 35.3142 134.232C35.3142 134.452 35.3955 134.664 35.5424 134.828C35.6893 134.991 35.8915 135.094 36.11 135.117C36.3285 135.094 36.5307 134.991 36.6776 134.828C36.8245 134.664 36.9058 134.452 36.9058 134.232C36.9058 134.013 36.8245 133.801 36.6776 133.637C36.5307 133.474 36.3285 133.371 36.11 133.347Z" fill="#FEFEFE"/>
<path d="M279.31 302.337C279.092 302.361 278.889 302.464 278.742 302.627C278.595 302.791 278.514 303.003 278.514 303.222C278.514 303.442 278.595 303.654 278.742 303.818C278.889 303.981 279.092 304.084 279.31 304.107C279.528 304.084 279.731 303.981 279.878 303.818C280.024 303.654 280.106 303.442 280.106 303.222C280.106 303.003 280.024 302.791 279.878 302.627C279.731 302.464 279.528 302.361 279.31 302.337Z" fill="#FEFEFE"/>
<path d="M41.88 257.407C41.6615 257.431 41.4593 257.534 41.3124 257.697C41.1655 257.861 41.0842 258.073 41.0842 258.292C41.0842 258.512 41.1655 258.724 41.3124 258.888C41.4593 259.051 41.6615 259.154 41.88 259.177C42.0985 259.154 42.3007 259.051 42.4476 258.888C42.5945 258.724 42.6758 258.512 42.6758 258.292C42.6758 258.073 42.5945 257.861 42.4476 257.697C42.3007 257.534 42.0985 257.431 41.88 257.407Z" fill="#FEFEFE"/>
<path d="M20.69 203.237C20.5379 203.257 20.398 203.331 20.2966 203.446C20.1952 203.561 20.1392 203.709 20.1392 203.862C20.1392 204.016 20.1952 204.164 20.2966 204.279C20.398 204.394 20.5379 204.468 20.69 204.487C20.8422 204.468 20.982 204.394 21.0834 204.279C21.1848 204.164 21.2408 204.016 21.2408 203.862C21.2408 203.709 21.1848 203.561 21.0834 203.446C20.982 203.331 20.8422 203.257 20.69 203.237Z" fill="#FEFEFE"/>
<path d="M160.43 316.067C160.278 316.087 160.138 316.161 160.037 316.276C159.935 316.391 159.879 316.539 159.879 316.692C159.879 316.846 159.935 316.994 160.037 317.109C160.138 317.224 160.278 317.298 160.43 317.317C160.582 317.298 160.722 317.224 160.823 317.109C160.925 316.994 160.981 316.846 160.981 316.692C160.981 316.539 160.925 316.391 160.823 316.276C160.722 316.161 160.582 316.087 160.43 316.067Z" fill="#FEFEFE"/>
<path d="M98.6799 313.817C98.5278 313.837 98.3879 313.911 98.2865 314.026C98.1851 314.141 98.1292 314.289 98.1292 314.442C98.1292 314.596 98.1851 314.744 98.2865 314.859C98.3879 314.974 98.5278 315.048 98.6799 315.067C98.8321 315.048 98.9719 314.974 99.0733 314.859C99.1747 314.744 99.2307 314.596 99.2307 314.442C99.2307 314.289 99.1747 314.141 99.0733 314.026C98.9719 313.911 98.8321 313.837 98.6799 313.817Z" fill="#FEFEFE"/>
<path d="M204.84 308.667C204.413 308.7 204.014 308.893 203.723 309.207C203.432 309.522 203.27 309.934 203.27 310.362C203.27 310.791 203.432 311.203 203.723 311.518C204.014 311.832 204.413 312.025 204.84 312.057C205.267 312.025 205.666 311.832 205.957 311.518C206.248 311.203 206.41 310.791 206.41 310.362C206.41 309.934 206.248 309.522 205.957 309.207C205.666 308.893 205.267 308.7 204.84 308.667Z" fill="#FEFEFE"/>
<path d="M106.7 308.067C106.273 308.1 105.874 308.293 105.583 308.607C105.292 308.922 105.13 309.334 105.13 309.762C105.13 310.191 105.292 310.603 105.583 310.918C105.874 311.232 106.273 311.425 106.7 311.457C107.127 311.425 107.526 311.232 107.817 310.918C108.108 310.603 108.27 310.191 108.27 309.762C108.27 309.334 108.108 308.922 107.817 308.607C107.526 308.293 107.127 308.1 106.7 308.067Z" fill="#FEFEFE"/>
<path d="M109.91 182.817C109.709 183.87 109.201 184.84 108.449 185.604C107.697 186.368 106.735 186.892 105.685 187.109C104.636 187.327 103.545 187.228 102.552 186.826C101.558 186.423 100.706 185.735 100.104 184.849C99.5011 183.962 99.1748 182.917 99.1662 181.845C99.1576 180.773 99.467 179.723 100.055 178.827C100.644 177.931 101.484 177.23 102.471 176.811C103.458 176.393 104.547 176.277 105.6 176.477C106.299 176.611 106.966 176.88 107.561 177.271C108.156 177.662 108.668 178.166 109.068 178.755C109.469 179.343 109.749 180.005 109.893 180.702C110.038 181.399 110.043 182.118 109.91 182.817Z" fill="#455A64"/>
<path d="M114.993 156.005L110.926 155.231L105.836 181.991L109.903 182.765L114.993 156.005Z" fill="#455A64"/>
<path d="M128.61 178.347C128.411 179.401 127.904 180.372 127.153 181.138C126.402 181.903 125.44 182.428 124.39 182.647C123.341 182.866 122.249 182.769 121.255 182.367C120.261 181.966 119.408 181.278 118.804 180.392C118.201 179.505 117.873 178.46 117.864 177.388C117.855 176.315 118.164 175.264 118.753 174.368C119.341 173.471 120.182 172.769 121.17 172.351C122.157 171.932 123.247 171.816 124.3 172.017C125.71 172.287 126.956 173.104 127.764 174.291C128.572 175.478 128.876 176.937 128.61 178.347Z" fill="#455A64"/>
<path d="M133.697 151.538L129.63 150.764L124.54 177.524L128.607 178.298L133.697 151.538Z" fill="#455A64"/>
<path d="M133.7 151.587L110.26 158.797L110.94 155.227L134.38 148.007L133.7 151.587Z" fill="#455A64"/>
<path d="M132.42 158.327L108.98 165.537L109.66 161.967L133.1 154.747L132.42 158.327Z" fill="#455A64"/>
<path d="M343.49 39.4276C343.286 40.4788 342.774 41.4459 342.021 42.2068C341.267 42.9676 340.305 43.4882 339.256 43.7028C338.207 43.9173 337.117 43.8163 336.125 43.4124C335.134 43.0084 334.284 42.3198 333.683 41.4332C333.082 40.5467 332.758 39.5021 332.75 38.4312C332.742 37.3604 333.052 36.3112 333.64 35.4162C334.228 34.5213 335.068 33.8206 336.054 33.4026C337.04 32.9846 338.128 32.868 339.18 33.0676C339.882 33.1995 340.551 33.469 341.148 33.8607C341.746 34.2524 342.259 34.7585 342.66 35.3497C343.061 35.941 343.34 36.6058 343.483 37.3057C343.625 38.0056 343.628 38.7268 343.49 39.4276Z" fill="#C7C7C7"/>
<path d="M348.593 12.6208L344.526 11.8472L339.436 38.6073L343.503 39.381L348.593 12.6208Z" fill="#C7C7C7"/>
<path d="M363.709 8.3664L359.642 7.59277L358.172 15.3242L362.239 16.0978L363.709 8.3664Z" fill="#C7C7C7"/>
<path d="M363.52 9.37737L343.85 15.4074L344.53 11.8374L364.2 5.79736L363.52 9.37737Z" fill="#C7C7C7"/>
<path d="M362.24 16.1176L342.57 22.1576L343.25 18.5776L362.92 12.5376L362.24 16.1176Z" fill="#C7C7C7"/>
<path d="M350.77 201.257C342.94 218.547 330.35 218.167 326.89 222.337C324.954 225.04 323.174 227.851 321.56 230.757L302.8 224.757C303.168 221.454 303.345 218.132 303.33 214.807C302.94 209.407 292.44 202.417 296.09 183.807C298.47 171.567 313.29 155.807 333.09 162.107C352.89 168.407 355.91 189.897 350.77 201.257Z" fill="#00AF00"/>
<path d="M310.652 195.821L306.669 227.441L307.661 227.566L311.644 195.946L310.652 195.821Z" fill="white"/>
<path d="M331.088 202.182L315.969 230.238L316.849 230.712L331.968 202.657L331.088 202.182Z" fill="white"/>
<path d="M319.11 209.207C318.771 209.218 318.433 209.17 318.11 209.067C316.64 208.597 315.53 206.957 314.98 204.447C314.98 204.337 314.98 204.217 314.91 204.107C314.637 204.295 314.328 204.424 314.003 204.486C313.677 204.548 313.343 204.542 313.02 204.467C310.21 203.567 310.93 197.417 310.96 197.157L311.46 197.217C311.46 197.277 310.75 203.217 313.17 203.987C313.46 204.042 313.758 204.031 314.043 203.957C314.328 203.883 314.594 203.746 314.82 203.557C314.41 200.737 314.76 197.337 316.06 196.147C316.263 195.954 316.514 195.821 316.788 195.761C317.061 195.701 317.345 195.717 317.61 195.807C318.84 196.197 319.24 197.417 318.69 199.137C318.043 200.975 316.893 202.593 315.37 203.807C315.37 203.987 315.43 204.157 315.47 204.337C315.77 205.687 316.52 208.037 318.26 208.587C319.43 208.967 320.89 208.417 322.39 207.057C322.51 206.947 322.64 206.827 322.76 206.697C322.068 204.916 322.025 202.947 322.64 201.137C323.31 199.047 324.5 198.007 325.77 198.407C326.014 198.489 326.231 198.635 326.399 198.831C326.566 199.026 326.677 199.264 326.72 199.517C327.09 201.227 325.53 204.517 323.35 206.807C323.702 207.459 324.288 207.952 324.99 208.187C326.71 208.737 329.54 205.117 330.49 203.677L330.9 203.947C330.76 204.177 327.27 209.447 324.84 208.667C324.066 208.406 323.412 207.873 323 207.167L322.72 207.427C321.763 208.426 320.485 209.056 319.11 209.207ZM325.31 198.827C324.31 198.827 323.57 200.097 323.19 201.287C322.663 202.913 322.663 204.662 323.19 206.287C325.19 204.127 326.63 201.087 326.3 199.577C326.277 199.409 326.206 199.251 326.097 199.122C325.987 198.993 325.842 198.897 325.68 198.847C325.549 198.818 325.414 198.811 325.28 198.827H325.31ZM317.18 196.227C317.048 196.227 316.918 196.252 316.796 196.302C316.674 196.351 316.563 196.425 316.47 196.517C315.47 197.457 314.98 200.417 315.35 203.227C316.68 202.094 317.691 200.633 318.28 198.987C318.55 198.147 318.8 196.687 317.52 196.277C317.387 196.241 317.248 196.224 317.11 196.227H317.18Z" fill="white"/>
<path d="M323.99 230.68L300.841 223.288L299.397 227.813L322.545 235.205L323.99 230.68Z" fill="#A6A6A6"/>
<path d="M322.302 235.93L299.154 228.538L297.709 233.063L320.857 240.455L322.302 235.93Z" fill="#A6A6A6"/>
<path d="M320.622 241.19L297.474 233.798L296.029 238.323L319.177 245.715L320.622 241.19Z" fill="#A6A6A6"/>
<path d="M337.208 146.738L334.816 154.246L335.769 154.549L338.16 147.041L337.208 146.738Z" fill="#DBDBDB"/>
<path d="M315.211 145.714L314.234 145.926L315.911 153.626L316.888 153.413L315.211 145.714Z" fill="#DBDBDB"/>
<path d="M294.639 155.957L293.899 156.63L299.202 162.458L299.942 161.785L294.639 155.957Z" fill="#DBDBDB"/>
<path d="M281.98 175.211L281.676 176.163L289.182 178.56L289.486 177.608L281.98 175.211Z" fill="#DBDBDB"/>
<path d="M288.287 196.492L280.587 198.169L280.8 199.146L288.5 197.469L288.287 196.492Z" fill="#DBDBDB"/>
<path d="M349.08 216.008L348.34 216.681L353.642 222.51L354.382 221.838L349.08 216.008Z" fill="#DBDBDB"/>
<path d="M359.133 199.965L358.829 200.918L366.335 203.315L366.639 202.363L359.133 199.965Z" fill="#DBDBDB"/>
<path d="M367.484 179.31L359.784 180.988L359.997 181.965L367.697 180.287L367.484 179.31Z" fill="#DBDBDB"/>
<path d="M356.707 158.988L350.884 164.297L351.557 165.036L357.381 159.727L356.707 158.988Z" fill="#DBDBDB"/>
</g>
<defs>
<clipPath id="clip0_166_3430">
<rect width="405" height="441" fill="white"/>
</clipPath>
</defs>
</svg>
