<svg width="2656" height="2301" viewBox="0 0 2656 2301" fill="none" xmlns="http://www.w3.org/2000/svg">
<path d="M388.978 2090.21C-129.659 1809.15 -129.659 1353.5 388.978 1072.5C907.616 791.493 1748.41 791.44 2267.04 1072.5C2785.68 1353.55 2785.62 1809.15 2267.04 2090.21C1748.46 2371.26 907.559 2371.26 388.978 2090.21Z" fill="#F5F5F5"/>
<path d="M2143.81 208.586L2182.4 229.539C2182.4 227.89 2182.11 226.295 2182.11 224.699V214.063C2182.11 195.344 2196.05 187.792 2213.33 197.152C2220.74 201.434 2227.08 207.166 2231.91 213.957C2234.75 190.451 2254.58 181.676 2278.26 194.599C2304.04 208.586 2324.94 242.461 2324.94 270.54V286.495C2325.12 292.761 2323.76 298.982 2320.98 304.682L2353.05 322.072C2358.1 325.136 2362.3 329.277 2365.33 334.156C2368.35 339.036 2370.1 344.516 2370.44 350.151C2370.44 360.787 2362.68 364.723 2353.1 359.564L2143.81 246.131C2138.77 243.052 2134.57 238.9 2131.56 234.012C2128.55 229.124 2126.8 223.637 2126.48 217.998C2126.48 207.628 2134.24 203.427 2143.81 208.586Z" fill="#E6E6E6"/>
<path d="M2346.48 71.0081L2367.78 78.7193V34.686C2367.78 -0.25335 2397.41 -8.65582 2429.65 8.84046C2461.89 26.2836 2488 68.7745 2488 103.661V110.308C2492.54 109.003 2497.34 108.679 2502.03 109.361C2506.72 110.043 2511.18 111.712 2515.09 114.244C2527.31 121.725 2537.48 131.808 2544.78 143.672C2552.07 155.536 2556.28 168.848 2557.07 182.527V185.399L2586.76 201.353C2594.8 206.278 2601.5 212.913 2606.3 220.72C2611.11 228.528 2613.88 237.288 2614.41 246.29C2614.41 262.829 2602 269.53 2586.76 261.287L2346.48 130.942C2338.43 126.02 2331.73 119.386 2326.92 111.578C2322.12 103.77 2319.35 95.0084 2318.83 86.0049C2318.83 69.4659 2331.18 62.7652 2346.48 71.0081Z" fill="#E6E6E6"/>
<path d="M607.388 1898.44C668.531 1898.44 718.096 1871.58 718.096 1838.45C718.096 1805.32 668.531 1778.46 607.388 1778.46C546.246 1778.46 496.681 1805.32 496.681 1838.45C496.681 1871.58 546.246 1898.44 607.388 1898.44Z" fill="#E0E0E0"/>
<path d="M1729.48 2128.87L430.335 1424.87L831.863 1207.26L2131.01 1911.31L1729.48 2128.87Z" fill="#E0E0E0"/>
<path d="M2139.05 1775.96C2133.98 1776.2 2128.89 1776.2 2123.81 1775.96C2105 1774.58 2083.87 1764.37 2065.06 1754.69C2052.59 1748.2 2035.94 1739.38 2029.82 1726.77C2028.14 1723.71 2027.46 1720.25 2027.87 1716.83C2028.27 1713.4 2029.74 1710.17 2032.09 1707.52C2037.75 1702.2 2047.84 1701.73 2051.29 1695.08C2038.71 1685.56 2020.36 1683.11 2010.56 1671.09C2003.71 1661.89 2000.14 1650.89 2000.36 1639.66C1999.81 1632.31 2002.33 1625.04 2007.38 1619.4C2013.56 1614.08 2023.42 1615.52 2031.69 1617.22C2033.86 1617.78 2036.14 1617.92 2038.37 1617.65C2039.49 1617.48 2040.53 1617.01 2041.35 1616.29C2042.18 1615.57 2042.76 1614.64 2043.02 1613.61C2043.42 1611.05 2041.15 1608.87 2039 1607.22C2034.35 1603.82 2029.25 1600.95 2024.83 1597.28C2020.22 1593.78 2016.99 1588.93 2015.65 1583.51C2015.15 1576.88 2016.83 1570.27 2020.47 1564.57C2025.52 1554.45 2031.2 1544.61 2037.47 1535.11C2042.57 1526.72 2047.05 1518.01 2050.9 1509.05C2080.61 1513.88 2108.9 1524.52 2133.95 1540.27C2147.89 1548.62 2167.27 1562.98 2167.95 1580.16C2168 1585.01 2166.75 1589.8 2164.32 1594.09C2163.12 1595.92 2161.81 1597.7 2160.41 1599.41C2159.62 1600.58 2156.28 1604.99 2160.41 1603.87C2161.3 1603.53 2162.11 1603.02 2162.79 1602.38L2181.38 1586.16C2183.1 1584.41 2185.29 1583.11 2187.72 1582.39C2192.99 1581.43 2203.7 1587.39 2212.14 1600.68C2217.38 1609.84 2219.18 1620.39 2217.24 1630.62C2214.8 1646.84 2205.91 1661.47 2197.07 1675.67L2212.88 1665.78C2231.29 1654.18 2227.27 1685.72 2225.23 1692.37C2218.63 1712.19 2207.6 1730.47 2192.88 1745.97C2177.81 1760.28 2160.47 1771.92 2139.05 1775.96Z" fill="#34AD82"/>
<path opacity="0.5" d="M2139.05 1775.96C2133.98 1776.2 2128.89 1776.2 2123.81 1775.96C2105 1774.58 2083.87 1764.37 2065.06 1754.69C2052.59 1748.2 2035.94 1739.38 2029.82 1726.77C2028.14 1723.71 2027.46 1720.25 2027.87 1716.83C2028.27 1713.4 2029.74 1710.17 2032.09 1707.52C2037.75 1702.2 2047.84 1701.73 2051.29 1695.08C2038.71 1685.56 2020.36 1683.11 2010.56 1671.09C2003.71 1661.89 2000.14 1650.89 2000.36 1639.66C1999.81 1632.31 2002.33 1625.04 2007.38 1619.4C2013.56 1614.08 2023.42 1615.52 2031.69 1617.22C2033.86 1617.78 2036.14 1617.92 2038.37 1617.65C2039.49 1617.48 2040.53 1617.01 2041.35 1616.29C2042.18 1615.57 2042.76 1614.64 2043.02 1613.61C2043.42 1611.05 2041.15 1608.87 2039 1607.22C2034.35 1603.82 2029.25 1600.95 2024.83 1597.28C2020.22 1593.78 2016.99 1588.93 2015.65 1583.51C2015.15 1576.88 2016.83 1570.27 2020.47 1564.57C2025.52 1554.45 2031.2 1544.61 2037.47 1535.11C2042.57 1526.72 2047.05 1518.01 2050.9 1509.05C2080.61 1513.88 2108.9 1524.52 2133.95 1540.27C2147.89 1548.62 2167.27 1562.98 2167.95 1580.16C2168 1585.01 2166.75 1589.8 2164.32 1594.09C2163.12 1595.92 2161.81 1597.7 2160.41 1599.41C2159.62 1600.58 2156.28 1604.99 2160.41 1603.87C2161.3 1603.53 2162.11 1603.02 2162.79 1602.38L2181.38 1586.16C2183.1 1584.41 2185.29 1583.11 2187.72 1582.39C2192.99 1581.43 2203.7 1587.39 2212.14 1600.68C2217.38 1609.84 2219.18 1620.39 2217.24 1630.62C2214.8 1646.84 2205.91 1661.47 2197.07 1675.67L2212.88 1665.78C2231.29 1654.18 2227.27 1685.72 2225.23 1692.37C2218.63 1712.19 2207.6 1730.47 2192.88 1745.97C2177.81 1760.28 2160.47 1771.92 2139.05 1775.96Z" fill="white"/>
<path d="M2136.62 1677.21C2147.88 1652.09 2164.86 1629.58 2186.36 1611.27L2186.87 1610.84C2187.29 1610.45 2187.53 1609.92 2187.54 1609.37C2187.54 1608.82 2187.31 1608.28 2186.9 1607.89C2186.49 1607.49 2185.92 1607.27 2185.33 1607.26C2184.74 1607.26 2184.18 1607.47 2183.76 1607.86L2183.3 1608.29C2163.13 1625.59 2146.8 1646.46 2135.26 1669.71C2123.08 1605.89 2094.58 1552.13 2074.29 1530.17C2074.1 1529.91 2073.85 1529.7 2073.57 1529.54C2073.28 1529.39 2072.96 1529.29 2072.64 1529.25C2072.31 1529.22 2071.97 1529.25 2071.66 1529.34C2071.34 1529.43 2071.05 1529.58 2070.8 1529.79C2070.55 1529.99 2070.35 1530.24 2070.21 1530.53C2070.07 1530.81 2069.99 1531.11 2069.98 1531.42C2069.98 1531.74 2070.04 1532.04 2070.17 1532.33C2070.3 1532.62 2070.49 1532.88 2070.73 1533.09C2090.73 1554.74 2118.83 1607.54 2130.78 1670.67C2108.67 1651.17 2080.26 1639.17 2050.05 1636.58C2049.75 1636.57 2049.46 1636.61 2049.18 1636.7C2048.9 1636.8 2048.65 1636.94 2048.43 1637.13C2048.21 1637.32 2048.04 1637.55 2047.92 1637.8C2047.8 1638.05 2047.73 1638.32 2047.72 1638.6C2047.72 1638.98 2047.82 1639.35 2048.02 1639.68C2048.22 1640 2048.51 1640.27 2048.86 1640.46C2049.17 1640.63 2049.52 1640.72 2049.88 1640.73C2081.12 1643.54 2110.25 1656.74 2132.03 1677.95C2137.13 1707.73 2138.32 1749.22 2133.05 1771.82C2132.95 1772.23 2132.98 1772.65 2133.13 1773.05C2133.28 1773.44 2133.55 1773.79 2133.9 1774.05C2134.19 1774.25 2134.52 1774.39 2134.86 1774.48C2135.48 1774.6 2136.12 1774.49 2136.65 1774.18C2137.18 1773.86 2137.56 1773.35 2137.69 1772.77C2143.08 1749.53 2141.77 1707.52 2136.62 1677.21Z" fill="white"/>
<path d="M2101.6 1894.24C2103.02 1895.3 2115.03 1900.51 2116.73 1901.15C2136.16 1908.28 2163.7 1906.84 2188.69 1904.77C2205.23 1903.44 2227.44 1901.47 2241.72 1890.52C2245.35 1888.04 2248.22 1884.7 2250.03 1880.84C2251.85 1876.98 2252.53 1872.74 2252.03 1868.55C2249.93 1860.31 2240.24 1855.1 2241.21 1846.27C2259.79 1841.64 2279.51 1847.39 2297.07 1838.82C2309.98 1831.85 2320.56 1821.63 2327.61 1809.31C2332.2 1802.08 2336.11 1791.44 2333.95 1784.05C2331.35 1775.27 2320.64 1772.51 2311.29 1770.54C2308.82 1770.2 2306.47 1769.3 2304.44 1767.93C2303.41 1767.18 2302.67 1766.14 2302.32 1764.97C2301.96 1763.79 2302.01 1762.54 2302.45 1761.39C2303.29 1759.99 2304.45 1758.78 2305.85 1757.86C2307.26 1756.94 2308.86 1756.33 2310.55 1756.08C2317.35 1754.48 2324.27 1753.68 2331.01 1751.71C2338.06 1749.98 2344.38 1746.27 2349.14 1741.08C2353.87 1734.32 2356.48 1726.45 2356.67 1718.37C2358.31 1705.11 2359.1 1691.78 2359.05 1678.43C2359.05 1675.29 2361.72 1643.6 2362.85 1643.92C2331.12 1634.67 2294.86 1635.14 2260.41 1639.82C2241.26 1642.48 2212.76 1649.24 2200.87 1667.58C2197.67 1672.74 2195.73 1678.5 2195.2 1684.44C2195.03 1687.05 2195.03 1689.66 2195.2 1692.26C2195.2 1693.91 2195.6 1700.24 2192.26 1697.15C2191.55 1696.38 2191.08 1695.44 2190.9 1694.44C2188.29 1685.72 2185.63 1677 2183.02 1668.27C2182.57 1665.62 2181.24 1663.17 2179.22 1661.26C2174.69 1657.75 2160.24 1659.34 2143.25 1669.92C2132.08 1677.5 2123.54 1688.01 2118.71 1700.13C2110.5 1718.9 2109.76 1738.95 2109.2 1758.36L2100.02 1740.39C2089.37 1719.12 2072.82 1755.49 2070.61 1763.41C2064.95 1784.21 2062.57 1816.91 2067.61 1836.54C2073.9 1859.51 2083.13 1879.99 2101.6 1894.24Z" fill="#34AD82"/>
<path opacity="0.3" d="M2101.6 1894.24C2103.02 1895.3 2115.03 1900.51 2116.73 1901.15C2136.16 1908.28 2163.7 1906.84 2188.69 1904.77C2205.23 1903.44 2227.44 1901.47 2241.72 1890.52C2245.35 1888.04 2248.22 1884.7 2250.03 1880.84C2251.85 1876.98 2252.53 1872.74 2252.03 1868.55C2249.93 1860.31 2240.24 1855.1 2241.21 1846.27C2259.79 1841.64 2279.51 1847.39 2297.07 1838.82C2309.98 1831.85 2320.56 1821.63 2327.61 1809.31C2332.2 1802.08 2336.11 1791.44 2333.95 1784.05C2331.35 1775.27 2320.64 1772.51 2311.29 1770.54C2308.82 1770.2 2306.47 1769.3 2304.44 1767.93C2303.41 1767.18 2302.67 1766.14 2302.32 1764.97C2301.96 1763.79 2302.01 1762.54 2302.45 1761.39C2303.29 1759.99 2304.45 1758.78 2305.85 1757.86C2307.26 1756.94 2308.86 1756.33 2310.55 1756.08C2317.35 1754.48 2324.27 1753.68 2331.01 1751.71C2338.06 1749.98 2344.38 1746.27 2349.14 1741.08C2353.87 1734.32 2356.48 1726.45 2356.67 1718.37C2358.31 1705.11 2359.1 1691.78 2359.05 1678.43C2359.05 1675.29 2361.72 1643.6 2362.85 1643.92C2331.12 1634.67 2294.86 1635.14 2260.41 1639.82C2241.26 1642.48 2212.76 1649.24 2200.87 1667.58C2197.67 1672.74 2195.73 1678.5 2195.2 1684.44C2195.03 1687.05 2195.03 1689.66 2195.2 1692.26C2195.2 1693.91 2195.6 1700.24 2192.26 1697.15C2191.55 1696.38 2191.08 1695.44 2190.9 1694.44C2188.29 1685.72 2185.63 1677 2183.02 1668.27C2182.57 1665.62 2181.24 1663.17 2179.22 1661.26C2174.69 1657.75 2160.24 1659.34 2143.25 1669.92C2132.08 1677.5 2123.54 1688.01 2118.71 1700.13C2110.5 1718.9 2109.76 1738.95 2109.2 1758.36L2100.02 1740.39C2089.37 1719.12 2072.82 1755.49 2070.61 1763.41C2064.95 1784.21 2062.57 1816.91 2067.61 1836.54C2073.9 1859.51 2083.13 1879.99 2101.6 1894.24Z" fill="white"/>
<path d="M2160.13 1801.81C2165.49 1770.27 2163.4 1738.01 2154.01 1707.31V1706.56C2153.87 1705.9 2153.99 1705.22 2154.34 1704.64C2154.7 1704.05 2155.26 1703.6 2155.94 1703.37C2156.24 1703.25 2156.56 1703.18 2156.89 1703.19C2157.22 1703.19 2157.54 1703.26 2157.83 1703.39C2158.13 1703.52 2158.39 1703.71 2158.6 1703.95C2158.81 1704.18 2158.97 1704.46 2159.05 1704.76V1705.45C2167.8 1734.31 2170.31 1764.53 2166.42 1794.31C2220.02 1730.5 2291.63 1671.15 2325.96 1656.58C2326.28 1656.42 2326.62 1656.33 2326.97 1656.31C2327.32 1656.29 2327.68 1656.34 2328.01 1656.46C2328.34 1656.58 2328.63 1656.77 2328.88 1657.01C2329.12 1657.25 2329.31 1657.54 2329.42 1657.85C2329.61 1658.54 2329.53 1659.27 2329.2 1659.92C2328.86 1660.56 2328.3 1661.07 2327.61 1661.36C2293.61 1675.72 2223.02 1734.43 2170.21 1797.4C2203.11 1786.07 2239.2 1785.94 2272.2 1797.02C2272.5 1797.17 2272.76 1797.37 2272.98 1797.61C2273.19 1797.86 2273.35 1798.14 2273.44 1798.45C2273.53 1798.75 2273.55 1799.07 2273.5 1799.39C2273.45 1799.7 2273.34 1800 2273.16 1800.27C2272.95 1800.69 2272.62 1801.06 2272.21 1801.33C2271.81 1801.6 2271.33 1801.76 2270.84 1801.81C2270.45 1801.91 2270.04 1801.91 2269.65 1801.81C2269.19 1801.81 2223.13 1782.67 2164.27 1804.58C2139.85 1834.62 2119.9 1865.31 2110.38 1892.32C2110.19 1892.81 2109.88 1893.24 2109.48 1893.59C2109.08 1893.94 2108.59 1894.2 2108.06 1894.34C2107.67 1894.45 2107.26 1894.45 2106.87 1894.34C2106.53 1894.26 2106.21 1894.11 2105.93 1893.9C2105.65 1893.7 2105.42 1893.43 2105.26 1893.14C2105.1 1892.84 2105.01 1892.51 2105 1892.18C2104.98 1891.85 2105.04 1891.52 2105.17 1891.21C2114.92 1863.61 2135.26 1832.39 2160.13 1801.81Z" fill="white"/>
<path d="M669.826 1787.88C635.379 1769.21 579.175 1769.21 545.181 1787.88C528.184 1797.18 519.345 1809.47 519.402 1821.7V1834.36C519.402 1846.59 527.957 1858.87 545.181 1868.18C579.628 1886.84 635.832 1886.84 669.826 1868.18C686.823 1858.87 695.605 1846.59 695.605 1834.36V1821.7C695.662 1809.47 687.05 1797.24 669.826 1787.88Z" fill="#34AD82"/>
<path d="M607.388 1869.56C656.139 1869.56 695.659 1848.13 695.659 1821.7C695.659 1795.26 656.139 1773.84 607.388 1773.84C558.637 1773.84 519.116 1795.26 519.116 1821.7C519.116 1848.13 558.637 1869.56 607.388 1869.56Z" fill="#34AD82"/>
<path opacity="0.3" d="M607.388 1869.56C656.139 1869.56 695.659 1848.13 695.659 1821.7C695.659 1795.26 656.139 1773.84 607.388 1773.84C558.637 1773.84 519.116 1795.26 519.116 1821.7C519.116 1848.13 558.637 1869.56 607.388 1869.56Z" fill="white"/>
<path d="M597.7 1357.38H617.134V1824.73C617.057 1825.53 616.754 1826.3 616.256 1826.95C615.758 1827.61 615.083 1828.12 614.301 1828.45C612.169 1829.47 609.81 1830.01 607.417 1830.01C605.023 1830.01 602.664 1829.47 600.533 1828.45C599.751 1828.12 599.076 1827.61 598.578 1826.95C598.08 1826.3 597.777 1825.53 597.7 1824.73V1357.38Z" fill="#34AD82"/>
<path opacity="0.15" d="M597.7 1462.31L617.134 1472.94V1385.04L597.7 1385.89V1462.31Z" fill="black"/>
<path d="M446.824 1366.32V1135.94L459.402 1129.08L736.114 1279.05V1509.42L723.48 1516.28L446.824 1366.32Z" fill="#34AD82"/>
<path opacity="0.5" d="M736.114 1279.05L723.48 1285.85L446.824 1135.94L459.402 1129.08L736.114 1279.05Z" fill="white"/>
<path d="M723.48 1516.28L446.824 1366.32V1135.94L723.48 1285.85V1516.28Z" fill="#34AD82"/>
<path opacity="0.3" d="M723.48 1516.28L446.824 1366.32V1135.94L723.48 1285.85V1516.28Z" fill="white"/>
<path d="M711.922 1296.23L463.708 1161.25L463.877 1358.77L711.922 1493.2V1296.23Z" fill="#34AD82"/>
<path d="M711.92 1296.22V1482.25L474.018 1353.34V1166.84L711.92 1296.22Z" fill="#FAFAFA"/>
<path opacity="0.25" d="M474.019 1353.34L463.877 1358.77L463.708 1161.25L474.019 1166.84V1353.34Z" fill="black"/>
<path d="M552.32 1251.71C553.184 1252.26 553.854 1253.04 554.246 1253.95C554.8 1254.95 555.091 1256.06 555.096 1257.19V1315.69C555.235 1321.31 554.471 1326.92 552.83 1332.33C551.8 1336.07 549.588 1339.43 546.484 1341.96C543.726 1344 540.232 1344.95 536.739 1344.62C532.284 1344.22 527.993 1342.83 524.218 1340.58C519.534 1338.02 515.292 1334.81 511.64 1331.06C507.764 1327.08 504.486 1322.63 501.895 1317.82C499.133 1312.57 497.022 1307.03 495.606 1301.33C494.098 1295.07 493.357 1288.66 493.397 1282.24V1223.74C493.324 1222.89 493.609 1222.05 494.19 1221.4C494.458 1221.18 494.8 1221.06 495.153 1221.06C495.507 1221.06 495.849 1221.18 496.116 1221.4L509.431 1228.58C510.279 1229.14 510.946 1229.92 511.357 1230.81C511.86 1231.81 512.131 1232.9 512.15 1234V1291.92C512.038 1297.2 513.059 1302.44 515.153 1307.34C516.915 1311.49 520.106 1314.98 524.218 1317.23C528.298 1319.46 531.3 1319.41 533.34 1317.23C535.709 1313.58 536.743 1309.31 536.286 1305.05V1246.98C536.252 1246.56 536.309 1246.13 536.455 1245.73C536.601 1245.33 536.833 1244.96 537.136 1244.64C537.404 1244.42 537.745 1244.3 538.099 1244.3C538.453 1244.3 538.795 1244.42 539.062 1244.64L552.32 1251.71Z" fill="#37474F"/>
<path d="M600.309 1277.72C608.96 1282.36 616.061 1289.18 620.819 1297.39C623.336 1301.75 625.241 1306.4 626.484 1311.22C627.843 1316.44 628.509 1321.8 628.467 1327.18C628.635 1331.93 627.965 1336.67 626.484 1341.22C625.56 1344.28 623.564 1346.96 620.819 1348.82C618.194 1350.38 615.049 1350.99 611.98 1350.52C607.842 1349.85 603.88 1348.45 600.309 1346.37L587.334 1339.35V1369.24C587.407 1370.09 587.122 1370.93 586.541 1371.58C586.274 1371.8 585.932 1371.92 585.578 1371.92C585.224 1371.92 584.882 1371.8 584.615 1371.58L571.3 1364.35C570.439 1363.82 569.767 1363.06 569.374 1362.17C568.876 1361.15 568.606 1360.05 568.581 1358.92V1264.32C568.508 1263.47 568.793 1262.63 569.374 1261.98C569.642 1261.76 569.984 1261.64 570.337 1261.64C570.691 1261.64 571.033 1261.76 571.3 1261.98L600.309 1277.72ZM587.334 1316.59L599.799 1323.35C600.796 1324.05 601.961 1324.53 603.194 1324.72C604.427 1324.91 605.692 1324.83 606.881 1324.46C608.694 1323.67 609.657 1321.22 609.657 1317.07C609.766 1313.44 608.806 1309.85 606.881 1306.7C605.135 1304 602.701 1301.76 599.799 1300.16L587.334 1293.41V1316.59Z" fill="#37474F"/>
<path d="M666.539 1312.07L640.08 1341.16L654.981 1349.25V1418.65L678.04 1431.09V1361.74L692.941 1369.77L666.539 1312.07Z" fill="#34AD82"/>
<path d="M524.783 503.257L477.531 477.624V938.43L879.116 1156.04V1335.26L1280.64 1552.87L1280.7 1732.09L1682.23 1949.7V2077.71L1729.42 2103.29L1729.48 1924.07L1327.9 1706.46V1527.29L926.368 1309.68V1130.46L524.783 912.851V503.257Z" fill="#34AD82"/>
<path opacity="0.25" d="M524.783 503.257L477.531 477.624V938.43L879.116 1156.04V1335.26L1280.64 1552.87L1280.7 1732.09L1682.23 1949.7V2077.71L1729.42 2103.29L1729.48 1924.07L1327.9 1706.46V1527.29L926.368 1309.68V1130.46L524.783 912.851V503.257Z" fill="black"/>
<path d="M962.571 236.612L723.365 55.2139C722.178 54.2971 720.908 53.4787 719.569 52.7676L672.431 27.188C669.69 25.677 666.641 24.7241 663.483 24.3911C660.324 24.0582 657.126 24.3527 654.096 25.2554C651.067 26.1582 648.273 27.649 645.898 29.6311C643.522 31.6132 641.617 34.0422 640.306 36.7604L382.291 512.085C378.325 519.371 378.098 524.157 380.931 525.752C383.764 527.348 425.35 549.737 428.183 551.332C431.016 552.927 435.152 551.811 441.497 548.354L959.965 267.403C973.903 259.851 975.036 246.078 962.571 236.612Z" fill="#34AD82"/>
<path d="M959.964 267.403L441.496 548.354C427.615 555.906 422.233 551.119 429.542 537.718L687.727 62.4465C689.188 59.3919 691.396 56.7041 694.172 54.6016C696.948 52.4992 700.213 51.0414 703.703 50.347C707.192 49.6526 710.807 49.741 714.253 50.6052C717.699 51.4694 720.879 53.0849 723.535 55.3203L962.74 236.718C975.035 246.078 973.902 259.851 959.964 267.403Z" fill="#34AD82"/>
<path opacity="0.3" d="M672.373 27.1879C673.62 27.8261 709.313 47.29 718.152 52.0231C715.439 50.756 712.48 50.0206 709.454 49.8618C706.429 49.7029 703.4 50.1239 700.554 51.0991C697.707 52.0744 695.102 53.5833 692.897 55.5342C690.692 57.485 688.933 59.8368 687.727 62.4464L429.485 537.665C425.632 544.844 425.292 549.577 428.068 551.279C423.989 548.992 383.253 527.082 380.93 525.752C378.607 524.423 378.324 519.424 382.29 512.085L640.305 36.7603C641.617 34.0495 643.52 31.6273 645.891 29.6503C648.263 27.6733 651.05 26.1855 654.072 25.2832C657.095 24.381 660.286 24.0843 663.438 24.4124C666.591 24.7405 669.634 25.686 672.373 27.1879Z" fill="white"/>
<path d="M524.782 477.624V912.851L902.741 708.054V272.827L524.782 477.624Z" fill="#34AD82"/>
<path d="M524.782 912.851L926.367 1130.46L1304.27 925.668L902.741 708.054L524.782 912.851Z" fill="#34AD82"/>
<path opacity="0.3" d="M524.782 912.851L926.367 1130.46L1304.27 925.668L902.741 708.054L524.782 912.851Z" fill="white"/>
<path d="M1304.27 925.668V1104.83L926.366 1309.68V1130.46L1304.27 925.668Z" fill="#34AD82"/>
<path d="M926.366 1309.68L1327.89 1527.3L1705.8 1322.44L1304.27 1104.88L926.366 1309.68Z" fill="#34AD82"/>
<path opacity="0.3" d="M926.366 1309.68L1327.89 1527.3L1705.8 1322.44L1304.27 1104.88L926.366 1309.68Z" fill="white"/>
<path d="M1705.8 1322.44V1501.66L1327.89 1706.46V1527.29L1705.8 1322.44Z" fill="#34AD82"/>
<path d="M1327.89 1706.46L1729.48 1924.07L2107.38 1719.28L1705.8 1501.66L1327.89 1706.46Z" fill="#34AD82"/>
<path opacity="0.3" d="M1327.89 1706.46L1729.48 1924.07L2107.38 1719.28L1705.8 1501.66L1327.89 1706.46Z" fill="white"/>
<path d="M2107.38 1719.28V1898.49L1729.42 2103.29L1729.48 1924.07L2107.38 1719.28Z" fill="#34AD82"/>
<path opacity="0.25" d="M1522.51 1309.68C1476.68 1307.87 1412.09 1309.68 1382.29 1322.44C1360.25 1331.8 1350.05 1341.59 1361.44 1360.95C1367.72 1371.58 1379.45 1376.9 1387.61 1385.41C1389.14 1386.71 1390.32 1388.32 1391.07 1390.12C1391.81 1391.93 1392.1 1393.87 1391.91 1395.79C1391.72 1397.72 1391.05 1399.57 1389.96 1401.21C1388.87 1402.86 1387.39 1404.23 1385.63 1405.24C1374.86 1413.01 1363.82 1420.35 1353.33 1428.43C1317.41 1456.19 1360.7 1455.02 1371.12 1455.02C1407.19 1454.01 1442.97 1448.65 1477.58 1439.07C1501.44 1432.15 1509.25 1429.18 1509.25 1429.18V1608.34C1509.25 1608.34 1538.09 1626.15 1573.67 1644.24C1656.56 1686.46 1688.91 1705.71 1727.44 1711.03C1765.06 1716.35 1796.67 1704.22 1797.24 1667.85C1798.03 1613.76 1776.67 1591.06 1760.7 1577.44C1742.23 1561.91 1687.55 1511.18 1687.55 1511.18V1332.39C1687.55 1332.39 1631.52 1313.93 1522.51 1309.68Z" fill="black"/>
<path d="M1214.64 84.3015C1226.99 78.9835 1233.5 106.584 1241.21 126.846C1248.29 145.512 1259.45 169.39 1263.87 170.507C1270.22 172.102 1266.54 148.384 1274.64 138.598C1282.74 128.813 1288.12 132.855 1287.44 143.916C1286.88 152.744 1289.71 178.909 1284.89 197.948C1283.12 202.443 1282.44 207.25 1282.89 212.023C1283.34 216.795 1284.92 221.415 1287.5 225.548C1319.62 277.824 1379.23 348.767 1379.23 348.767C1379.23 348.767 1450.39 375.676 1493.84 387.163C1526.19 395.672 1559.79 405.882 1586.02 415.667C1588.63 424.974 1575.15 513.944 1531.52 502.351C1523.7 476.771 1424.44 454.063 1363.59 431.302C1326.65 417.475 1317.53 413.008 1308.41 398.49C1282 356.371 1279.68 348.767 1260.53 312.338C1238.77 271.017 1232.66 262.774 1229.03 259.158C1217.7 247.565 1206.71 240.173 1199.62 230.866C1190.03 219.325 1182.66 206.294 1177.87 192.364C1177.14 190.458 1176.85 188.428 1177.03 186.41C1177.21 184.392 1177.84 182.433 1178.89 180.664C1180.13 178.962 1182.06 177.792 1183.36 176.144C1185.03 173.044 1186.92 170.059 1189.03 167.209C1192.37 164.125 1199.23 164.55 1202.34 161.253C1203.7 159.817 1205.4 154.021 1207.27 153.117C1210.29 151.894 1213.47 151.088 1216.73 150.724C1218.6 150.245 1224.1 150.404 1224.1 147.905C1222.25 137.929 1219.81 128.057 1216.79 118.337C1212.71 102.968 1207.67 87.2796 1214.64 84.3015Z" fill="#B16668"/>
<path d="M1585.91 413.434C1579.9 411.306 1570.39 406.308 1558.43 402.798C1546.48 399.288 1450.78 371.421 1423.47 362.274C1396.17 353.127 1380.3 347.171 1380.3 347.171L1340.64 300.319C1340.64 300.319 1335.54 311.86 1315.26 321.592C1301.41 327.862 1286.37 331.478 1271.01 332.228C1271.01 332.228 1280.59 352.117 1294.3 380.09C1306.14 404.446 1307.27 410.615 1327.84 419.071C1351.46 428.856 1413.84 450.341 1442.45 460.551C1477.41 472.996 1518.54 487.939 1524.78 499.958C1524.83 500.33 1582.91 449.915 1585.91 413.434Z" fill="#34AD82"/>
<path opacity="0.6" d="M1585.91 413.434C1579.9 411.306 1570.39 406.308 1558.43 402.798C1546.48 399.288 1450.78 371.421 1423.47 362.274C1396.17 353.127 1380.3 347.171 1380.3 347.171L1340.64 300.319C1340.64 300.319 1335.54 311.86 1315.26 321.592C1301.41 327.862 1286.37 331.478 1271.01 332.228C1271.01 332.228 1280.59 352.117 1294.3 380.09C1306.14 404.446 1307.27 410.615 1327.84 419.071C1351.46 428.856 1413.84 450.341 1442.45 460.551C1477.41 472.996 1518.54 487.939 1524.78 499.958C1524.83 500.33 1582.91 449.915 1585.91 413.434Z" fill="white"/>
<path d="M1341.66 301.755C1335.43 314.137 1324.23 323.697 1310.5 328.346C1298.81 333.337 1286.26 336.343 1273.45 337.227L1257.02 305.319C1271.32 302.741 1285.09 298.038 1297.81 291.385C1306.54 286.181 1313.45 278.694 1317.7 269.847L1341.66 301.755Z" fill="#34AD82"/>
<path opacity="0.85" d="M1341.66 301.755C1335.43 314.137 1324.23 323.697 1310.5 328.346C1298.81 333.337 1286.26 336.343 1273.45 337.227L1257.02 305.319C1271.32 302.741 1285.09 298.038 1297.81 291.385C1306.54 286.181 1313.45 278.694 1317.7 269.847L1341.66 301.755Z" fill="white"/>
<path d="M1252.94 160.243C1255.88 172.794 1262.68 185.769 1257.64 191.513C1256.59 192.601 1255.3 193.462 1253.86 194.034C1252.42 194.606 1250.86 194.876 1249.29 194.825C1247.73 194.774 1246.2 194.404 1244.8 193.74C1243.4 193.077 1242.18 192.135 1241.21 190.981C1241.35 192.738 1240.99 194.498 1240.18 196.085C1239.36 197.671 1238.11 199.029 1236.56 200.022C1235 200.908 1233.21 201.377 1231.38 201.377C1229.55 201.377 1227.76 200.908 1226.2 200.022C1225.81 201.285 1225.14 202.46 1224.25 203.476C1223.36 204.491 1222.26 205.326 1221.01 205.928C1219.77 206.53 1218.4 206.888 1217.01 206.979C1215.61 207.069 1214.2 206.892 1212.88 206.457C1215.83 209.435 1223.59 213.157 1227.39 205.925C1227.39 205.925 1239.23 208.69 1242.63 199.703C1242.63 199.703 1238.26 209.647 1248.69 222.783C1245.85 215.12 1245.85 206.781 1248.69 199.118C1251.51 199.259 1254.31 198.687 1256.82 197.461C1259.32 196.235 1261.42 194.402 1262.91 192.151C1267.16 184.387 1252.94 160.243 1252.94 160.243Z" fill="#9A4A4D"/>
<path d="M1791.63 222.783C1791.2 224.617 1790.56 226.4 1789.71 228.101C1788.06 231.611 1784.44 234.376 1783.42 238.098C1781.15 246.501 1792.31 256.18 1795.66 263.2C1801.66 276.016 1789.25 286.865 1780.3 294.789C1778.08 296.66 1776.43 299.062 1775.55 301.74C1774.66 304.418 1774.56 307.272 1775.26 309.998C1775.59 310.931 1776.13 311.788 1776.84 312.51C1777.55 313.232 1778.42 313.803 1779.38 314.186C1780.35 314.569 1781.39 314.753 1782.44 314.728C1783.49 314.703 1784.52 314.468 1785.46 314.04C1784.73 315.184 1783.69 316.126 1782.44 316.771C1781.2 317.415 1779.8 317.739 1778.38 317.709C1775.03 318.006 1771.68 317.166 1768.93 315.341C1766.19 313.517 1764.23 310.828 1763.42 307.765C1762.97 310.796 1764.55 313.933 1764.38 317.124C1764.41 319.482 1763.63 321.785 1762.16 323.699C1760.69 325.612 1758.61 327.035 1756.22 327.76C1752.03 329.196 1747.44 329.675 1743.25 331.323C1738.09 333.291 1736.62 336.375 1733.45 340.417C1727.22 348.341 1719 350.202 1708.8 349.99C1703.51 349.635 1698.37 348.188 1693.75 345.752C1689.13 343.316 1685.14 339.95 1682.06 335.897C1679.45 332.919 1676.39 330.153 1674.18 326.963C1666.37 316.699 1655.88 308.615 1647.67 298.458C1639.31 287.844 1631.74 276.703 1625.01 265.114C1616.67 250.445 1609.29 235.314 1602.91 219.804C1602.02 216.714 1600.47 213.822 1598.38 211.296C1596.13 209.215 1593.45 207.587 1590.5 206.509C1579.62 202.361 1566.99 200.713 1561.04 189.917C1559.74 187.921 1558.87 185.7 1558.5 183.385C1558.12 181.07 1558.24 178.709 1558.86 176.439C1559.47 174.169 1560.56 172.037 1562.06 170.169C1563.57 168.301 1565.45 166.734 1567.61 165.561C1571.07 163.912 1574.86 159.605 1571.24 156.254C1568.63 153.808 1564.61 153.595 1562.46 150.617C1558.94 145.299 1563.99 135.408 1571.01 136.418C1565.35 138.758 1568.75 144.129 1573.84 144.767C1575.95 145.042 1578.09 144.736 1580.01 143.886C1581.94 143.036 1583.55 141.679 1584.67 139.981C1586.29 137.9 1588.67 136.445 1591.35 135.886C1594.47 135.301 1597.02 137.056 1600.13 137.322C1608.24 137.96 1612.09 124.772 1617.53 120.783C1622.65 117.038 1628.78 114.707 1635.24 114.049C1641.69 113.392 1648.21 114.434 1654.07 117.06C1659.28 120.055 1663.73 124.085 1667.1 128.866C1669.37 131.525 1673.11 136.205 1676.62 137.162C1681.43 138.116 1686.44 137.575 1690.9 135.62C1699.43 131.412 1709.33 130.349 1718.66 132.642C1726.58 133.648 1733.79 137.452 1738.83 143.278C1741.82 148.541 1743.33 154.437 1743.19 160.402C1743.12 163.734 1744.36 166.974 1746.66 169.505C1748.97 172.035 1752.2 173.679 1755.71 174.123C1757.76 174.511 1759.88 174.397 1761.86 173.791C1763.85 173.185 1765.63 172.109 1767.05 170.666C1767.96 169.716 1768.52 168.512 1768.64 167.236C1768.77 165.96 1768.44 164.682 1767.72 163.593C1770.55 164.685 1772.85 166.713 1774.19 169.291C1775.52 171.87 1775.8 174.819 1774.98 177.579C1773.87 180.535 1771.86 183.119 1769.2 185.01C1766.54 186.902 1763.35 188.017 1760.02 188.215C1769.05 188.852 1777.61 192.21 1784.44 197.788C1789.13 202.234 1792 208.091 1792.54 214.327C1792.62 217.17 1792.32 220.011 1791.63 222.783Z" fill="#263238"/>
<path d="M1755.26 1467.84C1756.79 1478.9 1760.13 1491.82 1762.28 1514.48C1764.44 1537.13 1759.17 1537.77 1771.63 1594.83C1779.17 1629.13 1776.67 1642.69 1753.05 1669.87C1727.78 1699.17 1703.53 1691.78 1689.37 1657.11C1677.3 1627.48 1678.88 1614.08 1680.53 1584.14C1682.17 1554.2 1682.34 1545.43 1682.23 1521.6C1682.23 1500.6 1684.78 1486.4 1684.27 1470.28L1755.26 1467.84Z" fill="#37474F"/>
<path d="M1755.32 1471.19C1755.77 1490.92 1755.32 1521.02 1757.92 1550.27C1759.96 1572.18 1765.85 1593.82 1765.29 1609.35C1765.23 1610.65 1764.84 1611.92 1764.15 1613.04C1763.45 1614.17 1762.48 1615.12 1761.32 1615.82C1760.15 1616.52 1758.82 1616.95 1757.44 1617.06C1756.06 1617.17 1754.67 1616.97 1753.39 1616.48C1735.91 1610.66 1716.79 1610.87 1699.45 1617.06C1698.19 1617.52 1696.82 1617.7 1695.47 1617.57C1694.11 1617.45 1692.81 1617.02 1691.67 1616.33C1690.52 1615.64 1689.57 1614.71 1688.88 1613.6C1688.2 1612.5 1687.8 1611.26 1687.72 1609.99C1683.59 1567.44 1684.27 1471.72 1684.27 1471.72C1676.34 1400.78 1656.68 1279.79 1654.18 1253.68C1650.44 1215.28 1641.83 1166.78 1638.94 1136.68C1636.05 1106.58 1616.9 897.373 1616.9 897.373L1764.21 703.531C1764.21 703.531 1765.85 733.259 1788.01 778.25C1817.87 838.928 1809.54 887.375 1800.36 942.417C1792.71 988.311 1771.63 1194.54 1771.63 1194.54C1771.63 1194.54 1770.61 1237.09 1772.82 1286.33C1775.54 1352.65 1754.18 1427.05 1755.32 1471.19Z" fill="#B16668"/>
<path d="M1764.21 703.426C1674.35 722.039 1589.54 726.612 1536.51 708.052C1534.81 733.632 1491.18 781.069 1436.9 856.957C1374.75 943.162 1339.28 995.757 1339.28 995.757C1316.62 1034.79 1308.35 1044.68 1330.16 1092.07C1353.73 1143.28 1424.61 1242.09 1430.95 1277.72C1432.54 1286.76 1427.9 1309.63 1422.4 1326.64C1416.9 1343.66 1407.33 1366.26 1398.26 1377.43C1398.26 1377.43 1372.03 1406.79 1378.38 1409.34C1384.72 1411.89 1443.42 1414.66 1469.03 1405.88C1494.64 1397.11 1496.28 1376.21 1503.02 1337.81C1509.76 1299.42 1514.35 1241.61 1514.35 1241.61C1510.03 1239.66 1506.36 1236.62 1503.76 1232.83C1498.09 1225.92 1491.35 1216.88 1487.16 1194.44C1482.97 1172 1475.2 1124.29 1466.37 1096.91C1461.72 1081.73 1454.96 1067.19 1446.25 1053.67L1620.3 908.01L1764.21 703.426Z" fill="#B16668"/>
<path d="M1543.25 1298.88C1542.06 1307.82 1534.52 1318.3 1531.92 1332.28C1528.61 1348.22 1527 1364.43 1527.1 1380.68V1403.33H1520.59V1362.06C1520.59 1349.46 1519.28 1340.26 1512.88 1338.93C1512.65 1338.77 1511.58 1298.88 1543.25 1298.88Z" fill="#263238"/>
<path d="M1512.65 1238.47C1517.47 1248.74 1532.54 1262.72 1539.23 1272.4C1542.63 1277.51 1544.69 1283.31 1545.23 1289.31C1545.46 1291.81 1545.13 1294.32 1544.27 1296.69C1543.41 1299.06 1542.04 1301.24 1540.25 1303.09C1533.33 1310.02 1526.94 1317.41 1521.15 1325.21C1513.79 1335.84 1500.19 1359.94 1497.02 1376.69C1493.84 1393.44 1492.26 1408.22 1477.58 1417.21C1466.25 1424.28 1418.15 1435.72 1393.67 1438.48C1360.25 1442.26 1350.73 1427.53 1362.51 1414.82C1374.3 1402.11 1394.47 1380.3 1398.15 1377.59C1408.67 1375.85 1419.48 1376.71 1429.54 1380.09C1448.75 1386.68 1455.32 1396.63 1474.52 1386.37C1491.86 1377.11 1497.19 1345.74 1493.05 1301.28C1488.35 1250.6 1512.65 1238.47 1512.65 1238.47Z" fill="#37474F"/>
<path d="M1766.65 696.99C1779.28 725.442 1791.24 741.077 1807.21 781.121C1821.6 817.178 1817.01 870.73 1800.3 964.061C1783.59 1057.39 1776.39 1194.44 1776.39 1194.44C1777.32 1245.72 1775.14 1297.02 1769.88 1348.08C1769.88 1348.08 1751.46 1360.84 1716.79 1360.84C1682.11 1360.84 1667.84 1351.11 1667.84 1351.11C1667.84 1351.11 1651.52 1248.47 1646.42 1209.49C1639.74 1158.28 1636.85 1129.4 1630.61 1066.43C1622.62 986.131 1614.69 923.166 1614.69 923.166L1451.58 1055.21C1460.03 1070.86 1466.09 1087.54 1469.59 1104.78C1475.26 1133.49 1478.32 1147.91 1478.32 1147.91C1478.32 1147.91 1453.16 1172.79 1427.05 1179.81C1411.85 1184.2 1395.61 1184.2 1380.42 1179.81C1380.42 1179.81 1330.44 1102.97 1317.36 1073.45C1304.27 1043.94 1314.64 1030.91 1327.84 1006.45C1341.04 981.983 1472.09 802.872 1497.13 769.475C1522.17 736.078 1528.86 722.889 1535.15 705.233C1535.15 705.233 1547.44 712.785 1611.29 712.147C1675.15 711.509 1766.65 696.99 1766.65 696.99Z" fill="#455A64"/>
<path d="M1451.64 1055.21C1439.32 1064.8 1423.95 1070.26 1407.95 1070.74C1407.95 1070.74 1442.46 1076.06 1456.22 1064.25L1451.64 1055.21Z" fill="#37474F"/>
<path d="M1614.75 923.166L1612.77 894.874C1598.15 889.75 1584.93 881.638 1574.06 871.125C1563.19 860.612 1554.95 847.961 1549.94 834.089C1549.94 834.089 1549.31 868.816 1590.9 900.033C1590.9 900.033 1597.92 913.328 1578.72 933.111C1559.51 952.894 1473.34 1037.61 1473.34 1037.61L1614.75 923.166Z" fill="#37474F"/>
<path d="M1783.47 577.601C1734.98 552.021 1734.81 467.997 1742.29 426.888L1689.03 421.57L1585.91 413.434C1576.17 421.836 1558.43 439.014 1516.85 490.226C1495.32 516.816 1481.1 559.36 1528.91 594.566L1535.32 635.568C1539.28 669.55 1520.59 695.023 1535.32 705.446C1549.88 720.656 1637.87 758.627 1764.27 698.799C1773.67 692.789 1767.95 685.929 1769.93 647.533C1773.17 624.021 1777.69 600.68 1783.47 577.601Z" fill="#34AD82"/>
<path opacity="0.5" d="M1783.47 577.601C1734.98 552.021 1734.81 467.997 1742.29 426.888L1689.03 421.57L1585.91 413.434C1576.17 421.836 1558.43 439.014 1516.85 490.226C1495.32 516.816 1481.1 559.36 1528.91 594.566L1535.32 635.568C1539.28 669.55 1520.59 695.023 1535.32 705.446C1549.88 720.656 1637.87 758.627 1764.27 698.799C1773.67 692.789 1767.95 685.929 1769.93 647.533C1773.17 624.021 1777.69 600.68 1783.47 577.601Z" fill="white"/>
<path d="M1694.3 357.435C1699.96 335.791 1717.64 305.318 1721.38 272.825C1725.12 240.332 1724.55 212.572 1690.1 189.173C1677.91 180.811 1664.04 174.839 1649.33 171.614C1634.63 168.389 1619.38 167.976 1604.49 170.4C1589.14 173.165 1571.58 186.354 1571.58 186.354L1694.3 357.435Z" fill="#34AD82"/>
<path d="M1537.98 243.257C1531.8 229.803 1534.07 190.077 1571.58 186.674C1571.58 186.674 1622.12 169.071 1666.02 200.128C1678.69 208.948 1688.91 220.502 1695.81 233.814C1702.72 247.125 1706.1 261.802 1705.68 276.601L1695.2 333.185L1694.41 352.33L1537.98 243.257Z" fill="#263238"/>
<path d="M1558.6 204.648C1550.5 208.85 1534.64 221.772 1533.62 293.566C1532.71 354.404 1552.26 370.092 1562.23 374.772C1572.2 379.452 1591.8 377.484 1610.95 374.772L1609.48 418.592C1609.48 418.592 1586.19 439.864 1598.15 459.754C1600.59 463.796 1589.42 510.754 1594.35 512.243C1599.28 513.732 1616.28 466.986 1623.13 465.923C1634.47 464.168 1646.7 463.849 1657.92 456.776C1687.78 437.95 1691.58 423.325 1691.58 423.325L1695.43 332.919C1695.43 332.919 1706.19 343.927 1725.74 328.399C1741.89 315.529 1748.06 293.193 1736.33 280.537C1733.31 277.569 1729.56 275.342 1725.41 274.052C1721.26 272.761 1716.83 272.446 1712.52 273.133C1708.21 273.821 1704.15 275.49 1700.68 277.996C1697.22 280.501 1694.46 283.765 1692.65 287.503C1656.28 287.503 1669.99 202.415 1632.09 214.54C1589.93 228.314 1562.06 228.048 1558.6 204.648Z" fill="#B16668"/>
<path d="M1692.65 280.483L1692.03 306.223C1690.27 306.232 1688.54 305.905 1686.92 305.263C1685.3 304.62 1683.84 303.676 1682.63 302.486C1681.42 301.297 1680.47 299.888 1679.86 298.345C1679.24 296.802 1678.97 295.158 1679.06 293.513C1679.12 290.123 1680.57 286.886 1683.1 284.464C1685.63 282.042 1689.04 280.618 1692.65 280.483Z" fill="#263238"/>
<path d="M1563.99 276.176C1563.95 277.613 1563.47 279.01 1562.6 280.192C1561.73 281.374 1560.5 282.29 1559.08 282.825C1557.66 283.361 1556.1 283.493 1554.6 283.205C1553.1 282.916 1551.72 282.221 1550.64 281.204C1549.56 280.187 1548.82 278.894 1548.51 277.486C1548.2 276.077 1548.34 274.615 1548.91 273.281C1549.48 271.947 1550.46 270.799 1551.72 269.981C1552.98 269.162 1554.47 268.709 1556 268.678C1558.11 268.691 1560.13 269.486 1561.63 270.889C1563.12 272.292 1563.97 274.192 1563.99 276.176Z" fill="#263238"/>
<path d="M1628.23 277.346C1628.2 278.792 1627.71 280.197 1626.83 281.384C1625.95 282.571 1624.71 283.487 1623.28 284.016C1621.84 284.546 1620.27 284.665 1618.77 284.36C1617.26 284.055 1615.88 283.338 1614.81 282.3C1613.74 281.263 1613.01 279.95 1612.73 278.528C1612.45 277.105 1612.62 275.636 1613.23 274.305C1613.83 272.975 1614.84 271.841 1616.13 271.048C1617.42 270.255 1618.93 269.837 1620.47 269.848C1622.55 269.903 1624.53 270.717 1625.97 272.118C1627.42 273.518 1628.23 275.394 1628.23 277.346Z" fill="#263238"/>
<path d="M1611.97 329.887L1590.27 335.844C1590.56 337.233 1591.16 338.552 1592.01 339.718C1592.87 340.884 1593.97 341.872 1595.25 342.62C1596.53 343.368 1597.96 343.861 1599.46 344.068C1600.95 344.274 1602.47 344.19 1603.93 343.821C1606.9 342.89 1609.39 340.933 1610.88 338.346C1612.38 335.758 1612.77 332.735 1611.97 329.887Z" fill="#9A4A4D"/>
<path d="M1543.25 257.51L1559.51 247.352C1558.92 246.297 1558.1 245.37 1557.11 244.632C1556.11 243.895 1554.96 243.363 1553.73 243.072C1552.5 242.781 1551.22 242.737 1549.97 242.943C1548.72 243.149 1547.53 243.6 1546.48 244.268C1544.3 245.719 1542.77 247.87 1542.18 250.311C1541.58 252.753 1541.96 255.315 1543.25 257.51Z" fill="#263238"/>
<path d="M1634.41 258.626L1618.15 248.575C1618.74 247.518 1619.57 246.59 1620.57 245.852C1621.57 245.115 1622.72 244.583 1623.96 244.292C1625.19 244.001 1626.48 243.957 1627.73 244.164C1628.99 244.37 1630.18 244.822 1631.24 245.49C1633.39 246.931 1634.91 249.067 1635.49 251.49C1636.08 253.913 1635.69 256.453 1634.41 258.626Z" fill="#263238"/>
<path d="M1589.14 269.847L1587.67 319.677L1563.19 311.328L1589.14 269.847Z" fill="#9A4A4D"/>
<path d="M1611.24 375.037C1631.29 373.176 1671.63 360.785 1679.96 347.331C1677.11 355.224 1671.8 362.133 1664.72 367.167C1652.03 377.005 1610.9 387.322 1610.9 387.322L1611.24 375.037Z" fill="#9A4A4D"/>
<path d="M1841.94 802.394C1841.2 801.977 1840.35 801.757 1839.48 801.757C1838.61 801.757 1837.76 801.977 1837.01 802.394L1671.69 892.056L1681.21 1020.59L1846.53 930.984C1850.78 929.175 1853.78 921.092 1853.78 909.711V836.11C1853.78 821.06 1848.46 805.957 1841.94 802.394Z" fill="#34AD82"/>
<path opacity="0.3" d="M1747.21 850.894C1751.35 848.607 1757.64 853.128 1752.88 872.592C1748.12 892.055 1734.07 939.599 1736.5 951.245C1738.94 962.892 1740.98 967.784 1751.01 953.532C1761.04 939.279 1777.35 834.089 1777.35 834.089L1747.21 850.894Z" fill="black"/>
<path d="M1676.62 892.056C1683.13 895.619 1688.4 910.669 1688.4 925.772V999.214C1688.4 1014.26 1683.13 1023.62 1676.62 1020.06C1670.1 1016.5 1664.78 1001.45 1664.78 986.397V912.902C1664.78 897.852 1670.1 888.493 1676.62 892.056Z" fill="#34AD82"/>
<path opacity="0.3" d="M1676.62 892.056C1683.13 895.619 1688.4 910.669 1688.4 925.772V999.214C1688.4 1014.26 1683.13 1023.62 1676.62 1020.06C1670.1 1016.5 1664.78 1001.45 1664.78 986.397V912.902C1664.78 897.852 1670.1 888.493 1676.62 892.056Z" fill="black"/>
<path opacity="0.3" d="M1688.4 933.536C1688.4 943.8 1749.65 929.228 1771.07 917.582C1792.48 905.935 1853.79 859.988 1853.79 847.171V853.606C1853.79 853.606 1832.48 888.386 1774.75 919.549C1717.02 950.713 1688.4 936.939 1688.4 936.939V933.536Z" fill="black"/>
<path d="M1771.8 905.457C1775.94 903.223 1779.28 906.893 1779.28 913.594C1779.38 916.608 1778.76 919.606 1777.47 922.366C1776.17 925.127 1774.24 927.581 1771.8 929.548C1767.72 931.781 1764.38 928.165 1764.38 921.464C1764.28 918.447 1764.89 915.446 1766.18 912.679C1767.46 909.911 1769.38 907.444 1771.8 905.457Z" fill="#FAFAFA"/>
<path d="M1742.29 428.271C1784.83 434.12 1810.27 444.597 1823.93 477.622C1837.58 510.647 1876.85 623.017 1884.95 646.416C1893.05 669.815 1890.61 680.292 1880.02 703.425C1873.26 717.925 1866.59 732.461 1860.02 747.033C1851.24 766.337 1834.13 796.597 1831.12 804.201C1828.27 812.797 1827.06 821.8 1827.55 830.792C1827.98 839.471 1827.64 848.17 1826.53 856.797C1825.11 867.068 1822.14 877.096 1817.7 886.578C1814.64 893.172 1812.6 900.351 1809.08 906.68C1806.03 910.989 1802.5 914.983 1798.55 918.592C1794.69 923.006 1793.16 928.696 1788.46 932.578C1780.25 939.332 1771.8 940.024 1764.15 943.214C1760.7 947.575 1754.81 956.829 1751.01 960.87C1741.27 971.506 1739.68 953.744 1740.25 947.841C1741 941.484 1742.5 935.223 1744.72 929.175C1750.05 914 1754.46 898.553 1757.92 882.908C1759.06 877.59 1766.25 842.544 1751.46 848.766L1724.55 863.125C1725.68 852.808 1734.24 841.534 1755.66 816.007C1777.07 790.481 1804.49 669.656 1804.49 669.656L1763.98 573.931C1745.3 548.882 1734.11 519.593 1731.58 489.109C1729.14 441.725 1742.29 428.271 1742.29 428.271Z" fill="#B16668"/>
<path d="M1742.28 426.889C1763.36 429.175 1792.48 432.207 1808.8 450.128C1825.12 468.05 1827.16 475.283 1849.48 537.025C1871.8 598.767 1887.89 645.459 1889.76 654.021C1891.63 662.583 1895.43 676.038 1878.43 706.138C1878.43 706.138 1869.54 695.502 1842.74 688.269C1815.94 681.037 1800.81 684.493 1800.81 684.493L1803.53 669.55L1757.86 572.496C1739.25 545.278 1729.3 513.636 1729.2 481.292C1729.42 439.226 1742.28 426.889 1742.28 426.889Z" fill="#34AD82"/>
<path opacity="0.6" d="M1742.28 426.889C1763.36 429.175 1792.48 432.207 1808.8 450.128C1825.12 468.05 1827.16 475.283 1849.48 537.025C1871.8 598.767 1887.89 645.459 1889.76 654.021C1891.63 662.583 1895.43 676.038 1878.43 706.138C1878.43 706.138 1869.54 695.502 1842.74 688.269C1815.94 681.037 1800.81 684.493 1800.81 684.493L1803.53 669.55L1757.86 572.496C1739.25 545.278 1729.3 513.636 1729.2 481.292C1729.42 439.226 1742.28 426.889 1742.28 426.889Z" fill="white"/>
<path d="M1801.04 684.653L1791.18 722.304C1816.63 721.559 1841.46 729.751 1860.81 745.278L1878.66 706.297C1878.66 706.297 1875.2 697.416 1844.66 688.535C1814.12 679.654 1801.04 684.653 1801.04 684.653Z" fill="#34AD82"/>
<path opacity="0.85" d="M1801.04 684.653L1791.18 722.304C1816.63 721.559 1841.46 729.751 1860.81 745.278L1878.66 706.297C1878.66 706.297 1875.2 697.416 1844.66 688.535C1814.12 679.654 1801.04 684.653 1801.04 684.653Z" fill="white"/>
<path d="M1656.8 519.795C1654.85 519.797 1652.99 520.418 1651.62 521.521C1650.25 522.624 1649.48 524.119 1649.48 525.677C1649.48 527.235 1650.25 528.729 1651.63 529.83C1653 530.931 1654.87 531.549 1656.81 531.548C1658.75 531.547 1660.62 530.928 1661.99 529.826C1663.36 528.724 1664.13 527.229 1664.13 525.671V525.66C1664.13 524.102 1663.35 522.609 1661.98 521.509C1660.6 520.409 1658.74 519.793 1656.8 519.795ZM1632.62 533.368C1631.33 533.374 1630.02 533.432 1628.8 533.68C1627.99 533.844 1627.2 534.115 1626.7 534.535C1626.06 535.062 1625.98 535.777 1626.29 536.387C1626.57 536.925 1627.31 537.328 1628.15 537.559C1629.94 538.051 1631.93 538.156 1633.82 538.466C1634.17 538.534 1634.55 538.61 1634.77 538.8C1634.99 539.026 1634.86 539.338 1634.49 539.481C1633.88 539.731 1633.1 539.732 1632.38 539.724C1631.73 539.702 1631.02 539.658 1630.5 539.397C1630.12 539.208 1630.05 538.888 1630.14 538.613H1625.93C1625.92 539.127 1626.05 539.663 1626.52 540.103C1626.91 540.479 1627.54 540.745 1628.22 540.904C1629.31 541.161 1630.49 541.238 1631.65 541.262C1633.22 541.283 1634.83 541.246 1636.34 540.959C1637.24 540.783 1638.12 540.498 1638.7 540.037C1639.73 539.212 1639.48 537.906 1638.12 537.265C1637.44 536.948 1636.63 536.752 1635.8 536.625C1634.59 536.423 1633.36 536.276 1632.13 536.114C1631.7 536.047 1631.25 535.987 1630.88 535.824C1630.5 535.661 1630.47 535.276 1630.86 535.108C1631.36 534.882 1632.03 534.883 1632.62 534.883C1633.25 534.892 1633.94 534.924 1634.46 535.161C1634.58 535.215 1634.69 535.296 1634.76 535.395C1634.83 535.493 1634.87 535.606 1634.87 535.72L1638.86 535.712C1638.85 535.307 1638.75 534.884 1638.38 534.534C1637.95 534.102 1637.2 533.83 1636.42 533.671C1635.2 533.424 1633.9 533.373 1632.62 533.368ZM1641.29 533.61L1641.29 541.268H1652.94V539.599H1645.56V538.112H1652.14V536.48H1645.56L1645.56 535.262L1652.68 535.26L1652.67 533.61H1641.29ZM1660.49 533.613L1655.09 533.614L1655.09 541.271H1659.18L1659.18 536.119L1664.78 541.268L1670.4 541.272L1670.4 533.614L1666.3 533.615L1666.31 538.731L1660.49 533.613ZM1677.69 533.626C1677.69 533.626 1673.28 538.734 1671.07 541.285H1675.36L1676.39 539.903H1683.03L1683.99 541.285L1688.76 541.285L1682.44 533.627L1677.69 533.626ZM1679.84 535.454L1681.87 538.228L1677.66 538.233L1679.84 535.454ZM1622.57 543.434L1622.61 547.601L1642.03 547.547C1643.02 547.717 1643.6 548.235 1643.39 549.41L1631.45 566.181L1635.34 569.098L1653.84 543.433L1622.57 543.434ZM1659.63 543.469L1677.83 569.025L1681.85 566.127L1669.77 549.399C1669.56 548.22 1670.14 547.697 1671.13 547.526L1690.56 547.581L1690.55 543.482L1659.63 543.469ZM1656.56 547.698L1639.5 571.187L1644.03 572.957L1655.42 557.525C1655.81 557.267 1656.21 557.131 1656.6 557.117C1657.02 557.105 1657.45 557.229 1657.87 557.495L1669.23 572.975L1673.91 571.019L1656.56 547.698Z" fill="#030F1C"/>
</svg>
