<svg width="817" height="758" viewBox="0 0 817 758" fill="none" xmlns="http://www.w3.org/2000/svg">
<path d="M734.869 458.405C727.734 459.611 714.365 468.801 714.348 468.801C714.331 468.801 723.08 475.783 723.691 476.157C730.741 480.438 746.896 484.566 753.878 478.501C755.01 477.465 755.911 476.201 756.523 474.794C757.135 473.386 757.444 471.865 757.429 470.33C757.415 468.795 757.077 467.281 756.439 465.885C755.801 464.489 754.876 463.243 753.725 462.227C748.968 457.76 740.95 457.369 734.869 458.405Z" fill="#34AD82"/>
<path d="M704.461 422.154C698.159 425.076 688.34 436.509 687.559 437.443C681.031 431.815 674.136 426.628 666.919 421.916C662.723 419.147 658.425 416.497 654.076 413.881C656.234 414.782 658.17 415.58 658.459 415.58C666.392 417.839 683.057 417.568 688.204 409.889C689.023 408.59 689.559 407.133 689.778 405.612C689.997 404.092 689.893 402.543 689.473 401.065C689.053 399.588 688.327 398.215 687.341 397.037C686.356 395.859 685.133 394.901 683.753 394.227C677.995 391.169 670.164 392.919 664.558 395.518C658.952 398.117 650.322 407.732 648.08 410.297C646.381 409.312 644.682 408.309 642.984 407.341C634.915 402.636 626.829 397.998 619.049 393.191C616.297 391.492 613.664 389.793 611.014 387.993C612.933 388.774 614.564 389.437 614.819 389.504C622.752 391.781 639.416 391.492 644.547 383.814C645.366 382.514 645.902 381.057 646.121 379.537C646.339 378.016 646.235 376.467 645.815 374.99C645.395 373.512 644.669 372.14 643.684 370.962C642.698 369.783 641.476 368.826 640.096 368.151C634.337 365.094 626.506 366.843 620.917 369.442C615.328 372.041 607.514 380.722 604.847 383.763C602.18 381.877 599.513 380.009 597.033 378.055C595.334 376.696 593.635 375.507 592.056 374.029L587.248 369.833C584.292 367.047 581.235 364.193 578.415 361.339C576.444 359.42 574.61 357.551 572.741 355.666C575.459 357.364 580.827 360.626 581.32 360.847C588.811 364.244 605.323 366.538 611.574 359.726C612.58 358.565 613.33 357.205 613.775 355.735C614.22 354.265 614.351 352.717 614.159 351.193C613.967 349.669 613.456 348.203 612.659 346.89C611.862 345.576 610.798 344.445 609.536 343.571C604.321 339.664 596.302 340.173 590.374 341.872C583.868 343.758 572.826 353.135 571.467 354.324C568.392 351.198 565.436 348.14 562.684 345.201C556.62 338.729 551.354 332.818 546.988 327.738L541.892 331.136C546.529 336.232 552.169 342.382 558.726 349.058C561.818 352.234 565.199 355.581 568.715 358.978C566.029 362.786 563.584 366.757 561.393 370.869C554.598 369.171 541.195 370.784 539.48 371.005C538.63 366.707 537.781 362.512 537.186 358.553C535.776 350.264 534.689 342.806 533.789 336.385L528.302 339.969C529.219 345.796 530.341 352.353 531.7 359.539C532.532 363.905 533.517 368.559 534.553 373.316C532.855 373.961 519.418 379.329 514.695 384.221C510.414 388.638 506.201 395.484 507.187 401.922C507.369 403.446 507.87 404.915 508.658 406.232C509.446 407.55 510.503 408.686 511.759 409.568C513.016 410.449 514.444 411.056 515.951 411.349C517.458 411.641 519.01 411.613 520.505 411.265C529.44 408.938 535.182 393.293 535.658 385.054C535.658 384.561 535.386 379.261 535.148 375.915C535.59 377.851 535.997 379.754 536.473 381.741C537.39 385.699 538.427 389.623 539.514 393.836C540.108 395.858 540.72 397.896 541.331 399.952C541.943 402.007 542.758 404.114 543.455 406.22C545.153 411.061 547.192 415.869 549.315 420.676C545.918 421.492 533.619 424.549 528.676 428.287C523.732 432.024 518.483 438.139 518.568 444.662C518.518 446.197 518.792 447.724 519.372 449.145C519.953 450.566 520.826 451.849 521.935 452.91C523.044 453.971 524.364 454.787 525.81 455.303C527.255 455.82 528.793 456.026 530.324 455.908C539.514 454.957 547.566 440.365 549.281 432.296C549.383 431.786 549.961 425.857 550.199 422.596C551.507 425.484 552.781 428.355 554.191 431.225C558.268 439.515 562.684 447.788 566.948 456.044C568.29 458.575 569.581 461.14 570.872 463.654C569.649 463.926 555.006 467.239 549.485 471.435C544.576 475.172 539.293 481.287 539.378 487.81C539.325 489.345 539.597 490.874 540.177 492.296C540.756 493.719 541.629 495.003 542.738 496.064C543.848 497.126 545.17 497.941 546.616 498.457C548.063 498.972 549.602 499.177 551.133 499.056C560.323 498.105 568.358 483.513 570.074 475.444C570.193 474.832 571.008 466.304 571.11 464.113C573.981 469.702 576.784 475.291 579.332 480.914C582.887 488.522 585.945 496.353 588.488 504.356C587.911 504.492 572.622 507.889 566.965 512.17C562.056 515.907 556.773 522.023 556.773 528.546C556.723 530.08 556.997 531.608 557.577 533.029C558.157 534.45 559.03 535.733 560.139 536.794C561.248 537.855 562.569 538.67 564.014 539.187C565.46 539.703 566.998 539.91 568.528 539.792C577.718 538.84 585.77 524.248 587.486 516.179C587.605 515.551 588.488 506.361 588.522 504.679C588.658 505.137 588.862 505.613 588.998 506.072C591.249 514.126 592.783 522.363 593.584 530.687C594.077 535.29 594.281 539.707 594.4 544.005C591.478 544.344 578.194 546.043 572.673 549.339C567.152 552.634 561.529 558.019 560.782 564.508C560.569 566.027 560.678 567.573 561.1 569.047C561.523 570.521 562.25 571.889 563.234 573.065C564.219 574.24 565.439 575.195 566.817 575.869C568.194 576.543 569.697 576.921 571.229 576.977C580.47 576.977 590.085 563.387 592.667 555.59C592.803 555.165 593.754 550.664 594.366 547.385C594.366 549.322 594.366 551.326 594.366 553.195C594.366 560.177 593.856 566.581 593.381 572.238C593.092 575.448 592.769 578.353 592.429 581.071C589.745 582.906 579.026 590.397 575.714 595.765C572.401 601.133 569.802 608.591 572.18 614.672C572.685 616.122 573.49 617.45 574.543 618.568C575.595 619.686 576.871 620.569 578.289 621.161C579.706 621.752 581.231 622.038 582.766 622C584.301 621.962 585.811 621.601 587.197 620.94C595.436 616.728 597.678 600.216 596.353 592.062C596.235 591.348 593.194 580.544 593.058 580.646L592.888 580.748C593.262 578.149 593.635 575.346 593.975 572.255C594.57 566.581 595.181 560.177 595.385 553.178C595.685 545.617 595.543 538.044 594.96 530.5C594.343 522.055 592.979 513.681 590.884 505.477C590.884 505.375 590.884 505.29 590.884 505.188C592.327 507.482 596.574 513.682 596.948 514.192C602.316 520.46 616.382 529.48 624.909 525.845C626.308 525.213 627.558 524.294 628.578 523.147C629.597 521.999 630.364 520.65 630.827 519.187C631.29 517.723 631.44 516.179 631.266 514.654C631.092 513.129 630.599 511.657 629.819 510.336C626.71 504.611 619.201 501.74 613.103 500.823C606.308 499.786 591.733 503.914 590.578 504.22C588.24 495.928 585.351 487.802 581.931 479.894C579.961 475.274 577.837 470.67 575.646 466.101C576.954 468.037 578.143 469.77 578.33 469.991C583.698 476.259 597.763 485.279 606.274 481.644C607.674 481.014 608.926 480.096 609.948 478.949C610.969 477.802 611.737 476.453 612.202 474.99C612.667 473.526 612.818 471.981 612.645 470.455C612.473 468.93 611.98 467.457 611.2 466.135C608.092 460.393 600.583 457.539 594.485 456.605C588.386 455.67 575.799 458.949 572.605 459.849C571.739 458.15 570.906 456.35 570.04 454.617C565.878 446.242 561.699 437.919 557.86 429.612C556.501 426.69 555.278 423.768 554.038 420.829C555.193 422.528 556.195 423.989 556.365 424.227C561.733 430.495 575.799 439.515 584.326 435.897C585.726 435.263 586.976 434.342 587.996 433.193C589.016 432.045 589.782 430.694 590.245 429.229C590.708 427.764 590.858 426.219 590.684 424.692C590.51 423.166 590.017 421.693 589.236 420.371C586.127 414.646 578.619 411.775 572.52 410.858C566.422 409.94 555.125 412.879 551.218 413.949C550.046 410.909 548.857 407.868 547.821 404.878C547.175 402.823 546.411 400.886 545.884 398.78C545.357 396.673 544.763 394.652 544.185 392.613C543.251 388.655 542.283 384.595 541.467 380.722C540.89 378.038 540.38 375.456 539.87 372.857C541.178 375.796 543.879 381.469 544.151 381.911C548.218 387.927 553.756 392.804 560.238 396.079C560.656 396.769 561.139 397.418 561.682 398.015C562.677 399.185 563.907 400.133 565.292 400.796C566.676 401.459 568.186 401.824 569.721 401.865C571.256 401.907 572.782 401.625 574.201 401.038C575.62 400.451 576.9 399.571 577.956 398.457C584.123 391.577 580.283 375.371 576.121 368.236C575.884 367.812 572.724 363.548 570.669 360.898C572.112 362.274 573.488 363.633 574.983 365.026C577.939 367.829 580.963 370.53 584.19 373.519L589.083 377.613C590.697 379.023 592.565 380.297 594.315 381.656C598.443 384.731 602.809 387.653 607.191 390.49C604.745 393.072 596.218 402.381 594.162 408.225C592.107 414.068 591.155 422.018 594.757 427.454C595.564 428.76 596.637 429.881 597.905 430.745C599.174 431.609 600.61 432.197 602.12 432.471C603.63 432.745 605.181 432.699 606.672 432.335C608.163 431.971 609.561 431.298 610.776 430.359C617.927 424.481 616.585 407.868 613.545 400.206C613.358 399.714 610.572 394.465 608.975 391.594C611.642 393.293 614.309 394.991 617.061 396.588C625.028 401.277 633.233 405.744 641.404 410.263C643.901 411.639 646.381 413.049 648.861 414.442C647.995 415.342 637.616 426.197 635.272 432.737C633.233 438.547 632.248 446.531 635.866 451.967C636.672 453.272 637.743 454.393 639.01 455.257C640.277 456.121 641.711 456.709 643.22 456.983C644.729 457.257 646.279 457.211 647.769 456.847C649.258 456.483 650.655 455.81 651.868 454.872C659.02 448.994 657.678 432.381 654.654 424.719C654.416 424.142 650.39 416.565 649.269 414.697C654.739 417.771 660.158 420.88 665.39 424.176C672.461 428.589 679.242 433.452 685.69 438.734C685.282 439.159 674.393 450.421 672.1 457.131C670.062 462.941 669.076 470.925 672.695 476.361C673.502 477.667 674.575 478.789 675.844 479.653C677.113 480.517 678.549 481.104 680.06 481.377C681.571 481.649 683.123 481.6 684.614 481.234C686.104 480.867 687.501 480.191 688.714 479.249C695.848 473.388 694.506 456.774 691.483 449.096C691.245 448.502 686.896 440.365 686.013 438.904L687.168 439.804C693.486 445.282 699.302 451.314 704.546 457.828C707.485 461.395 710.101 464.962 712.564 468.479C710.322 470.364 700.18 479.13 697.394 484.923C694.608 490.715 692.876 498.309 695.882 504.101C696.539 505.489 697.48 506.723 698.645 507.723C699.81 508.722 701.173 509.465 702.644 509.903C704.115 510.34 705.663 510.463 707.184 510.262C708.706 510.062 710.169 509.543 711.477 508.739C719.223 503.643 719.716 487.046 717.541 479.079C717.422 478.637 715.741 474.373 714.467 471.282C715.554 472.895 716.709 474.526 717.728 476.089C721.533 481.95 724.676 487.539 727.411 492.533C728.94 495.37 730.265 497.969 731.488 500.415C730.248 503.422 725.44 515.585 725.644 521.904C725.848 528.223 727.802 535.851 733.119 539.622C734.342 540.55 735.747 541.21 737.242 541.559C738.737 541.908 740.289 541.939 741.797 541.649C743.305 541.359 744.735 540.755 745.993 539.876C747.252 538.997 748.312 537.863 749.104 536.547C753.656 528.512 746.42 513.495 740.814 507.431C740.338 506.904 731.828 499.566 731.777 499.719L731.692 499.905C730.571 497.527 729.331 494.996 727.938 492.244C725.305 487.148 722.281 481.525 718.578 475.562C714.662 469.087 710.368 462.847 705.718 456.876C700.556 450.148 694.803 443.894 688.527 438.19L688.289 438.003C690.752 439.125 697.751 442.012 698.312 442.165C706.245 444.442 722.909 444.153 728.057 436.475C728.876 435.175 729.412 433.718 729.63 432.198C729.849 430.677 729.745 429.128 729.325 427.651C728.905 426.173 728.179 424.801 727.194 423.622C726.208 422.444 724.986 421.487 723.606 420.812C717.898 417.805 710.05 419.606 704.461 422.154Z" fill="#34AD82"/>
<path d="M595.623 545.313C595.453 545.313 599.021 555.947 599.36 556.592C602.877 564.05 614.071 576.4 623.228 575.278C624.736 575.037 626.178 574.482 627.459 573.65C628.74 572.818 629.833 571.726 630.666 570.446C631.5 569.166 632.056 567.725 632.3 566.217C632.543 564.708 632.467 563.166 632.078 561.688C630.583 555.335 624.111 550.579 618.488 548.099C611.846 544.956 595.623 545.313 595.623 545.313Z" fill="#34AD82"/>
<path d="M231.074 180.084C236.171 177.196 243.628 166.494 243.628 166.494C243.628 166.494 235.134 163.657 234.557 163.555C228.068 162.298 214.767 163.674 211.182 170.164C210.618 171.259 210.29 172.461 210.221 173.691C210.151 174.921 210.341 176.152 210.778 177.304C211.216 178.456 211.891 179.503 212.759 180.377C213.628 181.251 214.671 181.933 215.82 182.377C220.644 184.535 226.794 182.581 231.074 180.084Z" fill="#34AD82"/>
<path d="M264.03 198.957C267.954 194.999 272.167 183.669 272.523 182.768C278.997 185.191 285.625 187.178 292.365 188.714C296.289 189.631 300.281 190.413 304.256 191.194C302.387 191.194 300.705 191.058 300.468 191.075C293.86 191.585 281.408 196.426 279.658 203.629C279.407 204.835 279.411 206.08 279.671 207.284C279.932 208.488 280.442 209.624 281.169 210.618C281.896 211.612 282.823 212.443 283.892 213.056C284.96 213.669 286.145 214.052 287.37 214.178C292.551 214.891 297.97 211.392 301.453 207.876C304.935 204.359 308.774 194.727 309.743 192.179L314.346 193.012C321.736 194.286 329.108 195.543 336.311 196.987C338.842 197.496 341.322 198.091 343.802 198.685C342.104 198.685 340.728 198.583 340.507 198.685C333.916 199.178 321.447 204.019 319.714 211.239C319.46 212.444 319.462 213.689 319.72 214.893C319.978 216.097 320.487 217.233 321.212 218.228C321.938 219.222 322.865 220.053 323.932 220.667C325 221.28 326.185 221.662 327.41 221.788C332.608 222.485 338.01 218.985 341.509 215.486C345.008 211.986 348.457 203.255 349.612 200.197C352.143 200.877 354.708 201.539 357.087 202.321C358.785 202.881 360.331 203.306 361.945 204.019L366.735 205.854C369.725 207.128 372.834 208.419 375.722 209.744C377.743 210.645 379.646 211.443 381.565 212.428C379.051 211.902 374.108 210.95 373.683 210.916C367.075 210.407 354.029 213.312 351.209 220.174C350.774 221.328 350.587 222.56 350.661 223.79C350.734 225.02 351.066 226.221 351.635 227.315C352.204 228.408 352.998 229.369 353.963 230.135C354.929 230.901 356.045 231.454 357.239 231.76C362.336 233.255 368.128 230.622 372.12 227.683C376.486 224.438 382.194 214.314 382.89 213.04C386.067 214.535 389.142 216.029 392.03 217.473C398.4 220.65 403.921 223.64 408.694 226.239L411.599 222.332C406.673 219.733 400.744 216.726 393.949 213.515C390.738 211.986 387.256 210.407 383.672 208.827C384.627 205.216 385.364 201.552 385.88 197.853C391.435 197.241 401.169 192.298 402.341 191.653C404.159 194.642 405.908 197.581 407.437 200.384C410.835 206.228 413.688 211.545 416.101 216.148L419.226 211.919C416.933 207.791 414.249 203.17 411.208 198.142C409.374 195.101 407.352 191.873 405.229 188.578C406.299 187.627 414.945 179.829 417.12 174.852C419.107 170.316 420.398 163.997 417.85 159.428C417.295 158.326 416.514 157.353 415.558 156.574C414.601 155.795 413.491 155.226 412.3 154.905C411.108 154.585 409.863 154.519 408.644 154.713C407.426 154.907 406.262 155.356 405.229 156.03C399.147 160.277 399.164 173.646 401.118 179.982C401.22 180.356 402.918 184.263 404.023 186.777C403.156 185.435 402.324 184.127 401.407 182.768C399.708 180.033 397.754 177.366 395.767 174.495L392.692 170.401C391.707 169.008 390.467 167.666 389.295 166.273C386.628 163.114 383.791 160.056 380.801 157.015C383.179 155.453 391.554 149.745 394.221 145.549C396.888 141.353 399.113 135.356 397.279 130.43C396.889 129.261 396.258 128.188 395.427 127.279C394.596 126.37 393.582 125.646 392.453 125.154C391.323 124.662 390.103 124.413 388.871 124.424C387.639 124.434 386.423 124.704 385.303 125.215C378.66 128.494 376.656 141.71 377.607 148.267C377.607 148.675 378.881 153.363 379.612 155.826C377.828 154.026 376.061 152.208 374.21 150.441C368.842 145.345 363.253 140.249 357.698 135.305L352.602 130.668C353.451 130.124 363.542 123.55 366.548 118.862C369.199 114.7 371.424 108.669 369.606 103.726C369.214 102.57 368.584 101.508 367.758 100.608C366.932 99.7089 365.927 98.9917 364.808 98.5026C363.689 98.0134 362.48 97.763 361.259 97.7673C360.037 97.7717 358.831 98.0307 357.715 98.5278C351.056 101.806 349.051 115.023 350.02 121.58C350.02 122.072 351.854 128.714 352.381 130.379C348.661 126.982 345.008 123.584 341.526 120.017C336.89 115.238 332.566 110.165 328.582 104.83C328.972 104.575 339.539 97.7634 342.613 92.939C345.263 88.7771 347.489 82.7466 345.671 77.8202C345.28 76.6623 344.652 75.5987 343.826 74.6974C343.001 73.7962 341.996 73.0771 340.877 72.5863C339.758 72.0954 338.549 71.8436 337.327 71.8468C336.104 71.85 334.896 72.1083 333.78 72.6051C327.121 75.8837 325.133 89.0998 326.085 95.657C326.085 96.1666 328.055 103.318 328.497 104.592C328.259 104.287 327.987 103.998 327.749 103.675C323.846 98.236 320.435 92.4601 317.557 86.4158C315.858 83.0184 314.516 79.8247 313.242 76.6311C315.332 75.5609 324.861 70.5836 328.106 66.5576C331.351 62.5316 334.086 56.9427 332.812 51.8635C332.554 50.6586 332.046 49.5215 331.319 48.5264C330.593 47.5313 329.665 46.7004 328.596 46.0881C327.527 45.4758 326.34 45.0958 325.114 44.9728C323.889 44.8498 322.65 44.9866 321.481 45.3743C314.499 47.8885 311.068 60.8159 311.289 67.4579C311.289 67.8147 311.832 71.45 312.257 74.1C311.696 72.6391 311.102 71.1612 310.558 69.7512C308.656 64.4682 307.161 59.5588 306.005 55.1421C305.343 52.6449 304.765 50.3686 304.307 48.2282C305.819 46.1048 311.815 37.4922 312.8 32.5149C313.786 27.5376 313.667 21.2183 310.201 17.2263C309.417 16.2774 308.441 15.5042 307.338 14.9568C306.235 14.4094 305.03 14.1 303.799 14.0488C302.569 13.9975 301.342 14.2055 300.197 14.6593C299.052 15.113 298.016 15.8024 297.155 16.6827C292.059 22.1356 295.032 35.1819 298.276 40.9576C298.565 41.4503 303.865 48.7379 303.933 48.6359L304.035 48.5C304.477 50.5725 304.969 52.7639 305.564 55.1761C306.685 59.6098 308.01 64.5871 309.811 69.9211C311.683 75.7067 313.889 81.3787 316.419 86.9085C319.233 93.0973 322.587 99.0262 326.441 104.626L326.594 104.813C324.895 103.488 319.935 99.9548 319.527 99.717C313.735 96.5063 300.671 93.6694 295.252 98.7147C294.375 99.5791 293.69 100.618 293.24 101.765C292.791 102.912 292.587 104.14 292.643 105.37C292.699 106.601 293.014 107.805 293.565 108.906C294.117 110.007 294.895 110.98 295.847 111.761C299.788 115.158 306.243 115.277 311.136 114.275C316.589 113.154 326.424 106.019 327.138 105.442C331.203 111.04 335.642 116.357 340.422 121.359C343.174 124.298 346.062 127.152 348.916 129.988C347.387 128.901 346.011 127.933 345.807 127.814C340.014 124.586 326.951 121.75 321.532 126.812C320.655 127.676 319.969 128.715 319.52 129.862C319.07 131.009 318.867 132.237 318.923 133.467C318.979 134.698 319.293 135.902 319.845 137.003C320.397 138.104 321.174 139.077 322.126 139.858C326.068 143.256 332.523 143.374 337.415 142.372C342.307 141.37 350.767 135.441 352.993 133.879L356.39 137.106C361.843 142.202 367.296 147.299 372.494 152.548C374.346 154.365 376.078 156.234 377.828 158.086C376.469 157.117 375.314 156.302 375.127 156.2C369.351 152.972 356.271 150.152 350.852 155.198C349.976 156.063 349.291 157.104 348.843 158.251C348.395 159.398 348.194 160.627 348.251 161.857C348.309 163.087 348.625 164.292 349.178 165.392C349.732 166.493 350.51 167.464 351.464 168.244C355.388 171.641 361.843 171.76 366.752 170.758C371.662 169.756 379.289 164.405 381.922 162.519C383.621 164.473 385.32 166.426 387.018 168.414C388.071 169.773 389.193 171.03 390.178 172.474L393.151 176.636C394.951 179.354 396.82 182.14 398.502 184.841C399.691 186.709 400.795 188.51 401.899 190.311C400.099 188.476 396.48 184.96 396.157 184.688C391.419 181.296 385.894 179.168 380.104 178.504C379.577 178.09 379.008 177.731 378.406 177.434C377.332 176.832 376.143 176.462 374.916 176.349C373.69 176.236 372.454 176.382 371.288 176.777C370.121 177.173 369.051 177.809 368.147 178.645C367.243 179.482 366.525 180.498 366.039 181.63C363.304 188.527 370.71 199.654 375.824 203.867C376.129 204.121 379.697 206.449 381.973 207.876C380.512 207.247 379.085 206.602 377.573 205.973C374.583 204.682 371.543 203.493 368.298 202.202L363.474 200.503C361.877 199.891 360.076 199.45 358.378 198.906C354.419 197.751 350.343 196.749 346.232 195.848C347.353 193.215 351.175 183.838 351.09 178.861C351.005 173.884 349.527 167.632 345.297 164.558C344.328 163.799 343.21 163.252 342.015 162.954C340.821 162.655 339.577 162.611 338.364 162.824C337.152 163.037 335.998 163.502 334.977 164.19C333.956 164.878 333.091 165.773 332.438 166.817C328.701 173.221 334.323 185.35 338.74 190.277C339.012 190.599 342.579 193.776 344.567 195.492C342.087 194.965 339.623 194.422 337.092 193.98C329.805 192.672 322.381 191.585 315.009 190.447L308.214 189.376C308.622 188.459 313.412 177.4 313.31 171.845C313.225 166.902 311.747 160.617 307.517 157.542C306.548 156.783 305.43 156.237 304.235 155.938C303.041 155.639 301.797 155.595 300.584 155.808C299.372 156.021 298.218 156.487 297.197 157.175C296.176 157.863 295.311 158.757 294.658 159.801C290.921 166.206 296.544 178.335 300.943 183.278C301.283 183.635 306.413 188.221 307.738 189.325C302.761 188.527 297.818 187.627 292.959 186.658C286.413 185.303 279.962 183.527 273.645 181.341C273.831 180.917 278.894 169.45 278.741 163.708C278.656 158.765 277.178 152.48 272.948 149.405C271.979 148.646 270.86 148.1 269.666 147.801C268.472 147.502 267.228 147.458 266.015 147.671C264.803 147.884 263.648 148.35 262.627 149.038C261.606 149.726 260.741 150.62 260.089 151.664C256.351 158.069 261.974 170.198 266.391 175.141C266.731 175.515 272.269 180.441 273.322 181.256C272.965 181.137 272.574 181.035 272.201 180.9C265.923 178.532 259.868 175.61 254.109 172.168C250.915 170.316 247.96 168.346 245.123 166.392C246.278 164.337 251.493 154.926 251.918 149.796C252.342 144.666 251.595 138.465 247.739 134.932C246.857 134.071 245.804 133.404 244.649 132.976C243.493 132.548 242.26 132.367 241.03 132.446C239.801 132.524 238.601 132.86 237.509 133.432C236.417 134.003 235.458 134.798 234.692 135.764C230.276 141.727 234.54 154.45 238.379 159.784C238.583 160.09 241.046 162.825 242.863 164.881C241.589 163.98 240.264 163.063 239.075 162.163C234.574 158.765 230.666 155.486 227.184 152.497C225.248 150.798 223.515 149.184 221.918 147.689C222.02 145.09 222.258 134.592 220.355 129.887C218.453 125.181 214.851 119.983 209.789 118.641C208.608 118.283 207.364 118.179 206.14 118.334C204.915 118.489 203.737 118.901 202.683 119.542C201.628 120.183 200.72 121.04 200.019 122.055C199.317 123.071 198.838 124.223 198.611 125.436C197.422 132.757 207.105 142.049 212.949 145.056C213.458 145.311 221.884 148.454 221.901 148.335V148.182C223.413 149.66 225.044 151.223 226.861 152.904C230.259 155.962 234.098 159.411 238.549 162.859C243.291 166.644 248.255 170.144 253.413 173.34C259.169 176.952 265.234 180.044 271.538 182.581L271.759 182.666C269.602 182.496 263.52 182.276 263.061 182.31C256.453 182.819 243.985 187.661 242.252 194.863C241.998 196.068 242 197.313 242.258 198.517C242.516 199.721 243.024 200.857 243.75 201.852C244.476 202.847 245.402 203.678 246.47 204.291C247.538 204.904 248.722 205.286 249.947 205.412C255.145 205.973 260.632 202.474 264.03 198.957Z" fill="#34AD82"/>
<path d="M311.764 76.0535C311.883 76.0535 306.226 69.0037 305.819 68.613C301.096 63.9755 289.239 57.7751 282.716 61.1726C281.641 61.7743 280.705 62.5958 279.969 63.5836C279.232 64.5714 278.713 65.7033 278.443 66.9054C278.174 68.1076 278.161 69.353 278.406 70.5605C278.65 71.7679 279.146 72.9103 279.862 73.9131C282.733 78.2788 288.933 80.0625 293.876 80.3683C299.703 80.793 311.747 76.0705 311.764 76.0535Z" fill="#34AD82"/>
<path d="M403.326 757.655C597.531 757.655 754.965 751.57 754.965 744.065C754.965 736.559 597.531 730.475 403.326 730.475C209.121 730.475 51.6875 736.559 51.6875 744.065C51.6875 751.57 209.121 757.655 403.326 757.655Z" fill="#263238"/>
<path d="M652.157 400.359C662.197 402.228 673.154 395.79 679.337 385.445C684.042 377.681 685.69 370.02 687.61 361.238C689.767 351.657 764.376 4.79156 765.157 1.36011H387.29L310.371 358.791L307.246 373.214C306.597 376.215 305.448 379.086 303.848 381.707L301.572 385.495C299.166 389.477 295.716 392.724 291.596 394.885C287.476 397.045 282.843 398.036 278.2 397.751C273.557 397.466 269.08 395.915 265.256 393.266C261.431 390.618 258.405 386.973 256.504 382.727C253.371 375.712 248.299 369.738 241.886 365.507C235.474 361.276 227.986 358.964 220.304 358.842H218.894C209.955 359.01 201.324 362.138 194.353 367.736C187.381 373.333 182.462 381.085 180.367 389.776L149.161 519.254H526.977L555.652 400.342" fill="white"/>
<path d="M652.157 400.359C662.197 402.228 673.154 395.79 679.337 385.445C684.042 377.681 685.69 370.02 687.61 361.238C689.767 351.657 764.376 4.79156 765.157 1.36011H387.29L310.371 358.791L307.246 373.214C306.597 376.215 305.448 379.086 303.848 381.707L301.572 385.495C299.166 389.477 295.716 392.724 291.596 394.885C287.476 397.045 282.843 398.036 278.2 397.751C273.557 397.466 269.08 395.915 265.256 393.266C261.431 390.618 258.405 386.973 256.504 382.727C253.371 375.712 248.299 369.738 241.886 365.507C235.474 361.276 227.986 358.964 220.304 358.842H218.894C209.955 359.01 201.324 362.138 194.353 367.736C187.381 373.333 182.462 381.085 180.367 389.776L149.161 519.254H526.977L555.652 400.342" stroke="#263238" stroke-linecap="round" stroke-linejoin="round"/>
<path d="M397.024 81.3197H730.299" stroke="#263238" stroke-miterlimit="10"/>
<path d="M641.642 118.25H719.631" stroke="#263238" stroke-miterlimit="10"/>
<path d="M519.333 118.25H633.437" stroke="#263238" stroke-miterlimit="10"/>
<path d="M442.992 118.25H512.776" stroke="#263238" stroke-miterlimit="10"/>
<path d="M386.356 118.25H436.435" stroke="#263238" stroke-miterlimit="10"/>
<path d="M631.789 137.123H715.52" stroke="#263238" stroke-miterlimit="10"/>
<path d="M442.176 137.123H623.584" stroke="#263238" stroke-miterlimit="10"/>
<path d="M382.262 137.123H434.787" stroke="#263238" stroke-miterlimit="10"/>
<path d="M614.564 156.013H711.426" stroke="#263238" stroke-miterlimit="10"/>
<path d="M469.271 156.013H607.99" stroke="#263238" stroke-miterlimit="10"/>
<path d="M378.151 156.013H462.697" stroke="#263238" stroke-miterlimit="10"/>
<path d="M646.568 174.886H707.315" stroke="#263238" stroke-miterlimit="10"/>
<path d="M553.817 174.886H638.364" stroke="#263238" stroke-miterlimit="10"/>
<path d="M464.345 174.886H545.612" stroke="#263238" stroke-miterlimit="10"/>
<path d="M397.024 174.886H456.955" stroke="#263238" stroke-miterlimit="10"/>
<path d="M374.04 174.886H389.634" stroke="#263238" stroke-miterlimit="10"/>
<path d="M689.258 193.776H703.204" stroke="#263238" stroke-miterlimit="10"/>
<path d="M550.521 193.776H678.589" stroke="#263238" stroke-miterlimit="10"/>
<path d="M452.844 193.776H542.317" stroke="#263238" stroke-miterlimit="10"/>
<path d="M369.946 193.776H443.824" stroke="#263238" stroke-miterlimit="10"/>
<path d="M671.2 212.649H699.11" stroke="#263238" stroke-miterlimit="10"/>
<path d="M589.933 212.649H663.811" stroke="#263238" stroke-miterlimit="10"/>
<path d="M565.301 212.649H581.728" stroke="#263238" stroke-miterlimit="10"/>
<path d="M447.103 212.649H561.207" stroke="#263238" stroke-miterlimit="10"/>
<path d="M365.835 212.649H440.528" stroke="#263238" stroke-miterlimit="10"/>
<path d="M361.724 231.522H694.999" stroke="#263238" stroke-miterlimit="10"/>
<path d="M673.663 250.412H690.905" stroke="#263238" stroke-miterlimit="10"/>
<path d="M598.137 250.412H662.995" stroke="#263238" stroke-miterlimit="10"/>
<path d="M489.792 250.412H586.654" stroke="#263238" stroke-miterlimit="10"/>
<path d="M465.976 250.412H482.402" stroke="#263238" stroke-miterlimit="10"/>
<path d="M390.467 250.412H456.955" stroke="#263238" stroke-miterlimit="10"/>
<path d="M357.63 250.412H380.614" stroke="#263238" stroke-miterlimit="10"/>
<path d="M603.063 269.285H686.794" stroke="#263238" stroke-miterlimit="10"/>
<path d="M514.407 269.285H592.396" stroke="#263238" stroke-miterlimit="10"/>
<path d="M446.287 269.285H506.202" stroke="#263238" stroke-miterlimit="10"/>
<path d="M353.519 269.285H438.065" stroke="#263238" stroke-miterlimit="10"/>
<path d="M656.421 288.175H682.683" stroke="#263238" stroke-miterlimit="10"/>
<path d="M569.412 288.175H647.384" stroke="#263238" stroke-miterlimit="10"/>
<path d="M513.591 288.175H563.67" stroke="#263238" stroke-miterlimit="10"/>
<path d="M468.438 288.175H505.386" stroke="#263238" stroke-miterlimit="10"/>
<path d="M425.767 288.175H461.882" stroke="#263238" stroke-miterlimit="10"/>
<path d="M371.577 288.175H416.729" stroke="#263238" stroke-miterlimit="10"/>
<path d="M349.425 288.175H364.187" stroke="#263238" stroke-miterlimit="10"/>
<path d="M634.252 307.048H678.589" stroke="#263238" stroke-miterlimit="10"/>
<path d="M556.28 307.048H624.4" stroke="#263238" stroke-miterlimit="10"/>
<path d="M483.218 307.048H546.428" stroke="#263238" stroke-miterlimit="10"/>
<path d="M397.856 307.048H473.365" stroke="#263238" stroke-miterlimit="10"/>
<path d="M345.314 307.048H389.634" stroke="#263238" stroke-miterlimit="10"/>
<path d="M631.789 325.921H674.478" stroke="#263238" stroke-miterlimit="10"/>
<path d="M557.911 325.921H623.584" stroke="#263238" stroke-miterlimit="10"/>
<path d="M481.57 325.921H546.428" stroke="#263238" stroke-miterlimit="10"/>
<path d="M429.045 325.921H474.197" stroke="#263238" stroke-miterlimit="10"/>
<path d="M374.872 325.921H420.84" stroke="#263238" stroke-miterlimit="10"/>
<path d="M341.203 325.921H369.946" stroke="#263238" stroke-miterlimit="10"/>
<path d="M645.753 344.811H670.368" stroke="#263238" stroke-miterlimit="10"/>
<path d="M562.022 344.811H637.548" stroke="#263238" stroke-miterlimit="10"/>
<path d="M495.534 344.811H552.17" stroke="#263238" stroke-miterlimit="10"/>
<path d="M452.029 344.811H486.496" stroke="#263238" stroke-miterlimit="10"/>
<path d="M382.262 344.811H439.713" stroke="#263238" stroke-miterlimit="10"/>
<path d="M337.109 344.811H376.503" stroke="#263238" stroke-miterlimit="10"/>
<path d="M594.111 358.791V358.91C585.647 359.617 577.621 362.975 571.176 368.508C564.732 374.041 560.197 381.465 558.217 389.725L526.977 519.254H149.161L180.384 389.725C182.479 381.034 187.398 373.282 194.37 367.685C201.341 362.087 209.972 358.96 218.911 358.791H594.111Z" fill="white" stroke="#263238" stroke-linecap="round" stroke-linejoin="round"/>
<path d="M652.157 400.36H555.652L558.217 389.725C560.213 381.474 564.753 374.059 571.194 368.529C577.636 362.999 585.653 359.634 594.111 358.91C595.215 358.825 596.32 358.774 597.424 358.774C612.712 358.774 628.426 367.149 634.354 382.676C638.533 393.649 645.107 399.034 652.157 400.36Z" fill="#263238" stroke="#263238" stroke-linecap="round" stroke-linejoin="round"/>
<path d="M533.993 389.284C533.993 390.541 530.918 391.475 530.698 392.681C530.477 393.887 532.974 395.892 532.532 397.03C532.09 398.168 528.88 397.964 528.251 399.034C527.623 400.105 529.322 402.789 528.523 403.74C527.725 404.691 524.769 403.502 523.835 404.335C522.9 405.167 523.835 408.225 522.815 408.938C521.796 409.652 519.214 407.749 518.127 408.327C517.04 408.904 517.21 412.115 516.054 412.573C514.899 413.032 512.793 410.637 511.604 410.977C510.415 411.316 509.905 414.493 508.716 414.714C507.527 414.935 505.896 412.166 504.656 412.285C503.416 412.404 502.363 415.41 501.123 415.41C499.882 415.41 498.778 412.387 497.572 412.285C496.366 412.183 494.718 414.935 493.529 414.714C492.34 414.493 491.83 411.316 490.624 410.977C489.418 410.637 487.312 413.032 486.191 412.573C485.069 412.115 485.171 408.904 484.118 408.327C483.065 407.749 480.415 409.635 479.43 408.938C478.444 408.242 479.294 405.133 478.393 404.335C477.493 403.536 474.486 404.657 473.705 403.74C472.923 402.823 474.605 400.071 473.994 399.017C473.382 397.964 470.155 398.168 469.713 397.03C469.271 395.892 471.768 393.887 471.531 392.681C471.293 391.475 468.252 390.558 468.252 389.284C468.252 388.01 471.31 387.109 471.531 385.886C471.751 384.663 469.271 382.693 469.713 381.537C470.155 380.382 473.348 380.62 473.994 379.55C474.639 378.48 472.906 375.796 473.705 374.844C474.503 373.893 477.476 375.082 478.393 374.25C479.311 373.417 478.393 370.36 479.43 369.646C480.466 368.933 483.014 370.835 484.118 370.241C485.222 369.646 485.035 366.47 486.191 365.994C487.346 365.518 489.435 367.948 490.624 367.608C491.813 367.268 492.323 364.091 493.529 363.871C494.735 363.65 496.332 366.419 497.572 366.3C498.812 366.181 499.865 363.157 501.123 363.157C502.38 363.157 503.45 366.181 504.656 366.3C505.862 366.419 507.527 363.633 508.716 363.871C509.905 364.108 510.415 367.268 511.604 367.608C512.793 367.948 515.001 365.552 516.054 365.994C517.108 366.436 517.057 369.68 518.127 370.241C519.197 370.801 521.813 368.95 522.815 369.646C523.818 370.343 522.951 373.434 523.835 374.25C524.718 375.065 527.759 373.91 528.523 374.844C529.288 375.779 527.623 378.514 528.251 379.55C528.88 380.586 532.09 380.416 532.532 381.554C532.974 382.693 530.46 384.68 530.698 385.886C530.935 387.092 533.993 388.044 533.993 389.284Z" fill="#34AD82"/>
<path d="M501.122 408.853C514.904 408.853 526.077 400.092 526.077 389.284C526.077 378.476 514.904 369.714 501.122 369.714C487.34 369.714 476.168 378.476 476.168 389.284C476.168 400.092 487.34 408.853 501.122 408.853Z" fill="white"/>
<path d="M501.122 405.133C512.277 405.133 521.32 398.037 521.32 389.284C521.32 380.53 512.277 373.434 501.122 373.434C489.967 373.434 480.924 380.53 480.924 389.284C480.924 398.037 489.967 405.133 501.122 405.133Z" fill="#34AD82"/>
<path d="M515.341 484.651H351.277" stroke="#263238" stroke-linecap="round" stroke-linejoin="round"/>
<path d="M299.092 484.651H181.539" stroke="#263238" stroke-linecap="round" stroke-linejoin="round"/>
<path d="M386.865 481.185C386.865 481.185 417.833 446.888 426.667 413.236C435.5 379.584 413.773 397.828 405.093 435.15C396.412 472.471 396.412 482.035 405.093 475.087C412.057 469.11 418.066 462.104 422.912 454.311C424.136 452.375 425.155 450.574 425.936 449.045C429.334 442.097 418.122 446.446 415.506 460.325C412.89 474.204 428.535 454.26 432.867 447.313C437.199 440.365 445.896 436.899 438.949 455.127C432.001 473.354 421.587 469.872 431.134 457.726C440.681 445.58 451.111 420.354 451.978 434.283C452.844 448.213 449.362 463.773 442.397 468.156C435.432 472.539 455.409 448.196 461.491 449.929C467.572 451.661 470.171 458.609 464.09 463.824C458.008 469.039 458.008 451.661 504.027 453.394" stroke="#263238" stroke-linecap="round" stroke-linejoin="round"/>
<path d="M496.519 433.281L522 453.666C522.278 453.894 522.47 454.21 522.544 454.561C522.618 454.913 522.57 455.28 522.407 455.6C522.245 455.921 521.978 456.177 521.651 456.325C521.324 456.474 520.955 456.507 520.607 456.418L488.331 448.043L496.519 433.281Z" fill="white" stroke="#263238" stroke-linecap="round" stroke-linejoin="round"/>
<path d="M492.391 425.348L343.513 337.2L326.883 365.501L481.026 448.994C481.407 449.261 481.817 449.484 482.249 449.657C487.346 451.797 493.784 448.094 496.587 441.367C499.39 434.64 497.504 427.471 492.391 425.348Z" fill="#8C8C8C" stroke="#263238" stroke-linecap="round" stroke-linejoin="round"/>
<path d="M347.438 355.258C343.089 365.671 333.134 371.43 325.201 368.117C324.44 367.792 323.712 367.394 323.027 366.928L170.429 281.89L157.995 274.942L156.466 274.109L156.857 273.175L174.354 231.284L175.101 229.585L177.122 230.809L194.552 241.426L340.949 330.473C348.967 333.718 351.787 344.862 347.438 355.258Z" fill="white" stroke="#263238" stroke-linecap="round" stroke-linejoin="round"/>
<path d="M339.488 329.573L194.552 241.409L177.122 230.791L175.101 229.568L174.354 231.267L156.857 273.158L156.466 274.092L157.995 274.925L170.429 281.872L319.528 364.958C327.478 367.319 336.923 361.56 341.17 351.368C344.567 343.163 343.667 334.669 339.488 329.573Z" fill="#8C8C8C" stroke="#263238" stroke-linecap="round" stroke-linejoin="round"/>
<path d="M170.429 281.889C179.484 282.263 189.116 275.23 193.838 264.019C197.063 256.851 197.319 248.697 194.551 241.341L177.122 230.724C176.187 230.843 175.262 231.031 174.354 231.284C167.168 233.306 160.305 239.574 156.602 248.458C152.898 257.343 153.204 266.652 156.857 273.175C157.195 273.768 157.575 274.335 157.995 274.874" fill="white"/>
<path d="M170.429 281.889C179.484 282.263 189.116 275.23 193.838 264.019C197.063 256.851 197.319 248.697 194.551 241.341L177.122 230.724C176.187 230.843 175.262 231.031 174.354 231.284C167.168 233.306 160.305 239.574 156.602 248.458C152.898 257.343 153.204 266.652 156.857 273.175C157.195 273.768 157.575 274.335 157.995 274.874" stroke="#263238" stroke-linecap="round" stroke-linejoin="round"/>
<path d="M184.019 256.222L297.223 329.896C297.91 330.358 298.405 331.054 298.614 331.855C298.824 332.656 298.734 333.505 298.361 334.245C298.145 334.642 297.852 334.992 297.498 335.274C297.145 335.557 296.739 335.766 296.304 335.889C295.869 336.013 295.413 336.048 294.965 335.993C294.516 335.938 294.082 335.794 293.69 335.57L177.241 266.72L184.019 256.222Z" fill="white" stroke="#263238" stroke-linecap="round" stroke-linejoin="round"/>
<path d="M182.779 258.906C177.683 271.221 165.792 278.033 156.466 274.109C147.14 270.185 143.657 257.02 148.787 244.636C153.918 232.252 165.775 225.508 175.101 229.432C184.427 233.357 187.926 246.59 182.779 258.906Z" fill="#8C8C8C" stroke="#263238" stroke-linecap="round" stroke-linejoin="round"/>
<path d="M179.093 257.377C175.067 267.026 165.826 272.377 158.47 269.268C151.115 266.159 125.821 241.969 129.83 232.32C133.839 222.672 165.707 231.233 173.063 234.308C180.418 237.383 183.153 247.711 179.093 257.377Z" fill="white" stroke="#263238" stroke-linecap="round" stroke-linejoin="round"/>
<path d="M417.477 417.534L426.667 413.253C428.759 413.159 430.817 413.809 432.476 415.087C435.228 417.228 440.426 420.591 440.426 420.591C440.426 420.591 450.823 421.203 451.129 422.732C451.434 424.261 445.013 426.129 444.096 426.129H437.301C437.301 426.129 446.78 431.039 447.697 431.65C448.614 432.262 461.78 436.237 459.945 437.46C458.11 438.683 445.862 438.377 443.111 438.989C440.379 439.409 437.618 439.613 434.855 439.6L424.458 430.121L417.103 422.154C417.103 422.154 414.725 419.368 417.477 417.534Z" fill="white" stroke="#263238" stroke-linecap="round" stroke-linejoin="round"/>
<path d="M186.805 307.71C186.805 307.71 186.194 299.437 186.194 295.462C186.194 291.487 184.053 283.843 183.136 283.232C182.219 282.62 172.74 278.951 169.988 276.437C167.236 273.922 163.855 277.354 165.078 279.494C166.301 281.635 173.351 285.61 173.351 285.61L171.517 288.362L164.722 282.552C164.722 282.552 157.689 271.544 155.854 272.462C154.02 273.379 154.631 274.908 155.854 277.048C157.077 279.189 156.466 292.948 159.829 295.734C163.193 298.52 173.3 301.867 173.3 301.867L174.218 309.511C174.218 309.511 183.696 310.123 184.92 310.428C186.143 310.734 186.805 307.71 186.805 307.71Z" fill="white" stroke="#263238" stroke-linecap="round" stroke-linejoin="round"/>
<path d="M166.607 319.381L167.83 311.125C167.83 311.125 167.524 308.373 174.625 307.15C178.694 306.393 182.883 306.603 186.856 307.761C187.291 307.932 187.666 308.225 187.938 308.605C188.209 308.985 188.364 309.435 188.385 309.902C188.33 312.878 188.023 315.845 187.467 318.769C187.467 318.769 176.409 314.437 166.607 319.381Z" fill="white" stroke="#263238" stroke-linecap="round" stroke-linejoin="round"/>
<path d="M289.324 725.379V747.462C289.324 747.462 294.42 750.027 309.284 750.027C322.591 749.733 335.747 747.135 348.168 742.349C355.32 739.291 357.885 732.632 355.32 731.613C352.755 730.594 340.031 730.067 337.415 728.029C334.799 725.99 324.114 719.331 324.114 719.331C324.114 719.331 298.531 726.925 289.324 725.379Z" fill="#34AD82" stroke="#263238" stroke-linecap="round" stroke-linejoin="round"/>
<path d="M356.254 733.55C345.509 738.59 334.048 741.936 322.28 743.47C304.613 745.747 293.724 743.793 289.29 742.638V747.462C289.29 747.462 294.386 750.027 309.25 750.027C322.558 749.733 335.714 747.135 348.134 742.349C353.298 740.073 356.05 736.03 356.254 733.55Z" fill="white" stroke="#263238" stroke-linecap="round" stroke-linejoin="round"/>
<path d="M297.002 514.107L299.567 521.275C299.567 521.275 310.303 541.66 317.982 556.575C325.66 571.49 333.831 603.121 336.396 606.195C338.961 609.27 338.435 613.347 336.906 617.951C335.377 622.554 323.095 702.887 323.095 704.926C323.095 706.964 322.076 706.964 323.605 709.53C325.133 712.095 325.66 720.266 325.66 720.266C322.292 723.524 318.005 725.67 313.378 726.415C305.19 727.944 289.324 727.944 289.324 727.944C289.324 727.944 287.286 718.227 287.795 716.698C288.305 715.169 289.851 705.436 289.851 705.436C289.851 705.436 294.947 680.362 293.928 667.588C292.908 654.813 295.473 626.139 296.493 623.081C297.201 619.73 297.542 616.313 297.512 612.888L294.454 607.266V603.07C294.454 603.07 269.891 577.996 260.174 568.28C250.457 558.563 240.74 546.791 240.74 546.791C240.74 546.791 229.478 596.937 226.403 607.673C223.328 618.409 221.799 622.962 219.761 626.088C217.722 629.213 196.743 656.784 189.065 668.046C181.386 679.309 169.631 699.252 169.631 699.252C169.6 702.16 169.771 705.066 170.141 707.95C170.65 709.988 165.044 717.666 165.044 717.666L162.989 719.705C162.989 719.705 150.707 707.423 146.104 706.404C141.5 705.385 131.783 706.913 131.783 706.913C131.783 706.913 137.933 690.045 139.461 686.529C140.99 683.012 155.311 646.625 159.405 639.457C163.499 632.288 166.573 617.968 173.742 612.277C180.911 606.586 189.031 599.995 189.031 599.995L188.011 542.714L186.992 526.847C185.988 522.83 185.469 518.707 185.446 514.565V504.373C185.446 504.373 232.009 515.109 255.095 514.09C278.18 513.071 291.923 506.938 291.923 506.938L297.002 514.107Z" fill="#263238" stroke="#263238" stroke-linecap="round" stroke-linejoin="round"/>
<path d="M309.794 354.205C309.794 354.205 283.174 342.585 269.109 342.585C255.043 342.585 247.382 342.891 232.382 343.503C217.382 344.114 208.6 348.701 208.6 348.701L186.516 356.039L188.334 315.983C183.857 314.749 179.176 314.437 174.574 315.066C170.684 315.789 167.12 317.714 164.382 320.57C164.382 320.57 156.126 375.031 156.432 379.924C156.737 384.816 163.227 385.733 163.227 385.733L213.101 384.816L209.432 440.501L172.06 505.358C172.06 505.358 172.366 515.449 202.96 525.556C233.554 535.664 271.181 532.351 282.801 529.226C294.42 526.1 313.021 512.408 314.55 510.268C316.079 508.127 314.55 497.102 314.55 492.516C314.55 487.929 306.906 444.476 308.129 442.335C309.352 440.195 316.079 411.435 316.079 411.435C316.079 411.435 378.185 451.814 381.854 451.203C385.523 450.591 422.845 432.245 423.779 431.633C424.713 431.022 427.176 427.658 423.473 422.137C422.109 420.234 420.33 418.666 418.269 417.553C416.209 416.441 413.922 415.812 411.582 415.716C409.747 415.716 384.657 417.856 384.657 417.856C384.657 417.856 353.23 389.997 352.364 388.468C351.498 386.939 346.554 374.097 344.414 370.733C342.273 367.37 309.794 354.205 309.794 354.205Z" fill="#34AD82" stroke="#263238" stroke-linecap="round" stroke-linejoin="round"/>
<path d="M384.742 417.907C384.742 417.907 394.799 423.632 396.803 427.148L384.742 417.907Z" fill="#34AD82"/>
<path d="M384.742 417.907C384.742 417.907 394.799 423.632 396.803 427.148" stroke="#263238" stroke-linecap="round" stroke-linejoin="round"/>
<path d="M344.363 370.733C344.363 370.733 335.173 371.464 325.677 381.486L344.363 370.733Z" fill="#34AD82"/>
<path d="M344.363 370.733C344.363 370.733 335.173 371.464 325.677 381.486" stroke="#263238" stroke-linecap="round" stroke-linejoin="round"/>
<path d="M323.655 374.98C320.882 376.531 318.496 378.689 316.675 381.292C314.854 383.896 313.646 386.877 313.14 390.014" fill="#34AD82"/>
<path d="M323.655 374.98C320.882 376.531 318.496 378.689 316.675 381.292C314.854 383.896 313.646 386.877 313.14 390.014" stroke="#263238" stroke-linecap="round" stroke-linejoin="round"/>
<path d="M213.118 384.799L212.201 361.849L213.118 384.799Z" stroke="#263238" stroke-linecap="round" stroke-linejoin="round"/>
<path d="M301.725 421.254L316.215 411.418L292.653 418.757" stroke="#263238" stroke-linecap="round" stroke-linejoin="round"/>
<path d="M291.43 428.253L296.441 424.855" stroke="#263238" stroke-linecap="round" stroke-linejoin="round"/>
<path d="M290.003 357.687C284.346 359.712 279.124 362.79 274.613 366.758C262.722 377.46 256.25 376.543 256.25 376.543" stroke="#263238" stroke-linecap="round" stroke-linejoin="round"/>
<path d="M301.843 354.816C300.024 355.006 298.219 355.318 296.441 355.751" stroke="#263238" stroke-linecap="round" stroke-linejoin="round"/>
<path d="M272.778 362.461C272.778 362.461 262.976 371.651 252.58 375.932" stroke="#263238" stroke-linecap="round" stroke-linejoin="round"/>
<path d="M165.027 361.577C164.025 362.783 163.43 364.276 163.329 365.841" stroke="#263238" stroke-linecap="round" stroke-linejoin="round"/>
<path d="M186.5 356.039L182.219 356.345C182.219 356.345 176.715 353.899 173.963 354.205C172.03 354.832 170.281 355.923 168.867 357.381" stroke="#263238" stroke-linecap="round" stroke-linejoin="round"/>
<path d="M167.83 354.816C167.83 354.816 162.326 356.957 161.409 361.849" stroke="#263238" stroke-linecap="round" stroke-linejoin="round"/>
<path d="M308.197 442.318C308.197 442.318 303.865 471.706 301.929 480.778C299.992 489.849 297.393 512.187 297.393 512.187C300.633 510.955 304 510.089 307.433 509.605C312.529 508.96 314.55 510.251 314.55 510.251C314.55 510.251 318.44 500.857 314.55 484.651C310.66 468.445 308.197 442.318 308.197 442.318Z" fill="#34AD82" stroke="#263238" stroke-linecap="round" stroke-linejoin="round"/>
<path d="M162.972 719.756C162.972 719.756 165.028 729.473 167.066 730.509C169.104 731.545 178.838 733.567 179.858 736.132C180.877 738.697 170.65 743.283 163.991 744.32C157.332 745.356 145.577 742.774 144.048 741.755C142.519 740.735 138.952 735.622 134.331 734.076C129.711 732.53 124.139 730.509 125.124 724.359C126.109 718.21 131.766 706.964 131.766 706.964C138.631 704.863 145.991 705.042 152.746 707.474C163.991 711.568 162.972 719.756 162.972 719.756Z" fill="#34AD82" stroke="#263238" stroke-linecap="round" stroke-linejoin="round"/>
<path d="M163.991 744.32C170.65 743.283 180.877 738.68 179.857 736.132C179.75 735.897 179.6 735.684 179.416 735.503C174.438 737.202 168.323 738.136 162.7 735.028C155.803 731.188 153.493 722.746 144.286 719.739C138.935 717.955 131.766 718.261 126.704 718.805C126.02 720.631 125.492 722.512 125.124 724.428C124.088 730.577 129.728 732.615 134.331 734.144C138.935 735.673 142.519 740.803 144.048 741.823C145.577 742.842 157.349 745.339 163.991 744.32Z" fill="white" stroke="#263238" stroke-linecap="round" stroke-linejoin="round"/>
<path d="M160.933 740.667C155.293 738.102 150.18 731.46 141.992 726.347C134.518 721.659 126.704 726.806 125.328 727.723C126.5 731.29 130.713 732.819 134.331 734.008C138.935 735.554 142.519 740.667 144.048 741.687C145.577 742.706 157.349 745.271 163.991 744.252C165.345 744.028 166.684 743.722 168 743.334C165.596 742.58 163.236 741.69 160.933 740.667Z" fill="#263238" stroke="#263238" stroke-linecap="round" stroke-linejoin="round"/>
<path d="M314.992 345.949L305.819 352.37C305.819 352.37 293.927 344.42 285.621 342.891C277.314 341.362 273.084 341.057 273.084 341.057L279.505 329.726C284.201 326.343 287.813 321.669 289.901 316.272C292.653 308.016 295.405 304.653 301.538 307.778C307.67 310.904 310.032 323.067 310.032 330.711C310.032 338.356 314.992 345.949 314.992 345.949Z" fill="white" stroke="#263238" stroke-linecap="round" stroke-linejoin="round"/>
<path d="M320.19 289.653C320.19 289.653 325.388 297.297 325.999 300.066C326.611 302.835 323.859 308.322 323.859 308.322C323.859 308.322 329.992 317.189 330.297 319.33C330.603 321.47 326.611 325.445 326.611 325.445C326.611 325.445 327.528 334.33 328.768 336.47C330.008 338.61 331.215 341.668 329.686 344.42C328.157 347.172 325.999 349.007 319.493 349.924C312.987 350.841 307.874 347.784 306.651 341.43C305.428 335.077 305.428 321.232 304.51 319.347C303.593 317.461 299.312 313.231 297.172 316.595C295.031 319.958 296.56 323.39 298.089 326.379C299.026 328.224 300.525 329.724 302.37 330.66L295.575 334.058C291.511 335.815 286.946 336.032 282.733 334.669C281.23 334.099 279.856 333.236 278.69 332.131C277.524 331.026 276.588 329.7 275.938 328.231C275.632 327.314 272.54 319.737 271.657 318.141C270.774 316.544 264.301 307.439 263.996 296.72C263.69 286 276.549 273.787 293.061 270.423C309.573 267.06 317.234 274.398 320.903 274.704C324.573 275.01 320.903 271.646 323.961 273.787C327.019 275.927 327.834 287.818 320.19 289.653Z" fill="white" stroke="#263238" stroke-linecap="round" stroke-linejoin="round"/>
<path d="M326.611 325.445C326.611 325.445 326.951 325.105 327.426 324.579C326.186 324.749 322.466 325.258 320.19 325.751C317.438 326.362 316.215 334.635 313.769 332.546C311.322 330.456 310.099 312.348 309.488 311.431C308.876 310.513 311.594 307.489 311.594 307.489C311.594 307.489 315.875 301.68 315.875 299.217C315.875 296.753 311.594 294.019 313.123 293.407C314.652 292.795 320.156 289.738 320.156 289.738C327.8 287.903 327.189 275.978 324.131 273.838C321.073 271.697 324.742 275.061 321.073 274.755C317.404 274.449 309.76 267.094 293.231 270.474C276.702 273.855 263.86 286.068 264.166 296.77C264.471 307.472 270.96 316.663 271.827 318.192C272.693 319.72 275.802 327.365 276.108 328.282C276.758 329.751 277.694 331.077 278.86 332.182C280.026 333.287 281.4 334.15 282.903 334.72C287.116 336.083 291.681 335.866 295.745 334.109L302.54 330.711C300.695 329.775 299.196 328.275 298.259 326.43C296.73 323.373 295.184 320.009 297.342 316.646C299.499 313.282 303.763 317.563 304.68 319.398C305.598 321.232 305.598 335.009 306.821 341.481C308.044 347.953 313.242 350.96 319.663 349.975C326.084 348.99 328.157 347.223 329.856 344.471C331.554 341.719 330.161 338.661 328.938 336.521C327.715 334.38 326.611 325.445 326.611 325.445Z" fill="#263238" stroke="#263238" stroke-linecap="round" stroke-linejoin="round"/>
<path d="M325.082 302.818C324.257 302.812 323.447 303.038 322.744 303.471C322.041 303.903 321.474 304.525 321.107 305.264" stroke="#263238" stroke-linecap="round" stroke-linejoin="round"/>
<path d="M322.636 313.214C323.312 313.214 323.859 311.708 323.859 309.851C323.859 307.993 323.312 306.487 322.636 306.487C321.961 306.487 321.413 307.993 321.413 309.851C321.413 311.708 321.961 313.214 322.636 313.214Z" fill="#263238"/>
<path d="M327.223 333.106C327.223 333.106 322.025 334.941 319.884 331.255" stroke="white" stroke-linecap="round" stroke-linejoin="round"/>
<path d="M269.126 342.585C283.191 342.585 309.811 354.205 309.811 354.205L310.83 354.629C310.558 353.254 309.977 351.959 309.131 350.841C308.214 350.23 303.321 343.197 294.131 339.528C288.113 337.038 281.685 335.69 275.173 335.553C273.016 335.553 266.85 341.226 265.389 342.585H269.126Z" fill="#34AD82" stroke="#263238" stroke-linecap="round" stroke-linejoin="round"/>
<path d="M566.632 12.8614C564.887 12.8083 563.189 13.4241 561.914 14.5733C560.638 15.7225 559.889 17.3111 559.831 18.9897C559.772 20.6682 560.409 22.2994 561.602 23.5245C562.795 24.7495 564.445 25.4682 566.191 25.5224C567.937 25.5767 569.634 24.9623 570.911 23.8142C572.187 22.666 572.938 21.0782 572.998 19.3998L572.998 19.3879C573.055 17.7095 572.416 16.079 571.222 14.8551C570.029 13.6312 568.378 12.9141 566.632 12.8614ZM544.39 26.7958C543.233 26.7655 542.054 26.7903 540.942 27.0223C540.208 27.1765 539.494 27.4459 539.021 27.8843C538.427 28.4334 538.326 29.201 538.583 29.8669C538.812 30.4548 539.469 30.9099 540.209 31.1822C541.802 31.764 543.588 31.9334 545.271 32.3207C545.581 32.4045 545.923 32.4965 546.109 32.7076C546.301 32.9578 546.171 33.2902 545.836 33.4331C545.276 33.685 544.572 33.6644 543.932 33.6353C543.347 33.593 542.706 33.5258 542.25 33.229C541.916 33.0156 541.868 32.6688 541.955 32.3749L538.179 32.2555C538.149 32.8081 538.24 33.3893 538.644 33.8769C538.982 34.2932 539.54 34.5973 540.145 34.7882C541.113 35.0956 542.169 35.2125 543.21 35.2709C544.623 35.3387 546.066 35.3438 547.435 35.0785C548.252 34.9142 549.058 34.6327 549.595 34.1517C550.546 33.2926 550.38 31.8786 549.181 31.1495C548.584 30.7886 547.862 30.5542 547.123 30.394C546.043 30.1427 544.941 29.9487 543.845 29.739C543.46 29.6545 543.053 29.5772 542.734 29.3913C542.4 29.2049 542.387 28.7893 542.741 28.62C543.198 28.3902 543.795 28.4107 544.332 28.4277C544.898 28.4552 545.513 28.5088 545.969 28.7786C546.08 28.841 546.17 28.9311 546.231 29.0392C546.292 29.1473 546.322 29.2694 546.316 29.3925L549.907 29.4981C549.908 29.0607 549.841 28.6028 549.522 28.2149C549.153 27.7379 548.485 27.4232 547.793 27.2295C546.707 26.9287 545.539 26.8369 544.39 26.7958ZM552.169 27.3028L551.872 35.5513L562.341 35.8825L562.406 34.0845L555.776 33.8748L555.834 32.2739L561.746 32.4609L561.809 30.7026L555.897 30.5156L555.943 29.2031L562.334 29.4036L562.393 27.6262L552.169 27.3028ZM569.418 27.8516L564.566 27.6989L564.27 35.9475L567.945 36.0637L568.142 30.5132L572.978 36.219L578.023 36.3833L578.317 28.1339L574.638 28.0183L574.445 33.5292L569.418 27.8516ZM584.871 28.354C584.871 28.354 580.712 33.7314 578.623 36.4158L582.481 36.5379L583.46 35.079L589.421 35.2676L590.231 36.7839L594.517 36.9186L589.133 28.4904L584.871 28.354ZM586.729 30.3838L588.451 33.4298L584.669 33.3157L586.729 30.3838ZM534.969 37.3527L534.842 41.8428L552.295 42.336C553.178 42.5477 553.675 43.1218 553.448 44.3817L542.067 62.1085L545.451 65.3614L563.065 38.2407L534.969 37.3527ZM568.268 38.4443L583.629 66.4904L587.353 63.4822L577.141 45.1201C577.005 43.8439 577.542 43.2969 578.439 43.1408L595.891 43.7525L596.044 39.3365L568.268 38.4443ZM565.346 42.9119L549.109 67.729L553.113 69.7654L563.938 53.4647C564.301 53.1985 564.663 53.0628 565.02 53.0598C565.397 53.0582 565.773 53.2038 566.145 53.5026L575.753 70.5007L580.028 68.5265L565.346 42.9119Z" fill="#34AD82"/>
</svg>
