<svg width="981" height="957" viewBox="0 0 981 957" fill="none" xmlns="http://www.w3.org/2000/svg">
<path d="M493.6 0.000158605C435.3 0.100159 388 47.4002 388.1 105.8C388.2 164.1 435.5 211.4 493.8 211.4C552.1 211.4 599.4 164.1 599.4 105.7V105.5C599.3 47.1002 552 -0.0998414 493.6 0.000158605ZM145 244.1C126.4 244.2 107.5 245.2 89.8 249.7C78.1 252.7 66.8 257.5 59.5 265.1C50.3 274.6 49.1 287.4 53.6 298.4C57.6 308.1 68.4 315.3 80.4 319.5C106.3 328.4 135 330.2 162.2 335.8C167.2 337 172.8 338.4 175.9 341.8C179.1 345.9 177.2 351.5 171.9 354C163.1 358.5 151.8 358.5 141.5 358.4C132.1 358 121.8 357.2 114.3 352.5C108.8 349.1 107.8 343.4 109.1 338.4H48.5C48.3 347.6 50.1 357.3 56.9 365.2C62.5 372 71.7 376.7 81.5 379.6C97.2 384.2 114.2 385.6 130.9 386C153.6 386.4 176.7 385.7 198.5 380.6C211.5 377.4 224.3 372.3 232.6 364C247.4 349.2 243.9 325.7 224.3 314.2C214.5 308.5 202.8 305 190.9 302.7C173.4 299.1 155.6 296.4 138 293.5C131.8 292.3 125.2 291.2 120 288.3C114.5 285.4 114.1 278.5 119.7 275.4C126.9 271.3 136.5 271.4 145.1 271.4C154.2 271.6 164.1 272.1 171.6 276.4C175.8 278.7 177.5 282.7 177.5 286.5L235.1 286.4C234.9 279.1 233.5 271.5 228.2 265.2C222 257.4 211.1 252.5 199.9 249.7C182.2 245.1 163.5 244.2 145 244.1ZM270 248.4V386.1H438.1V356.1H331.7V329.4H426.6V300.1H331.7V278.2H434.3L434.2 248.5L270 248.4ZM546.9 248.5C546.9 248.5 495 248.5 469 248.5V386.2H528V293.5L608.8 386.1L689.8 386.2V248.5H630.7L630.8 340.5L546.9 248.5ZM795 248.7C795 248.7 731.4 340.6 699.4 386.4H761.3L776.2 361.6H871.9L885.8 386.5H954.6L863.4 248.7H795ZM826 281.6L855.4 331.5L794.7 331.6L826 281.6ZM0 425.1L0.5 500.1L280.6 499.1C294.9 502.2 303.2 511.5 300.3 532.6L128 834.2L184.1 886.7L451 425.1H0ZM534.6 425.7L797 885.3L855 833.2L680.7 532.4C677.8 511.2 686.1 501.8 700.4 498.7L980.6 499.7L980.5 426L534.6 425.7ZM490.3 501.8L244.2 924.2L309.6 956.1L473.8 678.5C479.5 673.9 485.2 671.4 490.9 671.2C496.9 671 503.1 673.2 509.2 678L673 956.4L740.4 921.2L490.3 501.8Z" fill="#00AF00"/>
</svg>
